<svg xmlns="http://www.w3.org/2000/svg" xmlns:xlink="http://www.w3.org/1999/xlink" contentStyleType="text/css" data-diagram-type="CLASS" height="1311px" preserveAspectRatio="none" style="width:882px;height:1311px;background:#FFFFFF;" version="1.1" viewBox="0 0 882 1311" width="882px" zoomAndPan="magnify"><defs/><g><!--cluster Phpolar--><g id="cluster_Phpolar"><path d="M16.5,4 L78.5176,4 A3.75,3.75 0 0 1 81.0176,6.5 L88.0176,26.2969 L872.5,26.2969 A2.5,2.5 0 0 1 875,28.7969 L875,1090.5 A2.5,2.5 0 0 1 872.5,1093 L16.5,1093 A2.5,2.5 0 0 1 14,1090.5 L14,6.5 A2.5,2.5 0 0 1 16.5,4 " fill="transparent" style="stroke:#000000;stroke-width:1.5;"/><line style="stroke:#000000;stroke-width:1.5;" x1="14" x2="88.0176" y1="26.2969" y2="26.2969"/><text fill="#000000" font-family="sans-serif" font-size="14" font-weight="bold" lengthAdjust="spacing" textLength="61.0176" x="18" y="18.9951">Phpolar</text></g><!--cluster Phpolar--><g id="cluster_Phpolar"><path d="M334.5,31 L396.5176,31 A3.75,3.75 0 0 1 399.0176,33.5 L406.0176,53.2969 L864.5,53.2969 A2.5,2.5 0 0 1 867,55.7969 L867,1082.5 A2.5,2.5 0 0 1 864.5,1085 L334.5,1085 A2.5,2.5 0 0 1 332,1082.5 L332,33.5 A2.5,2.5 0 0 1 334.5,31 " fill="transparent" style="stroke:#000000;stroke-width:1.5;"/><line style="stroke:#000000;stroke-width:1.5;" x1="332" x2="406.0176" y1="53.2969" y2="53.2969"/><text fill="#000000" font-family="sans-serif" font-size="14" font-weight="bold" lengthAdjust="spacing" textLength="61.0176" x="336" y="45.9951">Phpolar</text></g><!--cluster Auth--><g id="cluster_Auth"><path d="M366.5,58 L404.9609,58 A3.75,3.75 0 0 1 407.4609,60.5 L414.4609,80.2969 L600.5,80.2969 A2.5,2.5 0 0 1 603,82.7969 L603,272.5 A2.5,2.5 0 0 1 600.5,275 L366.5,275 A2.5,2.5 0 0 1 364,272.5 L364,60.5 A2.5,2.5 0 0 1 366.5,58 " fill="transparent" style="stroke:#000000;stroke-width:1.5;"/><line style="stroke:#000000;stroke-width:1.5;" x1="364" x2="414.4609" y1="80.2969" y2="80.2969"/><text fill="#000000" font-family="sans-serif" font-size="14" font-weight="bold" lengthAdjust="spacing" textLength="37.4609" x="368" y="72.9951">Auth</text></g><!--cluster DependencyInjection--><g id="cluster_DependencyInjection"><path d="M403.5,283 L570.8525,283 A3.75,3.75 0 0 1 573.3525,285.5 L580.3525,305.2969 L794,305.2969 A2.5,2.5 0 0 1 796.5,307.7969 L796.5,397.5 A2.5,2.5 0 0 1 794,400 L403.5,400 A2.5,2.5 0 0 1 401,397.5 L401,285.5 A2.5,2.5 0 0 1 403.5,283 " fill="transparent" style="stroke:#000000;stroke-width:1.5;"/><line style="stroke:#000000;stroke-width:1.5;" x1="401" x2="580.3525" y1="305.2969" y2="305.2969"/><text fill="#000000" font-family="sans-serif" font-size="14" font-weight="bold" lengthAdjust="spacing" textLength="166.3525" x="405" y="297.9951">DependencyInjection</text></g><!--cluster Http--><g id="cluster_Http"><path d="M342.5,408 L378.623,408 A3.75,3.75 0 0 1 381.123,410.5 L388.123,430.2969 L856.5,430.2969 A2.5,2.5 0 0 1 859,432.7969 L859,1032.5 A2.5,2.5 0 0 1 856.5,1035 L342.5,1035 A2.5,2.5 0 0 1 340,1032.5 L340,410.5 A2.5,2.5 0 0 1 342.5,408 " fill="transparent" style="stroke:#000000;stroke-width:1.5;"/><line style="stroke:#000000;stroke-width:1.5;" x1="340" x2="388.123" y1="430.2969" y2="430.2969"/><text fill="#000000" font-family="sans-serif" font-size="14" font-weight="bold" lengthAdjust="spacing" textLength="35.123" x="344" y="422.9951">Http</text></g><!--cluster Status--><g id="cluster_Status"><path d="M411.5,435 L463.7148,435 A3.75,3.75 0 0 1 466.2148,437.5 L473.2148,457.2969 L829.5,457.2969 A2.5,2.5 0 0 1 832,459.7969 L832,584.5 A2.5,2.5 0 0 1 829.5,587 L411.5,587 A2.5,2.5 0 0 1 409,584.5 L409,437.5 A2.5,2.5 0 0 1 411.5,435 " fill="transparent" style="stroke:#000000;stroke-width:1.5;"/><line style="stroke:#000000;stroke-width:1.5;" x1="409" x2="473.2148" y1="457.2969" y2="457.2969"/><text fill="#000000" font-family="sans-serif" font-size="14" font-weight="bold" lengthAdjust="spacing" textLength="51.2148" x="413" y="449.9951">Status</text></g><!--cluster ClientError--><g id="cluster_ClientError"><path d="M419.5,462 L506.4209,462 A3.75,3.75 0 0 1 508.9209,464.5 L515.9209,484.2969 L821.5,484.2969 A2.5,2.5 0 0 1 824,486.7969 L824,576.5 A2.5,2.5 0 0 1 821.5,579 L419.5,579 A2.5,2.5 0 0 1 417,576.5 L417,464.5 A2.5,2.5 0 0 1 419.5,462 " fill="transparent" style="stroke:#000000;stroke-width:1.5;"/><line style="stroke:#000000;stroke-width:1.5;" x1="417" x2="515.9209" y1="484.2969" y2="484.2969"/><text fill="#000000" font-family="sans-serif" font-size="14" font-weight="bold" lengthAdjust="spacing" textLength="85.9209" x="421" y="476.9951">ClientError</text></g><!--cluster HttpRequestProcessor--><g id="cluster_HttpRequestProcessor"><path d="M24.5,96 L203.1729,96 A3.75,3.75 0 0 1 205.6729,98.5 L212.6729,118.2969 L317.5,118.2969 A2.5,2.5 0 0 1 320,120.7969 L320,284.5 A2.5,2.5 0 0 1 317.5,287 L24.5,287 A2.5,2.5 0 0 1 22,284.5 L22,98.5 A2.5,2.5 0 0 1 24.5,96 " fill="transparent" style="stroke:#000000;stroke-width:1.5;"/><line style="stroke:#000000;stroke-width:1.5;" x1="22" x2="212.6729" y1="118.2969" y2="118.2969"/><text fill="#000000" font-family="sans-serif" font-size="14" font-weight="bold" lengthAdjust="spacing" textLength="177.6729" x="26" y="110.9951">HttpRequestProcessor</text></g><!--cluster Psr--><g id="cluster_Psr"><path d="M46,1101 L72.498,1101 A3.75,3.75 0 0 1 74.998,1103.5 L81.998,1123.2969 L296,1123.2969 A2.5,2.5 0 0 1 298.5,1125.7969 L298.5,1301.5 A2.5,2.5 0 0 1 296,1304 L46,1304 A2.5,2.5 0 0 1 43.5,1301.5 L43.5,1103.5 A2.5,2.5 0 0 1 46,1101 " fill="transparent" style="stroke:#000000;stroke-width:1.5;"/><line style="stroke:#000000;stroke-width:1.5;" x1="43.5" x2="81.998" y1="1123.2969" y2="1123.2969"/><text fill="#000000" font-family="sans-serif" font-size="14" font-weight="bold" lengthAdjust="spacing" textLength="25.498" x="47.5" y="1115.9951">Psr</text></g><!--cluster Http--><g id="cluster_Http"><path d="M54,1128 L90.123,1128 A3.75,3.75 0 0 1 92.623,1130.5 L99.623,1150.2969 L288,1150.2969 A2.5,2.5 0 0 1 290.5,1152.7969 L290.5,1293.5 A2.5,2.5 0 0 1 288,1296 L54,1296 A2.5,2.5 0 0 1 51.5,1293.5 L51.5,1130.5 A2.5,2.5 0 0 1 54,1128 " fill="transparent" style="stroke:#000000;stroke-width:1.5;"/><line style="stroke:#000000;stroke-width:1.5;" x1="51.5" x2="99.623" y1="1150.2969" y2="1150.2969"/><text fill="#000000" font-family="sans-serif" font-size="14" font-weight="bold" lengthAdjust="spacing" textLength="35.123" x="55.5" y="1142.9951">Http</text></g><!--cluster Server--><g id="cluster_Server"><path d="M62,1155 L115.0078,1155 A3.75,3.75 0 0 1 117.5078,1157.5 L124.5078,1177.2969 L280,1177.2969 A2.5,2.5 0 0 1 282.5,1179.7969 L282.5,1285.5 A2.5,2.5 0 0 1 280,1288 L62,1288 A2.5,2.5 0 0 1 59.5,1285.5 L59.5,1157.5 A2.5,2.5 0 0 1 62,1155 " fill="transparent" style="stroke:#000000;stroke-width:1.5;"/><line style="stroke:#000000;stroke-width:1.5;" x1="59.5" x2="124.5078" y1="1177.2969" y2="1177.2969"/><text fill="#000000" font-family="sans-serif" font-size="14" font-weight="bold" lengthAdjust="spacing" textLength="52.0078" x="63.5" y="1169.9951">Server</text></g><!--class App__class--><g id="elem_App__class"><rect codeLine="15" fill="#F1F1F1" height="32" id="App__class" rx="2.5" ry="2.5" style="stroke:#181818;stroke-width:0.5;" width="59.3506" x="454" y="1045"/><ellipse cx="469" cy="1061" fill="#ADD1B2" rx="11" ry="11" style="stroke:#181818;stroke-width:1;"/><path d="M471.9688,1066.6406 Q471.3906,1066.9375 470.75,1067.0781 Q470.1094,1067.2344 469.4063,1067.2344 Q466.9063,1067.2344 465.5781,1065.5938 Q464.2656,1063.9375 464.2656,1060.8125 Q464.2656,1057.6875 465.5781,1056.0313 Q466.9063,1054.375 469.4063,1054.375 Q470.1094,1054.375 470.75,1054.5313 Q471.4063,1054.6875 471.9688,1054.9844 L471.9688,1057.7031 Q471.3438,1057.125 470.75,1056.8594 Q470.1563,1056.5781 469.5313,1056.5781 Q468.1875,1056.5781 467.5,1057.6563 Q466.8125,1058.7188 466.8125,1060.8125 Q466.8125,1062.9063 467.5,1063.9844 Q468.1875,1065.0469 469.5313,1065.0469 Q470.1563,1065.0469 470.75,1064.7813 Q471.3438,1064.5 471.9688,1063.9219 L471.9688,1066.6406 Z " fill="#000000"/><text fill="#000000" font-family="sans-serif" font-size="14" lengthAdjust="spacing" textLength="27.3506" x="483" y="1065.8467">App</text></g><!--class AbstractProtectedRoutable__class--><g id="elem_AbstractProtectedRoutable__class"><rect codeLine="23" fill="#F1F1F1" height="32" id="AbstractProtectedRoutable__class" rx="2.5" ry="2.5" style="stroke:#181818;stroke-width:0.5;" width="220.9453" x="373" y="85"/><ellipse cx="388" cy="101" fill="#A9DCDF" rx="11" ry="11" style="stroke:#181818;stroke-width:1;"/><path d="M388.1094,96.3438 L386.9531,101.4219 L389.2813,101.4219 L388.1094,96.3438 Z M386.625,94.1094 L389.6094,94.1094 L392.9688,106.5 L390.5156,106.5 L389.75,103.4375 L386.4688,103.4375 L385.7188,106.5 L383.2813,106.5 L386.625,94.1094 Z " fill="#000000"/><text fill="#000000" font-family="sans-serif" font-size="14" font-style="italic" lengthAdjust="spacing" textLength="188.9453" x="402" y="105.8467">AbstractProtectedRoutable</text></g><!--class Authorize__class--><g id="elem_Authorize__class"><rect codeLine="27" fill="#F1F1F1" height="32" id="Authorize__class" rx="2.5" ry="2.5" style="stroke:#181818;stroke-width:0.5;" width="98.9854" x="434" y="135"/><ellipse cx="449" cy="151" fill="#ADD1B2" rx="11" ry="11" style="stroke:#181818;stroke-width:1;"/><path d="M451.9688,156.6406 Q451.3906,156.9375 450.75,157.0781 Q450.1094,157.2344 449.4063,157.2344 Q446.9063,157.2344 445.5781,155.5938 Q444.2656,153.9375 444.2656,150.8125 Q444.2656,147.6875 445.5781,146.0313 Q446.9063,144.375 449.4063,144.375 Q450.1094,144.375 450.75,144.5313 Q451.4063,144.6875 451.9688,144.9844 L451.9688,147.7031 Q451.3438,147.125 450.75,146.8594 Q450.1563,146.5781 449.5313,146.5781 Q448.1875,146.5781 447.5,147.6563 Q446.8125,148.7188 446.8125,150.8125 Q446.8125,152.9063 447.5,153.9844 Q448.1875,155.0469 449.5313,155.0469 Q450.1563,155.0469 450.75,154.7813 Q451.3438,154.5 451.9688,153.9219 L451.9688,156.6406 Z " fill="#000000"/><text fill="#000000" font-family="sans-serif" font-size="14" lengthAdjust="spacing" textLength="66.9854" x="463" y="155.8467">Authorize</text></g><!--class ProtectedRoutableResolver__class--><g id="elem_ProtectedRoutableResolver__class"><rect codeLine="35" fill="#F1F1F1" height="32" id="ProtectedRoutableResolver__class" rx="2.5" ry="2.5" style="stroke:#181818;stroke-width:0.5;" width="222.9209" x="372" y="185"/><ellipse cx="387" cy="201" fill="#ADD1B2" rx="11" ry="11" style="stroke:#181818;stroke-width:1;"/><path d="M389.9688,206.6406 Q389.3906,206.9375 388.75,207.0781 Q388.1094,207.2344 387.4063,207.2344 Q384.9063,207.2344 383.5781,205.5938 Q382.2656,203.9375 382.2656,200.8125 Q382.2656,197.6875 383.5781,196.0313 Q384.9063,194.375 387.4063,194.375 Q388.1094,194.375 388.75,194.5313 Q389.4063,194.6875 389.9688,194.9844 L389.9688,197.7031 Q389.3438,197.125 388.75,196.8594 Q388.1563,196.5781 387.5313,196.5781 Q386.1875,196.5781 385.5,197.6563 Q384.8125,198.7188 384.8125,200.8125 Q384.8125,202.9063 385.5,203.9844 Q386.1875,205.0469 387.5313,205.0469 Q388.1563,205.0469 388.75,204.7813 Q389.3438,204.5 389.9688,203.9219 L389.9688,206.6406 Z " fill="#000000"/><text fill="#000000" font-family="sans-serif" font-size="14" lengthAdjust="spacing" textLength="190.9209" x="401" y="205.8467">ProtectedRoutableResolver</text></g><!--class User__class--><g id="elem_User__class"><rect codeLine="39" fill="#F1F1F1" height="32" id="User__class" rx="2.5" ry="2.5" style="stroke:#181818;stroke-width:0.5;" width="63.9102" x="451.5" y="235"/><ellipse cx="466.5" cy="251" fill="#ADD1B2" rx="11" ry="11" style="stroke:#181818;stroke-width:1;"/><path d="M469.4688,256.6406 Q468.8906,256.9375 468.25,257.0781 Q467.6094,257.2344 466.9063,257.2344 Q464.4063,257.2344 463.0781,255.5938 Q461.7656,253.9375 461.7656,250.8125 Q461.7656,247.6875 463.0781,246.0313 Q464.4063,244.375 466.9063,244.375 Q467.6094,244.375 468.25,244.5313 Q468.9063,244.6875 469.4688,244.9844 L469.4688,247.7031 Q468.8438,247.125 468.25,246.8594 Q467.6563,246.5781 467.0313,246.5781 Q465.6875,246.5781 465,247.6563 Q464.3125,248.7188 464.3125,250.8125 Q464.3125,252.9063 465,253.9844 Q465.6875,255.0469 467.0313,255.0469 Q467.6563,255.0469 468.25,254.7813 Q468.8438,254.5 469.4688,253.9219 L469.4688,256.6406 Z " fill="#000000"/><text fill="#000000" font-family="sans-serif" font-size="14" lengthAdjust="spacing" textLength="31.9102" x="480.5" y="255.8467">User</text></g><!--class ContainerLoader__class--><g id="elem_ContainerLoader__class"><rect codeLine="43" fill="#F1F1F1" height="32" id="ContainerLoader__class" rx="2.5" ry="2.5" style="stroke:#181818;stroke-width:0.5;" width="148.6143" x="409" y="360"/><ellipse cx="424" cy="376" fill="#ADD1B2" rx="11" ry="11" style="stroke:#181818;stroke-width:1;"/><path d="M426.9688,381.6406 Q426.3906,381.9375 425.75,382.0781 Q425.1094,382.2344 424.4063,382.2344 Q421.9063,382.2344 420.5781,380.5938 Q419.2656,378.9375 419.2656,375.8125 Q419.2656,372.6875 420.5781,371.0313 Q421.9063,369.375 424.4063,369.375 Q425.1094,369.375 425.75,369.5313 Q426.4063,369.6875 426.9688,369.9844 L426.9688,372.7031 Q426.3438,372.125 425.75,371.8594 Q425.1563,371.5781 424.5313,371.5781 Q423.1875,371.5781 422.5,372.6563 Q421.8125,373.7188 421.8125,375.8125 Q421.8125,377.9063 422.5,378.9844 Q423.1875,380.0469 424.5313,380.0469 Q425.1563,380.0469 425.75,379.7813 Q426.3438,379.5 426.9688,378.9219 L426.9688,381.6406 Z " fill="#000000"/><text fill="#000000" font-family="sans-serif" font-size="14" lengthAdjust="spacing" textLength="116.6143" x="438" y="380.8467">ContainerLoader</text></g><!--class DiTokens__class--><g id="elem_DiTokens__class"><rect codeLine="47" fill="#F1F1F1" height="32" id="DiTokens__class" rx="2.5" ry="2.5" style="stroke:#181818;stroke-width:0.5;" width="96.6748" x="435" y="310"/><ellipse cx="450" cy="326" fill="#ADD1B2" rx="11" ry="11" style="stroke:#181818;stroke-width:1;"/><path d="M452.9688,331.6406 Q452.3906,331.9375 451.75,332.0781 Q451.1094,332.2344 450.4063,332.2344 Q447.9063,332.2344 446.5781,330.5938 Q445.2656,328.9375 445.2656,325.8125 Q445.2656,322.6875 446.5781,321.0313 Q447.9063,319.375 450.4063,319.375 Q451.1094,319.375 451.75,319.5313 Q452.4063,319.6875 452.9688,319.9844 L452.9688,322.7031 Q452.3438,322.125 451.75,321.8594 Q451.1563,321.5781 450.5313,321.5781 Q449.1875,321.5781 448.5,322.6563 Q447.8125,323.7188 447.8125,325.8125 Q447.8125,327.9063 448.5,328.9844 Q449.1875,330.0469 450.5313,330.0469 Q451.1563,330.0469 451.75,329.7813 Q452.3438,329.5 452.9688,328.9219 L452.9688,331.6406 Z " fill="#000000"/><text fill="#000000" font-family="sans-serif" font-size="14" lengthAdjust="spacing" textLength="64.6748" x="464" y="330.8467">DiTokens</text></g><!--class Globs__enum--><g id="elem_Globs__enum"><rect codeLine="51" fill="#F1F1F1" height="32" id="Globs__enum" rx="2.5" ry="2.5" style="stroke:#181818;stroke-width:0.5;" width="71.4844" x="717.5" y="360"/><ellipse cx="732.5" cy="376" fill="#EB937F" rx="11" ry="11" style="stroke:#181818;stroke-width:1;"/><path d="M736.6094,382 L728.8906,382 L728.8906,369.6094 L736.6094,369.6094 L736.6094,371.7656 L731.3438,371.7656 L731.3438,374.4375 L736.1094,374.4375 L736.1094,376.5938 L731.3438,376.5938 L731.3438,379.8438 L736.6094,379.8438 L736.6094,382 Z " fill="#000000"/><text fill="#000000" font-family="sans-serif" font-size="14" lengthAdjust="spacing" textLength="39.4844" x="746.5" y="380.8467">Globs</text></g><!--class AuthorizationCheckerInterface__interface--><g id="elem_AuthorizationCheckerInterface__interface"><rect codeLine="55" fill="#F1F1F1" height="32" id="AuthorizationCheckerInterface__interface" rx="2.5" ry="2.5" style="stroke:#181818;stroke-width:0.5;" width="245.8828" x="360.5" y="595"/><ellipse cx="375.5" cy="611" fill="#B4A7E5" rx="11" ry="11" style="stroke:#181818;stroke-width:1;"/><path d="M371.4219,606.7656 L371.4219,604.6094 L378.8125,604.6094 L378.8125,606.7656 L376.3438,606.7656 L376.3438,614.8438 L378.8125,614.8438 L378.8125,617 L371.4219,617 L371.4219,614.8438 L373.8906,614.8438 L373.8906,606.7656 L371.4219,606.7656 Z " fill="#000000"/><text fill="#000000" font-family="sans-serif" font-size="14" font-style="italic" lengthAdjust="spacing" textLength="213.8828" x="389.5" y="615.8467">AuthorizationCheckerInterface</text></g><!--class AuthorizationChecker__class--><g id="elem_AuthorizationChecker__class"><rect codeLine="59" fill="#F1F1F1" height="32" id="AuthorizationChecker__class" rx="2.5" ry="2.5" style="stroke:#181818;stroke-width:0.5;" width="183.2041" x="661.5" y="595"/><ellipse cx="676.5" cy="611" fill="#ADD1B2" rx="11" ry="11" style="stroke:#181818;stroke-width:1;"/><path d="M679.4688,616.6406 Q678.8906,616.9375 678.25,617.0781 Q677.6094,617.2344 676.9063,617.2344 Q674.4063,617.2344 673.0781,615.5938 Q671.7656,613.9375 671.7656,610.8125 Q671.7656,607.6875 673.0781,606.0313 Q674.4063,604.375 676.9063,604.375 Q677.6094,604.375 678.25,604.5313 Q678.9063,604.6875 679.4688,604.9844 L679.4688,607.7031 Q678.8438,607.125 678.25,606.8594 Q677.6563,606.5781 677.0313,606.5781 Q675.6875,606.5781 675,607.6563 Q674.3125,608.7188 674.3125,610.8125 Q674.3125,612.9063 675,613.9844 Q675.6875,615.0469 677.0313,615.0469 Q677.6563,615.0469 678.25,614.7813 Q678.8438,614.5 679.4688,613.9219 L679.4688,616.6406 Z " fill="#000000"/><text fill="#000000" font-family="sans-serif" font-size="14" lengthAdjust="spacing" textLength="151.2041" x="690.5" y="615.8467">AuthorizationChecker</text></g><!--class MiddlewareQueueRequestHandler__class--><g id="elem_MiddlewareQueueRequestHandler__class"><rect codeLine="67" fill="#F1F1F1" height="32" id="MiddlewareQueueRequestHandler__class" rx="2.5" ry="2.5" style="stroke:#181818;stroke-width:0.5;" width="271.2578" x="348" y="795"/><ellipse cx="363" cy="811" fill="#ADD1B2" rx="11" ry="11" style="stroke:#181818;stroke-width:1;"/><path d="M365.9688,816.6406 Q365.3906,816.9375 364.75,817.0781 Q364.1094,817.2344 363.4063,817.2344 Q360.9063,817.2344 359.5781,815.5938 Q358.2656,813.9375 358.2656,810.8125 Q358.2656,807.6875 359.5781,806.0313 Q360.9063,804.375 363.4063,804.375 Q364.1094,804.375 364.75,804.5313 Q365.4063,804.6875 365.9688,804.9844 L365.9688,807.7031 Q365.3438,807.125 364.75,806.8594 Q364.1563,806.5781 363.5313,806.5781 Q362.1875,806.5781 361.5,807.6563 Q360.8125,808.7188 360.8125,810.8125 Q360.8125,812.9063 361.5,813.9844 Q362.1875,815.0469 363.5313,815.0469 Q364.1563,815.0469 364.75,814.7813 Q365.3438,814.5 365.9688,813.9219 L365.9688,816.6406 Z " fill="#000000"/><text fill="#000000" font-family="sans-serif" font-size="14" lengthAdjust="spacing" textLength="239.2578" x="377" y="815.8467">MiddlewareQueueRequestHandler</text></g><!--class PathVariableBindings__class--><g id="elem_PathVariableBindings__class"><rect codeLine="71" fill="#F1F1F1" height="32" id="PathVariableBindings__class" rx="2.5" ry="2.5" style="stroke:#181818;stroke-width:0.5;" width="181.3516" x="393" y="745"/><ellipse cx="408" cy="761" fill="#ADD1B2" rx="11" ry="11" style="stroke:#181818;stroke-width:1;"/><path d="M410.9688,766.6406 Q410.3906,766.9375 409.75,767.0781 Q409.1094,767.2344 408.4063,767.2344 Q405.9063,767.2344 404.5781,765.5938 Q403.2656,763.9375 403.2656,760.8125 Q403.2656,757.6875 404.5781,756.0313 Q405.9063,754.375 408.4063,754.375 Q409.1094,754.375 409.75,754.5313 Q410.4063,754.6875 410.9688,754.9844 L410.9688,757.7031 Q410.3438,757.125 409.75,756.8594 Q409.1563,756.5781 408.5313,756.5781 Q407.1875,756.5781 406.5,757.6563 Q405.8125,758.7188 405.8125,760.8125 Q405.8125,762.9063 406.5,763.9844 Q407.1875,765.0469 408.5313,765.0469 Q409.1563,765.0469 409.75,764.7813 Q410.3438,764.5 410.9688,763.9219 L410.9688,766.6406 Z " fill="#000000"/><text fill="#000000" font-family="sans-serif" font-size="14" lengthAdjust="spacing" textLength="149.3516" x="422" y="765.8467">PathVariableBindings</text></g><!--class Representations__class--><g id="elem_Representations__class"><rect codeLine="75" fill="#F1F1F1" height="32" id="Representations__class" rx="2.5" ry="2.5" style="stroke:#181818;stroke-width:0.5;" width="146.5566" x="410" y="695"/><ellipse cx="425" cy="711" fill="#ADD1B2" rx="11" ry="11" style="stroke:#181818;stroke-width:1;"/><path d="M427.9688,716.6406 Q427.3906,716.9375 426.75,717.0781 Q426.1094,717.2344 425.4063,717.2344 Q422.9063,717.2344 421.5781,715.5938 Q420.2656,713.9375 420.2656,710.8125 Q420.2656,707.6875 421.5781,706.0313 Q422.9063,704.375 425.4063,704.375 Q426.1094,704.375 426.75,704.5313 Q427.4063,704.6875 427.9688,704.9844 L427.9688,707.7031 Q427.3438,707.125 426.75,706.8594 Q426.1563,706.5781 425.5313,706.5781 Q424.1875,706.5781 423.5,707.6563 Q422.8125,708.7188 422.8125,710.8125 Q422.8125,712.9063 423.5,713.9844 Q424.1875,715.0469 425.5313,715.0469 Q426.1563,715.0469 426.75,714.7813 Q427.3438,714.5 427.9688,713.9219 L427.9688,716.6406 Z " fill="#000000"/><text fill="#000000" font-family="sans-serif" font-size="14" lengthAdjust="spacing" textLength="114.5566" x="439" y="715.8467">Representations</text></g><!--class RequestProcessingHandler__class--><g id="elem_RequestProcessingHandler__class"><rect codeLine="79" fill="#F1F1F1" height="32" id="RequestProcessingHandler__class" rx="2.5" ry="2.5" style="stroke:#181818;stroke-width:0.5;" width="219.9336" x="373.5" y="845"/><ellipse cx="388.5" cy="861" fill="#ADD1B2" rx="11" ry="11" style="stroke:#181818;stroke-width:1;"/><path d="M391.4688,866.6406 Q390.8906,866.9375 390.25,867.0781 Q389.6094,867.2344 388.9063,867.2344 Q386.4063,867.2344 385.0781,865.5938 Q383.7656,863.9375 383.7656,860.8125 Q383.7656,857.6875 385.0781,856.0313 Q386.4063,854.375 388.9063,854.375 Q389.6094,854.375 390.25,854.5313 Q390.9063,854.6875 391.4688,854.9844 L391.4688,857.7031 Q390.8438,857.125 390.25,856.8594 Q389.6563,856.5781 389.0313,856.5781 Q387.6875,856.5781 387,857.6563 Q386.3125,858.7188 386.3125,860.8125 Q386.3125,862.9063 387,863.9844 Q387.6875,865.0469 389.0313,865.0469 Q389.6563,865.0469 390.25,864.7813 Q390.8438,864.5 391.4688,863.9219 L391.4688,866.6406 Z " fill="#000000"/><text fill="#000000" font-family="sans-serif" font-size="14" lengthAdjust="spacing" textLength="187.9336" x="402.5" y="865.8467">RequestProcessingHandler</text></g><!--class RequestProcessorExecutor__class--><g id="elem_RequestProcessorExecutor__class"><rect codeLine="87" fill="#F1F1F1" height="32" id="RequestProcessorExecutor__class" rx="2.5" ry="2.5" style="stroke:#181818;stroke-width:0.5;" width="219.6055" x="373.5" y="645"/><ellipse cx="388.5" cy="661" fill="#ADD1B2" rx="11" ry="11" style="stroke:#181818;stroke-width:1;"/><path d="M391.4688,666.6406 Q390.8906,666.9375 390.25,667.0781 Q389.6094,667.2344 388.9063,667.2344 Q386.4063,667.2344 385.0781,665.5938 Q383.7656,663.9375 383.7656,660.8125 Q383.7656,657.6875 385.0781,656.0313 Q386.4063,654.375 388.9063,654.375 Q389.6094,654.375 390.25,654.5313 Q390.9063,654.6875 391.4688,654.9844 L391.4688,657.7031 Q390.8438,657.125 390.25,656.8594 Q389.6563,656.5781 389.0313,656.5781 Q387.6875,656.5781 387,657.6563 Q386.3125,658.7188 386.3125,660.8125 Q386.3125,662.9063 387,663.9844 Q387.6875,665.0469 389.0313,665.0469 Q389.6563,665.0469 390.25,664.7813 Q390.8438,664.5 391.4688,663.9219 L391.4688,666.6406 Z " fill="#000000"/><text fill="#000000" font-family="sans-serif" font-size="14" lengthAdjust="spacing" textLength="187.6055" x="402.5" y="665.8467">RequestProcessorExecutor</text></g><!--class ResponseBuilderInterface__interface--><g id="elem_ResponseBuilderInterface__interface"><rect codeLine="91" fill="#F1F1F1" height="32" id="ResponseBuilderInterface__interface" rx="2.5" ry="2.5" style="stroke:#181818;stroke-width:0.5;" width="212.0586" x="377.5" y="895"/><ellipse cx="392.5" cy="911" fill="#B4A7E5" rx="11" ry="11" style="stroke:#181818;stroke-width:1;"/><path d="M388.4219,906.7656 L388.4219,904.6094 L395.8125,904.6094 L395.8125,906.7656 L393.3438,906.7656 L393.3438,914.8438 L395.8125,914.8438 L395.8125,917 L388.4219,917 L388.4219,914.8438 L390.8906,914.8438 L390.8906,906.7656 L388.4219,906.7656 Z " fill="#000000"/><text fill="#000000" font-family="sans-serif" font-size="14" font-style="italic" lengthAdjust="spacing" textLength="180.0586" x="406.5" y="915.8467">ResponseBuilderInterface</text></g><!--class ResponseBuilder__class--><g id="elem_ResponseBuilder__class"><rect codeLine="95" fill="#F1F1F1" height="32" id="ResponseBuilder__class" rx="2.5" ry="2.5" style="stroke:#181818;stroke-width:0.5;" width="149.3799" x="678.5" y="895"/><ellipse cx="693.5" cy="911" fill="#ADD1B2" rx="11" ry="11" style="stroke:#181818;stroke-width:1;"/><path d="M696.4688,916.6406 Q695.8906,916.9375 695.25,917.0781 Q694.6094,917.2344 693.9063,917.2344 Q691.4063,917.2344 690.0781,915.5938 Q688.7656,913.9375 688.7656,910.8125 Q688.7656,907.6875 690.0781,906.0313 Q691.4063,904.375 693.9063,904.375 Q694.6094,904.375 695.25,904.5313 Q695.9063,904.6875 696.4688,904.9844 L696.4688,907.7031 Q695.8438,907.125 695.25,906.8594 Q694.6563,906.5781 694.0313,906.5781 Q692.6875,906.5781 692,907.6563 Q691.3125,908.7188 691.3125,910.8125 Q691.3125,912.9063 692,913.9844 Q692.6875,915.0469 694.0313,915.0469 Q694.6563,915.0469 695.25,914.7813 Q695.8438,914.5 696.4688,913.9219 L696.4688,916.6406 Z " fill="#000000"/><text fill="#000000" font-family="sans-serif" font-size="14" lengthAdjust="spacing" textLength="117.3799" x="707.5" y="915.8467">ResponseBuilder</text></g><!--class ResponseCodeResolver__class--><g id="elem_ResponseCodeResolver__class"><rect codeLine="99" fill="#F1F1F1" height="32" id="ResponseCodeResolver__class" rx="2.5" ry="2.5" style="stroke:#181818;stroke-width:0.5;" width="196.4521" x="655" y="745"/><ellipse cx="670" cy="761" fill="#ADD1B2" rx="11" ry="11" style="stroke:#181818;stroke-width:1;"/><path d="M672.9688,766.6406 Q672.3906,766.9375 671.75,767.0781 Q671.1094,767.2344 670.4063,767.2344 Q667.9063,767.2344 666.5781,765.5938 Q665.2656,763.9375 665.2656,760.8125 Q665.2656,757.6875 666.5781,756.0313 Q667.9063,754.375 670.4063,754.375 Q671.1094,754.375 671.75,754.5313 Q672.4063,754.6875 672.9688,754.9844 L672.9688,757.7031 Q672.3438,757.125 671.75,756.8594 Q671.1563,756.5781 670.5313,756.5781 Q669.1875,756.5781 668.5,757.6563 Q667.8125,758.7188 667.8125,760.8125 Q667.8125,762.9063 668.5,763.9844 Q669.1875,765.0469 670.5313,765.0469 Q671.1563,765.0469 671.75,764.7813 Q672.3438,764.5 672.9688,763.9219 L672.9688,766.6406 Z " fill="#000000"/><text fill="#000000" font-family="sans-serif" font-size="14" lengthAdjust="spacing" textLength="164.4521" x="684" y="765.8467">ResponseCodeResolver</text></g><!--class RoutingMiddleware__class--><g id="elem_RoutingMiddleware__class"><rect codeLine="107" fill="#F1F1F1" height="32" id="RoutingMiddleware__class" rx="2.5" ry="2.5" style="stroke:#181818;stroke-width:0.5;" width="166.9482" x="400" y="945"/><ellipse cx="415" cy="961" fill="#ADD1B2" rx="11" ry="11" style="stroke:#181818;stroke-width:1;"/><path d="M417.9688,966.6406 Q417.3906,966.9375 416.75,967.0781 Q416.1094,967.2344 415.4063,967.2344 Q412.9063,967.2344 411.5781,965.5938 Q410.2656,963.9375 410.2656,960.8125 Q410.2656,957.6875 411.5781,956.0313 Q412.9063,954.375 415.4063,954.375 Q416.1094,954.375 416.75,954.5313 Q417.4063,954.6875 417.9688,954.9844 L417.9688,957.7031 Q417.3438,957.125 416.75,956.8594 Q416.1563,956.5781 415.5313,956.5781 Q414.1875,956.5781 413.5,957.6563 Q412.8125,958.7188 412.8125,960.8125 Q412.8125,962.9063 413.5,963.9844 Q414.1875,965.0469 415.5313,965.0469 Q416.1563,965.0469 416.75,964.7813 Q417.3438,964.5 417.9688,963.9219 L417.9688,966.6406 Z " fill="#000000"/><text fill="#000000" font-family="sans-serif" font-size="14" lengthAdjust="spacing" textLength="134.9482" x="429" y="965.8467">RoutingMiddleware</text></g><!--class ServerInterface__interface--><g id="elem_ServerInterface__interface"><rect codeLine="111" fill="#F1F1F1" height="32" id="ServerInterface__interface" rx="2.5" ry="2.5" style="stroke:#181818;stroke-width:0.5;" width="140.5889" x="413" y="995"/><ellipse cx="428" cy="1011" fill="#B4A7E5" rx="11" ry="11" style="stroke:#181818;stroke-width:1;"/><path d="M423.9219,1006.7656 L423.9219,1004.6094 L431.3125,1004.6094 L431.3125,1006.7656 L428.8438,1006.7656 L428.8438,1014.8438 L431.3125,1014.8438 L431.3125,1017 L423.9219,1017 L423.9219,1014.8438 L426.3906,1014.8438 L426.3906,1006.7656 L423.9219,1006.7656 Z " fill="#000000"/><text fill="#000000" font-family="sans-serif" font-size="14" font-style="italic" lengthAdjust="spacing" textLength="108.5889" x="442" y="1015.8467">ServerInterface</text></g><!--class Server__class--><g id="elem_Server__class"><rect codeLine="115" fill="#F1F1F1" height="32" id="Server__class" rx="2.5" ry="2.5" style="stroke:#181818;stroke-width:0.5;" width="77.9102" x="714" y="995"/><ellipse cx="729" cy="1011" fill="#ADD1B2" rx="11" ry="11" style="stroke:#181818;stroke-width:1;"/><path d="M731.9688,1016.6406 Q731.3906,1016.9375 730.75,1017.0781 Q730.1094,1017.2344 729.4063,1017.2344 Q726.9063,1017.2344 725.5781,1015.5938 Q724.2656,1013.9375 724.2656,1010.8125 Q724.2656,1007.6875 725.5781,1006.0313 Q726.9063,1004.375 729.4063,1004.375 Q730.1094,1004.375 730.75,1004.5313 Q731.4063,1004.6875 731.9688,1004.9844 L731.9688,1007.7031 Q731.3438,1007.125 730.75,1006.8594 Q730.1563,1006.5781 729.5313,1006.5781 Q728.1875,1006.5781 727.5,1007.6563 Q726.8125,1008.7188 726.8125,1010.8125 Q726.8125,1012.9063 727.5,1013.9844 Q728.1875,1015.0469 729.5313,1015.0469 Q730.1563,1015.0469 730.75,1014.7813 Q731.3438,1014.5 731.9688,1013.9219 L731.9688,1016.6406 Z " fill="#000000"/><text fill="#000000" font-family="sans-serif" font-size="14" lengthAdjust="spacing" textLength="45.9102" x="743" y="1015.8467">Server</text></g><!--class Target__class--><g id="elem_Target__class"><rect codeLine="119" fill="#F1F1F1" height="32" id="Target__class" rx="2.5" ry="2.5" style="stroke:#181818;stroke-width:0.5;" width="77.876" x="714" y="695"/><ellipse cx="729" cy="711" fill="#ADD1B2" rx="11" ry="11" style="stroke:#181818;stroke-width:1;"/><path d="M731.9688,716.6406 Q731.3906,716.9375 730.75,717.0781 Q730.1094,717.2344 729.4063,717.2344 Q726.9063,717.2344 725.5781,715.5938 Q724.2656,713.9375 724.2656,710.8125 Q724.2656,707.6875 725.5781,706.0313 Q726.9063,704.375 729.4063,704.375 Q730.1094,704.375 730.75,704.5313 Q731.4063,704.6875 731.9688,704.9844 L731.9688,707.7031 Q731.3438,707.125 730.75,706.8594 Q730.1563,706.5781 729.5313,706.5781 Q728.1875,706.5781 727.5,707.6563 Q726.8125,708.7188 726.8125,710.8125 Q726.8125,712.9063 727.5,713.9844 Q728.1875,715.0469 729.5313,715.0469 Q730.1563,715.0469 730.75,714.7813 Q731.3438,714.5 731.9688,713.9219 L731.9688,716.6406 Z " fill="#000000"/><text fill="#000000" font-family="sans-serif" font-size="14" lengthAdjust="spacing" textLength="45.876" x="743" y="715.8467">Target</text></g><!--class BadRequest__class--><g id="elem_BadRequest__class"><rect codeLine="123" fill="#F1F1F1" height="32" id="BadRequest__class" rx="2.5" ry="2.5" style="stroke:#181818;stroke-width:0.5;" width="116.5674" x="425" y="539"/><ellipse cx="440" cy="555" fill="#ADD1B2" rx="11" ry="11" style="stroke:#181818;stroke-width:1;"/><path d="M442.9688,560.6406 Q442.3906,560.9375 441.75,561.0781 Q441.1094,561.2344 440.4063,561.2344 Q437.9063,561.2344 436.5781,559.5938 Q435.2656,557.9375 435.2656,554.8125 Q435.2656,551.6875 436.5781,550.0313 Q437.9063,548.375 440.4063,548.375 Q441.1094,548.375 441.75,548.5313 Q442.4063,548.6875 442.9688,548.9844 L442.9688,551.7031 Q442.3438,551.125 441.75,550.8594 Q441.1563,550.5781 440.5313,550.5781 Q439.1875,550.5781 438.5,551.6563 Q437.8125,552.7188 437.8125,554.8125 Q437.8125,556.9063 438.5,557.9844 Q439.1875,559.0469 440.5313,559.0469 Q441.1563,559.0469 441.75,558.7813 Q442.3438,558.5 442.9688,557.9219 L442.9688,560.6406 Z " fill="#000000"/><text fill="#000000" font-family="sans-serif" font-size="14" lengthAdjust="spacing" textLength="84.5674" x="454" y="559.8467">BadRequest</text></g><!--class Forbidden__class--><g id="elem_Forbidden__class"><rect codeLine="127" fill="#F1F1F1" height="32" id="Forbidden__class" rx="2.5" ry="2.5" style="stroke:#181818;stroke-width:0.5;" width="102.4102" x="432.5" y="489"/><ellipse cx="447.5" cy="505" fill="#ADD1B2" rx="11" ry="11" style="stroke:#181818;stroke-width:1;"/><path d="M450.4688,510.6406 Q449.8906,510.9375 449.25,511.0781 Q448.6094,511.2344 447.9063,511.2344 Q445.4063,511.2344 444.0781,509.5938 Q442.7656,507.9375 442.7656,504.8125 Q442.7656,501.6875 444.0781,500.0313 Q445.4063,498.375 447.9063,498.375 Q448.6094,498.375 449.25,498.5313 Q449.9063,498.6875 450.4688,498.9844 L450.4688,501.7031 Q449.8438,501.125 449.25,500.8594 Q448.6563,500.5781 448.0313,500.5781 Q446.6875,500.5781 446,501.6563 Q445.3125,502.7188 445.3125,504.8125 Q445.3125,506.9063 446,507.9844 Q446.6875,509.0469 448.0313,509.0469 Q448.6563,509.0469 449.25,508.7813 Q449.8438,508.5 450.4688,507.9219 L450.4688,510.6406 Z " fill="#000000"/><text fill="#000000" font-family="sans-serif" font-size="14" lengthAdjust="spacing" textLength="70.4102" x="461.5" y="509.8467">Forbidden</text></g><!--class NotFound__class--><g id="elem_NotFound__class"><rect codeLine="131" fill="#F1F1F1" height="32" id="NotFound__class" rx="2.5" ry="2.5" style="stroke:#181818;stroke-width:0.5;" width="99.7783" x="703" y="539"/><ellipse cx="718" cy="555" fill="#ADD1B2" rx="11" ry="11" style="stroke:#181818;stroke-width:1;"/><path d="M720.9688,560.6406 Q720.3906,560.9375 719.75,561.0781 Q719.1094,561.2344 718.4063,561.2344 Q715.9063,561.2344 714.5781,559.5938 Q713.2656,557.9375 713.2656,554.8125 Q713.2656,551.6875 714.5781,550.0313 Q715.9063,548.375 718.4063,548.375 Q719.1094,548.375 719.75,548.5313 Q720.4063,548.6875 720.9688,548.9844 L720.9688,551.7031 Q720.3438,551.125 719.75,550.8594 Q719.1563,550.5781 718.5313,550.5781 Q717.1875,550.5781 716.5,551.6563 Q715.8125,552.7188 715.8125,554.8125 Q715.8125,556.9063 716.5,557.9844 Q717.1875,559.0469 718.5313,559.0469 Q719.1563,559.0469 719.75,558.7813 Q720.3438,558.5 720.9688,557.9219 L720.9688,560.6406 Z " fill="#000000"/><text fill="#000000" font-family="sans-serif" font-size="14" lengthAdjust="spacing" textLength="67.7783" x="732" y="559.8467">NotFound</text></g><!--class Unauthorized__class--><g id="elem_Unauthorized__class"><rect codeLine="135" fill="#F1F1F1" height="32" id="Unauthorized__class" rx="2.5" ry="2.5" style="stroke:#181818;stroke-width:0.5;" width="125.9941" x="690" y="489"/><ellipse cx="705" cy="505" fill="#ADD1B2" rx="11" ry="11" style="stroke:#181818;stroke-width:1;"/><path d="M707.9688,510.6406 Q707.3906,510.9375 706.75,511.0781 Q706.1094,511.2344 705.4063,511.2344 Q702.9063,511.2344 701.5781,509.5938 Q700.2656,507.9375 700.2656,504.8125 Q700.2656,501.6875 701.5781,500.0313 Q702.9063,498.375 705.4063,498.375 Q706.1094,498.375 706.75,498.5313 Q707.4063,498.6875 707.9688,498.9844 L707.9688,501.7031 Q707.3438,501.125 706.75,500.8594 Q706.1563,500.5781 705.5313,500.5781 Q704.1875,500.5781 703.5,501.6563 Q702.8125,502.7188 702.8125,504.8125 Q702.8125,506.9063 703.5,507.9844 Q704.1875,509.0469 705.5313,509.0469 Q706.1563,509.0469 706.75,508.7813 Q707.3438,508.5 707.9688,507.9219 L707.9688,510.6406 Z " fill="#000000"/><text fill="#000000" font-family="sans-serif" font-size="14" lengthAdjust="spacing" textLength="93.9941" x="719" y="509.8467">Unauthorized</text></g><!--class RequestProcessorInterface__class--><g id="elem_RequestProcessorInterface__class"><rect codeLine="19" fill="#F1F1F1" height="40.2656" id="RequestProcessorInterface__class" rx="2.5" ry="2.5" style="stroke:#181818;stroke-width:0.5;" width="220.1592" x="61" y="123"/><ellipse cx="76" cy="143.1328" fill="#ADD1B2" rx="11" ry="11" style="stroke:#181818;stroke-width:1;"/><path d="M78.9688,148.7734 Q78.3906,149.0703 77.75,149.2109 Q77.1094,149.3672 76.4063,149.3672 Q73.9063,149.3672 72.5781,147.7266 Q71.2656,146.0703 71.2656,142.9453 Q71.2656,139.8203 72.5781,138.1641 Q73.9063,136.5078 76.4063,136.5078 Q77.1094,136.5078 77.75,136.6641 Q78.4063,136.8203 78.9688,137.1172 L78.9688,139.8359 Q78.3438,139.2578 77.75,138.9922 Q77.1563,138.7109 76.5313,138.7109 Q75.1875,138.7109 74.5,139.7891 Q73.8125,140.8516 73.8125,142.9453 Q73.8125,145.0391 74.5,146.1172 Q75.1875,147.1797 76.5313,147.1797 Q77.1563,147.1797 77.75,146.9141 Q78.3438,146.6328 78.9688,146.0547 L78.9688,148.7734 Z " fill="#000000"/><text fill="#000000" font-family="sans-serif" font-size="12" font-style="italic" lengthAdjust="spacing" textLength="64.4824" x="151.8384" y="139.1387">&#171;external&#187;</text><text fill="#000000" font-family="sans-serif" font-size="14" lengthAdjust="spacing" textLength="188.1592" x="90" y="154.9639">RequestProcessorInterface</text></g><!--class RequestProcessorResolverInterface__class--><g id="elem_RequestProcessorResolverInterface__class"><rect codeLine="31" fill="#F1F1F1" height="40.2656" id="RequestProcessorResolverInterface__class" rx="2.5" ry="2.5" style="stroke:#181818;stroke-width:0.5;" width="280.9033" x="30.5" y="181"/><ellipse cx="45.5" cy="201.1328" fill="#ADD1B2" rx="11" ry="11" style="stroke:#181818;stroke-width:1;"/><path d="M48.4688,206.7734 Q47.8906,207.0703 47.25,207.2109 Q46.6094,207.3672 45.9063,207.3672 Q43.4063,207.3672 42.0781,205.7266 Q40.7656,204.0703 40.7656,200.9453 Q40.7656,197.8203 42.0781,196.1641 Q43.4063,194.5078 45.9063,194.5078 Q46.6094,194.5078 47.25,194.6641 Q47.9063,194.8203 48.4688,195.1172 L48.4688,197.8359 Q47.8438,197.2578 47.25,196.9922 Q46.6563,196.7109 46.0313,196.7109 Q44.6875,196.7109 44,197.7891 Q43.3125,198.8516 43.3125,200.9453 Q43.3125,203.0391 44,204.1172 Q44.6875,205.1797 46.0313,205.1797 Q46.6563,205.1797 47.25,204.9141 Q47.8438,204.6328 48.4688,204.0547 L48.4688,206.7734 Z " fill="#000000"/><text fill="#000000" font-family="sans-serif" font-size="12" font-style="italic" lengthAdjust="spacing" textLength="64.4824" x="151.7104" y="197.1387">&#171;external&#187;</text><text fill="#000000" font-family="sans-serif" font-size="14" lengthAdjust="spacing" textLength="248.9033" x="59.5" y="212.9639">RequestProcessorResolverInterface</text></g><!--class RequestProcessorExecutorInterface__class--><g id="elem_RequestProcessorExecutorInterface__class"><rect codeLine="83" fill="#F1F1F1" height="40.2656" id="RequestProcessorExecutorInterface__class" rx="2.5" ry="2.5" style="stroke:#181818;stroke-width:0.5;" width="282.2842" x="30" y="239"/><ellipse cx="45" cy="259.1328" fill="#ADD1B2" rx="11" ry="11" style="stroke:#181818;stroke-width:1;"/><path d="M47.9688,264.7734 Q47.3906,265.0703 46.75,265.2109 Q46.1094,265.3672 45.4063,265.3672 Q42.9063,265.3672 41.5781,263.7266 Q40.2656,262.0703 40.2656,258.9453 Q40.2656,255.8203 41.5781,254.1641 Q42.9063,252.5078 45.4063,252.5078 Q46.1094,252.5078 46.75,252.6641 Q47.4063,252.8203 47.9688,253.1172 L47.9688,255.8359 Q47.3438,255.2578 46.75,254.9922 Q46.1563,254.7109 45.5313,254.7109 Q44.1875,254.7109 43.5,255.7891 Q42.8125,256.8516 42.8125,258.9453 Q42.8125,261.0391 43.5,262.1172 Q44.1875,263.1797 45.5313,263.1797 Q46.1563,263.1797 46.75,262.9141 Q47.3438,262.6328 47.9688,262.0547 L47.9688,264.7734 Z " fill="#000000"/><text fill="#000000" font-family="sans-serif" font-size="12" font-style="italic" lengthAdjust="spacing" textLength="64.4824" x="151.9009" y="255.1387">&#171;external&#187;</text><text fill="#000000" font-family="sans-serif" font-size="14" lengthAdjust="spacing" textLength="250.2842" x="59" y="270.9639">RequestProcessorExecutorInterface</text></g><!--class RequestHandlerInterface__class--><g id="elem_RequestHandlerInterface__class"><rect codeLine="63" fill="#F1F1F1" height="40.2656" id="RequestHandlerInterface__class" rx="2.5" ry="2.5" style="stroke:#181818;stroke-width:0.5;" width="207.3008" x="67.5" y="1182"/><ellipse cx="82.5" cy="1202.1328" fill="#ADD1B2" rx="11" ry="11" style="stroke:#181818;stroke-width:1;"/><path d="M85.4688,1207.7734 Q84.8906,1208.0703 84.25,1208.2109 Q83.6094,1208.3672 82.9063,1208.3672 Q80.4063,1208.3672 79.0781,1206.7266 Q77.7656,1205.0703 77.7656,1201.9453 Q77.7656,1198.8203 79.0781,1197.1641 Q80.4063,1195.5078 82.9063,1195.5078 Q83.6094,1195.5078 84.25,1195.6641 Q84.9063,1195.8203 85.4688,1196.1172 L85.4688,1198.8359 Q84.8438,1198.2578 84.25,1197.9922 Q83.6563,1197.7109 83.0313,1197.7109 Q81.6875,1197.7109 81,1198.7891 Q80.3125,1199.8516 80.3125,1201.9453 Q80.3125,1204.0391 81,1205.1172 Q81.6875,1206.1797 83.0313,1206.1797 Q83.6563,1206.1797 84.25,1205.9141 Q84.8438,1205.6328 85.4688,1205.0547 L85.4688,1207.7734 Z " fill="#000000"/><text fill="#000000" font-family="sans-serif" font-size="12" font-style="italic" lengthAdjust="spacing" textLength="64.4824" x="151.9092" y="1198.1387">&#171;external&#187;</text><text fill="#000000" font-family="sans-serif" font-size="14" lengthAdjust="spacing" textLength="175.3008" x="96.5" y="1213.9639">RequestHandlerInterface</text></g><!--class MiddlewareInterface__class--><g id="elem_MiddlewareInterface__class"><rect codeLine="103" fill="#F1F1F1" height="40.2656" id="MiddlewareInterface__class" rx="2.5" ry="2.5" style="stroke:#181818;stroke-width:0.5;" width="175.3223" x="83.5" y="1240"/><ellipse cx="98.5" cy="1260.1328" fill="#ADD1B2" rx="11" ry="11" style="stroke:#181818;stroke-width:1;"/><path d="M101.4688,1265.7734 Q100.8906,1266.0703 100.25,1266.2109 Q99.6094,1266.3672 98.9063,1266.3672 Q96.4063,1266.3672 95.0781,1264.7266 Q93.7656,1263.0703 93.7656,1259.9453 Q93.7656,1256.8203 95.0781,1255.1641 Q96.4063,1253.5078 98.9063,1253.5078 Q99.6094,1253.5078 100.25,1253.6641 Q100.9063,1253.8203 101.4688,1254.1172 L101.4688,1256.8359 Q100.8438,1256.2578 100.25,1255.9922 Q99.6563,1255.7109 99.0313,1255.7109 Q97.6875,1255.7109 97,1256.7891 Q96.3125,1257.8516 96.3125,1259.9453 Q96.3125,1262.0391 97,1263.1172 Q97.6875,1264.1797 99.0313,1264.1797 Q99.6563,1264.1797 100.25,1263.9141 Q100.8438,1263.6328 101.4688,1263.0547 L101.4688,1265.7734 Z " fill="#000000"/><text fill="#000000" font-family="sans-serif" font-size="12" font-style="italic" lengthAdjust="spacing" textLength="64.4824" x="151.9199" y="1256.1387">&#171;external&#187;</text><text fill="#000000" font-family="sans-serif" font-size="14" lengthAdjust="spacing" textLength="143.3223" x="112.5" y="1271.9639">MiddlewareInterface</text></g><polygon fill="transparent" points="281.0341,128.2514,299.6759,131.7845,298.0674,119.8928,281.0341,128.2514" style="stroke:#516F42;stroke-width:1;"/><path d="M298.8716,125.8386 C328.665,121.8086 343.1194,119.8534 372.9419,115.8195 " fill="transparent" style="stroke:#516F42;stroke-width:1;stroke-dasharray:7.0,7.0;"/><polygon fill="transparent" points="311.8084,201,329.8084,207,329.8084,195,311.8084,201" style="stroke:#516F42;stroke-width:1;"/><path d="M329.8084,201 C349.9292,201 352.3994,201 371.8491,201 " fill="transparent" style="stroke:#516F42;stroke-width:1;stroke-dasharray:7.0,7.0;"/><polygon fill="transparent" points="606.5081,611,624.5081,617,624.5081,605,606.5081,611" style="stroke:#516F42;stroke-width:1;"/><path d="M624.5081,611 C642.9724,611 643.7376,611 661.3813,611 " fill="transparent" style="stroke:#516F42;stroke-width:1;stroke-dasharray:7.0,7.0;"/><polygon fill="transparent" points="174.2181,1181.7312,182.4518,1164.6372,170.5487,1163.1157,174.2181,1181.7312" style="stroke:#516F42;stroke-width:1;"/><path d="M176.5003,1163.8764 C184.5244,1101.1005 215.7316,926.5426 332,836 C336.9109,832.1757 342.1884,828.8428 347.7238,825.9434 " fill="transparent" style="stroke:#516F42;stroke-width:1;stroke-dasharray:7.0,7.0;"/><polygon fill="transparent" points="175.7236,1181.6488,185.1858,1165.2029,173.4259,1162.8147,175.7236,1181.6488" style="stroke:#516F42;stroke-width:1;"/><path d="M179.3058,1164.0088 C190.9012,1106.9101 228.4071,962.0646 332,886 C344.1691,877.0646 358.3804,870.8689 373.121,866.6358 " fill="transparent" style="stroke:#516F42;stroke-width:1;stroke-dasharray:7.0,7.0;"/><polygon fill="transparent" points="173.9549,279.4061,170.0316,297.9697,181.9545,296.6109,173.9549,279.4061" style="stroke:#516F42;stroke-width:1;"/><path d="M175.993,297.2903 C183.3017,361.4214 213.0127,542.3075 332,636 C344.0696,645.5038 358.3954,651.9844 373.3355,656.324 " fill="transparent" style="stroke:#516F42;stroke-width:1;stroke-dasharray:7.0,7.0;"/><polygon fill="transparent" points="589.8391,911,607.8391,917,607.8391,905,589.8391,911" style="stroke:#516F42;stroke-width:1;"/><path d="M607.8391,911 C637.3724,911 650.8432,911 678.1257,911 " fill="transparent" style="stroke:#516F42;stroke-width:1;stroke-dasharray:7.0,7.0;"/><polygon fill="transparent" points="258.5391,1261.7143,277.2992,1264.5527,275.2502,1252.7289,258.5391,1261.7143" style="stroke:#516F42;stroke-width:1;"/><path d="M276.2747,1258.6408 C299.4508,1254.6244 304.584,1248.8226 320,1231 C337.8301,1210.3865 313.8741,1006.3538 332,986 C348.9984,966.9123 374.5667,958.6625 399.8286,955.7922 " fill="transparent" style="stroke:#516F42;stroke-width:1;stroke-dasharray:7.0,7.0;"/><polygon fill="transparent" points="554.0842,1011,572.0842,1017,572.0842,1005,554.0842,1011" style="stroke:#516F42;stroke-width:1;"/><path d="M572.0842,1011 C623.0143,1011 672.212,1011 713.7415,1011 " fill="transparent" style="stroke:#516F42;stroke-width:1;stroke-dasharray:7.0,7.0;"/><!--SRC=[lLZRRjim37ttLsZT5spOzbGKQD9sBR0DNThkoK30M4oiHPOyIMwR3VltoTVOZktOYREyH289daEHFdBo9bIm2e1msCZ841sW0G4E8KIlcGX1GK0kbP8lKycb8cy_llkq_F2-wWVFi6TcDXEfAAe-WU2jLqf6WcR1o-JJ77p58922zawUn_V1q3vG-SB4YYo1QtISTjVMmvb0imcHI6LywVYC8i4WD1iIOB10fHsEIqEC98gjV4CeKsYvIU5eD4H0W3e43nymJcSiDTTrdC9CxlrGSb2kcot8dvWp8Hu7hSdPPHYU4T34Vi_dgSr-qfY_pj-cHBV6X3Fy5Q4szqfwgBNCisP9wzuxOL0jRP84gjMR4pW_9_XgRG8ukRZev58iBYFZPoHWeOsoxTlMc1aieh57XtHcPnCMFANJwYsT1mj2ZW4Aeqa9i-aWN7TlUOCBAkgm9gdOxuntlZjTtsQe9N_6FVtRYHgfZpchdSRaW0cRLkz8xMkjxk1wddH6FLxqRLwnkC8G1KNXRUx4prG8QlcdKXYmegA-IA0PLCrs0jGhzYZNA7G2bsz6n44H1UJiCvUB529PpUU9kL_kkDzPACkRkNse8CQQ-kYjw_FU6J6VRtCDvr5_iiiGhTXx1xk2b8vWB_wDz7MHvm6LVGuQ5UCM1EKjEb7t7QCE3KVtbL6R_WKKVeymmYfemgCpelKmwtKNoj1Mpy4Lt8FnVu1YiNXDcA3s9I4TyIR7u2Ug0N26eK9j2qqcGcVDgjZ6WIahgILVRagRyp_rO_XTUFsANcJslSliH8qyxMrudMH6kWbRQpj6Vktr6jfvmqd4EDrLa6RdEA9Rozw4E5Hg-n0-ckzKqkehK9DZtmFSBUjRoQmsfC4-ze3RjpYh1bkWjCAwTO1CT70-Pd3JzDNZgTd66TCqQId_qA7iO7KmgKTGApG9gNHvq8LXkTdx9jAkE-NCLd6jbAp_G9q0pOGeGTjkJuPu8zN2pWoA1B3OdGplcpGtyHyB2Lo-EHdQau3yXsEAM3Oqelu3]--></g></svg>