<svg xmlns="http://www.w3.org/2000/svg" xmlns:xlink="http://www.w3.org/1999/xlink" contentStyleType="text/css" data-diagram-type="CLASS" height="1311px" preserveAspectRatio="none" style="width:916px;height:1311px;background:#FFFFFF;" version="1.1" viewBox="0 0 916 1311" width="916px" zoomAndPan="magnify"><defs/><g><!--cluster Phpolar--><g id="cluster_Phpolar"><path d="M16.5,4 L78.5176,4 A3.75,3.75 0 0 1 81.0176,6.5 L88.0176,26.2969 L906.5,26.2969 A2.5,2.5 0 0 1 909,28.7969 L909,1090.5 A2.5,2.5 0 0 1 906.5,1093 L16.5,1093 A2.5,2.5 0 0 1 14,1090.5 L14,6.5 A2.5,2.5 0 0 1 16.5,4 " fill="transparent" style="stroke:#000000;stroke-width:1.5;"/><line style="stroke:#000000;stroke-width:1.5;" x1="14" x2="88.0176" y1="26.2969" y2="26.2969"/><text fill="#000000" font-family="sans-serif" font-size="14" font-weight="bold" lengthAdjust="spacing" textLength="61.0176" x="18" y="18.9951">Phpolar</text></g><!--cluster Phpolar--><g id="cluster_Phpolar"><path d="M333.5,31 L395.5176,31 A3.75,3.75 0 0 1 398.0176,33.5 L405.0176,53.2969 L898.5,53.2969 A2.5,2.5 0 0 1 901,55.7969 L901,1082.5 A2.5,2.5 0 0 1 898.5,1085 L333.5,1085 A2.5,2.5 0 0 1 331,1082.5 L331,33.5 A2.5,2.5 0 0 1 333.5,31 " fill="transparent" style="stroke:#000000;stroke-width:1.5;"/><line style="stroke:#000000;stroke-width:1.5;" x1="331" x2="405.0176" y1="53.2969" y2="53.2969"/><text fill="#000000" font-family="sans-serif" font-size="14" font-weight="bold" lengthAdjust="spacing" textLength="61.0176" x="335" y="45.9951">Phpolar</text></g><!--cluster Auth--><g id="cluster_Auth"><path d="M371,58 L409.4609,58 A3.75,3.75 0 0 1 411.9609,60.5 L418.9609,80.2969 L605,80.2969 A2.5,2.5 0 0 1 607.5,82.7969 L607.5,272.5 A2.5,2.5 0 0 1 605,275 L371,275 A2.5,2.5 0 0 1 368.5,272.5 L368.5,60.5 A2.5,2.5 0 0 1 371,58 " fill="transparent" style="stroke:#000000;stroke-width:1.5;"/><line style="stroke:#000000;stroke-width:1.5;" x1="368.5" x2="418.9609" y1="80.2969" y2="80.2969"/><text fill="#000000" font-family="sans-serif" font-size="14" font-weight="bold" lengthAdjust="spacing" textLength="37.4609" x="372.5" y="72.9951">Auth</text></g><!--cluster DependencyInjection--><g id="cluster_DependencyInjection"><path d="M408,283 L575.3525,283 A3.75,3.75 0 0 1 577.8525,285.5 L584.8525,305.2969 L816,305.2969 A2.5,2.5 0 0 1 818.5,307.7969 L818.5,397.5 A2.5,2.5 0 0 1 816,400 L408,400 A2.5,2.5 0 0 1 405.5,397.5 L405.5,285.5 A2.5,2.5 0 0 1 408,283 " fill="transparent" style="stroke:#000000;stroke-width:1.5;"/><line style="stroke:#000000;stroke-width:1.5;" x1="405.5" x2="584.8525" y1="305.2969" y2="305.2969"/><text fill="#000000" font-family="sans-serif" font-size="14" font-weight="bold" lengthAdjust="spacing" textLength="166.3525" x="409.5" y="297.9951">DependencyInjection</text></g><!--cluster Http--><g id="cluster_Http"><path d="M341.5,408 L377.623,408 A3.75,3.75 0 0 1 380.123,410.5 L387.123,430.2969 L890.5,430.2969 A2.5,2.5 0 0 1 893,432.7969 L893,1032.5 A2.5,2.5 0 0 1 890.5,1035 L341.5,1035 A2.5,2.5 0 0 1 339,1032.5 L339,410.5 A2.5,2.5 0 0 1 341.5,408 " fill="transparent" style="stroke:#000000;stroke-width:1.5;"/><line style="stroke:#000000;stroke-width:1.5;" x1="339" x2="387.123" y1="430.2969" y2="430.2969"/><text fill="#000000" font-family="sans-serif" font-size="14" font-weight="bold" lengthAdjust="spacing" textLength="35.123" x="343" y="422.9951">Http</text></g><!--cluster Status--><g id="cluster_Status"><path d="M416,435 L468.2148,435 A3.75,3.75 0 0 1 470.7148,437.5 L477.7148,457.2969 L851.5,457.2969 A2.5,2.5 0 0 1 854,459.7969 L854,584.5 A2.5,2.5 0 0 1 851.5,587 L416,587 A2.5,2.5 0 0 1 413.5,584.5 L413.5,437.5 A2.5,2.5 0 0 1 416,435 " fill="transparent" style="stroke:#000000;stroke-width:1.5;"/><line style="stroke:#000000;stroke-width:1.5;" x1="413.5" x2="477.7148" y1="457.2969" y2="457.2969"/><text fill="#000000" font-family="sans-serif" font-size="14" font-weight="bold" lengthAdjust="spacing" textLength="51.2148" x="417.5" y="449.9951">Status</text></g><!--cluster ClientError--><g id="cluster_ClientError"><path d="M424,462 L510.9209,462 A3.75,3.75 0 0 1 513.4209,464.5 L520.4209,484.2969 L843.5,484.2969 A2.5,2.5 0 0 1 846,486.7969 L846,576.5 A2.5,2.5 0 0 1 843.5,579 L424,579 A2.5,2.5 0 0 1 421.5,576.5 L421.5,464.5 A2.5,2.5 0 0 1 424,462 " fill="transparent" style="stroke:#000000;stroke-width:1.5;"/><line style="stroke:#000000;stroke-width:1.5;" x1="421.5" x2="520.4209" y1="484.2969" y2="484.2969"/><text fill="#000000" font-family="sans-serif" font-size="14" font-weight="bold" lengthAdjust="spacing" textLength="85.9209" x="425.5" y="476.9951">ClientError</text></g><!--cluster HttpRequestProcessor--><g id="cluster_HttpRequestProcessor"><path d="M24.5,75 L203.1729,75 A3.75,3.75 0 0 1 205.6729,77.5 L212.6729,97.2969 L316.5,97.2969 A2.5,2.5 0 0 1 319,99.7969 L319,205.5 A2.5,2.5 0 0 1 316.5,208 L24.5,208 A2.5,2.5 0 0 1 22,205.5 L22,77.5 A2.5,2.5 0 0 1 24.5,75 " fill="transparent" style="stroke:#000000;stroke-width:1.5;"/><line style="stroke:#000000;stroke-width:1.5;" x1="22" x2="212.6729" y1="97.2969" y2="97.2969"/><text fill="#000000" font-family="sans-serif" font-size="14" font-weight="bold" lengthAdjust="spacing" textLength="177.6729" x="26" y="89.9951">HttpRequestProcessor</text></g><!--cluster Psr--><g id="cluster_Psr"><path d="M45.5,1101 L71.998,1101 A3.75,3.75 0 0 1 74.498,1103.5 L81.498,1123.2969 L295.5,1123.2969 A2.5,2.5 0 0 1 298,1125.7969 L298,1301.5 A2.5,2.5 0 0 1 295.5,1304 L45.5,1304 A2.5,2.5 0 0 1 43,1301.5 L43,1103.5 A2.5,2.5 0 0 1 45.5,1101 " fill="transparent" style="stroke:#000000;stroke-width:1.5;"/><line style="stroke:#000000;stroke-width:1.5;" x1="43" x2="81.498" y1="1123.2969" y2="1123.2969"/><text fill="#000000" font-family="sans-serif" font-size="14" font-weight="bold" lengthAdjust="spacing" textLength="25.498" x="47" y="1115.9951">Psr</text></g><!--cluster Http--><g id="cluster_Http"><path d="M53.5,1128 L89.623,1128 A3.75,3.75 0 0 1 92.123,1130.5 L99.123,1150.2969 L287.5,1150.2969 A2.5,2.5 0 0 1 290,1152.7969 L290,1293.5 A2.5,2.5 0 0 1 287.5,1296 L53.5,1296 A2.5,2.5 0 0 1 51,1293.5 L51,1130.5 A2.5,2.5 0 0 1 53.5,1128 " fill="transparent" style="stroke:#000000;stroke-width:1.5;"/><line style="stroke:#000000;stroke-width:1.5;" x1="51" x2="99.123" y1="1150.2969" y2="1150.2969"/><text fill="#000000" font-family="sans-serif" font-size="14" font-weight="bold" lengthAdjust="spacing" textLength="35.123" x="55" y="1142.9951">Http</text></g><!--cluster Server--><g id="cluster_Server"><path d="M61.5,1155 L114.5078,1155 A3.75,3.75 0 0 1 117.0078,1157.5 L124.0078,1177.2969 L279.5,1177.2969 A2.5,2.5 0 0 1 282,1179.7969 L282,1285.5 A2.5,2.5 0 0 1 279.5,1288 L61.5,1288 A2.5,2.5 0 0 1 59,1285.5 L59,1157.5 A2.5,2.5 0 0 1 61.5,1155 " fill="transparent" style="stroke:#000000;stroke-width:1.5;"/><line style="stroke:#000000;stroke-width:1.5;" x1="59" x2="124.0078" y1="1177.2969" y2="1177.2969"/><text fill="#000000" font-family="sans-serif" font-size="14" font-weight="bold" lengthAdjust="spacing" textLength="52.0078" x="63" y="1169.9951">Server</text></g><!--class App__class--><g id="elem_App__class"><rect codeLine="15" fill="#F1F1F1" height="32" id="App__class" rx="2.5" ry="2.5" style="stroke:#181818;stroke-width:0.5;" width="59.3506" x="458.5" y="1045"/><ellipse cx="473.5" cy="1061" fill="#ADD1B2" rx="11" ry="11" style="stroke:#181818;stroke-width:1;"/><path d="M476.4688,1066.6406 Q475.8906,1066.9375 475.25,1067.0781 Q474.6094,1067.2344 473.9063,1067.2344 Q471.4063,1067.2344 470.0781,1065.5938 Q468.7656,1063.9375 468.7656,1060.8125 Q468.7656,1057.6875 470.0781,1056.0313 Q471.4063,1054.375 473.9063,1054.375 Q474.6094,1054.375 475.25,1054.5313 Q475.9063,1054.6875 476.4688,1054.9844 L476.4688,1057.7031 Q475.8438,1057.125 475.25,1056.8594 Q474.6563,1056.5781 474.0313,1056.5781 Q472.6875,1056.5781 472,1057.6563 Q471.3125,1058.7188 471.3125,1060.8125 Q471.3125,1062.9063 472,1063.9844 Q472.6875,1065.0469 474.0313,1065.0469 Q474.6563,1065.0469 475.25,1064.7813 Q475.8438,1064.5 476.4688,1063.9219 L476.4688,1066.6406 Z " fill="#000000"/><text fill="#000000" font-family="sans-serif" font-size="14" lengthAdjust="spacing" textLength="27.3506" x="487.5" y="1065.8467">App</text></g><!--class AbstractProtectedRoutable__class--><g id="elem_AbstractProtectedRoutable__class"><rect codeLine="23" fill="#F1F1F1" height="32" id="AbstractProtectedRoutable__class" rx="2.5" ry="2.5" style="stroke:#181818;stroke-width:0.5;" width="220.9453" x="377.5" y="85"/><ellipse cx="392.5" cy="101" fill="#A9DCDF" rx="11" ry="11" style="stroke:#181818;stroke-width:1;"/><path d="M392.6094,96.3438 L391.4531,101.4219 L393.7813,101.4219 L392.6094,96.3438 Z M391.125,94.1094 L394.1094,94.1094 L397.4688,106.5 L395.0156,106.5 L394.25,103.4375 L390.9688,103.4375 L390.2188,106.5 L387.7813,106.5 L391.125,94.1094 Z " fill="#000000"/><text fill="#000000" font-family="sans-serif" font-size="14" font-style="italic" lengthAdjust="spacing" textLength="188.9453" x="406.5" y="105.8467">AbstractProtectedRoutable</text></g><!--class Authorize__class--><g id="elem_Authorize__class"><rect codeLine="27" fill="#F1F1F1" height="32" id="Authorize__class" rx="2.5" ry="2.5" style="stroke:#181818;stroke-width:0.5;" width="98.9854" x="438.5" y="135"/><ellipse cx="453.5" cy="151" fill="#ADD1B2" rx="11" ry="11" style="stroke:#181818;stroke-width:1;"/><path d="M456.4688,156.6406 Q455.8906,156.9375 455.25,157.0781 Q454.6094,157.2344 453.9063,157.2344 Q451.4063,157.2344 450.0781,155.5938 Q448.7656,153.9375 448.7656,150.8125 Q448.7656,147.6875 450.0781,146.0313 Q451.4063,144.375 453.9063,144.375 Q454.6094,144.375 455.25,144.5313 Q455.9063,144.6875 456.4688,144.9844 L456.4688,147.7031 Q455.8438,147.125 455.25,146.8594 Q454.6563,146.5781 454.0313,146.5781 Q452.6875,146.5781 452,147.6563 Q451.3125,148.7188 451.3125,150.8125 Q451.3125,152.9063 452,153.9844 Q452.6875,155.0469 454.0313,155.0469 Q454.6563,155.0469 455.25,154.7813 Q455.8438,154.5 456.4688,153.9219 L456.4688,156.6406 Z " fill="#000000"/><text fill="#000000" font-family="sans-serif" font-size="14" lengthAdjust="spacing" textLength="66.9854" x="467.5" y="155.8467">Authorize</text></g><!--class ProtectedRoutableResolver__class--><g id="elem_ProtectedRoutableResolver__class"><rect codeLine="35" fill="#F1F1F1" height="32" id="ProtectedRoutableResolver__class" rx="2.5" ry="2.5" style="stroke:#181818;stroke-width:0.5;" width="222.9209" x="376.5" y="185"/><ellipse cx="391.5" cy="201" fill="#ADD1B2" rx="11" ry="11" style="stroke:#181818;stroke-width:1;"/><path d="M394.4688,206.6406 Q393.8906,206.9375 393.25,207.0781 Q392.6094,207.2344 391.9063,207.2344 Q389.4063,207.2344 388.0781,205.5938 Q386.7656,203.9375 386.7656,200.8125 Q386.7656,197.6875 388.0781,196.0313 Q389.4063,194.375 391.9063,194.375 Q392.6094,194.375 393.25,194.5313 Q393.9063,194.6875 394.4688,194.9844 L394.4688,197.7031 Q393.8438,197.125 393.25,196.8594 Q392.6563,196.5781 392.0313,196.5781 Q390.6875,196.5781 390,197.6563 Q389.3125,198.7188 389.3125,200.8125 Q389.3125,202.9063 390,203.9844 Q390.6875,205.0469 392.0313,205.0469 Q392.6563,205.0469 393.25,204.7813 Q393.8438,204.5 394.4688,203.9219 L394.4688,206.6406 Z " fill="#000000"/><text fill="#000000" font-family="sans-serif" font-size="14" lengthAdjust="spacing" textLength="190.9209" x="405.5" y="205.8467">ProtectedRoutableResolver</text></g><!--class User__class--><g id="elem_User__class"><rect codeLine="39" fill="#F1F1F1" height="32" id="User__class" rx="2.5" ry="2.5" style="stroke:#181818;stroke-width:0.5;" width="63.9102" x="456" y="235"/><ellipse cx="471" cy="251" fill="#ADD1B2" rx="11" ry="11" style="stroke:#181818;stroke-width:1;"/><path d="M473.9688,256.6406 Q473.3906,256.9375 472.75,257.0781 Q472.1094,257.2344 471.4063,257.2344 Q468.9063,257.2344 467.5781,255.5938 Q466.2656,253.9375 466.2656,250.8125 Q466.2656,247.6875 467.5781,246.0313 Q468.9063,244.375 471.4063,244.375 Q472.1094,244.375 472.75,244.5313 Q473.4063,244.6875 473.9688,244.9844 L473.9688,247.7031 Q473.3438,247.125 472.75,246.8594 Q472.1563,246.5781 471.5313,246.5781 Q470.1875,246.5781 469.5,247.6563 Q468.8125,248.7188 468.8125,250.8125 Q468.8125,252.9063 469.5,253.9844 Q470.1875,255.0469 471.5313,255.0469 Q472.1563,255.0469 472.75,254.7813 Q473.3438,254.5 473.9688,253.9219 L473.9688,256.6406 Z " fill="#000000"/><text fill="#000000" font-family="sans-serif" font-size="14" lengthAdjust="spacing" textLength="31.9102" x="485" y="255.8467">User</text></g><!--class ContainerLoader__class--><g id="elem_ContainerLoader__class"><rect codeLine="43" fill="#F1F1F1" height="32" id="ContainerLoader__class" rx="2.5" ry="2.5" style="stroke:#181818;stroke-width:0.5;" width="148.6143" x="413.5" y="360"/><ellipse cx="428.5" cy="376" fill="#ADD1B2" rx="11" ry="11" style="stroke:#181818;stroke-width:1;"/><path d="M431.4688,381.6406 Q430.8906,381.9375 430.25,382.0781 Q429.6094,382.2344 428.9063,382.2344 Q426.4063,382.2344 425.0781,380.5938 Q423.7656,378.9375 423.7656,375.8125 Q423.7656,372.6875 425.0781,371.0313 Q426.4063,369.375 428.9063,369.375 Q429.6094,369.375 430.25,369.5313 Q430.9063,369.6875 431.4688,369.9844 L431.4688,372.7031 Q430.8438,372.125 430.25,371.8594 Q429.6563,371.5781 429.0313,371.5781 Q427.6875,371.5781 427,372.6563 Q426.3125,373.7188 426.3125,375.8125 Q426.3125,377.9063 427,378.9844 Q427.6875,380.0469 429.0313,380.0469 Q429.6563,380.0469 430.25,379.7813 Q430.8438,379.5 431.4688,378.9219 L431.4688,381.6406 Z " fill="#000000"/><text fill="#000000" font-family="sans-serif" font-size="14" lengthAdjust="spacing" textLength="116.6143" x="442.5" y="380.8467">ContainerLoader</text></g><!--class DiTokens__class--><g id="elem_DiTokens__class"><rect codeLine="47" fill="#F1F1F1" height="32" id="DiTokens__class" rx="2.5" ry="2.5" style="stroke:#181818;stroke-width:0.5;" width="96.6748" x="439.5" y="310"/><ellipse cx="454.5" cy="326" fill="#ADD1B2" rx="11" ry="11" style="stroke:#181818;stroke-width:1;"/><path d="M457.4688,331.6406 Q456.8906,331.9375 456.25,332.0781 Q455.6094,332.2344 454.9063,332.2344 Q452.4063,332.2344 451.0781,330.5938 Q449.7656,328.9375 449.7656,325.8125 Q449.7656,322.6875 451.0781,321.0313 Q452.4063,319.375 454.9063,319.375 Q455.6094,319.375 456.25,319.5313 Q456.9063,319.6875 457.4688,319.9844 L457.4688,322.7031 Q456.8438,322.125 456.25,321.8594 Q455.6563,321.5781 455.0313,321.5781 Q453.6875,321.5781 453,322.6563 Q452.3125,323.7188 452.3125,325.8125 Q452.3125,327.9063 453,328.9844 Q453.6875,330.0469 455.0313,330.0469 Q455.6563,330.0469 456.25,329.7813 Q456.8438,329.5 457.4688,328.9219 L457.4688,331.6406 Z " fill="#000000"/><text fill="#000000" font-family="sans-serif" font-size="14" lengthAdjust="spacing" textLength="64.6748" x="468.5" y="330.8467">DiTokens</text></g><!--class Globs__enum--><g id="elem_Globs__enum"><rect codeLine="51" fill="#F1F1F1" height="32" id="Globs__enum" rx="2.5" ry="2.5" style="stroke:#181818;stroke-width:0.5;" width="71.4844" x="739.5" y="360"/><ellipse cx="754.5" cy="376" fill="#EB937F" rx="11" ry="11" style="stroke:#181818;stroke-width:1;"/><path d="M758.6094,382 L750.8906,382 L750.8906,369.6094 L758.6094,369.6094 L758.6094,371.7656 L753.3438,371.7656 L753.3438,374.4375 L758.1094,374.4375 L758.1094,376.5938 L753.3438,376.5938 L753.3438,379.8438 L758.6094,379.8438 L758.6094,382 Z " fill="#000000"/><text fill="#000000" font-family="sans-serif" font-size="14" lengthAdjust="spacing" textLength="39.4844" x="768.5" y="380.8467">Globs</text></g><!--class AuthorizationCheckerInterface__interface--><g id="elem_AuthorizationCheckerInterface__interface"><rect codeLine="55" fill="#F1F1F1" height="32" id="AuthorizationCheckerInterface__interface" rx="2.5" ry="2.5" style="stroke:#181818;stroke-width:0.5;" width="245.8828" x="365" y="595"/><ellipse cx="380" cy="611" fill="#B4A7E5" rx="11" ry="11" style="stroke:#181818;stroke-width:1;"/><path d="M375.9219,606.7656 L375.9219,604.6094 L383.3125,604.6094 L383.3125,606.7656 L380.8438,606.7656 L380.8438,614.8438 L383.3125,614.8438 L383.3125,617 L375.9219,617 L375.9219,614.8438 L378.3906,614.8438 L378.3906,606.7656 L375.9219,606.7656 Z " fill="#000000"/><text fill="#000000" font-family="sans-serif" font-size="14" font-style="italic" lengthAdjust="spacing" textLength="213.8828" x="394" y="615.8467">AuthorizationCheckerInterface</text></g><!--class AuthorizationChecker__class--><g id="elem_AuthorizationChecker__class"><rect codeLine="59" fill="#F1F1F1" height="32" id="AuthorizationChecker__class" rx="2.5" ry="2.5" style="stroke:#181818;stroke-width:0.5;" width="183.2041" x="683.5" y="595"/><ellipse cx="698.5" cy="611" fill="#ADD1B2" rx="11" ry="11" style="stroke:#181818;stroke-width:1;"/><path d="M701.4688,616.6406 Q700.8906,616.9375 700.25,617.0781 Q699.6094,617.2344 698.9063,617.2344 Q696.4063,617.2344 695.0781,615.5938 Q693.7656,613.9375 693.7656,610.8125 Q693.7656,607.6875 695.0781,606.0313 Q696.4063,604.375 698.9063,604.375 Q699.6094,604.375 700.25,604.5313 Q700.9063,604.6875 701.4688,604.9844 L701.4688,607.7031 Q700.8438,607.125 700.25,606.8594 Q699.6563,606.5781 699.0313,606.5781 Q697.6875,606.5781 697,607.6563 Q696.3125,608.7188 696.3125,610.8125 Q696.3125,612.9063 697,613.9844 Q697.6875,615.0469 699.0313,615.0469 Q699.6563,615.0469 700.25,614.7813 Q700.8438,614.5 701.4688,613.9219 L701.4688,616.6406 Z " fill="#000000"/><text fill="#000000" font-family="sans-serif" font-size="14" lengthAdjust="spacing" textLength="151.2041" x="712.5" y="615.8467">AuthorizationChecker</text></g><!--class MiddlewareQueueRequestHandler__class--><g id="elem_MiddlewareQueueRequestHandler__class"><rect codeLine="67" fill="#F1F1F1" height="32" id="MiddlewareQueueRequestHandler__class" rx="2.5" ry="2.5" style="stroke:#181818;stroke-width:0.5;" width="271.2578" x="352.5" y="645"/><ellipse cx="367.5" cy="661" fill="#ADD1B2" rx="11" ry="11" style="stroke:#181818;stroke-width:1;"/><path d="M370.4688,666.6406 Q369.8906,666.9375 369.25,667.0781 Q368.6094,667.2344 367.9063,667.2344 Q365.4063,667.2344 364.0781,665.5938 Q362.7656,663.9375 362.7656,660.8125 Q362.7656,657.6875 364.0781,656.0313 Q365.4063,654.375 367.9063,654.375 Q368.6094,654.375 369.25,654.5313 Q369.9063,654.6875 370.4688,654.9844 L370.4688,657.7031 Q369.8438,657.125 369.25,656.8594 Q368.6563,656.5781 368.0313,656.5781 Q366.6875,656.5781 366,657.6563 Q365.3125,658.7188 365.3125,660.8125 Q365.3125,662.9063 366,663.9844 Q366.6875,665.0469 368.0313,665.0469 Q368.6563,665.0469 369.25,664.7813 Q369.8438,664.5 370.4688,663.9219 L370.4688,666.6406 Z " fill="#000000"/><text fill="#000000" font-family="sans-serif" font-size="14" lengthAdjust="spacing" textLength="239.2578" x="381.5" y="665.8467">MiddlewareQueueRequestHandler</text></g><!--class PathVariableBindings__class--><g id="elem_PathVariableBindings__class"><rect codeLine="71" fill="#F1F1F1" height="32" id="PathVariableBindings__class" rx="2.5" ry="2.5" style="stroke:#181818;stroke-width:0.5;" width="181.3516" x="397.5" y="745"/><ellipse cx="412.5" cy="761" fill="#ADD1B2" rx="11" ry="11" style="stroke:#181818;stroke-width:1;"/><path d="M415.4688,766.6406 Q414.8906,766.9375 414.25,767.0781 Q413.6094,767.2344 412.9063,767.2344 Q410.4063,767.2344 409.0781,765.5938 Q407.7656,763.9375 407.7656,760.8125 Q407.7656,757.6875 409.0781,756.0313 Q410.4063,754.375 412.9063,754.375 Q413.6094,754.375 414.25,754.5313 Q414.9063,754.6875 415.4688,754.9844 L415.4688,757.7031 Q414.8438,757.125 414.25,756.8594 Q413.6563,756.5781 413.0313,756.5781 Q411.6875,756.5781 411,757.6563 Q410.3125,758.7188 410.3125,760.8125 Q410.3125,762.9063 411,763.9844 Q411.6875,765.0469 413.0313,765.0469 Q413.6563,765.0469 414.25,764.7813 Q414.8438,764.5 415.4688,763.9219 L415.4688,766.6406 Z " fill="#000000"/><text fill="#000000" font-family="sans-serif" font-size="14" lengthAdjust="spacing" textLength="149.3516" x="426.5" y="765.8467">PathVariableBindings</text></g><!--class Representations__class--><g id="elem_Representations__class"><rect codeLine="75" fill="#F1F1F1" height="32" id="Representations__class" rx="2.5" ry="2.5" style="stroke:#181818;stroke-width:0.5;" width="146.5566" x="414.5" y="695"/><ellipse cx="429.5" cy="711" fill="#ADD1B2" rx="11" ry="11" style="stroke:#181818;stroke-width:1;"/><path d="M432.4688,716.6406 Q431.8906,716.9375 431.25,717.0781 Q430.6094,717.2344 429.9063,717.2344 Q427.4063,717.2344 426.0781,715.5938 Q424.7656,713.9375 424.7656,710.8125 Q424.7656,707.6875 426.0781,706.0313 Q427.4063,704.375 429.9063,704.375 Q430.6094,704.375 431.25,704.5313 Q431.9063,704.6875 432.4688,704.9844 L432.4688,707.7031 Q431.8438,707.125 431.25,706.8594 Q430.6563,706.5781 430.0313,706.5781 Q428.6875,706.5781 428,707.6563 Q427.3125,708.7188 427.3125,710.8125 Q427.3125,712.9063 428,713.9844 Q428.6875,715.0469 430.0313,715.0469 Q430.6563,715.0469 431.25,714.7813 Q431.8438,714.5 432.4688,713.9219 L432.4688,716.6406 Z " fill="#000000"/><text fill="#000000" font-family="sans-serif" font-size="14" lengthAdjust="spacing" textLength="114.5566" x="443.5" y="715.8467">Representations</text></g><!--class RequestProcessingHandler__class--><g id="elem_RequestProcessingHandler__class"><rect codeLine="79" fill="#F1F1F1" height="32" id="RequestProcessingHandler__class" rx="2.5" ry="2.5" style="stroke:#181818;stroke-width:0.5;" width="219.9336" x="378" y="795"/><ellipse cx="393" cy="811" fill="#ADD1B2" rx="11" ry="11" style="stroke:#181818;stroke-width:1;"/><path d="M395.9688,816.6406 Q395.3906,816.9375 394.75,817.0781 Q394.1094,817.2344 393.4063,817.2344 Q390.9063,817.2344 389.5781,815.5938 Q388.2656,813.9375 388.2656,810.8125 Q388.2656,807.6875 389.5781,806.0313 Q390.9063,804.375 393.4063,804.375 Q394.1094,804.375 394.75,804.5313 Q395.4063,804.6875 395.9688,804.9844 L395.9688,807.7031 Q395.3438,807.125 394.75,806.8594 Q394.1563,806.5781 393.5313,806.5781 Q392.1875,806.5781 391.5,807.6563 Q390.8125,808.7188 390.8125,810.8125 Q390.8125,812.9063 391.5,813.9844 Q392.1875,815.0469 393.5313,815.0469 Q394.1563,815.0469 394.75,814.7813 Q395.3438,814.5 395.9688,813.9219 L395.9688,816.6406 Z " fill="#000000"/><text fill="#000000" font-family="sans-serif" font-size="14" lengthAdjust="spacing" textLength="187.9336" x="407" y="815.8467">RequestProcessingHandler</text></g><!--class RequestProcessorExecutorInterface__interface--><g id="elem_RequestProcessorExecutorInterface__interface"><rect codeLine="83" fill="#F1F1F1" height="32" id="RequestProcessorExecutorInterface__interface" rx="2.5" ry="2.5" style="stroke:#181818;stroke-width:0.5;" width="282.2842" x="347" y="845"/><ellipse cx="362" cy="861" fill="#B4A7E5" rx="11" ry="11" style="stroke:#181818;stroke-width:1;"/><path d="M357.9219,856.7656 L357.9219,854.6094 L365.3125,854.6094 L365.3125,856.7656 L362.8438,856.7656 L362.8438,864.8438 L365.3125,864.8438 L365.3125,867 L357.9219,867 L357.9219,864.8438 L360.3906,864.8438 L360.3906,856.7656 L357.9219,856.7656 Z " fill="#000000"/><text fill="#000000" font-family="sans-serif" font-size="14" font-style="italic" lengthAdjust="spacing" textLength="250.2842" x="376" y="865.8467">RequestProcessorExecutorInterface</text></g><!--class RequestProcessorExecutor__class--><g id="elem_RequestProcessorExecutor__class"><rect codeLine="87" fill="#F1F1F1" height="32" id="RequestProcessorExecutor__class" rx="2.5" ry="2.5" style="stroke:#181818;stroke-width:0.5;" width="219.6055" x="665" y="845"/><ellipse cx="680" cy="861" fill="#ADD1B2" rx="11" ry="11" style="stroke:#181818;stroke-width:1;"/><path d="M682.9688,866.6406 Q682.3906,866.9375 681.75,867.0781 Q681.1094,867.2344 680.4063,867.2344 Q677.9063,867.2344 676.5781,865.5938 Q675.2656,863.9375 675.2656,860.8125 Q675.2656,857.6875 676.5781,856.0313 Q677.9063,854.375 680.4063,854.375 Q681.1094,854.375 681.75,854.5313 Q682.4063,854.6875 682.9688,854.9844 L682.9688,857.7031 Q682.3438,857.125 681.75,856.8594 Q681.1563,856.5781 680.5313,856.5781 Q679.1875,856.5781 678.5,857.6563 Q677.8125,858.7188 677.8125,860.8125 Q677.8125,862.9063 678.5,863.9844 Q679.1875,865.0469 680.5313,865.0469 Q681.1563,865.0469 681.75,864.7813 Q682.3438,864.5 682.9688,863.9219 L682.9688,866.6406 Z " fill="#000000"/><text fill="#000000" font-family="sans-serif" font-size="14" lengthAdjust="spacing" textLength="187.6055" x="694" y="865.8467">RequestProcessorExecutor</text></g><!--class ResponseBuilderInterface__interface--><g id="elem_ResponseBuilderInterface__interface"><rect codeLine="91" fill="#F1F1F1" height="32" id="ResponseBuilderInterface__interface" rx="2.5" ry="2.5" style="stroke:#181818;stroke-width:0.5;" width="212.0586" x="382" y="895"/><ellipse cx="397" cy="911" fill="#B4A7E5" rx="11" ry="11" style="stroke:#181818;stroke-width:1;"/><path d="M392.9219,906.7656 L392.9219,904.6094 L400.3125,904.6094 L400.3125,906.7656 L397.8438,906.7656 L397.8438,914.8438 L400.3125,914.8438 L400.3125,917 L392.9219,917 L392.9219,914.8438 L395.3906,914.8438 L395.3906,906.7656 L392.9219,906.7656 Z " fill="#000000"/><text fill="#000000" font-family="sans-serif" font-size="14" font-style="italic" lengthAdjust="spacing" textLength="180.0586" x="411" y="915.8467">ResponseBuilderInterface</text></g><!--class ResponseBuilder__class--><g id="elem_ResponseBuilder__class"><rect codeLine="95" fill="#F1F1F1" height="32" id="ResponseBuilder__class" rx="2.5" ry="2.5" style="stroke:#181818;stroke-width:0.5;" width="149.3799" x="700.5" y="895"/><ellipse cx="715.5" cy="911" fill="#ADD1B2" rx="11" ry="11" style="stroke:#181818;stroke-width:1;"/><path d="M718.4688,916.6406 Q717.8906,916.9375 717.25,917.0781 Q716.6094,917.2344 715.9063,917.2344 Q713.4063,917.2344 712.0781,915.5938 Q710.7656,913.9375 710.7656,910.8125 Q710.7656,907.6875 712.0781,906.0313 Q713.4063,904.375 715.9063,904.375 Q716.6094,904.375 717.25,904.5313 Q717.9063,904.6875 718.4688,904.9844 L718.4688,907.7031 Q717.8438,907.125 717.25,906.8594 Q716.6563,906.5781 716.0313,906.5781 Q714.6875,906.5781 714,907.6563 Q713.3125,908.7188 713.3125,910.8125 Q713.3125,912.9063 714,913.9844 Q714.6875,915.0469 716.0313,915.0469 Q716.6563,915.0469 717.25,914.7813 Q717.8438,914.5 718.4688,913.9219 L718.4688,916.6406 Z " fill="#000000"/><text fill="#000000" font-family="sans-serif" font-size="14" lengthAdjust="spacing" textLength="117.3799" x="729.5" y="915.8467">ResponseBuilder</text></g><!--class RoutingMiddleware__class--><g id="elem_RoutingMiddleware__class"><rect codeLine="103" fill="#F1F1F1" height="32" id="RoutingMiddleware__class" rx="2.5" ry="2.5" style="stroke:#181818;stroke-width:0.5;" width="166.9482" x="404.5" y="945"/><ellipse cx="419.5" cy="961" fill="#ADD1B2" rx="11" ry="11" style="stroke:#181818;stroke-width:1;"/><path d="M422.4688,966.6406 Q421.8906,966.9375 421.25,967.0781 Q420.6094,967.2344 419.9063,967.2344 Q417.4063,967.2344 416.0781,965.5938 Q414.7656,963.9375 414.7656,960.8125 Q414.7656,957.6875 416.0781,956.0313 Q417.4063,954.375 419.9063,954.375 Q420.6094,954.375 421.25,954.5313 Q421.9063,954.6875 422.4688,954.9844 L422.4688,957.7031 Q421.8438,957.125 421.25,956.8594 Q420.6563,956.5781 420.0313,956.5781 Q418.6875,956.5781 418,957.6563 Q417.3125,958.7188 417.3125,960.8125 Q417.3125,962.9063 418,963.9844 Q418.6875,965.0469 420.0313,965.0469 Q420.6563,965.0469 421.25,964.7813 Q421.8438,964.5 422.4688,963.9219 L422.4688,966.6406 Z " fill="#000000"/><text fill="#000000" font-family="sans-serif" font-size="14" lengthAdjust="spacing" textLength="134.9482" x="433.5" y="965.8467">RoutingMiddleware</text></g><!--class ServerInterface__interface--><g id="elem_ServerInterface__interface"><rect codeLine="107" fill="#F1F1F1" height="32" id="ServerInterface__interface" rx="2.5" ry="2.5" style="stroke:#181818;stroke-width:0.5;" width="140.5889" x="417.5" y="995"/><ellipse cx="432.5" cy="1011" fill="#B4A7E5" rx="11" ry="11" style="stroke:#181818;stroke-width:1;"/><path d="M428.4219,1006.7656 L428.4219,1004.6094 L435.8125,1004.6094 L435.8125,1006.7656 L433.3438,1006.7656 L433.3438,1014.8438 L435.8125,1014.8438 L435.8125,1017 L428.4219,1017 L428.4219,1014.8438 L430.8906,1014.8438 L430.8906,1006.7656 L428.4219,1006.7656 Z " fill="#000000"/><text fill="#000000" font-family="sans-serif" font-size="14" font-style="italic" lengthAdjust="spacing" textLength="108.5889" x="446.5" y="1015.8467">ServerInterface</text></g><!--class Server__class--><g id="elem_Server__class"><rect codeLine="111" fill="#F1F1F1" height="32" id="Server__class" rx="2.5" ry="2.5" style="stroke:#181818;stroke-width:0.5;" width="77.9102" x="736" y="995"/><ellipse cx="751" cy="1011" fill="#ADD1B2" rx="11" ry="11" style="stroke:#181818;stroke-width:1;"/><path d="M753.9688,1016.6406 Q753.3906,1016.9375 752.75,1017.0781 Q752.1094,1017.2344 751.4063,1017.2344 Q748.9063,1017.2344 747.5781,1015.5938 Q746.2656,1013.9375 746.2656,1010.8125 Q746.2656,1007.6875 747.5781,1006.0313 Q748.9063,1004.375 751.4063,1004.375 Q752.1094,1004.375 752.75,1004.5313 Q753.4063,1004.6875 753.9688,1004.9844 L753.9688,1007.7031 Q753.3438,1007.125 752.75,1006.8594 Q752.1563,1006.5781 751.5313,1006.5781 Q750.1875,1006.5781 749.5,1007.6563 Q748.8125,1008.7188 748.8125,1010.8125 Q748.8125,1012.9063 749.5,1013.9844 Q750.1875,1015.0469 751.5313,1015.0469 Q752.1563,1015.0469 752.75,1014.7813 Q753.3438,1014.5 753.9688,1013.9219 L753.9688,1016.6406 Z " fill="#000000"/><text fill="#000000" font-family="sans-serif" font-size="14" lengthAdjust="spacing" textLength="45.9102" x="765" y="1015.8467">Server</text></g><!--class Target__class--><g id="elem_Target__class"><rect codeLine="115" fill="#F1F1F1" height="32" id="Target__class" rx="2.5" ry="2.5" style="stroke:#181818;stroke-width:0.5;" width="77.876" x="736" y="745"/><ellipse cx="751" cy="761" fill="#ADD1B2" rx="11" ry="11" style="stroke:#181818;stroke-width:1;"/><path d="M753.9688,766.6406 Q753.3906,766.9375 752.75,767.0781 Q752.1094,767.2344 751.4063,767.2344 Q748.9063,767.2344 747.5781,765.5938 Q746.2656,763.9375 746.2656,760.8125 Q746.2656,757.6875 747.5781,756.0313 Q748.9063,754.375 751.4063,754.375 Q752.1094,754.375 752.75,754.5313 Q753.4063,754.6875 753.9688,754.9844 L753.9688,757.7031 Q753.3438,757.125 752.75,756.8594 Q752.1563,756.5781 751.5313,756.5781 Q750.1875,756.5781 749.5,757.6563 Q748.8125,758.7188 748.8125,760.8125 Q748.8125,762.9063 749.5,763.9844 Q750.1875,765.0469 751.5313,765.0469 Q752.1563,765.0469 752.75,764.7813 Q753.3438,764.5 753.9688,763.9219 L753.9688,766.6406 Z " fill="#000000"/><text fill="#000000" font-family="sans-serif" font-size="14" lengthAdjust="spacing" textLength="45.876" x="765" y="765.8467">Target</text></g><!--class BadRequest__class--><g id="elem_BadRequest__class"><rect codeLine="119" fill="#F1F1F1" height="32" id="BadRequest__class" rx="2.5" ry="2.5" style="stroke:#181818;stroke-width:0.5;" width="116.5674" x="429.5" y="539"/><ellipse cx="444.5" cy="555" fill="#ADD1B2" rx="11" ry="11" style="stroke:#181818;stroke-width:1;"/><path d="M447.4688,560.6406 Q446.8906,560.9375 446.25,561.0781 Q445.6094,561.2344 444.9063,561.2344 Q442.4063,561.2344 441.0781,559.5938 Q439.7656,557.9375 439.7656,554.8125 Q439.7656,551.6875 441.0781,550.0313 Q442.4063,548.375 444.9063,548.375 Q445.6094,548.375 446.25,548.5313 Q446.9063,548.6875 447.4688,548.9844 L447.4688,551.7031 Q446.8438,551.125 446.25,550.8594 Q445.6563,550.5781 445.0313,550.5781 Q443.6875,550.5781 443,551.6563 Q442.3125,552.7188 442.3125,554.8125 Q442.3125,556.9063 443,557.9844 Q443.6875,559.0469 445.0313,559.0469 Q445.6563,559.0469 446.25,558.7813 Q446.8438,558.5 447.4688,557.9219 L447.4688,560.6406 Z " fill="#000000"/><text fill="#000000" font-family="sans-serif" font-size="14" lengthAdjust="spacing" textLength="84.5674" x="458.5" y="559.8467">BadRequest</text></g><!--class Forbidden__class--><g id="elem_Forbidden__class"><rect codeLine="123" fill="#F1F1F1" height="32" id="Forbidden__class" rx="2.5" ry="2.5" style="stroke:#181818;stroke-width:0.5;" width="102.4102" x="437" y="489"/><ellipse cx="452" cy="505" fill="#ADD1B2" rx="11" ry="11" style="stroke:#181818;stroke-width:1;"/><path d="M454.9688,510.6406 Q454.3906,510.9375 453.75,511.0781 Q453.1094,511.2344 452.4063,511.2344 Q449.9063,511.2344 448.5781,509.5938 Q447.2656,507.9375 447.2656,504.8125 Q447.2656,501.6875 448.5781,500.0313 Q449.9063,498.375 452.4063,498.375 Q453.1094,498.375 453.75,498.5313 Q454.4063,498.6875 454.9688,498.9844 L454.9688,501.7031 Q454.3438,501.125 453.75,500.8594 Q453.1563,500.5781 452.5313,500.5781 Q451.1875,500.5781 450.5,501.6563 Q449.8125,502.7188 449.8125,504.8125 Q449.8125,506.9063 450.5,507.9844 Q451.1875,509.0469 452.5313,509.0469 Q453.1563,509.0469 453.75,508.7813 Q454.3438,508.5 454.9688,507.9219 L454.9688,510.6406 Z " fill="#000000"/><text fill="#000000" font-family="sans-serif" font-size="14" lengthAdjust="spacing" textLength="70.4102" x="466" y="509.8467">Forbidden</text></g><!--class NotFound__class--><g id="elem_NotFound__class"><rect codeLine="127" fill="#F1F1F1" height="32" id="NotFound__class" rx="2.5" ry="2.5" style="stroke:#181818;stroke-width:0.5;" width="99.7783" x="725" y="539"/><ellipse cx="740" cy="555" fill="#ADD1B2" rx="11" ry="11" style="stroke:#181818;stroke-width:1;"/><path d="M742.9688,560.6406 Q742.3906,560.9375 741.75,561.0781 Q741.1094,561.2344 740.4063,561.2344 Q737.9063,561.2344 736.5781,559.5938 Q735.2656,557.9375 735.2656,554.8125 Q735.2656,551.6875 736.5781,550.0313 Q737.9063,548.375 740.4063,548.375 Q741.1094,548.375 741.75,548.5313 Q742.4063,548.6875 742.9688,548.9844 L742.9688,551.7031 Q742.3438,551.125 741.75,550.8594 Q741.1563,550.5781 740.5313,550.5781 Q739.1875,550.5781 738.5,551.6563 Q737.8125,552.7188 737.8125,554.8125 Q737.8125,556.9063 738.5,557.9844 Q739.1875,559.0469 740.5313,559.0469 Q741.1563,559.0469 741.75,558.7813 Q742.3438,558.5 742.9688,557.9219 L742.9688,560.6406 Z " fill="#000000"/><text fill="#000000" font-family="sans-serif" font-size="14" lengthAdjust="spacing" textLength="67.7783" x="754" y="559.8467">NotFound</text></g><!--class Unauthorized__class--><g id="elem_Unauthorized__class"><rect codeLine="131" fill="#F1F1F1" height="32" id="Unauthorized__class" rx="2.5" ry="2.5" style="stroke:#181818;stroke-width:0.5;" width="125.9941" x="712" y="489"/><ellipse cx="727" cy="505" fill="#ADD1B2" rx="11" ry="11" style="stroke:#181818;stroke-width:1;"/><path d="M729.9688,510.6406 Q729.3906,510.9375 728.75,511.0781 Q728.1094,511.2344 727.4063,511.2344 Q724.9063,511.2344 723.5781,509.5938 Q722.2656,507.9375 722.2656,504.8125 Q722.2656,501.6875 723.5781,500.0313 Q724.9063,498.375 727.4063,498.375 Q728.1094,498.375 728.75,498.5313 Q729.4063,498.6875 729.9688,498.9844 L729.9688,501.7031 Q729.3438,501.125 728.75,500.8594 Q728.1563,500.5781 727.5313,500.5781 Q726.1875,500.5781 725.5,501.6563 Q724.8125,502.7188 724.8125,504.8125 Q724.8125,506.9063 725.5,507.9844 Q726.1875,509.0469 727.5313,509.0469 Q728.1563,509.0469 728.75,508.7813 Q729.3438,508.5 729.9688,507.9219 L729.9688,510.6406 Z " fill="#000000"/><text fill="#000000" font-family="sans-serif" font-size="14" lengthAdjust="spacing" textLength="93.9941" x="741" y="509.8467">Unauthorized</text></g><!--class RequestProcessorInterface__class--><g id="elem_RequestProcessorInterface__class"><rect codeLine="19" fill="#F1F1F1" height="40.2656" id="RequestProcessorInterface__class" rx="2.5" ry="2.5" style="stroke:#181818;stroke-width:0.5;" width="220.1592" x="60.5" y="102"/><ellipse cx="75.5" cy="122.1328" fill="#ADD1B2" rx="11" ry="11" style="stroke:#181818;stroke-width:1;"/><path d="M78.4688,127.7734 Q77.8906,128.0703 77.25,128.2109 Q76.6094,128.3672 75.9063,128.3672 Q73.4063,128.3672 72.0781,126.7266 Q70.7656,125.0703 70.7656,121.9453 Q70.7656,118.8203 72.0781,117.1641 Q73.4063,115.5078 75.9063,115.5078 Q76.6094,115.5078 77.25,115.6641 Q77.9063,115.8203 78.4688,116.1172 L78.4688,118.8359 Q77.8438,118.2578 77.25,117.9922 Q76.6563,117.7109 76.0313,117.7109 Q74.6875,117.7109 74,118.7891 Q73.3125,119.8516 73.3125,121.9453 Q73.3125,124.0391 74,125.1172 Q74.6875,126.1797 76.0313,126.1797 Q76.6563,126.1797 77.25,125.9141 Q77.8438,125.6328 78.4688,125.0547 L78.4688,127.7734 Z " fill="#000000"/><text fill="#000000" font-family="sans-serif" font-size="12" font-style="italic" lengthAdjust="spacing" textLength="64.4824" x="151.3384" y="118.1387">&#171;external&#187;</text><text fill="#000000" font-family="sans-serif" font-size="14" lengthAdjust="spacing" textLength="188.1592" x="89.5" y="133.9639">RequestProcessorInterface</text></g><!--class RequestProcessorResolverInterface__class--><g id="elem_RequestProcessorResolverInterface__class"><rect codeLine="31" fill="#F1F1F1" height="40.2656" id="RequestProcessorResolverInterface__class" rx="2.5" ry="2.5" style="stroke:#181818;stroke-width:0.5;" width="280.9033" x="30" y="160"/><ellipse cx="45" cy="180.1328" fill="#ADD1B2" rx="11" ry="11" style="stroke:#181818;stroke-width:1;"/><path d="M47.9688,185.7734 Q47.3906,186.0703 46.75,186.2109 Q46.1094,186.3672 45.4063,186.3672 Q42.9063,186.3672 41.5781,184.7266 Q40.2656,183.0703 40.2656,179.9453 Q40.2656,176.8203 41.5781,175.1641 Q42.9063,173.5078 45.4063,173.5078 Q46.1094,173.5078 46.75,173.6641 Q47.4063,173.8203 47.9688,174.1172 L47.9688,176.8359 Q47.3438,176.2578 46.75,175.9922 Q46.1563,175.7109 45.5313,175.7109 Q44.1875,175.7109 43.5,176.7891 Q42.8125,177.8516 42.8125,179.9453 Q42.8125,182.0391 43.5,183.1172 Q44.1875,184.1797 45.5313,184.1797 Q46.1563,184.1797 46.75,183.9141 Q47.3438,183.6328 47.9688,183.0547 L47.9688,185.7734 Z " fill="#000000"/><text fill="#000000" font-family="sans-serif" font-size="12" font-style="italic" lengthAdjust="spacing" textLength="64.4824" x="151.2104" y="176.1387">&#171;external&#187;</text><text fill="#000000" font-family="sans-serif" font-size="14" lengthAdjust="spacing" textLength="248.9033" x="59" y="191.9639">RequestProcessorResolverInterface</text></g><!--class RequestHandlerInterface__class--><g id="elem_RequestHandlerInterface__class"><rect codeLine="63" fill="#F1F1F1" height="40.2656" id="RequestHandlerInterface__class" rx="2.5" ry="2.5" style="stroke:#181818;stroke-width:0.5;" width="207.3008" x="67" y="1182"/><ellipse cx="82" cy="1202.1328" fill="#ADD1B2" rx="11" ry="11" style="stroke:#181818;stroke-width:1;"/><path d="M84.9688,1207.7734 Q84.3906,1208.0703 83.75,1208.2109 Q83.1094,1208.3672 82.4063,1208.3672 Q79.9063,1208.3672 78.5781,1206.7266 Q77.2656,1205.0703 77.2656,1201.9453 Q77.2656,1198.8203 78.5781,1197.1641 Q79.9063,1195.5078 82.4063,1195.5078 Q83.1094,1195.5078 83.75,1195.6641 Q84.4063,1195.8203 84.9688,1196.1172 L84.9688,1198.8359 Q84.3438,1198.2578 83.75,1197.9922 Q83.1563,1197.7109 82.5313,1197.7109 Q81.1875,1197.7109 80.5,1198.7891 Q79.8125,1199.8516 79.8125,1201.9453 Q79.8125,1204.0391 80.5,1205.1172 Q81.1875,1206.1797 82.5313,1206.1797 Q83.1563,1206.1797 83.75,1205.9141 Q84.3438,1205.6328 84.9688,1205.0547 L84.9688,1207.7734 Z " fill="#000000"/><text fill="#000000" font-family="sans-serif" font-size="12" font-style="italic" lengthAdjust="spacing" textLength="64.4824" x="151.4092" y="1198.1387">&#171;external&#187;</text><text fill="#000000" font-family="sans-serif" font-size="14" lengthAdjust="spacing" textLength="175.3008" x="96" y="1213.9639">RequestHandlerInterface</text></g><!--class MiddlewareInterface__class--><g id="elem_MiddlewareInterface__class"><rect codeLine="99" fill="#F1F1F1" height="40.2656" id="MiddlewareInterface__class" rx="2.5" ry="2.5" style="stroke:#181818;stroke-width:0.5;" width="175.3223" x="83" y="1240"/><ellipse cx="98" cy="1260.1328" fill="#ADD1B2" rx="11" ry="11" style="stroke:#181818;stroke-width:1;"/><path d="M100.9688,1265.7734 Q100.3906,1266.0703 99.75,1266.2109 Q99.1094,1266.3672 98.4063,1266.3672 Q95.9063,1266.3672 94.5781,1264.7266 Q93.2656,1263.0703 93.2656,1259.9453 Q93.2656,1256.8203 94.5781,1255.1641 Q95.9063,1253.5078 98.4063,1253.5078 Q99.1094,1253.5078 99.75,1253.6641 Q100.4063,1253.8203 100.9688,1254.1172 L100.9688,1256.8359 Q100.3438,1256.2578 99.75,1255.9922 Q99.1563,1255.7109 98.5313,1255.7109 Q97.1875,1255.7109 96.5,1256.7891 Q95.8125,1257.8516 95.8125,1259.9453 Q95.8125,1262.0391 96.5,1263.1172 Q97.1875,1264.1797 98.5313,1264.1797 Q99.1563,1264.1797 99.75,1263.9141 Q100.3438,1263.6328 100.9688,1263.0547 L100.9688,1265.7734 Z " fill="#000000"/><text fill="#000000" font-family="sans-serif" font-size="12" font-style="italic" lengthAdjust="spacing" textLength="64.4824" x="151.4199" y="1256.1387">&#171;external&#187;</text><text fill="#000000" font-family="sans-serif" font-size="14" lengthAdjust="spacing" textLength="143.3223" x="112" y="1271.9639">MiddlewareInterface</text></g><polygon fill="transparent" points="280.519,114.7436,298.8777,119.5349,298.0808,107.5614,280.519,114.7436" style="stroke:#516F42;stroke-width:1;"/><path d="M298.4792,113.5481 C329.8271,111.4616 346.0617,110.381 377.4421,108.2923 " fill="transparent" style="stroke:#516F42;stroke-width:1;stroke-dasharray:7.0,7.0;"/><polygon fill="transparent" points="311.2607,189.3026,328.8225,196.4848,329.6194,184.5113,311.2607,189.3026" style="stroke:#516F42;stroke-width:1;"/><path d="M329.2209,190.4981 C350.9779,191.9462 355.2371,192.2297 376.2344,193.6273 " fill="transparent" style="stroke:#516F42;stroke-width:1;stroke-dasharray:7.0,7.0;"/><polygon fill="transparent" points="611.1059,611,629.1059,617,629.1059,605,611.1059,611" style="stroke:#516F42;stroke-width:1;"/><path d="M629.1059,611 C653.279,611 660.2515,611 683.1632,611 " fill="transparent" style="stroke:#516F42;stroke-width:1;stroke-dasharray:7.0,7.0;"/><polygon fill="transparent" points="170.8245,1181.7513,176.4997,1163.6463,164.5016,1163.8622,170.8245,1181.7513" style="stroke:#516F42;stroke-width:1;"/><path d="M170.5006,1163.7542 C169.0984,1085.8277 175.5842,820.929 331,686 C337.4208,680.4256 344.5741,675.8347 352.1883,672.0707 " fill="transparent" style="stroke:#516F42;stroke-width:1;stroke-dasharray:7.0,7.0;"/><polygon fill="transparent" points="173.6669,1181.7043,181.8566,1164.5891,169.9495,1163.0983,173.6669,1181.7043" style="stroke:#516F42;stroke-width:1;"/><path d="M175.9031,1163.8437 C183.7727,1100.9892 214.5839,926.2323 331,836 C344.658,825.4139 361.0414,818.5241 377.9816,814.1524 " fill="transparent" style="stroke:#516F42;stroke-width:1;stroke-dasharray:7.0,7.0;"/><polygon fill="transparent" points="629.4127,861,647.4127,867,647.4127,855,629.4127,861" style="stroke:#516F42;stroke-width:1;"/><path d="M647.4127,861 C659.3557,861 653.3182,861 664.9646,861 " fill="transparent" style="stroke:#516F42;stroke-width:1;stroke-dasharray:7.0,7.0;"/><polygon fill="transparent" points="594.3138,911,612.3138,917,612.3138,905,594.3138,911" style="stroke:#516F42;stroke-width:1;"/><path d="M612.3138,911 C647.5154,911 667.9723,911 700.2435,911 " fill="transparent" style="stroke:#516F42;stroke-width:1;stroke-dasharray:7.0,7.0;"/><polygon fill="transparent" points="258.1364,1261.58,276.9048,1264.3631,274.821,1252.5454,258.1364,1261.58" style="stroke:#516F42;stroke-width:1;"/><path d="M275.8629,1258.4543 C298.8289,1254.4047 303.7252,1248.6708 319,1231 C336.8235,1210.3808 312.8161,1006.3021 331,986 C349.3,965.5683 377.1068,957.2842 404.2009,954.7749 " fill="transparent" style="stroke:#516F42;stroke-width:1;stroke-dasharray:7.0,7.0;"/><polygon fill="transparent" points="558.7188,1011,576.7188,1017,576.7188,1005,558.7188,1011" style="stroke:#516F42;stroke-width:1;"/><path d="M576.7188,1011 C632.4188,1011 690.3983,1011 735.6076,1011 " fill="transparent" style="stroke:#516F42;stroke-width:1;stroke-dasharray:7.0,7.0;"/><!--SRC=[nLV9Rjim4BthAzZq2rgaFGK1OYTf0hI5woGz2J36ujXYJP4gIILnY_nxgNsnP5ksZFeIQcOmxyt25-bTg60P0E6mbf4XEa030Xn2Y5un4OA2W5mf9L_6aaj5td_wy7bn_h7k1y-mPsRM8waegdq2mLijbOm4pO8NoQyz-9f180NTEtaUlm-6ze7A5oQMP05Se-DqkqeFPmBDEaGYbV6bupEA18FGh4c0mHoLTZWk336IABRq3Q5CeUKcXQFH4041wX0yVC0udR7KNDTn2ZEP-A7ae5mtEv2_CMT2F0vQaxEhC3mZe8dzEvkbDljBOzwSjxP4TyQ4K_mTeJOJ9JtKMkPPiwHDxxqmg1OsIGBLwSq9N5mGVBKs0PnSNcxbKXok8kDd962kZRBZAslC31RHsDOXdThTX3bFwNHwA_rWGSWnG64qgM2sDS9rTvRNkw2Y3ckIYlt9UETFfvlR5BNapxXZVXjH0yqnPxKnc1mmOTFf7MXydTKTNC-JpgZ7Xts7LnokCKH1KNZhU_4h5O96_h4K1goegAyIQ0RLi9q0zPezoXKAdS3b3mFYe8W2SlQ5otaAaPnciyIyN-vutbaeouTPNYg8iSO-Uglclc-DcCtANFrvD6zs5Q8JU-TYrv3I5ToBVojzNUHvG6NlGQjYt86Wl4CdchvZrA6bTTyOjUbVGE6F22EiWoOyjaPqDhDPTw4CNVKSNC44ZFyJ58l5QyG4jIy9wOgtENhVg1R0AOOAjIqqsGYT3Qjc6mQcggIMV7KeNSx_E8-AA3J_2ToyeXUPNIyo6r73Y4CNp5OEVKMYLot7jLQ7Ti5m535EDoMZtJbK8slPsn3xjsqtuGDajPIiUdzQx0FBQVmMPMzZ2PHsgMdjSKstS3vcZzBqzVOqRCDiJPgqah_lZcnXTJ2fHr1BD0cfz7YGO5jkLkyZxRfZpcmLD_RBlFc1E0AQQKE2LZwU3F5MghdT6HG9OF5qChplqjp67_O9NFvmChGd0Vc7MufODRIY_WC0]--></g></svg>