<?xml version="1.0" encoding="UTF-8" standalone="no"?><svg xmlns="http://www.w3.org/2000/svg" xmlns:xlink="http://www.w3.org/1999/xlink" contentScriptType="application/ecmascript" contentStyleType="text/css" height="742px" preserveAspectRatio="none" style="width:1149px;height:742px;" version="1.1" viewBox="0 0 1149 742" width="1149px" zoomAndPan="magnify"><defs/><g><!--MD5=[a9bd0e73706187e3eb5d8e1032abf9b5]
cluster Phpolar\\Phpolar--><polygon fill="#FFFFFF" points="377,71,508,71,515,93.2969,606,93.2969,606,221,377,221,377,71" style="stroke: #000000; stroke-width: 1.5;"/><line style="stroke: #000000; stroke-width: 1.5;" x1="377" x2="515" y1="93.2969" y2="93.2969"/><text fill="#000000" font-family="sans-serif" font-size="14" font-weight="bold" lengthAdjust="spacingAndGlyphs" textLength="125" x="381" y="85.9951">Phpolar\Phpolar</text><!--MD5=[e0c85b5b635cf4e34bbeeae8c373d549]
cluster Phpolar\\Phpolar\\Auth--><polygon fill="#FFFFFF" points="657.5,24,830.5,24,837.5,46.2969,1127.5,46.2969,1127.5,308,657.5,308,657.5,24" style="stroke: #000000; stroke-width: 1.5;"/><line style="stroke: #000000; stroke-width: 1.5;" x1="657.5" x2="837.5" y1="46.2969" y2="46.2969"/><text fill="#000000" font-family="sans-serif" font-size="14" font-weight="bold" lengthAdjust="spacingAndGlyphs" textLength="167" x="661.5" y="38.9951">Phpolar\Phpolar\Auth</text><!--MD5=[a25cb7f95ae098cb41a4e3e06983f65e]
cluster Phpolar\\Phpolar\\Http--><polygon fill="#FFFFFF" points="353.5,245,522.5,245,529.5,267.2969,629.5,267.2969,629.5,730,353.5,730,353.5,245" style="stroke: #000000; stroke-width: 1.5;"/><line style="stroke: #000000; stroke-width: 1.5;" x1="353.5" x2="529.5" y1="267.2969" y2="267.2969"/><text fill="#000000" font-family="sans-serif" font-size="14" font-weight="bold" lengthAdjust="spacingAndGlyphs" textLength="163" x="357.5" y="259.9951">Phpolar\Phpolar\Http</text><!--MD5=[e3966f89724251c4729d181ae8f0dbea]
cluster Phpolar\\Phpolar\\DependencyInjection--><polygon fill="#FFFFFF" points="14,135,316,135,323,157.2969,326,157.2969,326,285,14,285,14,135" style="stroke: #000000; stroke-width: 1.5;"/><line style="stroke: #000000; stroke-width: 1.5;" x1="14" x2="323" y1="157.2969" y2="157.2969"/><text fill="#000000" font-family="sans-serif" font-size="14" font-weight="bold" lengthAdjust="spacingAndGlyphs" textLength="296" x="18" y="149.9951">Phpolar\Phpolar\DependencyInjection</text><!--MD5=[8e860edd58322d7276ac762460b19afb]
cluster Psr\\Http\\Server--><polygon fill="#FFFFFF" points="59.5,490,187.5,490,194.5,512.2969,280.5,512.2969,280.5,640,59.5,640,59.5,490" style="stroke: #000000; stroke-width: 1.5;"/><line style="stroke: #000000; stroke-width: 1.5;" x1="59.5" x2="194.5" y1="512.2969" y2="512.2969"/><text fill="#000000" font-family="sans-serif" font-size="14" font-weight="bold" lengthAdjust="spacingAndGlyphs" textLength="122" x="63.5" y="504.9951">Psr\Http\Server</text><!--MD5=[e2e4065f308ecc62cd2fa5f0c629123c]
class Phpolar\\Phpolar\\App--><rect fill="#FEFECE" height="32" id="Phpolar\\Phpolar\\App" style="stroke: #A80036; stroke-width: 1.5;" width="56" x="463.5" y="106"/><ellipse cx="478.5" cy="122" fill="#ADD1B2" rx="11" ry="11" style="stroke: #A80036; stroke-width: 1.0;"/><path d="M481.4688,127.6406 Q480.8906,127.9375 480.25,128.0781 Q479.6094,128.2344 478.9063,128.2344 Q476.4063,128.2344 475.0781,126.5938 Q473.7656,124.9375 473.7656,121.8125 Q473.7656,118.6875 475.0781,117.0313 Q476.4063,115.375 478.9063,115.375 Q479.6094,115.375 480.25,115.5313 Q480.9063,115.6875 481.4688,115.9844 L481.4688,118.7031 Q480.8438,118.125 480.25,117.8594 Q479.6563,117.5781 479.0313,117.5781 Q477.6875,117.5781 477,118.6563 Q476.3125,119.7188 476.3125,121.8125 Q476.3125,123.9063 477,124.9844 Q477.6875,126.0469 479.0313,126.0469 Q479.6563,126.0469 480.25,125.7813 Q480.8438,125.5 481.4688,124.9219 L481.4688,127.6406 Z "/><text fill="#000000" font-family="sans-serif" font-size="12" lengthAdjust="spacingAndGlyphs" textLength="24" x="492.5" y="126.1543">App</text><!--MD5=[1fb50e04e385c2b866a273a6efff35f9]
class Phpolar\\Phpolar\\RoutableResolverInterface--><rect fill="#FEFECE" height="32" id="Phpolar\\Phpolar\\RoutableResolverInterface" style="stroke: #A80036; stroke-width: 1.5;" width="197" x="393" y="173"/><ellipse cx="408" cy="189" fill="#B4A7E5" rx="11" ry="11" style="stroke: #A80036; stroke-width: 1.0;"/><path d="M403.9219,184.7656 L403.9219,182.6094 L411.3125,182.6094 L411.3125,184.7656 L408.8438,184.7656 L408.8438,192.8438 L411.3125,192.8438 L411.3125,195 L403.9219,195 L403.9219,192.8438 L406.3906,192.8438 L406.3906,184.7656 L403.9219,184.7656 Z "/><text fill="#000000" font-family="sans-serif" font-size="12" font-style="italic" lengthAdjust="spacingAndGlyphs" textLength="165" x="422" y="193.1543">RoutableResolverInterface</text><!--MD5=[e79f49a5163f9634e4a79f59488e32d0]
class Phpolar\\Phpolar\\Auth\\AbstractProtectedRoutable--><rect fill="#FEFECE" height="32" id="Phpolar\\Phpolar\\Auth\\AbstractProtectedRoutable" style="stroke: #A80036; stroke-width: 1.5;" width="201" x="674.5" y="260"/><ellipse cx="689.5" cy="276" fill="#A9DCDF" rx="11" ry="11" style="stroke: #A80036; stroke-width: 1.0;"/><path d="M689.6094,271.3438 L688.4531,276.4219 L690.7813,276.4219 L689.6094,271.3438 Z M688.125,269.1094 L691.1094,269.1094 L694.4688,281.5 L692.0156,281.5 L691.25,278.4375 L687.9688,278.4375 L687.2188,281.5 L684.7813,281.5 L688.125,269.1094 Z "/><text fill="#000000" font-family="sans-serif" font-size="12" font-style="italic" lengthAdjust="spacingAndGlyphs" textLength="169" x="703.5" y="280.1543">AbstractProtectedRoutable</text><!--MD5=[78bbb8c49ffc9bea3454004796285d46]
class Phpolar\\Phpolar\\Auth\\Authenticate--><rect fill="#FEFECE" height="32" id="Phpolar\\Phpolar\\Auth\\Authenticate" style="stroke: #A80036; stroke-width: 1.5;" width="113" x="718.5" y="126"/><ellipse cx="733.5" cy="142" fill="#ADD1B2" rx="11" ry="11" style="stroke: #A80036; stroke-width: 1.0;"/><path d="M736.4688,147.6406 Q735.8906,147.9375 735.25,148.0781 Q734.6094,148.2344 733.9063,148.2344 Q731.4063,148.2344 730.0781,146.5938 Q728.7656,144.9375 728.7656,141.8125 Q728.7656,138.6875 730.0781,137.0313 Q731.4063,135.375 733.9063,135.375 Q734.6094,135.375 735.25,135.5313 Q735.9063,135.6875 736.4688,135.9844 L736.4688,138.7031 Q735.8438,138.125 735.25,137.8594 Q734.6563,137.5781 734.0313,137.5781 Q732.6875,137.5781 732,138.6563 Q731.3125,139.7188 731.3125,141.8125 Q731.3125,143.9063 732,144.9844 Q732.6875,146.0469 734.0313,146.0469 Q734.6563,146.0469 735.25,145.7813 Q735.8438,145.5 736.4688,144.9219 L736.4688,147.6406 Z "/><text fill="#000000" font-family="sans-serif" font-size="12" lengthAdjust="spacingAndGlyphs" textLength="81" x="747.5" y="146.1543">Authenticate</text><!--MD5=[c14ed554b74d6f6d20d448beebf9dbba]
class Phpolar\\Phpolar\\Auth\\ProtectedRoutableResolver--><rect fill="#FEFECE" height="32" id="Phpolar\\Phpolar\\Auth\\ProtectedRoutableResolver" style="stroke: #A80036; stroke-width: 1.5;" width="203" x="673.5" y="193"/><ellipse cx="688.5" cy="209" fill="#ADD1B2" rx="11" ry="11" style="stroke: #A80036; stroke-width: 1.0;"/><path d="M691.4688,214.6406 Q690.8906,214.9375 690.25,215.0781 Q689.6094,215.2344 688.9063,215.2344 Q686.4063,215.2344 685.0781,213.5938 Q683.7656,211.9375 683.7656,208.8125 Q683.7656,205.6875 685.0781,204.0313 Q686.4063,202.375 688.9063,202.375 Q689.6094,202.375 690.25,202.5313 Q690.9063,202.6875 691.4688,202.9844 L691.4688,205.7031 Q690.8438,205.125 690.25,204.8594 Q689.6563,204.5781 689.0313,204.5781 Q687.6875,204.5781 687,205.6563 Q686.3125,206.7188 686.3125,208.8125 Q686.3125,210.9063 687,211.9844 Q687.6875,213.0469 689.0313,213.0469 Q689.6563,213.0469 690.25,212.7813 Q690.8438,212.5 691.4688,211.9219 L691.4688,214.6406 Z "/><text fill="#000000" font-family="sans-serif" font-size="12" lengthAdjust="spacingAndGlyphs" textLength="171" x="702.5" y="213.1543">ProtectedRoutableResolver</text><!--MD5=[68480bbac262abbf7909ac78e6025c1b]
class Phpolar\\Phpolar\\Auth\\User--><rect fill="#FEFECE" height="32" id="Phpolar\\Phpolar\\Auth\\User" style="stroke: #A80036; stroke-width: 1.5;" width="61" x="744.5" y="59"/><ellipse cx="759.5" cy="75" fill="#ADD1B2" rx="11" ry="11" style="stroke: #A80036; stroke-width: 1.0;"/><path d="M762.4688,80.6406 Q761.8906,80.9375 761.25,81.0781 Q760.6094,81.2344 759.9063,81.2344 Q757.4063,81.2344 756.0781,79.5938 Q754.7656,77.9375 754.7656,74.8125 Q754.7656,71.6875 756.0781,70.0313 Q757.4063,68.375 759.9063,68.375 Q760.6094,68.375 761.25,68.5313 Q761.9063,68.6875 762.4688,68.9844 L762.4688,71.7031 Q761.8438,71.125 761.25,70.8594 Q760.6563,70.5781 760.0313,70.5781 Q758.6875,70.5781 758,71.6563 Q757.3125,72.7188 757.3125,74.8125 Q757.3125,76.9063 758,77.9844 Q758.6875,79.0469 760.0313,79.0469 Q760.6563,79.0469 761.25,78.7813 Q761.8438,78.5 762.4688,77.9219 L762.4688,80.6406 Z "/><text fill="#000000" font-family="sans-serif" font-size="12" lengthAdjust="spacingAndGlyphs" textLength="29" x="773.5" y="79.1543">User</text><!--MD5=[8590f14b7acfc822db18412d64fd0898]
class Phpolar\\Phpolar\\Auth\\AuthenticatorInterface--><rect fill="#FEFECE" height="32" id="Phpolar\\Phpolar\\Auth\\AuthenticatorInterface" style="stroke: #A80036; stroke-width: 1.5;" width="175" x="936.5" y="126"/><ellipse cx="951.5" cy="142" fill="#B4A7E5" rx="11" ry="11" style="stroke: #A80036; stroke-width: 1.0;"/><path d="M947.4219,137.7656 L947.4219,135.6094 L954.8125,135.6094 L954.8125,137.7656 L952.3438,137.7656 L952.3438,145.8438 L954.8125,145.8438 L954.8125,148 L947.4219,148 L947.4219,145.8438 L949.8906,145.8438 L949.8906,137.7656 L947.4219,137.7656 Z "/><text fill="#000000" font-family="sans-serif" font-size="12" font-style="italic" lengthAdjust="spacingAndGlyphs" textLength="143" x="965.5" y="146.1543">AuthenticatorInterface</text><!--MD5=[05e2d419cee559a6b7aad014f98a649e]
class Phpolar\\Phpolar\\Http\\RoutableInterface--><rect fill="#FEFECE" height="32" id="Phpolar\\Phpolar\\Http\\RoutableInterface" style="stroke: #A80036; stroke-width: 1.5;" width="145" x="419" y="280"/><ellipse cx="434" cy="296" fill="#B4A7E5" rx="11" ry="11" style="stroke: #A80036; stroke-width: 1.0;"/><path d="M429.9219,291.7656 L429.9219,289.6094 L437.3125,289.6094 L437.3125,291.7656 L434.8438,291.7656 L434.8438,299.8438 L437.3125,299.8438 L437.3125,302 L429.9219,302 L429.9219,299.8438 L432.3906,299.8438 L432.3906,291.7656 L429.9219,291.7656 Z "/><text fill="#000000" font-family="sans-serif" font-size="12" font-style="italic" lengthAdjust="spacingAndGlyphs" textLength="113" x="448" y="300.1543">RoutableInterface</text><!--MD5=[50df2949368d1d0f0ab5e143e7370bb1]
class Phpolar\\Phpolar\\Http\\ErrorHandler--><rect fill="#FEFECE" height="32" id="Phpolar\\Phpolar\\Http\\ErrorHandler" style="stroke: #A80036; stroke-width: 1.5;" width="112" x="435.5" y="347"/><ellipse cx="450.5" cy="363" fill="#ADD1B2" rx="11" ry="11" style="stroke: #A80036; stroke-width: 1.0;"/><path d="M453.4688,368.6406 Q452.8906,368.9375 452.25,369.0781 Q451.6094,369.2344 450.9063,369.2344 Q448.4063,369.2344 447.0781,367.5938 Q445.7656,365.9375 445.7656,362.8125 Q445.7656,359.6875 447.0781,358.0313 Q448.4063,356.375 450.9063,356.375 Q451.6094,356.375 452.25,356.5313 Q452.9063,356.6875 453.4688,356.9844 L453.4688,359.7031 Q452.8438,359.125 452.25,358.8594 Q451.6563,358.5781 451.0313,358.5781 Q449.6875,358.5781 449,359.6563 Q448.3125,360.7188 448.3125,362.8125 Q448.3125,364.9063 449,365.9844 Q449.6875,367.0469 451.0313,367.0469 Q451.6563,367.0469 452.25,366.7813 Q452.8438,366.5 453.4688,365.9219 L453.4688,368.6406 Z "/><text fill="#000000" font-family="sans-serif" font-size="12" lengthAdjust="spacingAndGlyphs" textLength="80" x="464.5" y="367.1543">ErrorHandler</text><!--MD5=[ed56cf08601891f55ac5937bbe51b545]
class Phpolar\\Phpolar\\Http\\MiddlewareQueueRequestHandler--><rect fill="#FEFECE" height="32" id="Phpolar\\Phpolar\\Http\\MiddlewareQueueRequestHandler" style="stroke: #A80036; stroke-width: 1.5;" width="244" x="369.5" y="414"/><ellipse cx="384.5" cy="430" fill="#ADD1B2" rx="11" ry="11" style="stroke: #A80036; stroke-width: 1.0;"/><path d="M387.4688,435.6406 Q386.8906,435.9375 386.25,436.0781 Q385.6094,436.2344 384.9063,436.2344 Q382.4063,436.2344 381.0781,434.5938 Q379.7656,432.9375 379.7656,429.8125 Q379.7656,426.6875 381.0781,425.0313 Q382.4063,423.375 384.9063,423.375 Q385.6094,423.375 386.25,423.5313 Q386.9063,423.6875 387.4688,423.9844 L387.4688,426.7031 Q386.8438,426.125 386.25,425.8594 Q385.6563,425.5781 385.0313,425.5781 Q383.6875,425.5781 383,426.6563 Q382.3125,427.7188 382.3125,429.8125 Q382.3125,431.9063 383,432.9844 Q383.6875,434.0469 385.0313,434.0469 Q385.6563,434.0469 386.25,433.7813 Q386.8438,433.5 387.4688,432.9219 L387.4688,435.6406 Z "/><text fill="#000000" font-family="sans-serif" font-size="12" lengthAdjust="spacingAndGlyphs" textLength="212" x="398.5" y="434.1543">MiddlewareQueueRequestHandler</text><!--MD5=[69a4a4ec5cb5cfeb66e712f0057f5ee0]
class Phpolar\\Phpolar\\Http\\ResolvedRoute--><rect fill="#FEFECE" height="32" id="Phpolar\\Phpolar\\Http\\ResolvedRoute" style="stroke: #A80036; stroke-width: 1.5;" width="125" x="429" y="481"/><ellipse cx="444" cy="497" fill="#ADD1B2" rx="11" ry="11" style="stroke: #A80036; stroke-width: 1.0;"/><path d="M446.9688,502.6406 Q446.3906,502.9375 445.75,503.0781 Q445.1094,503.2344 444.4063,503.2344 Q441.9063,503.2344 440.5781,501.5938 Q439.2656,499.9375 439.2656,496.8125 Q439.2656,493.6875 440.5781,492.0313 Q441.9063,490.375 444.4063,490.375 Q445.1094,490.375 445.75,490.5313 Q446.4063,490.6875 446.9688,490.9844 L446.9688,493.7031 Q446.3438,493.125 445.75,492.8594 Q445.1563,492.5781 444.5313,492.5781 Q443.1875,492.5781 442.5,493.6563 Q441.8125,494.7188 441.8125,496.8125 Q441.8125,498.9063 442.5,499.9844 Q443.1875,501.0469 444.5313,501.0469 Q445.1563,501.0469 445.75,500.7813 Q446.3438,500.5 446.9688,499.9219 L446.9688,502.6406 Z "/><text fill="#000000" font-family="sans-serif" font-size="12" lengthAdjust="spacingAndGlyphs" textLength="93" x="458" y="501.1543">ResolvedRoute</text><!--MD5=[75dfe254516a81a2990b34b2b18adae2]
class Phpolar\\Phpolar\\Http\\RouteRegistry--><rect fill="#FEFECE" height="32" id="Phpolar\\Phpolar\\Http\\RouteRegistry" style="stroke: #A80036; stroke-width: 1.5;" width="119" x="432" y="548"/><ellipse cx="447" cy="564" fill="#ADD1B2" rx="11" ry="11" style="stroke: #A80036; stroke-width: 1.0;"/><path d="M449.9688,569.6406 Q449.3906,569.9375 448.75,570.0781 Q448.1094,570.2344 447.4063,570.2344 Q444.9063,570.2344 443.5781,568.5938 Q442.2656,566.9375 442.2656,563.8125 Q442.2656,560.6875 443.5781,559.0313 Q444.9063,557.375 447.4063,557.375 Q448.1094,557.375 448.75,557.5313 Q449.4063,557.6875 449.9688,557.9844 L449.9688,560.7031 Q449.3438,560.125 448.75,559.8594 Q448.1563,559.5781 447.5313,559.5781 Q446.1875,559.5781 445.5,560.6563 Q444.8125,561.7188 444.8125,563.8125 Q444.8125,565.9063 445.5,566.9844 Q446.1875,568.0469 447.5313,568.0469 Q448.1563,568.0469 448.75,567.7813 Q449.3438,567.5 449.9688,566.9219 L449.9688,569.6406 Z "/><text fill="#000000" font-family="sans-serif" font-size="12" lengthAdjust="spacingAndGlyphs" textLength="87" x="461" y="568.1543">RouteRegistry</text><!--MD5=[7be6a97fd6dc01e7aa457d41ce41952e]
class Phpolar\\Phpolar\\Http\\RoutingHandler--><rect fill="#FEFECE" height="32" id="Phpolar\\Phpolar\\Http\\RoutingHandler" style="stroke: #A80036; stroke-width: 1.5;" width="129" x="427" y="615"/><ellipse cx="442" cy="631" fill="#ADD1B2" rx="11" ry="11" style="stroke: #A80036; stroke-width: 1.0;"/><path d="M444.9688,636.6406 Q444.3906,636.9375 443.75,637.0781 Q443.1094,637.2344 442.4063,637.2344 Q439.9063,637.2344 438.5781,635.5938 Q437.2656,633.9375 437.2656,630.8125 Q437.2656,627.6875 438.5781,626.0313 Q439.9063,624.375 442.4063,624.375 Q443.1094,624.375 443.75,624.5313 Q444.4063,624.6875 444.9688,624.9844 L444.9688,627.7031 Q444.3438,627.125 443.75,626.8594 Q443.1563,626.5781 442.5313,626.5781 Q441.1875,626.5781 440.5,627.6563 Q439.8125,628.7188 439.8125,630.8125 Q439.8125,632.9063 440.5,633.9844 Q441.1875,635.0469 442.5313,635.0469 Q443.1563,635.0469 443.75,634.7813 Q444.3438,634.5 444.9688,633.9219 L444.9688,636.6406 Z "/><text fill="#000000" font-family="sans-serif" font-size="12" lengthAdjust="spacingAndGlyphs" textLength="97" x="456" y="635.1543">RoutingHandler</text><!--MD5=[5453f7951178626c6d0aa6a00871514e]
class Phpolar\\Phpolar\\Http\\RoutingMiddleware--><rect fill="#FEFECE" height="32" id="Phpolar\\Phpolar\\Http\\RoutingMiddleware" style="stroke: #A80036; stroke-width: 1.5;" width="150" x="416.5" y="682"/><ellipse cx="431.5" cy="698" fill="#ADD1B2" rx="11" ry="11" style="stroke: #A80036; stroke-width: 1.0;"/><path d="M434.4688,703.6406 Q433.8906,703.9375 433.25,704.0781 Q432.6094,704.2344 431.9063,704.2344 Q429.4063,704.2344 428.0781,702.5938 Q426.7656,700.9375 426.7656,697.8125 Q426.7656,694.6875 428.0781,693.0313 Q429.4063,691.375 431.9063,691.375 Q432.6094,691.375 433.25,691.5313 Q433.9063,691.6875 434.4688,691.9844 L434.4688,694.7031 Q433.8438,694.125 433.25,693.8594 Q432.6563,693.5781 432.0313,693.5781 Q430.6875,693.5781 430,694.6563 Q429.3125,695.7188 429.3125,697.8125 Q429.3125,699.9063 430,700.9844 Q430.6875,702.0469 432.0313,702.0469 Q432.6563,702.0469 433.25,701.7813 Q433.8438,701.5 434.4688,700.9219 L434.4688,703.6406 Z "/><text fill="#000000" font-family="sans-serif" font-size="12" lengthAdjust="spacingAndGlyphs" textLength="118" x="445.5" y="702.1543">RoutingMiddleware</text><!--MD5=[60a1bdbfbb7eeea7927805a6d6e108ea]
class Phpolar\\Phpolar\\DependencyInjection\\ContainerLoader--><rect fill="#FEFECE" height="32" id="Phpolar\\Phpolar\\DependencyInjection\\ContainerLoader" style="stroke: #A80036; stroke-width: 1.5;" width="136" x="102" y="170"/><ellipse cx="117" cy="186" fill="#ADD1B2" rx="11" ry="11" style="stroke: #A80036; stroke-width: 1.0;"/><path d="M119.9688,191.6406 Q119.3906,191.9375 118.75,192.0781 Q118.1094,192.2344 117.4063,192.2344 Q114.9063,192.2344 113.5781,190.5938 Q112.2656,188.9375 112.2656,185.8125 Q112.2656,182.6875 113.5781,181.0313 Q114.9063,179.375 117.4063,179.375 Q118.1094,179.375 118.75,179.5313 Q119.4063,179.6875 119.9688,179.9844 L119.9688,182.7031 Q119.3438,182.125 118.75,181.8594 Q118.1563,181.5781 117.5313,181.5781 Q116.1875,181.5781 115.5,182.6563 Q114.8125,183.7188 114.8125,185.8125 Q114.8125,187.9063 115.5,188.9844 Q116.1875,190.0469 117.5313,190.0469 Q118.1563,190.0469 118.75,189.7813 Q119.3438,189.5 119.9688,188.9219 L119.9688,191.6406 Z "/><text fill="#000000" font-family="sans-serif" font-size="12" lengthAdjust="spacingAndGlyphs" textLength="104" x="131" y="190.1543">ContainerLoader</text><!--MD5=[f9a134297eaffc78c1ce491dc213a3ec]
class Phpolar\\Phpolar\\DependencyInjection\\DiTokens--><rect fill="#FEFECE" height="32" id="Phpolar\\Phpolar\\DependencyInjection\\DiTokens" style="stroke: #A80036; stroke-width: 1.5;" width="89" x="125.5" y="237"/><ellipse cx="140.5" cy="253" fill="#ADD1B2" rx="11" ry="11" style="stroke: #A80036; stroke-width: 1.0;"/><path d="M143.4688,258.6406 Q142.8906,258.9375 142.25,259.0781 Q141.6094,259.2344 140.9063,259.2344 Q138.4063,259.2344 137.0781,257.5938 Q135.7656,255.9375 135.7656,252.8125 Q135.7656,249.6875 137.0781,248.0313 Q138.4063,246.375 140.9063,246.375 Q141.6094,246.375 142.25,246.5313 Q142.9063,246.6875 143.4688,246.9844 L143.4688,249.7031 Q142.8438,249.125 142.25,248.8594 Q141.6563,248.5781 141.0313,248.5781 Q139.6875,248.5781 139,249.6563 Q138.3125,250.7188 138.3125,252.8125 Q138.3125,254.9063 139,255.9844 Q139.6875,257.0469 141.0313,257.0469 Q141.6563,257.0469 142.25,256.7813 Q142.8438,256.5 143.4688,255.9219 L143.4688,258.6406 Z "/><text fill="#000000" font-family="sans-serif" font-size="12" lengthAdjust="spacingAndGlyphs" textLength="57" x="154.5" y="257.1543">DiTokens</text><!--MD5=[eb647d64e0e505aae508247625db42c9]
class Psr\\Http\\Server\\RequestHandlerInterface--><rect fill="#FEFECE" height="32" id="Psr\\Http\\Server\\RequestHandlerInterface" style="stroke: #A80036; stroke-width: 1.5;" width="189" x="75.5" y="525"/><ellipse cx="90.5" cy="541" fill="#B4A7E5" rx="11" ry="11" style="stroke: #A80036; stroke-width: 1.0;"/><path d="M86.4219,536.7656 L86.4219,534.6094 L93.8125,534.6094 L93.8125,536.7656 L91.3438,536.7656 L91.3438,544.8438 L93.8125,544.8438 L93.8125,547 L86.4219,547 L86.4219,544.8438 L88.8906,544.8438 L88.8906,536.7656 L86.4219,536.7656 Z "/><text fill="#000000" font-family="sans-serif" font-size="12" font-style="italic" lengthAdjust="spacingAndGlyphs" textLength="157" x="104.5" y="545.1543">RequestHandlerInterface</text><!--MD5=[c9ec0e3c1f519dc0c5f59d9d724f4fc8]
class Psr\\Http\\Server\\MiddlewareInterface--><rect fill="#FEFECE" height="32" id="Psr\\Http\\Server\\MiddlewareInterface" style="stroke: #A80036; stroke-width: 1.5;" width="160" x="90" y="592"/><ellipse cx="105" cy="608" fill="#B4A7E5" rx="11" ry="11" style="stroke: #A80036; stroke-width: 1.0;"/><path d="M100.9219,603.7656 L100.9219,601.6094 L108.3125,601.6094 L108.3125,603.7656 L105.8438,603.7656 L105.8438,611.8438 L108.3125,611.8438 L108.3125,614 L100.9219,614 L100.9219,611.8438 L103.3906,611.8438 L103.3906,603.7656 L100.9219,603.7656 Z "/><text fill="#000000" font-family="sans-serif" font-size="12" font-style="italic" lengthAdjust="spacingAndGlyphs" textLength="128" x="119" y="612.1543">MiddlewareInterface</text><!--MD5=[1757bad7988fae829bbb48f3c73bd1de]
reverse link Phpolar\\Phpolar\\Http\\RoutableInterface to Phpolar\\Phpolar\\Auth\\AbstractProtectedRoutable--><path d="M584.14,286 C584.14,286 674.49,286 674.49,286 " fill="none" id="Phpolar\\Phpolar\\Http\\RoutableInterface&lt;-Phpolar\\Phpolar\\Auth\\AbstractProtectedRoutable" style="stroke: #516F42; stroke-width: 1.0; stroke-dasharray: 7.0,7.0;"/><polygon fill="none" points="584.14,293,564.14,286,584.14,279,584.14,293" style="stroke: #516F42; stroke-width: 1.0;"/><!--MD5=[6cd8b3f703a7bb88ebc20e5c4e196aeb]
reverse link Phpolar\\Phpolar\\RoutableResolverInterface to Phpolar\\Phpolar\\Auth\\ProtectedRoutableResolver--><path d="M610.26,199 C610.26,199 673.23,199 673.23,199 " fill="none" id="Phpolar\\Phpolar\\RoutableResolverInterface&lt;-Phpolar\\Phpolar\\Auth\\ProtectedRoutableResolver" style="stroke: #516F42; stroke-width: 1.0; stroke-dasharray: 7.0,7.0;"/><polygon fill="none" points="610.26,206,590.26,199,610.26,192,610.26,206" style="stroke: #516F42; stroke-width: 1.0;"/><!--MD5=[adfb148a425a75ff67cc61ed9ac8599f]
reverse link Psr\\Http\\Server\\RequestHandlerInterface to Phpolar\\Phpolar\\Http\\ErrorHandler--><path d="M247.5,504.89 C247.5,504.89 247.5,363 247.5,363 C247.5,363 363.16,363 435.22,363 " fill="none" id="Psr\\Http\\Server\\RequestHandlerInterface&lt;-Phpolar\\Phpolar\\Http\\ErrorHandler" style="stroke: #516F42; stroke-width: 1.0; stroke-dasharray: 7.0,7.0;"/><polygon fill="none" points="254.5,504.89,247.5,524.89,240.5,504.89,254.5,504.89" style="stroke: #516F42; stroke-width: 1.0;"/><!--MD5=[5f784f0ba7063c24d486072889667bc7]
reverse link Psr\\Http\\Server\\RequestHandlerInterface to Phpolar\\Phpolar\\Http\\MiddlewareQueueRequestHandler--><path d="M256.5,504.62 C256.5,504.62 256.5,430 256.5,430 C256.5,430 312.08,430 369.18,430 " fill="none" id="Psr\\Http\\Server\\RequestHandlerInterface&lt;-Phpolar\\Phpolar\\Http\\MiddlewareQueueRequestHandler" style="stroke: #516F42; stroke-width: 1.0; stroke-dasharray: 7.0,7.0;"/><polygon fill="none" points="263.5,504.62,256.5,524.62,249.5,504.62,263.5,504.62" style="stroke: #516F42; stroke-width: 1.0;"/><!--MD5=[8007630022231e49834248fad5c319a1]
reverse link Psr\\Http\\Server\\RequestHandlerInterface to Phpolar\\Phpolar\\Http\\RoutingHandler--><path d="M257.5,577.33 C257.5,577.33 257.5,618 257.5,618 C257.5,618 357.68,618 426.94,618 " fill="none" id="Psr\\Http\\Server\\RequestHandlerInterface&lt;-Phpolar\\Phpolar\\Http\\RoutingHandler" style="stroke: #516F42; stroke-width: 1.0; stroke-dasharray: 7.0,7.0;"/><polygon fill="none" points="250.5,577.33,257.5,557.33,264.5,577.33,250.5,577.33" style="stroke: #516F42; stroke-width: 1.0;"/><!--MD5=[a99784d97307c6a3b2964acff219c718]
reverse link Psr\\Http\\Server\\MiddlewareInterface to Phpolar\\Phpolar\\Http\\RoutingMiddleware--><path d="M270.24,621 C270.24,621 422.5,621 422.5,621 C422.5,621 422.5,659.07 422.5,681.67 " fill="none" id="Psr\\Http\\Server\\MiddlewareInterface&lt;-Phpolar\\Phpolar\\Http\\RoutingMiddleware" style="stroke: #516F42; stroke-width: 1.0; stroke-dasharray: 7.0,7.0;"/><polygon fill="none" points="270.24,628,250.24,621,270.24,614,270.24,628" style="stroke: #516F42; stroke-width: 1.0;"/><!--MD5=[b5bab61f4e8a2459ba55ba2dac9741e7]
link Phpolar\\Phpolar\\Auth\\Authenticate to Phpolar\\Phpolar\\Auth\\User--><!--MD5=[e87fad5afe7ca59d85d783ce91ee0ce2]
link Phpolar\\Phpolar\\Auth\\Authenticate to Phpolar\\Phpolar\\Auth\\AuthenticatorInterface--><!--MD5=[dba7a5547daf4d1d69c55001a345481f]
@startuml
   skinparam ArrowColor #516f42
   skinparam activityBorderColor #516f42
   skinparam activityBackgroundColor #ffffff
   skinparam activityDiamondBorderColor #516f42
   skinparam activityDiamondBackgroundColor #ffffff
   skinparam shadowing false

skinparam shadowing false
skinparam linetype ortho
hide empty members
left to right direction
set namespaceSeparator \\


class \\Phpolar\\Phpolar\\App {
}

interface \\Phpolar\\Phpolar\\RoutableResolverInterface {
}

abstract class \\Phpolar\\Phpolar\\Auth\\AbstractProtectedRoutable implements \\Phpolar\\Phpolar\\Http\\RoutableInterface {
}

class \\Phpolar\\Phpolar\\Auth\\Authenticate {
}

class \\Phpolar\\Phpolar\\Auth\\ProtectedRoutableResolver implements \\Phpolar\\Phpolar\\RoutableResolverInterface {
}

class \\Phpolar\\Phpolar\\Auth\\User {
}

interface \\Phpolar\\Phpolar\\Auth\\AuthenticatorInterface {
}

class \\Phpolar\\Phpolar\\DependencyInjection\\ContainerLoader {
}

class \\Phpolar\\Phpolar\\DependencyInjection\\DiTokens {
}

class \\Phpolar\\Phpolar\\Http\\ErrorHandler implements \\Psr\\Http\\Server\\RequestHandlerInterface {
}

class \\Phpolar\\Phpolar\\Http\\MiddlewareQueueRequestHandler implements \\Psr\\Http\\Server\\RequestHandlerInterface {
}

class \\Phpolar\\Phpolar\\Http\\ResolvedRoute {
}

class \\Phpolar\\Phpolar\\Http\\RouteRegistry {
}

class \\Phpolar\\Phpolar\\Http\\RoutingHandler implements \\Psr\\Http\\Server\\RequestHandlerInterface {
}

class \\Phpolar\\Phpolar\\Http\\RoutingMiddleware implements \\Psr\\Http\\Server\\MiddlewareInterface {
}

interface \\Phpolar\\Phpolar\\Http\\RoutableInterface {
}

@enduml

PlantUML version 1.2020.02(Sun Mar 01 04:22:07 CST 2020)
(GPL source distribution)
Java Runtime: OpenJDK Runtime Environment
JVM: OpenJDK 64-Bit Server VM
Java Version: 11.0.19+7-post-Ubuntu-0ubuntu122.04.1
Operating System: Linux
Default Encoding: UTF-8
Language: en
Country: US
--></g></svg>