<?xml version="1.0" encoding="UTF-8" standalone="no"?><svg xmlns="http://www.w3.org/2000/svg" xmlns:xlink="http://www.w3.org/1999/xlink" contentScriptType="application/ecmascript" contentStyleType="text/css" height="500px" preserveAspectRatio="none" style="width:856px;height:500px;" version="1.1" viewBox="0 0 856 500" width="856px" zoomAndPan="magnify"><defs/><g><!--MD5=[a9bd0e73706187e3eb5d8e1032abf9b5]
cluster Phpolar\\Phpolar--><polygon fill="#FFFFFF" points="100,198,231,198,238,220.2969,241,220.2969,241,281,100,281,100,198" style="stroke: #000000; stroke-width: 1.5;"/><line style="stroke: #000000; stroke-width: 1.5;" x1="100" x2="238" y1="220.2969" y2="220.2969"/><text fill="#000000" font-family="sans-serif" font-size="14" font-weight="bold" lengthAdjust="spacingAndGlyphs" textLength="125" x="104" y="212.9951">Phpolar\Phpolar</text><!--MD5=[e3966f89724251c4729d181ae8f0dbea]
cluster Phpolar\\Phpolar\\DependencyInjection--><polygon fill="#FFFFFF" points="14,24,316,24,323,46.2969,326,46.2969,326,174,14,174,14,24" style="stroke: #000000; stroke-width: 1.5;"/><line style="stroke: #000000; stroke-width: 1.5;" x1="14" x2="323" y1="46.2969" y2="46.2969"/><text fill="#000000" font-family="sans-serif" font-size="14" font-weight="bold" lengthAdjust="spacingAndGlyphs" textLength="296" x="18" y="38.9951">Phpolar\Phpolar\DependencyInjection</text><!--MD5=[a25cb7f95ae098cb41a4e3e06983f65e]
cluster Phpolar\\Phpolar\\Http--><polygon fill="#FFFFFF" points="353.5,70,522.5,70,529.5,92.2969,834.5,92.2969,834.5,488,353.5,488,353.5,70" style="stroke: #000000; stroke-width: 1.5;"/><line style="stroke: #000000; stroke-width: 1.5;" x1="353.5" x2="529.5" y1="92.2969" y2="92.2969"/><text fill="#000000" font-family="sans-serif" font-size="14" font-weight="bold" lengthAdjust="spacingAndGlyphs" textLength="163" x="357.5" y="84.9951">Phpolar\Phpolar\Http</text><!--MD5=[8e860edd58322d7276ac762460b19afb]
cluster Psr\\Http\\Server--><polygon fill="#FFFFFF" points="59.5,305,187.5,305,194.5,327.2969,280.5,327.2969,280.5,455,59.5,455,59.5,305" style="stroke: #000000; stroke-width: 1.5;"/><line style="stroke: #000000; stroke-width: 1.5;" x1="59.5" x2="194.5" y1="327.2969" y2="327.2969"/><text fill="#000000" font-family="sans-serif" font-size="14" font-weight="bold" lengthAdjust="spacingAndGlyphs" textLength="122" x="63.5" y="319.9951">Psr\Http\Server</text><!--MD5=[e2e4065f308ecc62cd2fa5f0c629123c]
class Phpolar\\Phpolar\\App--><rect fill="#FEFECE" height="32" id="Phpolar\\Phpolar\\App" style="stroke: #A80036; stroke-width: 1.5;" width="56" x="142" y="233"/><ellipse cx="157" cy="249" fill="#ADD1B2" rx="11" ry="11" style="stroke: #A80036; stroke-width: 1.0;"/><path d="M159.9688,254.6406 Q159.3906,254.9375 158.75,255.0781 Q158.1094,255.2344 157.4063,255.2344 Q154.9063,255.2344 153.5781,253.5938 Q152.2656,251.9375 152.2656,248.8125 Q152.2656,245.6875 153.5781,244.0313 Q154.9063,242.375 157.4063,242.375 Q158.1094,242.375 158.75,242.5313 Q159.4063,242.6875 159.9688,242.9844 L159.9688,245.7031 Q159.3438,245.125 158.75,244.8594 Q158.1563,244.5781 157.5313,244.5781 Q156.1875,244.5781 155.5,245.6563 Q154.8125,246.7188 154.8125,248.8125 Q154.8125,250.9063 155.5,251.9844 Q156.1875,253.0469 157.5313,253.0469 Q158.1563,253.0469 158.75,252.7813 Q159.3438,252.5 159.9688,251.9219 L159.9688,254.6406 Z "/><text fill="#000000" font-family="sans-serif" font-size="12" lengthAdjust="spacingAndGlyphs" textLength="24" x="171" y="253.1543">App</text><!--MD5=[60a1bdbfbb7eeea7927805a6d6e108ea]
class Phpolar\\Phpolar\\DependencyInjection\\ContainerLoader--><rect fill="#FEFECE" height="32" id="Phpolar\\Phpolar\\DependencyInjection\\ContainerLoader" style="stroke: #A80036; stroke-width: 1.5;" width="136" x="102" y="59"/><ellipse cx="117" cy="75" fill="#ADD1B2" rx="11" ry="11" style="stroke: #A80036; stroke-width: 1.0;"/><path d="M119.9688,80.6406 Q119.3906,80.9375 118.75,81.0781 Q118.1094,81.2344 117.4063,81.2344 Q114.9063,81.2344 113.5781,79.5938 Q112.2656,77.9375 112.2656,74.8125 Q112.2656,71.6875 113.5781,70.0313 Q114.9063,68.375 117.4063,68.375 Q118.1094,68.375 118.75,68.5313 Q119.4063,68.6875 119.9688,68.9844 L119.9688,71.7031 Q119.3438,71.125 118.75,70.8594 Q118.1563,70.5781 117.5313,70.5781 Q116.1875,70.5781 115.5,71.6563 Q114.8125,72.7188 114.8125,74.8125 Q114.8125,76.9063 115.5,77.9844 Q116.1875,79.0469 117.5313,79.0469 Q118.1563,79.0469 118.75,78.7813 Q119.3438,78.5 119.9688,77.9219 L119.9688,80.6406 Z "/><text fill="#000000" font-family="sans-serif" font-size="12" lengthAdjust="spacingAndGlyphs" textLength="104" x="131" y="79.1543">ContainerLoader</text><!--MD5=[f9a134297eaffc78c1ce491dc213a3ec]
class Phpolar\\Phpolar\\DependencyInjection\\DiTokens--><rect fill="#FEFECE" height="32" id="Phpolar\\Phpolar\\DependencyInjection\\DiTokens" style="stroke: #A80036; stroke-width: 1.5;" width="89" x="125.5" y="126"/><ellipse cx="140.5" cy="142" fill="#ADD1B2" rx="11" ry="11" style="stroke: #A80036; stroke-width: 1.0;"/><path d="M143.4688,147.6406 Q142.8906,147.9375 142.25,148.0781 Q141.6094,148.2344 140.9063,148.2344 Q138.4063,148.2344 137.0781,146.5938 Q135.7656,144.9375 135.7656,141.8125 Q135.7656,138.6875 137.0781,137.0313 Q138.4063,135.375 140.9063,135.375 Q141.6094,135.375 142.25,135.5313 Q142.9063,135.6875 143.4688,135.9844 L143.4688,138.7031 Q142.8438,138.125 142.25,137.8594 Q141.6563,137.5781 141.0313,137.5781 Q139.6875,137.5781 139,138.6563 Q138.3125,139.7188 138.3125,141.8125 Q138.3125,143.9063 139,144.9844 Q139.6875,146.0469 141.0313,146.0469 Q141.6563,146.0469 142.25,145.7813 Q142.8438,145.5 143.4688,144.9219 L143.4688,147.6406 Z "/><text fill="#000000" font-family="sans-serif" font-size="12" lengthAdjust="spacingAndGlyphs" textLength="57" x="154.5" y="146.1543">DiTokens</text><!--MD5=[50df2949368d1d0f0ab5e143e7370bb1]
class Phpolar\\Phpolar\\Http\\ErrorHandler--><rect fill="#FEFECE" height="32" id="Phpolar\\Phpolar\\Http\\ErrorHandler" style="stroke: #A80036; stroke-width: 1.5;" width="112" x="435.5" y="239"/><ellipse cx="450.5" cy="255" fill="#ADD1B2" rx="11" ry="11" style="stroke: #A80036; stroke-width: 1.0;"/><path d="M453.4688,260.6406 Q452.8906,260.9375 452.25,261.0781 Q451.6094,261.2344 450.9063,261.2344 Q448.4063,261.2344 447.0781,259.5938 Q445.7656,257.9375 445.7656,254.8125 Q445.7656,251.6875 447.0781,250.0313 Q448.4063,248.375 450.9063,248.375 Q451.6094,248.375 452.25,248.5313 Q452.9063,248.6875 453.4688,248.9844 L453.4688,251.7031 Q452.8438,251.125 452.25,250.8594 Q451.6563,250.5781 451.0313,250.5781 Q449.6875,250.5781 449,251.6563 Q448.3125,252.7188 448.3125,254.8125 Q448.3125,256.9063 449,257.9844 Q449.6875,259.0469 451.0313,259.0469 Q451.6563,259.0469 452.25,258.7813 Q452.8438,258.5 453.4688,257.9219 L453.4688,260.6406 Z "/><text fill="#000000" font-family="sans-serif" font-size="12" lengthAdjust="spacingAndGlyphs" textLength="80" x="464.5" y="259.1543">ErrorHandler</text><!--MD5=[ed56cf08601891f55ac5937bbe51b545]
class Phpolar\\Phpolar\\Http\\MiddlewareQueueRequestHandler--><rect fill="#FEFECE" height="32" id="Phpolar\\Phpolar\\Http\\MiddlewareQueueRequestHandler" style="stroke: #A80036; stroke-width: 1.5;" width="244" x="369.5" y="306"/><ellipse cx="384.5" cy="322" fill="#ADD1B2" rx="11" ry="11" style="stroke: #A80036; stroke-width: 1.0;"/><path d="M387.4688,327.6406 Q386.8906,327.9375 386.25,328.0781 Q385.6094,328.2344 384.9063,328.2344 Q382.4063,328.2344 381.0781,326.5938 Q379.7656,324.9375 379.7656,321.8125 Q379.7656,318.6875 381.0781,317.0313 Q382.4063,315.375 384.9063,315.375 Q385.6094,315.375 386.25,315.5313 Q386.9063,315.6875 387.4688,315.9844 L387.4688,318.7031 Q386.8438,318.125 386.25,317.8594 Q385.6563,317.5781 385.0313,317.5781 Q383.6875,317.5781 383,318.6563 Q382.3125,319.7188 382.3125,321.8125 Q382.3125,323.9063 383,324.9844 Q383.6875,326.0469 385.0313,326.0469 Q385.6563,326.0469 386.25,325.7813 Q386.8438,325.5 387.4688,324.9219 L387.4688,327.6406 Z "/><text fill="#000000" font-family="sans-serif" font-size="12" lengthAdjust="spacingAndGlyphs" textLength="212" x="398.5" y="326.1543">MiddlewareQueueRequestHandler</text><!--MD5=[69a4a4ec5cb5cfeb66e712f0057f5ee0]
class Phpolar\\Phpolar\\Http\\ResolvedRoute--><rect fill="#FEFECE" height="32" id="Phpolar\\Phpolar\\Http\\ResolvedRoute" style="stroke: #A80036; stroke-width: 1.5;" width="125" x="429" y="172"/><ellipse cx="444" cy="188" fill="#ADD1B2" rx="11" ry="11" style="stroke: #A80036; stroke-width: 1.0;"/><path d="M446.9688,193.6406 Q446.3906,193.9375 445.75,194.0781 Q445.1094,194.2344 444.4063,194.2344 Q441.9063,194.2344 440.5781,192.5938 Q439.2656,190.9375 439.2656,187.8125 Q439.2656,184.6875 440.5781,183.0313 Q441.9063,181.375 444.4063,181.375 Q445.1094,181.375 445.75,181.5313 Q446.4063,181.6875 446.9688,181.9844 L446.9688,184.7031 Q446.3438,184.125 445.75,183.8594 Q445.1563,183.5781 444.5313,183.5781 Q443.1875,183.5781 442.5,184.6563 Q441.8125,185.7188 441.8125,187.8125 Q441.8125,189.9063 442.5,190.9844 Q443.1875,192.0469 444.5313,192.0469 Q445.1563,192.0469 445.75,191.7813 Q446.3438,191.5 446.9688,190.9219 L446.9688,193.6406 Z "/><text fill="#000000" font-family="sans-serif" font-size="12" lengthAdjust="spacingAndGlyphs" textLength="93" x="458" y="192.1543">ResolvedRoute</text><!--MD5=[75dfe254516a81a2990b34b2b18adae2]
class Phpolar\\Phpolar\\Http\\RouteRegistry--><rect fill="#FEFECE" height="32" id="Phpolar\\Phpolar\\Http\\RouteRegistry" style="stroke: #A80036; stroke-width: 1.5;" width="119" x="432" y="105"/><ellipse cx="447" cy="121" fill="#ADD1B2" rx="11" ry="11" style="stroke: #A80036; stroke-width: 1.0;"/><path d="M449.9688,126.6406 Q449.3906,126.9375 448.75,127.0781 Q448.1094,127.2344 447.4063,127.2344 Q444.9063,127.2344 443.5781,125.5938 Q442.2656,123.9375 442.2656,120.8125 Q442.2656,117.6875 443.5781,116.0313 Q444.9063,114.375 447.4063,114.375 Q448.1094,114.375 448.75,114.5313 Q449.4063,114.6875 449.9688,114.9844 L449.9688,117.7031 Q449.3438,117.125 448.75,116.8594 Q448.1563,116.5781 447.5313,116.5781 Q446.1875,116.5781 445.5,117.6563 Q444.8125,118.7188 444.8125,120.8125 Q444.8125,122.9063 445.5,123.9844 Q446.1875,125.0469 447.5313,125.0469 Q448.1563,125.0469 448.75,124.7813 Q449.3438,124.5 449.9688,123.9219 L449.9688,126.6406 Z "/><text fill="#000000" font-family="sans-serif" font-size="12" lengthAdjust="spacingAndGlyphs" textLength="87" x="461" y="125.1543">RouteRegistry</text><!--MD5=[7be6a97fd6dc01e7aa457d41ce41952e]
class Phpolar\\Phpolar\\Http\\RoutingHandler--><rect fill="#FEFECE" height="32" id="Phpolar\\Phpolar\\Http\\RoutingHandler" style="stroke: #A80036; stroke-width: 1.5;" width="129" x="427" y="373"/><ellipse cx="442" cy="389" fill="#ADD1B2" rx="11" ry="11" style="stroke: #A80036; stroke-width: 1.0;"/><path d="M444.9688,394.6406 Q444.3906,394.9375 443.75,395.0781 Q443.1094,395.2344 442.4063,395.2344 Q439.9063,395.2344 438.5781,393.5938 Q437.2656,391.9375 437.2656,388.8125 Q437.2656,385.6875 438.5781,384.0313 Q439.9063,382.375 442.4063,382.375 Q443.1094,382.375 443.75,382.5313 Q444.4063,382.6875 444.9688,382.9844 L444.9688,385.7031 Q444.3438,385.125 443.75,384.8594 Q443.1563,384.5781 442.5313,384.5781 Q441.1875,384.5781 440.5,385.6563 Q439.8125,386.7188 439.8125,388.8125 Q439.8125,390.9063 440.5,391.9844 Q441.1875,393.0469 442.5313,393.0469 Q443.1563,393.0469 443.75,392.7813 Q444.3438,392.5 444.9688,391.9219 L444.9688,394.6406 Z "/><text fill="#000000" font-family="sans-serif" font-size="12" lengthAdjust="spacingAndGlyphs" textLength="97" x="456" y="393.1543">RoutingHandler</text><!--MD5=[5453f7951178626c6d0aa6a00871514e]
class Phpolar\\Phpolar\\Http\\RoutingMiddleware--><rect fill="#FEFECE" height="32" id="Phpolar\\Phpolar\\Http\\RoutingMiddleware" style="stroke: #A80036; stroke-width: 1.5;" width="150" x="416.5" y="440"/><ellipse cx="431.5" cy="456" fill="#ADD1B2" rx="11" ry="11" style="stroke: #A80036; stroke-width: 1.0;"/><path d="M434.4688,461.6406 Q433.8906,461.9375 433.25,462.0781 Q432.6094,462.2344 431.9063,462.2344 Q429.4063,462.2344 428.0781,460.5938 Q426.7656,458.9375 426.7656,455.8125 Q426.7656,452.6875 428.0781,451.0313 Q429.4063,449.375 431.9063,449.375 Q432.6094,449.375 433.25,449.5313 Q433.9063,449.6875 434.4688,449.9844 L434.4688,452.7031 Q433.8438,452.125 433.25,451.8594 Q432.6563,451.5781 432.0313,451.5781 Q430.6875,451.5781 430,452.6563 Q429.3125,453.7188 429.3125,455.8125 Q429.3125,457.9063 430,458.9844 Q430.6875,460.0469 432.0313,460.0469 Q432.6563,460.0469 433.25,459.7813 Q433.8438,459.5 434.4688,458.9219 L434.4688,461.6406 Z "/><text fill="#000000" font-family="sans-serif" font-size="12" lengthAdjust="spacingAndGlyphs" textLength="118" x="445.5" y="460.1543">RoutingMiddleware</text><!--MD5=[05e2d419cee559a6b7aad014f98a649e]
class Phpolar\\Phpolar\\Http\\RoutableInterface--><rect fill="#FEFECE" height="32" id="Phpolar\\Phpolar\\Http\\RoutableInterface" style="stroke: #A80036; stroke-width: 1.5;" width="145" x="673.5" y="172"/><ellipse cx="688.5" cy="188" fill="#B4A7E5" rx="11" ry="11" style="stroke: #A80036; stroke-width: 1.0;"/><path d="M684.4219,183.7656 L684.4219,181.6094 L691.8125,181.6094 L691.8125,183.7656 L689.3438,183.7656 L689.3438,191.8438 L691.8125,191.8438 L691.8125,194 L684.4219,194 L684.4219,191.8438 L686.8906,191.8438 L686.8906,183.7656 L684.4219,183.7656 Z "/><text fill="#000000" font-family="sans-serif" font-size="12" font-style="italic" lengthAdjust="spacingAndGlyphs" textLength="113" x="702.5" y="192.1543">RoutableInterface</text><!--MD5=[eb647d64e0e505aae508247625db42c9]
class Psr\\Http\\Server\\RequestHandlerInterface--><rect fill="#FEFECE" height="32" id="Psr\\Http\\Server\\RequestHandlerInterface" style="stroke: #A80036; stroke-width: 1.5;" width="189" x="75.5" y="340"/><ellipse cx="90.5" cy="356" fill="#B4A7E5" rx="11" ry="11" style="stroke: #A80036; stroke-width: 1.0;"/><path d="M86.4219,351.7656 L86.4219,349.6094 L93.8125,349.6094 L93.8125,351.7656 L91.3438,351.7656 L91.3438,359.8438 L93.8125,359.8438 L93.8125,362 L86.4219,362 L86.4219,359.8438 L88.8906,359.8438 L88.8906,351.7656 L86.4219,351.7656 Z "/><text fill="#000000" font-family="sans-serif" font-size="12" font-style="italic" lengthAdjust="spacingAndGlyphs" textLength="157" x="104.5" y="360.1543">RequestHandlerInterface</text><!--MD5=[c9ec0e3c1f519dc0c5f59d9d724f4fc8]
class Psr\\Http\\Server\\MiddlewareInterface--><rect fill="#FEFECE" height="32" id="Psr\\Http\\Server\\MiddlewareInterface" style="stroke: #A80036; stroke-width: 1.5;" width="160" x="90" y="407"/><ellipse cx="105" cy="423" fill="#B4A7E5" rx="11" ry="11" style="stroke: #A80036; stroke-width: 1.0;"/><path d="M100.9219,418.7656 L100.9219,416.6094 L108.3125,416.6094 L108.3125,418.7656 L105.8438,418.7656 L105.8438,426.8438 L108.3125,426.8438 L108.3125,429 L100.9219,429 L100.9219,426.8438 L103.3906,426.8438 L103.3906,418.7656 L100.9219,418.7656 Z "/><text fill="#000000" font-family="sans-serif" font-size="12" font-style="italic" lengthAdjust="spacingAndGlyphs" textLength="128" x="119" y="427.1543">MiddlewareInterface</text><!--MD5=[adfb148a425a75ff67cc61ed9ac8599f]
reverse link Psr\\Http\\Server\\RequestHandlerInterface to Phpolar\\Phpolar\\Http\\ErrorHandler--><path d="M247.5,319.75 C247.5,319.75 247.5,252 247.5,252 C247.5,252 363.16,252 435.22,252 " fill="none" id="Psr\\Http\\Server\\RequestHandlerInterface&lt;-Phpolar\\Phpolar\\Http\\ErrorHandler" style="stroke: #516F42; stroke-width: 1.0; stroke-dasharray: 7.0,7.0;"/><polygon fill="none" points="254.5,319.75,247.5,339.75,240.5,319.75,254.5,319.75" style="stroke: #516F42; stroke-width: 1.0;"/><!--MD5=[5f784f0ba7063c24d486072889667bc7]
reverse link Psr\\Http\\Server\\RequestHandlerInterface to Phpolar\\Phpolar\\Http\\MiddlewareQueueRequestHandler--><path d="M256.5,323.78 C256.5,323.78 256.5,322 256.5,322 C256.5,322 312.08,322 369.18,322 " fill="none" id="Psr\\Http\\Server\\RequestHandlerInterface&lt;-Phpolar\\Phpolar\\Http\\MiddlewareQueueRequestHandler" style="stroke: #516F42; stroke-width: 1.0; stroke-dasharray: 7.0,7.0;"/><polygon fill="none" points="263.5,319.8,256.5,339.8,249.5,319.8,263.5,319.8" style="stroke: #516F42; stroke-width: 1.0;"/><!--MD5=[8007630022231e49834248fad5c319a1]
reverse link Psr\\Http\\Server\\RequestHandlerInterface to Phpolar\\Phpolar\\Http\\RoutingHandler--><path d="M257.5,387.31 C257.5,387.31 257.5,389 257.5,389 C257.5,389 357.68,389 426.94,389 " fill="none" id="Psr\\Http\\Server\\RequestHandlerInterface&lt;-Phpolar\\Phpolar\\Http\\RoutingHandler" style="stroke: #516F42; stroke-width: 1.0; stroke-dasharray: 7.0,7.0;"/><polygon fill="none" points="250.5,392.11,257.5,372.11,264.5,392.11,250.5,392.11" style="stroke: #516F42; stroke-width: 1.0;"/><!--MD5=[a99784d97307c6a3b2964acff219c718]
reverse link Psr\\Http\\Server\\MiddlewareInterface to Phpolar\\Phpolar\\Http\\RoutingMiddleware--><path d="M270.24,423 C270.24,423 422.5,423 422.5,423 C422.5,423 422.5,431.51 422.5,439.89 " fill="none" id="Psr\\Http\\Server\\MiddlewareInterface&lt;-Phpolar\\Phpolar\\Http\\RoutingMiddleware" style="stroke: #516F42; stroke-width: 1.0; stroke-dasharray: 7.0,7.0;"/><polygon fill="none" points="270.24,430,250.24,423,270.24,416,270.24,430" style="stroke: #516F42; stroke-width: 1.0;"/><!--MD5=[6a9960bf44e58a7f19bd6681b4080981]
link Phpolar\\Phpolar\\Http\\ResolvedRoute to Phpolar\\Phpolar\\Http\\RouteRegistry--><!--MD5=[66675e9eb98dc30b979f155ff45d811d]
link Phpolar\\Phpolar\\Http\\ResolvedRoute to Phpolar\\Phpolar\\Http\\RoutableInterface--><!--MD5=[c85cf40e610a6b0043aa82476385f758]
@startuml
   skinparam ArrowColor #516f42
   skinparam activityBorderColor #516f42
   skinparam activityBackgroundColor #ffffff
   skinparam activityDiamondBorderColor #516f42
   skinparam activityDiamondBackgroundColor #ffffff
   skinparam shadowing false

skinparam shadowing false
skinparam linetype ortho
hide empty members
left to right direction
set namespaceSeparator \\


class \\Phpolar\\Phpolar\\App {
}

class \\Phpolar\\Phpolar\\DependencyInjection\\ContainerLoader {
}

class \\Phpolar\\Phpolar\\DependencyInjection\\DiTokens {
}

class \\Phpolar\\Phpolar\\Http\\ErrorHandler implements \\Psr\\Http\\Server\\RequestHandlerInterface {
}

class \\Phpolar\\Phpolar\\Http\\MiddlewareQueueRequestHandler implements \\Psr\\Http\\Server\\RequestHandlerInterface {
}

class \\Phpolar\\Phpolar\\Http\\ResolvedRoute {
}

class \\Phpolar\\Phpolar\\Http\\RouteRegistry {
}

class \\Phpolar\\Phpolar\\Http\\RoutingHandler implements \\Psr\\Http\\Server\\RequestHandlerInterface {
}

class \\Phpolar\\Phpolar\\Http\\RoutingMiddleware implements \\Psr\\Http\\Server\\MiddlewareInterface {
}

interface \\Phpolar\\Phpolar\\Http\\RoutableInterface {
}

@enduml

PlantUML version 1.2020.02(Sun Mar 01 04:22:07 CST 2020)
(GPL source distribution)
Java Runtime: OpenJDK Runtime Environment
JVM: OpenJDK 64-Bit Server VM
Java Version: 11.0.19+7-post-Ubuntu-0ubuntu122.04.1
Operating System: Linux
Default Encoding: UTF-8
Language: en
Country: US
--></g></svg>