<svg xmlns="http://www.w3.org/2000/svg" xmlns:xlink="http://www.w3.org/1999/xlink" contentStyleType="text/css" data-diagram-type="CLASS" height="951px" preserveAspectRatio="none" style="width:780px;height:951px;background:#FFFFFF;" version="1.1" viewBox="0 0 780 951" width="780px" zoomAndPan="magnify"><defs/><g><!--cluster Phpolar--><g id="cluster_Phpolar"><path d="M19,4 L81.0176,4 A3.75,3.75 0 0 1 83.5176,6.5 L90.5176,26.2969 L770.5,26.2969 A2.5,2.5 0 0 1 773,28.7969 L773,730.5 A2.5,2.5 0 0 1 770.5,733 L19,733 A2.5,2.5 0 0 1 16.5,730.5 L16.5,6.5 A2.5,2.5 0 0 1 19,4 " fill="transparent" style="stroke:#000000;stroke-width:1.5;"/><line style="stroke:#000000;stroke-width:1.5;" x1="16.5" x2="90.5176" y1="26.2969" y2="26.2969"/><text fill="#000000" font-family="sans-serif" font-size="14" font-weight="bold" lengthAdjust="spacing" textLength="61.0176" x="20.5" y="18.9951">Phpolar</text></g><!--cluster Phpolar--><g id="cluster_Phpolar"><path d="M279.5,31 L341.5176,31 A3.75,3.75 0 0 1 344.0176,33.5 L351.0176,53.2969 L762.5,53.2969 A2.5,2.5 0 0 1 765,55.7969 L765,722.5 A2.5,2.5 0 0 1 762.5,725 L279.5,725 A2.5,2.5 0 0 1 277,722.5 L277,33.5 A2.5,2.5 0 0 1 279.5,31 " fill="transparent" style="stroke:#000000;stroke-width:1.5;"/><line style="stroke:#000000;stroke-width:1.5;" x1="277" x2="351.0176" y1="53.2969" y2="53.2969"/><text fill="#000000" font-family="sans-serif" font-size="14" font-weight="bold" lengthAdjust="spacing" textLength="61.0176" x="281" y="45.9951">Phpolar</text></g><!--cluster Auth--><g id="cluster_Auth"><path d="M311.5,58 L349.9609,58 A3.75,3.75 0 0 1 352.4609,60.5 L359.4609,80.2969 L545.5,80.2969 A2.5,2.5 0 0 1 548,82.7969 L548,272.5 A2.5,2.5 0 0 1 545.5,275 L311.5,275 A2.5,2.5 0 0 1 309,272.5 L309,60.5 A2.5,2.5 0 0 1 311.5,58 " fill="transparent" style="stroke:#000000;stroke-width:1.5;"/><line style="stroke:#000000;stroke-width:1.5;" x1="309" x2="359.4609" y1="80.2969" y2="80.2969"/><text fill="#000000" font-family="sans-serif" font-size="14" font-weight="bold" lengthAdjust="spacing" textLength="37.4609" x="313" y="72.9951">Auth</text></g><!--cluster DependencyInjection--><g id="cluster_DependencyInjection"><path d="M348.5,283 L515.8525,283 A3.75,3.75 0 0 1 518.3525,285.5 L525.3525,305.2969 L715.5,305.2969 A2.5,2.5 0 0 1 718,307.7969 L718,397.5 A2.5,2.5 0 0 1 715.5,400 L348.5,400 A2.5,2.5 0 0 1 346,397.5 L346,285.5 A2.5,2.5 0 0 1 348.5,283 " fill="transparent" style="stroke:#000000;stroke-width:1.5;"/><line style="stroke:#000000;stroke-width:1.5;" x1="346" x2="525.3525" y1="305.2969" y2="305.2969"/><text fill="#000000" font-family="sans-serif" font-size="14" font-weight="bold" lengthAdjust="spacing" textLength="166.3525" x="350" y="297.9951">DependencyInjection</text></g><!--cluster Http--><g id="cluster_Http"><path d="M287.5,408 L323.623,408 A3.75,3.75 0 0 1 326.123,410.5 L333.123,430.2969 L754.5,430.2969 A2.5,2.5 0 0 1 757,432.7969 L757,672.5 A2.5,2.5 0 0 1 754.5,675 L287.5,675 A2.5,2.5 0 0 1 285,672.5 L285,410.5 A2.5,2.5 0 0 1 287.5,408 " fill="transparent" style="stroke:#000000;stroke-width:1.5;"/><line style="stroke:#000000;stroke-width:1.5;" x1="285" x2="333.123" y1="430.2969" y2="430.2969"/><text fill="#000000" font-family="sans-serif" font-size="14" font-weight="bold" lengthAdjust="spacing" textLength="35.123" x="289" y="422.9951">Http</text></g><!--cluster Routable--><g id="cluster_Routable"><path d="M27,75 L98.8203,75 A3.75,3.75 0 0 1 101.3203,77.5 L108.3203,97.2969 L256,97.2969 A2.5,2.5 0 0 1 258.5,99.7969 L258.5,205.5 A2.5,2.5 0 0 1 256,208 L27,208 A2.5,2.5 0 0 1 24.5,205.5 L24.5,77.5 A2.5,2.5 0 0 1 27,75 " fill="transparent" style="stroke:#000000;stroke-width:1.5;"/><line style="stroke:#000000;stroke-width:1.5;" x1="24.5" x2="108.3203" y1="97.2969" y2="97.2969"/><text fill="#000000" font-family="sans-serif" font-size="14" font-weight="bold" lengthAdjust="spacing" textLength="70.8203" x="28.5" y="89.9951">Routable</text></g><!--cluster Psr--><g id="cluster_Psr"><path d="M16.5,741 L42.998,741 A3.75,3.75 0 0 1 45.498,743.5 L52.498,763.2969 L266.5,763.2969 A2.5,2.5 0 0 1 269,765.7969 L269,941.5 A2.5,2.5 0 0 1 266.5,944 L16.5,944 A2.5,2.5 0 0 1 14,941.5 L14,743.5 A2.5,2.5 0 0 1 16.5,741 " fill="transparent" style="stroke:#000000;stroke-width:1.5;"/><line style="stroke:#000000;stroke-width:1.5;" x1="14" x2="52.498" y1="763.2969" y2="763.2969"/><text fill="#000000" font-family="sans-serif" font-size="14" font-weight="bold" lengthAdjust="spacing" textLength="25.498" x="18" y="755.9951">Psr</text></g><!--cluster Http--><g id="cluster_Http"><path d="M24.5,768 L60.623,768 A3.75,3.75 0 0 1 63.123,770.5 L70.123,790.2969 L258.5,790.2969 A2.5,2.5 0 0 1 261,792.7969 L261,933.5 A2.5,2.5 0 0 1 258.5,936 L24.5,936 A2.5,2.5 0 0 1 22,933.5 L22,770.5 A2.5,2.5 0 0 1 24.5,768 " fill="transparent" style="stroke:#000000;stroke-width:1.5;"/><line style="stroke:#000000;stroke-width:1.5;" x1="22" x2="70.123" y1="790.2969" y2="790.2969"/><text fill="#000000" font-family="sans-serif" font-size="14" font-weight="bold" lengthAdjust="spacing" textLength="35.123" x="26" y="782.9951">Http</text></g><!--cluster Server--><g id="cluster_Server"><path d="M32.5,795 L85.5078,795 A3.75,3.75 0 0 1 88.0078,797.5 L95.0078,817.2969 L250.5,817.2969 A2.5,2.5 0 0 1 253,819.7969 L253,925.5 A2.5,2.5 0 0 1 250.5,928 L32.5,928 A2.5,2.5 0 0 1 30,925.5 L30,797.5 A2.5,2.5 0 0 1 32.5,795 " fill="transparent" style="stroke:#000000;stroke-width:1.5;"/><line style="stroke:#000000;stroke-width:1.5;" x1="30" x2="95.0078" y1="817.2969" y2="817.2969"/><text fill="#000000" font-family="sans-serif" font-size="14" font-weight="bold" lengthAdjust="spacing" textLength="52.0078" x="34" y="809.9951">Server</text></g><!--class App__class--><g id="elem_App__class"><rect codeLine="15" fill="#F1F1F1" height="32" id="App__class" rx="2.5" ry="2.5" style="stroke:#181818;stroke-width:0.5;" width="59.3506" x="399" y="685"/><ellipse cx="414" cy="701" fill="#ADD1B2" rx="11" ry="11" style="stroke:#181818;stroke-width:1;"/><path d="M416.9688,706.6406 Q416.3906,706.9375 415.75,707.0781 Q415.1094,707.2344 414.4063,707.2344 Q411.9063,707.2344 410.5781,705.5938 Q409.2656,703.9375 409.2656,700.8125 Q409.2656,697.6875 410.5781,696.0313 Q411.9063,694.375 414.4063,694.375 Q415.1094,694.375 415.75,694.5313 Q416.4063,694.6875 416.9688,694.9844 L416.9688,697.7031 Q416.3438,697.125 415.75,696.8594 Q415.1563,696.5781 414.5313,696.5781 Q413.1875,696.5781 412.5,697.6563 Q411.8125,698.7188 411.8125,700.8125 Q411.8125,702.9063 412.5,703.9844 Q413.1875,705.0469 414.5313,705.0469 Q415.1563,705.0469 415.75,704.7813 Q416.3438,704.5 416.9688,703.9219 L416.9688,706.6406 Z " fill="#000000"/><text fill="#000000" font-family="sans-serif" font-size="14" lengthAdjust="spacing" textLength="27.3506" x="428" y="705.8467">App</text></g><!--class AbstractProtectedRoutable__class--><g id="elem_AbstractProtectedRoutable__class"><rect codeLine="23" fill="#F1F1F1" height="32" id="AbstractProtectedRoutable__class" rx="2.5" ry="2.5" style="stroke:#181818;stroke-width:0.5;" width="220.9453" x="318" y="85"/><ellipse cx="333" cy="101" fill="#A9DCDF" rx="11" ry="11" style="stroke:#181818;stroke-width:1;"/><path d="M333.1094,96.3438 L331.9531,101.4219 L334.2813,101.4219 L333.1094,96.3438 Z M331.625,94.1094 L334.6094,94.1094 L337.9688,106.5 L335.5156,106.5 L334.75,103.4375 L331.4688,103.4375 L330.7188,106.5 L328.2813,106.5 L331.625,94.1094 Z " fill="#000000"/><text fill="#000000" font-family="sans-serif" font-size="14" font-style="italic" lengthAdjust="spacing" textLength="188.9453" x="347" y="105.8467">AbstractProtectedRoutable</text></g><!--class Authorize__class--><g id="elem_Authorize__class"><rect codeLine="27" fill="#F1F1F1" height="32" id="Authorize__class" rx="2.5" ry="2.5" style="stroke:#181818;stroke-width:0.5;" width="98.9854" x="379" y="135"/><ellipse cx="394" cy="151" fill="#ADD1B2" rx="11" ry="11" style="stroke:#181818;stroke-width:1;"/><path d="M396.9688,156.6406 Q396.3906,156.9375 395.75,157.0781 Q395.1094,157.2344 394.4063,157.2344 Q391.9063,157.2344 390.5781,155.5938 Q389.2656,153.9375 389.2656,150.8125 Q389.2656,147.6875 390.5781,146.0313 Q391.9063,144.375 394.4063,144.375 Q395.1094,144.375 395.75,144.5313 Q396.4063,144.6875 396.9688,144.9844 L396.9688,147.7031 Q396.3438,147.125 395.75,146.8594 Q395.1563,146.5781 394.5313,146.5781 Q393.1875,146.5781 392.5,147.6563 Q391.8125,148.7188 391.8125,150.8125 Q391.8125,152.9063 392.5,153.9844 Q393.1875,155.0469 394.5313,155.0469 Q395.1563,155.0469 395.75,154.7813 Q396.3438,154.5 396.9688,153.9219 L396.9688,156.6406 Z " fill="#000000"/><text fill="#000000" font-family="sans-serif" font-size="14" lengthAdjust="spacing" textLength="66.9854" x="408" y="155.8467">Authorize</text></g><!--class ProtectedRoutableResolver__class--><g id="elem_ProtectedRoutableResolver__class"><rect codeLine="35" fill="#F1F1F1" height="32" id="ProtectedRoutableResolver__class" rx="2.5" ry="2.5" style="stroke:#181818;stroke-width:0.5;" width="222.9209" x="317" y="185"/><ellipse cx="332" cy="201" fill="#ADD1B2" rx="11" ry="11" style="stroke:#181818;stroke-width:1;"/><path d="M334.9688,206.6406 Q334.3906,206.9375 333.75,207.0781 Q333.1094,207.2344 332.4063,207.2344 Q329.9063,207.2344 328.5781,205.5938 Q327.2656,203.9375 327.2656,200.8125 Q327.2656,197.6875 328.5781,196.0313 Q329.9063,194.375 332.4063,194.375 Q333.1094,194.375 333.75,194.5313 Q334.4063,194.6875 334.9688,194.9844 L334.9688,197.7031 Q334.3438,197.125 333.75,196.8594 Q333.1563,196.5781 332.5313,196.5781 Q331.1875,196.5781 330.5,197.6563 Q329.8125,198.7188 329.8125,200.8125 Q329.8125,202.9063 330.5,203.9844 Q331.1875,205.0469 332.5313,205.0469 Q333.1563,205.0469 333.75,204.7813 Q334.3438,204.5 334.9688,203.9219 L334.9688,206.6406 Z " fill="#000000"/><text fill="#000000" font-family="sans-serif" font-size="14" lengthAdjust="spacing" textLength="190.9209" x="346" y="205.8467">ProtectedRoutableResolver</text></g><!--class User__class--><g id="elem_User__class"><rect codeLine="39" fill="#F1F1F1" height="32" id="User__class" rx="2.5" ry="2.5" style="stroke:#181818;stroke-width:0.5;" width="63.9102" x="396.5" y="235"/><ellipse cx="411.5" cy="251" fill="#ADD1B2" rx="11" ry="11" style="stroke:#181818;stroke-width:1;"/><path d="M414.4688,256.6406 Q413.8906,256.9375 413.25,257.0781 Q412.6094,257.2344 411.9063,257.2344 Q409.4063,257.2344 408.0781,255.5938 Q406.7656,253.9375 406.7656,250.8125 Q406.7656,247.6875 408.0781,246.0313 Q409.4063,244.375 411.9063,244.375 Q412.6094,244.375 413.25,244.5313 Q413.9063,244.6875 414.4688,244.9844 L414.4688,247.7031 Q413.8438,247.125 413.25,246.8594 Q412.6563,246.5781 412.0313,246.5781 Q410.6875,246.5781 410,247.6563 Q409.3125,248.7188 409.3125,250.8125 Q409.3125,252.9063 410,253.9844 Q410.6875,255.0469 412.0313,255.0469 Q412.6563,255.0469 413.25,254.7813 Q413.8438,254.5 414.4688,253.9219 L414.4688,256.6406 Z " fill="#000000"/><text fill="#000000" font-family="sans-serif" font-size="14" lengthAdjust="spacing" textLength="31.9102" x="425.5" y="255.8467">User</text></g><!--class ContainerLoader__class--><g id="elem_ContainerLoader__class"><rect codeLine="43" fill="#F1F1F1" height="32" id="ContainerLoader__class" rx="2.5" ry="2.5" style="stroke:#181818;stroke-width:0.5;" width="148.6143" x="354" y="360"/><ellipse cx="369" cy="376" fill="#ADD1B2" rx="11" ry="11" style="stroke:#181818;stroke-width:1;"/><path d="M371.9688,381.6406 Q371.3906,381.9375 370.75,382.0781 Q370.1094,382.2344 369.4063,382.2344 Q366.9063,382.2344 365.5781,380.5938 Q364.2656,378.9375 364.2656,375.8125 Q364.2656,372.6875 365.5781,371.0313 Q366.9063,369.375 369.4063,369.375 Q370.1094,369.375 370.75,369.5313 Q371.4063,369.6875 371.9688,369.9844 L371.9688,372.7031 Q371.3438,372.125 370.75,371.8594 Q370.1563,371.5781 369.5313,371.5781 Q368.1875,371.5781 367.5,372.6563 Q366.8125,373.7188 366.8125,375.8125 Q366.8125,377.9063 367.5,378.9844 Q368.1875,380.0469 369.5313,380.0469 Q370.1563,380.0469 370.75,379.7813 Q371.3438,379.5 371.9688,378.9219 L371.9688,381.6406 Z " fill="#000000"/><text fill="#000000" font-family="sans-serif" font-size="14" lengthAdjust="spacing" textLength="116.6143" x="383" y="380.8467">ContainerLoader</text></g><!--class DiTokens__class--><g id="elem_DiTokens__class"><rect codeLine="47" fill="#F1F1F1" height="32" id="DiTokens__class" rx="2.5" ry="2.5" style="stroke:#181818;stroke-width:0.5;" width="96.6748" x="380" y="310"/><ellipse cx="395" cy="326" fill="#ADD1B2" rx="11" ry="11" style="stroke:#181818;stroke-width:1;"/><path d="M397.9688,331.6406 Q397.3906,331.9375 396.75,332.0781 Q396.1094,332.2344 395.4063,332.2344 Q392.9063,332.2344 391.5781,330.5938 Q390.2656,328.9375 390.2656,325.8125 Q390.2656,322.6875 391.5781,321.0313 Q392.9063,319.375 395.4063,319.375 Q396.1094,319.375 396.75,319.5313 Q397.4063,319.6875 397.9688,319.9844 L397.9688,322.7031 Q397.3438,322.125 396.75,321.8594 Q396.1563,321.5781 395.5313,321.5781 Q394.1875,321.5781 393.5,322.6563 Q392.8125,323.7188 392.8125,325.8125 Q392.8125,327.9063 393.5,328.9844 Q394.1875,330.0469 395.5313,330.0469 Q396.1563,330.0469 396.75,329.7813 Q397.3438,329.5 397.9688,328.9219 L397.9688,331.6406 Z " fill="#000000"/><text fill="#000000" font-family="sans-serif" font-size="14" lengthAdjust="spacing" textLength="64.6748" x="409" y="330.8467">DiTokens</text></g><!--class Globs__enum--><g id="elem_Globs__enum"><rect codeLine="51" fill="#F1F1F1" height="32" id="Globs__enum" rx="2.5" ry="2.5" style="stroke:#181818;stroke-width:0.5;" width="71.4844" x="639" y="360"/><ellipse cx="654" cy="376" fill="#EB937F" rx="11" ry="11" style="stroke:#181818;stroke-width:1;"/><path d="M658.1094,382 L650.3906,382 L650.3906,369.6094 L658.1094,369.6094 L658.1094,371.7656 L652.8438,371.7656 L652.8438,374.4375 L657.6094,374.4375 L657.6094,376.5938 L652.8438,376.5938 L652.8438,379.8438 L658.1094,379.8438 L658.1094,382 Z " fill="#000000"/><text fill="#000000" font-family="sans-serif" font-size="14" lengthAdjust="spacing" textLength="39.4844" x="668" y="380.8467">Globs</text></g><!--class AuthorizationChecker__class--><g id="elem_AuthorizationChecker__class"><rect codeLine="55" fill="#F1F1F1" height="32" id="AuthorizationChecker__class" rx="2.5" ry="2.5" style="stroke:#181818;stroke-width:0.5;" width="183.2041" x="337" y="485"/><ellipse cx="352" cy="501" fill="#ADD1B2" rx="11" ry="11" style="stroke:#181818;stroke-width:1;"/><path d="M354.9688,506.6406 Q354.3906,506.9375 353.75,507.0781 Q353.1094,507.2344 352.4063,507.2344 Q349.9063,507.2344 348.5781,505.5938 Q347.2656,503.9375 347.2656,500.8125 Q347.2656,497.6875 348.5781,496.0313 Q349.9063,494.375 352.4063,494.375 Q353.1094,494.375 353.75,494.5313 Q354.4063,494.6875 354.9688,494.9844 L354.9688,497.7031 Q354.3438,497.125 353.75,496.8594 Q353.1563,496.5781 352.5313,496.5781 Q351.1875,496.5781 350.5,497.6563 Q349.8125,498.7188 349.8125,500.8125 Q349.8125,502.9063 350.5,503.9844 Q351.1875,505.0469 352.5313,505.0469 Q353.1563,505.0469 353.75,504.7813 Q354.3438,504.5 354.9688,503.9219 L354.9688,506.6406 Z " fill="#000000"/><text fill="#000000" font-family="sans-serif" font-size="14" lengthAdjust="spacing" textLength="151.2041" x="366" y="505.8467">AuthorizationChecker</text></g><!--class MiddlewareQueueRequestHandler__class--><g id="elem_MiddlewareQueueRequestHandler__class"><rect codeLine="63" fill="#F1F1F1" height="32" id="MiddlewareQueueRequestHandler__class" rx="2.5" ry="2.5" style="stroke:#181818;stroke-width:0.5;" width="271.2578" x="293" y="535"/><ellipse cx="308" cy="551" fill="#ADD1B2" rx="11" ry="11" style="stroke:#181818;stroke-width:1;"/><path d="M310.9688,556.6406 Q310.3906,556.9375 309.75,557.0781 Q309.1094,557.2344 308.4063,557.2344 Q305.9063,557.2344 304.5781,555.5938 Q303.2656,553.9375 303.2656,550.8125 Q303.2656,547.6875 304.5781,546.0313 Q305.9063,544.375 308.4063,544.375 Q309.1094,544.375 309.75,544.5313 Q310.4063,544.6875 310.9688,544.9844 L310.9688,547.7031 Q310.3438,547.125 309.75,546.8594 Q309.1563,546.5781 308.5313,546.5781 Q307.1875,546.5781 306.5,547.6563 Q305.8125,548.7188 305.8125,550.8125 Q305.8125,552.9063 306.5,553.9844 Q307.1875,555.0469 308.5313,555.0469 Q309.1563,555.0469 309.75,554.7813 Q310.3438,554.5 310.9688,553.9219 L310.9688,556.6406 Z " fill="#000000"/><text fill="#000000" font-family="sans-serif" font-size="14" lengthAdjust="spacing" textLength="239.2578" x="322" y="555.8467">MiddlewareQueueRequestHandler</text></g><!--class ResolvedRoute__class--><g id="elem_ResolvedRoute__class"><rect codeLine="67" fill="#F1F1F1" height="32" id="ResolvedRoute__class" rx="2.5" ry="2.5" style="stroke:#181818;stroke-width:0.5;" width="137.1436" x="360" y="435"/><ellipse cx="375" cy="451" fill="#ADD1B2" rx="11" ry="11" style="stroke:#181818;stroke-width:1;"/><path d="M377.9688,456.6406 Q377.3906,456.9375 376.75,457.0781 Q376.1094,457.2344 375.4063,457.2344 Q372.9063,457.2344 371.5781,455.5938 Q370.2656,453.9375 370.2656,450.8125 Q370.2656,447.6875 371.5781,446.0313 Q372.9063,444.375 375.4063,444.375 Q376.1094,444.375 376.75,444.5313 Q377.4063,444.6875 377.9688,444.9844 L377.9688,447.7031 Q377.3438,447.125 376.75,446.8594 Q376.1563,446.5781 375.5313,446.5781 Q374.1875,446.5781 373.5,447.6563 Q372.8125,448.7188 372.8125,450.8125 Q372.8125,452.9063 373.5,453.9844 Q374.1875,455.0469 375.5313,455.0469 Q376.1563,455.0469 376.75,454.7813 Q377.3438,454.5 377.9688,453.9219 L377.9688,456.6406 Z " fill="#000000"/><text fill="#000000" font-family="sans-serif" font-size="14" lengthAdjust="spacing" textLength="105.1436" x="389" y="455.8467">ResolvedRoute</text></g><!--class RouteMap__class--><g id="elem_RouteMap__class"><rect codeLine="71" fill="#F1F1F1" height="32" id="RouteMap__class" rx="2.5" ry="2.5" style="stroke:#181818;stroke-width:0.5;" width="102.8135" x="623" y="485"/><ellipse cx="638" cy="501" fill="#ADD1B2" rx="11" ry="11" style="stroke:#181818;stroke-width:1;"/><path d="M640.9688,506.6406 Q640.3906,506.9375 639.75,507.0781 Q639.1094,507.2344 638.4063,507.2344 Q635.9063,507.2344 634.5781,505.5938 Q633.2656,503.9375 633.2656,500.8125 Q633.2656,497.6875 634.5781,496.0313 Q635.9063,494.375 638.4063,494.375 Q639.1094,494.375 639.75,494.5313 Q640.4063,494.6875 640.9688,494.9844 L640.9688,497.7031 Q640.3438,497.125 639.75,496.8594 Q639.1563,496.5781 638.5313,496.5781 Q637.1875,496.5781 636.5,497.6563 Q635.8125,498.7188 635.8125,500.8125 Q635.8125,502.9063 636.5,503.9844 Q637.1875,505.0469 638.5313,505.0469 Q639.1563,505.0469 639.75,504.7813 Q640.3438,504.5 640.9688,503.9219 L640.9688,506.6406 Z " fill="#000000"/><text fill="#000000" font-family="sans-serif" font-size="14" lengthAdjust="spacing" textLength="70.8135" x="652" y="505.8467">RouteMap</text></g><!--class RoutingHandler__class--><g id="elem_RoutingHandler__class"><rect codeLine="75" fill="#F1F1F1" height="32" id="RoutingHandler__class" rx="2.5" ry="2.5" style="stroke:#181818;stroke-width:0.5;" width="141.4297" x="358" y="585"/><ellipse cx="373" cy="601" fill="#ADD1B2" rx="11" ry="11" style="stroke:#181818;stroke-width:1;"/><path d="M375.9688,606.6406 Q375.3906,606.9375 374.75,607.0781 Q374.1094,607.2344 373.4063,607.2344 Q370.9063,607.2344 369.5781,605.5938 Q368.2656,603.9375 368.2656,600.8125 Q368.2656,597.6875 369.5781,596.0313 Q370.9063,594.375 373.4063,594.375 Q374.1094,594.375 374.75,594.5313 Q375.4063,594.6875 375.9688,594.9844 L375.9688,597.7031 Q375.3438,597.125 374.75,596.8594 Q374.1563,596.5781 373.5313,596.5781 Q372.1875,596.5781 371.5,597.6563 Q370.8125,598.7188 370.8125,600.8125 Q370.8125,602.9063 371.5,603.9844 Q372.1875,605.0469 373.5313,605.0469 Q374.1563,605.0469 374.75,604.7813 Q375.3438,604.5 375.9688,603.9219 L375.9688,606.6406 Z " fill="#000000"/><text fill="#000000" font-family="sans-serif" font-size="14" lengthAdjust="spacing" textLength="109.4297" x="387" y="605.8467">RoutingHandler</text></g><!--class RoutingMiddleware__class--><g id="elem_RoutingMiddleware__class"><rect codeLine="83" fill="#F1F1F1" height="32" id="RoutingMiddleware__class" rx="2.5" ry="2.5" style="stroke:#181818;stroke-width:0.5;" width="166.9482" x="345" y="635"/><ellipse cx="360" cy="651" fill="#ADD1B2" rx="11" ry="11" style="stroke:#181818;stroke-width:1;"/><path d="M362.9688,656.6406 Q362.3906,656.9375 361.75,657.0781 Q361.1094,657.2344 360.4063,657.2344 Q357.9063,657.2344 356.5781,655.5938 Q355.2656,653.9375 355.2656,650.8125 Q355.2656,647.6875 356.5781,646.0313 Q357.9063,644.375 360.4063,644.375 Q361.1094,644.375 361.75,644.5313 Q362.4063,644.6875 362.9688,644.9844 L362.9688,647.7031 Q362.3438,647.125 361.75,646.8594 Q361.1563,646.5781 360.5313,646.5781 Q359.1875,646.5781 358.5,647.6563 Q357.8125,648.7188 357.8125,650.8125 Q357.8125,652.9063 358.5,653.9844 Q359.1875,655.0469 360.5313,655.0469 Q361.1563,655.0469 361.75,654.7813 Q362.3438,654.5 362.9688,653.9219 L362.9688,656.6406 Z " fill="#000000"/><text fill="#000000" font-family="sans-serif" font-size="14" lengthAdjust="spacing" textLength="134.9482" x="374" y="655.8467">RoutingMiddleware</text></g><!--class RequestMethods__enum--><g id="elem_RequestMethods__enum"><rect codeLine="87" fill="#F1F1F1" height="32" id="RequestMethods__enum" rx="2.5" ry="2.5" style="stroke:#181818;stroke-width:0.5;" width="149.2979" x="600" y="435"/><ellipse cx="615" cy="451" fill="#EB937F" rx="11" ry="11" style="stroke:#181818;stroke-width:1;"/><path d="M619.1094,457 L611.3906,457 L611.3906,444.6094 L619.1094,444.6094 L619.1094,446.7656 L613.8438,446.7656 L613.8438,449.4375 L618.6094,449.4375 L618.6094,451.5938 L613.8438,451.5938 L613.8438,454.8438 L619.1094,454.8438 L619.1094,457 Z " fill="#000000"/><text fill="#000000" font-family="sans-serif" font-size="14" lengthAdjust="spacing" textLength="117.2979" x="629" y="455.8467">RequestMethods</text></g><!--class RoutableInterface__class--><g id="elem_RoutableInterface__class"><rect codeLine="19" fill="#F1F1F1" height="40.2656" id="RoutableInterface__class" rx="2.5" ry="2.5" style="stroke:#181818;stroke-width:0.5;" width="157.3027" x="63" y="102"/><ellipse cx="78" cy="122.1328" fill="#ADD1B2" rx="11" ry="11" style="stroke:#181818;stroke-width:1;"/><path d="M80.9688,127.7734 Q80.3906,128.0703 79.75,128.2109 Q79.1094,128.3672 78.4063,128.3672 Q75.9063,128.3672 74.5781,126.7266 Q73.2656,125.0703 73.2656,121.9453 Q73.2656,118.8203 74.5781,117.1641 Q75.9063,115.5078 78.4063,115.5078 Q79.1094,115.5078 79.75,115.6641 Q80.4063,115.8203 80.9688,116.1172 L80.9688,118.8359 Q80.3438,118.2578 79.75,117.9922 Q79.1563,117.7109 78.5313,117.7109 Q77.1875,117.7109 76.5,118.7891 Q75.8125,119.8516 75.8125,121.9453 Q75.8125,124.0391 76.5,125.1172 Q77.1875,126.1797 78.5313,126.1797 Q79.1563,126.1797 79.75,125.9141 Q80.3438,125.6328 80.9688,125.0547 L80.9688,127.7734 Z " fill="#000000"/><text fill="#000000" font-family="sans-serif" font-size="12" font-style="italic" lengthAdjust="spacing" textLength="64.4824" x="122.4102" y="118.1387">&#171;external&#187;</text><text fill="#000000" font-family="sans-serif" font-size="14" lengthAdjust="spacing" textLength="125.3027" x="92" y="133.9639">RoutableInterface</text></g><!--class RoutableResolverInterface__class--><g id="elem_RoutableResolverInterface__class"><rect codeLine="31" fill="#F1F1F1" height="40.2656" id="RoutableResolverInterface__class" rx="2.5" ry="2.5" style="stroke:#181818;stroke-width:0.5;" width="218.0469" x="32.5" y="160"/><ellipse cx="47.5" cy="180.1328" fill="#ADD1B2" rx="11" ry="11" style="stroke:#181818;stroke-width:1;"/><path d="M50.4688,185.7734 Q49.8906,186.0703 49.25,186.2109 Q48.6094,186.3672 47.9063,186.3672 Q45.4063,186.3672 44.0781,184.7266 Q42.7656,183.0703 42.7656,179.9453 Q42.7656,176.8203 44.0781,175.1641 Q45.4063,173.5078 47.9063,173.5078 Q48.6094,173.5078 49.25,173.6641 Q49.9063,173.8203 50.4688,174.1172 L50.4688,176.8359 Q49.8438,176.2578 49.25,175.9922 Q48.6563,175.7109 48.0313,175.7109 Q46.6875,175.7109 46,176.7891 Q45.3125,177.8516 45.3125,179.9453 Q45.3125,182.0391 46,183.1172 Q46.6875,184.1797 48.0313,184.1797 Q48.6563,184.1797 49.25,183.9141 Q49.8438,183.6328 50.4688,183.0547 L50.4688,185.7734 Z " fill="#000000"/><text fill="#000000" font-family="sans-serif" font-size="12" font-style="italic" lengthAdjust="spacing" textLength="64.4824" x="122.2822" y="176.1387">&#171;external&#187;</text><text fill="#000000" font-family="sans-serif" font-size="14" lengthAdjust="spacing" textLength="186.0469" x="61.5" y="191.9639">RoutableResolverInterface</text></g><!--class RequestHandlerInterface__class--><g id="elem_RequestHandlerInterface__class"><rect codeLine="59" fill="#F1F1F1" height="40.2656" id="RequestHandlerInterface__class" rx="2.5" ry="2.5" style="stroke:#181818;stroke-width:0.5;" width="207.3008" x="38" y="822"/><ellipse cx="53" cy="842.1328" fill="#ADD1B2" rx="11" ry="11" style="stroke:#181818;stroke-width:1;"/><path d="M55.9688,847.7734 Q55.3906,848.0703 54.75,848.2109 Q54.1094,848.3672 53.4063,848.3672 Q50.9063,848.3672 49.5781,846.7266 Q48.2656,845.0703 48.2656,841.9453 Q48.2656,838.8203 49.5781,837.1641 Q50.9063,835.5078 53.4063,835.5078 Q54.1094,835.5078 54.75,835.6641 Q55.4063,835.8203 55.9688,836.1172 L55.9688,838.8359 Q55.3438,838.2578 54.75,837.9922 Q54.1563,837.7109 53.5313,837.7109 Q52.1875,837.7109 51.5,838.7891 Q50.8125,839.8516 50.8125,841.9453 Q50.8125,844.0391 51.5,845.1172 Q52.1875,846.1797 53.5313,846.1797 Q54.1563,846.1797 54.75,845.9141 Q55.3438,845.6328 55.9688,845.0547 L55.9688,847.7734 Z " fill="#000000"/><text fill="#000000" font-family="sans-serif" font-size="12" font-style="italic" lengthAdjust="spacing" textLength="64.4824" x="122.4092" y="838.1387">&#171;external&#187;</text><text fill="#000000" font-family="sans-serif" font-size="14" lengthAdjust="spacing" textLength="175.3008" x="67" y="853.9639">RequestHandlerInterface</text></g><!--class MiddlewareInterface__class--><g id="elem_MiddlewareInterface__class"><rect codeLine="79" fill="#F1F1F1" height="40.2656" id="MiddlewareInterface__class" rx="2.5" ry="2.5" style="stroke:#181818;stroke-width:0.5;" width="175.3223" x="54" y="880"/><ellipse cx="69" cy="900.1328" fill="#ADD1B2" rx="11" ry="11" style="stroke:#181818;stroke-width:1;"/><path d="M71.9688,905.7734 Q71.3906,906.0703 70.75,906.2109 Q70.1094,906.3672 69.4063,906.3672 Q66.9063,906.3672 65.5781,904.7266 Q64.2656,903.0703 64.2656,899.9453 Q64.2656,896.8203 65.5781,895.1641 Q66.9063,893.5078 69.4063,893.5078 Q70.1094,893.5078 70.75,893.6641 Q71.4063,893.8203 71.9688,894.1172 L71.9688,896.8359 Q71.3438,896.2578 70.75,895.9922 Q70.1563,895.7109 69.5313,895.7109 Q68.1875,895.7109 67.5,896.7891 Q66.8125,897.8516 66.8125,899.9453 Q66.8125,902.0391 67.5,903.1172 Q68.1875,904.1797 69.5313,904.1797 Q70.1563,904.1797 70.75,903.9141 Q71.3438,903.6328 71.9688,903.0547 L71.9688,905.7734 Z " fill="#000000"/><text fill="#000000" font-family="sans-serif" font-size="12" font-style="italic" lengthAdjust="spacing" textLength="64.4824" x="122.4199" y="896.1387">&#171;external&#187;</text><text fill="#000000" font-family="sans-serif" font-size="14" lengthAdjust="spacing" textLength="143.3223" x="83" y="911.9639">MiddlewareInterface</text></g><polygon fill="transparent" points="220.001,116.2894,238.3933,120.9504,237.5115,108.9829,220.001,116.2894" style="stroke:#516F42;stroke-width:1;"/><path d="M237.9524,114.9667 C268.1167,112.744 285.275,111.4797 317.9413,109.0727 " fill="transparent" style="stroke:#516F42;stroke-width:1;stroke-dasharray:7.0,7.0;"/><polygon fill="transparent" points="250.6527,187.9691,268.1631,195.2757,269.0449,183.3081,250.6527,187.9691" style="stroke:#516F42;stroke-width:1;"/><path d="M268.604,189.2919 C290.1773,190.8815 294.9161,191.2307 316.5808,192.827 " fill="transparent" style="stroke:#516F42;stroke-width:1;stroke-dasharray:7.0,7.0;"/><polygon fill="transparent" points="146.2854,821.6432,155.8344,805.2476,144.0872,802.7973,146.2854,821.6432" style="stroke:#516F42;stroke-width:1;"/><path d="M149.9608,804.0225 C160.5342,753.3303 191.7169,638.6564 277,576 C282.0161,572.3147 287.3795,569.0954 292.9841,566.2875 " fill="transparent" style="stroke:#516F42;stroke-width:1;stroke-dasharray:7.0,7.0;"/><polygon fill="transparent" points="148.6647,821.9094,160.0401,806.7238,148.6536,802.9357,148.6647,821.9094" style="stroke:#516F42;stroke-width:1;"/><path d="M154.3469,804.8297 C168.8629,761.1965 203.9148,674.8539 277,626 C300.5614,610.2504 330.7189,603.299 357.8426,600.5425 " fill="transparent" style="stroke:#516F42;stroke-width:1;stroke-dasharray:7.0,7.0;"/><polygon fill="transparent" points="229.2004,895.7411,248.1692,896.1715,244.6337,884.7041,229.2004,895.7411" style="stroke:#516F42;stroke-width:1;"/><path d="M246.4015,890.4378 C261.7049,885.7195 258.7837,883.3103 269,871 C283.203,853.8859 262.0149,687.4336 277,671 C294.1383,652.2051 319.7411,644.7379 344.9916,642.729 " fill="transparent" style="stroke:#516F42;stroke-width:1;stroke-dasharray:7.0,7.0;"/><!--SRC=[jLN1Rjim3BtxAxZi2pPiEnK5iWPe2on0rsut0m5ZCR4MMT8akLaszDydstBin7QMPAaleHzflaTILDveWyiCGU16vGviHWubHW1WLrngD9Z1s1Yrlb526NZxyTsdnOVtktvC77_cRlDP6KRcc41CLakZSib2yA9y-eCd73CbsT79w_XZE6oAJAsvNC82XQKe6dOr7i4bkOqcKCQbAaev8w1CkmrabCt9s4ZGme5JOFWoTS2u8QzDoSYI0uaPMOq9FL6HpdbfSHn5MnWUKgq4cZWE1lmfD0Ca0gs5qLZh4Q05_pkRLPX_gfYNwAKlqQEVBCu5XQYGg4RlfIEpy1-KQJjeJN9r1VJBOn85N5yVvDiQuzobWHJdrXa_egQE03mOvNnxYDNCLNL3tbRDFDE2CfBEGekp3coiJYadYzzgzf0o_7VGMBzTPWwFP9Lu9jC_ZuxtGdEfLNGQNHEMAWQzPunZi9ApjN-tGMPX73kChJ4XJPAHJ3RtyaUrg7lvRvHqw9VUV5780jKUzWgi4_vDhKZQagv-kI0FoJo3qQrGyugYj6Qp4ZukzvrpUc13i22wIIbPXNxrEVvLZ0qSSVn4nf-OlRsXdpbPTuUIYSxMzFl-PsTwYfrovjElqT3Nd7BQ9Irr78mOt9tzkltk7Axdx0h2BfPhNNUkXPnysleeYaHJrDlRh7YvL6B_zznkzoxqolqzV3gRoU-Up1xymgSoDA4XQhUcGK_epW7D9wkiRftGxodvIu7Pzie6g7CF_GK0]--></g></svg>