<svg xmlns="http://www.w3.org/2000/svg" xmlns:xlink="http://www.w3.org/1999/xlink" contentStyleType="text/css" height="1347px" preserveAspectRatio="none" style="width:956px;height:1347px;background:#FFFFFF;" version="1.1" viewBox="0 0 956 1347" width="956px" zoomAndPan="magnify"><defs/><g><!--cluster Phpolar--><g id="cluster_Phpolar"><path d="M27,6 L89.0176,6 A3.75,3.75 0 0 1 91.5176,8.5 L98.5176,28.2969 L946.5,28.2969 A2.5,2.5 0 0 1 949,30.7969 L949,1013.5 A2.5,2.5 0 0 1 946.5,1016 L27,1016 A2.5,2.5 0 0 1 24.5,1013.5 L24.5,8.5 A2.5,2.5 0 0 1 27,6 " fill="none" style="stroke:#000000;stroke-width:1.5;"/><line style="stroke:#000000;stroke-width:1.5;" x1="24.5" x2="98.5176" y1="28.2969" y2="28.2969"/><text fill="#000000" font-family="sans-serif" font-size="14" font-weight="bold" lengthAdjust="spacing" textLength="61.0176" x="28.5" y="20.9951">Phpolar</text></g><!--cluster Phpolar--><g id="cluster_Phpolar"><path d="M367.5,49 L429.5176,49 A3.75,3.75 0 0 1 432.0176,51.5 L439.0176,71.2969 L922.5,71.2969 A2.5,2.5 0 0 1 925,73.7969 L925,989.5 A2.5,2.5 0 0 1 922.5,992 L367.5,992 A2.5,2.5 0 0 1 365,989.5 L365,51.5 A2.5,2.5 0 0 1 367.5,49 " fill="none" style="stroke:#000000;stroke-width:1.5;"/><line style="stroke:#000000;stroke-width:1.5;" x1="365" x2="439.0176" y1="71.2969" y2="71.2969"/><text fill="#000000" font-family="sans-serif" font-size="14" font-weight="bold" lengthAdjust="spacing" textLength="61.0176" x="369" y="63.9951">Phpolar</text></g><!--cluster Auth--><g id="cluster_Auth"><path d="M415.5,92 L453.9609,92 A3.75,3.75 0 0 1 456.4609,94.5 L463.4609,114.2969 L665.5,114.2969 A2.5,2.5 0 0 1 668,116.7969 L668,373.5 A2.5,2.5 0 0 1 665.5,376 L415.5,376 A2.5,2.5 0 0 1 413,373.5 L413,94.5 A2.5,2.5 0 0 1 415.5,92 " fill="none" style="stroke:#000000;stroke-width:1.5;"/><line style="stroke:#000000;stroke-width:1.5;" x1="413" x2="463.4609" y1="114.2969" y2="114.2969"/><text fill="#000000" font-family="sans-serif" font-size="14" font-weight="bold" lengthAdjust="spacing" textLength="37.4609" x="417" y="106.9951">Auth</text></g><!--cluster DependencyInjection--><g id="cluster_DependencyInjection"><path d="M452.5,400 L619.8525,400 A3.75,3.75 0 0 1 622.3525,402.5 L629.3525,422.2969 L859.5,422.2969 A2.5,2.5 0 0 1 862,424.7969 L862,547.5 A2.5,2.5 0 0 1 859.5,550 L452.5,550 A2.5,2.5 0 0 1 450,547.5 L450,402.5 A2.5,2.5 0 0 1 452.5,400 " fill="none" style="stroke:#000000;stroke-width:1.5;"/><line style="stroke:#000000;stroke-width:1.5;" x1="450" x2="629.3525" y1="422.2969" y2="422.2969"/><text fill="#000000" font-family="sans-serif" font-size="14" font-weight="bold" lengthAdjust="spacing" textLength="166.3525" x="454" y="414.9951">DependencyInjection</text></g><!--cluster Http--><g id="cluster_Http"><path d="M391.5,574 L427.623,574 A3.75,3.75 0 0 1 430.123,576.5 L437.123,596.2969 L898.5,596.2969 A2.5,2.5 0 0 1 901,598.7969 L901,922.5 A2.5,2.5 0 0 1 898.5,925 L391.5,925 A2.5,2.5 0 0 1 389,922.5 L389,576.5 A2.5,2.5 0 0 1 391.5,574 " fill="none" style="stroke:#000000;stroke-width:1.5;"/><line style="stroke:#000000;stroke-width:1.5;" x1="389" x2="437.123" y1="596.2969" y2="596.2969"/><text fill="#000000" font-family="sans-serif" font-size="14" font-weight="bold" lengthAdjust="spacing" textLength="35.123" x="393" y="588.9951">Http</text></g><!--cluster Routable--><g id="cluster_Routable"><path d="M51,118 L122.8203,118 A3.75,3.75 0 0 1 125.3203,120.5 L132.3203,140.2969 L296,140.2969 A2.5,2.5 0 0 1 298.5,142.7969 L298.5,281.5 A2.5,2.5 0 0 1 296,284 L51,284 A2.5,2.5 0 0 1 48.5,281.5 L48.5,120.5 A2.5,2.5 0 0 1 51,118 " fill="none" style="stroke:#000000;stroke-width:1.5;"/><line style="stroke:#000000;stroke-width:1.5;" x1="48.5" x2="132.3203" y1="140.2969" y2="140.2969"/><text fill="#000000" font-family="sans-serif" font-size="14" font-weight="bold" lengthAdjust="spacing" textLength="70.8203" x="52.5" y="132.9951">Routable</text></g><!--cluster Psr--><g id="cluster_Psr"><path d="M8.5,1040 L34.998,1040 A3.75,3.75 0 0 1 37.498,1042.5 L44.498,1062.2969 L338.5,1062.2969 A2.5,2.5 0 0 1 341,1064.7969 L341,1337.5 A2.5,2.5 0 0 1 338.5,1340 L8.5,1340 A2.5,2.5 0 0 1 6,1337.5 L6,1042.5 A2.5,2.5 0 0 1 8.5,1040 " fill="none" style="stroke:#000000;stroke-width:1.5;"/><line style="stroke:#000000;stroke-width:1.5;" x1="6" x2="44.498" y1="1062.2969" y2="1062.2969"/><text fill="#000000" font-family="sans-serif" font-size="14" font-weight="bold" lengthAdjust="spacing" textLength="25.498" x="10" y="1054.9951">Psr</text></g><!--cluster Http--><g id="cluster_Http"><path d="M32.5,1083 L68.623,1083 A3.75,3.75 0 0 1 71.123,1085.5 L78.123,1105.2969 L314.5,1105.2969 A2.5,2.5 0 0 1 317,1107.7969 L317,1313.5 A2.5,2.5 0 0 1 314.5,1316 L32.5,1316 A2.5,2.5 0 0 1 30,1313.5 L30,1085.5 A2.5,2.5 0 0 1 32.5,1083 " fill="none" style="stroke:#000000;stroke-width:1.5;"/><line style="stroke:#000000;stroke-width:1.5;" x1="30" x2="78.123" y1="1105.2969" y2="1105.2969"/><text fill="#000000" font-family="sans-serif" font-size="14" font-weight="bold" lengthAdjust="spacing" textLength="35.123" x="34" y="1097.9951">Http</text></g><!--cluster Server--><g id="cluster_Server"><path d="M56.5,1126 L109.5078,1126 A3.75,3.75 0 0 1 112.0078,1128.5 L119.0078,1148.2969 L290.5,1148.2969 A2.5,2.5 0 0 1 293,1150.7969 L293,1289.5 A2.5,2.5 0 0 1 290.5,1292 L56.5,1292 A2.5,2.5 0 0 1 54,1289.5 L54,1128.5 A2.5,2.5 0 0 1 56.5,1126 " fill="none" style="stroke:#000000;stroke-width:1.5;"/><line style="stroke:#000000;stroke-width:1.5;" x1="54" x2="119.0078" y1="1148.2969" y2="1148.2969"/><text fill="#000000" font-family="sans-serif" font-size="14" font-weight="bold" lengthAdjust="spacing" textLength="52.0078" x="58" y="1140.9951">Server</text></g><!--class App__class--><g id="elem_App__class"><rect codeLine="15" fill="#F1F1F1" height="32" id="App__class" rx="2.5" ry="2.5" style="stroke:#181818;stroke-width:0.5;" width="59.3506" x="511" y="944"/><ellipse cx="526" cy="960" fill="#ADD1B2" rx="11" ry="11" style="stroke:#181818;stroke-width:1;"/><path d="M528.9688,965.6406 Q528.3906,965.9375 527.75,966.0781 Q527.1094,966.2344 526.4063,966.2344 Q523.9063,966.2344 522.5781,964.5938 Q521.2656,962.9375 521.2656,959.8125 Q521.2656,956.6875 522.5781,955.0313 Q523.9063,953.375 526.4063,953.375 Q527.1094,953.375 527.75,953.5313 Q528.4063,953.6875 528.9688,953.9844 L528.9688,956.7031 Q528.3438,956.125 527.75,955.8594 Q527.1563,955.5781 526.5313,955.5781 Q525.1875,955.5781 524.5,956.6563 Q523.8125,957.7188 523.8125,959.8125 Q523.8125,961.9063 524.5,962.9844 Q525.1875,964.0469 526.5313,964.0469 Q527.1563,964.0469 527.75,963.7813 Q528.3438,963.5 528.9688,962.9219 L528.9688,965.6406 Z " fill="#000000"/><text fill="#000000" font-family="sans-serif" font-size="14" lengthAdjust="spacing" textLength="27.3506" x="540" y="964.8467">App</text></g><!--class AbstractProtectedRoutable__class--><g id="elem_AbstractProtectedRoutable__class"><rect codeLine="23" fill="#F1F1F1" height="32" id="AbstractProtectedRoutable__class" rx="2.5" ry="2.5" style="stroke:#181818;stroke-width:0.5;" width="220.9453" x="430" y="127"/><ellipse cx="445" cy="143" fill="#A9DCDF" rx="11" ry="11" style="stroke:#181818;stroke-width:1;"/><path d="M445.1094,138.3438 L443.9531,143.4219 L446.2813,143.4219 L445.1094,138.3438 Z M443.625,136.1094 L446.6094,136.1094 L449.9688,148.5 L447.5156,148.5 L446.75,145.4375 L443.4688,145.4375 L442.7188,148.5 L440.2813,148.5 L443.625,136.1094 Z " fill="#000000"/><text fill="#000000" font-family="sans-serif" font-size="14" font-style="italic" lengthAdjust="spacing" textLength="188.9453" x="459" y="147.8467">AbstractProtectedRoutable</text></g><!--class Authorize__class--><g id="elem_Authorize__class"><rect codeLine="27" fill="#F1F1F1" height="32" id="Authorize__class" rx="2.5" ry="2.5" style="stroke:#181818;stroke-width:0.5;" width="98.9854" x="491" y="194"/><ellipse cx="506" cy="210" fill="#ADD1B2" rx="11" ry="11" style="stroke:#181818;stroke-width:1;"/><path d="M508.9688,215.6406 Q508.3906,215.9375 507.75,216.0781 Q507.1094,216.2344 506.4063,216.2344 Q503.9063,216.2344 502.5781,214.5938 Q501.2656,212.9375 501.2656,209.8125 Q501.2656,206.6875 502.5781,205.0313 Q503.9063,203.375 506.4063,203.375 Q507.1094,203.375 507.75,203.5313 Q508.4063,203.6875 508.9688,203.9844 L508.9688,206.7031 Q508.3438,206.125 507.75,205.8594 Q507.1563,205.5781 506.5313,205.5781 Q505.1875,205.5781 504.5,206.6563 Q503.8125,207.7188 503.8125,209.8125 Q503.8125,211.9063 504.5,212.9844 Q505.1875,214.0469 506.5313,214.0469 Q507.1563,214.0469 507.75,213.7813 Q508.3438,213.5 508.9688,212.9219 L508.9688,215.6406 Z " fill="#000000"/><text fill="#000000" font-family="sans-serif" font-size="14" lengthAdjust="spacing" textLength="66.9854" x="520" y="214.8467">Authorize</text></g><!--class ProtectedRoutableResolver__class--><g id="elem_ProtectedRoutableResolver__class"><rect codeLine="35" fill="#F1F1F1" height="32" id="ProtectedRoutableResolver__class" rx="2.5" ry="2.5" style="stroke:#181818;stroke-width:0.5;" width="222.9209" x="429" y="261"/><ellipse cx="444" cy="277" fill="#ADD1B2" rx="11" ry="11" style="stroke:#181818;stroke-width:1;"/><path d="M446.9688,282.6406 Q446.3906,282.9375 445.75,283.0781 Q445.1094,283.2344 444.4063,283.2344 Q441.9063,283.2344 440.5781,281.5938 Q439.2656,279.9375 439.2656,276.8125 Q439.2656,273.6875 440.5781,272.0313 Q441.9063,270.375 444.4063,270.375 Q445.1094,270.375 445.75,270.5313 Q446.4063,270.6875 446.9688,270.9844 L446.9688,273.7031 Q446.3438,273.125 445.75,272.8594 Q445.1563,272.5781 444.5313,272.5781 Q443.1875,272.5781 442.5,273.6563 Q441.8125,274.7188 441.8125,276.8125 Q441.8125,278.9063 442.5,279.9844 Q443.1875,281.0469 444.5313,281.0469 Q445.1563,281.0469 445.75,280.7813 Q446.3438,280.5 446.9688,279.9219 L446.9688,282.6406 Z " fill="#000000"/><text fill="#000000" font-family="sans-serif" font-size="14" lengthAdjust="spacing" textLength="190.9209" x="458" y="281.8467">ProtectedRoutableResolver</text></g><!--class User__class--><g id="elem_User__class"><rect codeLine="39" fill="#F1F1F1" height="32" id="User__class" rx="2.5" ry="2.5" style="stroke:#181818;stroke-width:0.5;" width="63.9102" x="508.5" y="328"/><ellipse cx="523.5" cy="344" fill="#ADD1B2" rx="11" ry="11" style="stroke:#181818;stroke-width:1;"/><path d="M526.4688,349.6406 Q525.8906,349.9375 525.25,350.0781 Q524.6094,350.2344 523.9063,350.2344 Q521.4063,350.2344 520.0781,348.5938 Q518.7656,346.9375 518.7656,343.8125 Q518.7656,340.6875 520.0781,339.0313 Q521.4063,337.375 523.9063,337.375 Q524.6094,337.375 525.25,337.5313 Q525.9063,337.6875 526.4688,337.9844 L526.4688,340.7031 Q525.8438,340.125 525.25,339.8594 Q524.6563,339.5781 524.0313,339.5781 Q522.6875,339.5781 522,340.6563 Q521.3125,341.7188 521.3125,343.8125 Q521.3125,345.9063 522,346.9844 Q522.6875,348.0469 524.0313,348.0469 Q524.6563,348.0469 525.25,347.7813 Q525.8438,347.5 526.4688,346.9219 L526.4688,349.6406 Z " fill="#000000"/><text fill="#000000" font-family="sans-serif" font-size="14" lengthAdjust="spacing" textLength="31.9102" x="537.5" y="348.8467">User</text></g><!--class ContainerLoader__class--><g id="elem_ContainerLoader__class"><rect codeLine="43" fill="#F1F1F1" height="32" id="ContainerLoader__class" rx="2.5" ry="2.5" style="stroke:#181818;stroke-width:0.5;" width="148.6143" x="466" y="502"/><ellipse cx="481" cy="518" fill="#ADD1B2" rx="11" ry="11" style="stroke:#181818;stroke-width:1;"/><path d="M483.9688,523.6406 Q483.3906,523.9375 482.75,524.0781 Q482.1094,524.2344 481.4063,524.2344 Q478.9063,524.2344 477.5781,522.5938 Q476.2656,520.9375 476.2656,517.8125 Q476.2656,514.6875 477.5781,513.0313 Q478.9063,511.375 481.4063,511.375 Q482.1094,511.375 482.75,511.5313 Q483.4063,511.6875 483.9688,511.9844 L483.9688,514.7031 Q483.3438,514.125 482.75,513.8594 Q482.1563,513.5781 481.5313,513.5781 Q480.1875,513.5781 479.5,514.6563 Q478.8125,515.7188 478.8125,517.8125 Q478.8125,519.9063 479.5,520.9844 Q480.1875,522.0469 481.5313,522.0469 Q482.1563,522.0469 482.75,521.7813 Q483.3438,521.5 483.9688,520.9219 L483.9688,523.6406 Z " fill="#000000"/><text fill="#000000" font-family="sans-serif" font-size="14" lengthAdjust="spacing" textLength="116.6143" x="495" y="522.8467">ContainerLoader</text></g><!--class DiTokens__class--><g id="elem_DiTokens__class"><rect codeLine="47" fill="#F1F1F1" height="32" id="DiTokens__class" rx="2.5" ry="2.5" style="stroke:#181818;stroke-width:0.5;" width="96.6748" x="492" y="435"/><ellipse cx="507" cy="451" fill="#ADD1B2" rx="11" ry="11" style="stroke:#181818;stroke-width:1;"/><path d="M509.9688,456.6406 Q509.3906,456.9375 508.75,457.0781 Q508.1094,457.2344 507.4063,457.2344 Q504.9063,457.2344 503.5781,455.5938 Q502.2656,453.9375 502.2656,450.8125 Q502.2656,447.6875 503.5781,446.0313 Q504.9063,444.375 507.4063,444.375 Q508.1094,444.375 508.75,444.5313 Q509.4063,444.6875 509.9688,444.9844 L509.9688,447.7031 Q509.3438,447.125 508.75,446.8594 Q508.1563,446.5781 507.5313,446.5781 Q506.1875,446.5781 505.5,447.6563 Q504.8125,448.7188 504.8125,450.8125 Q504.8125,452.9063 505.5,453.9844 Q506.1875,455.0469 507.5313,455.0469 Q508.1563,455.0469 508.75,454.7813 Q509.3438,454.5 509.9688,453.9219 L509.9688,456.6406 Z " fill="#000000"/><text fill="#000000" font-family="sans-serif" font-size="14" lengthAdjust="spacing" textLength="64.6748" x="521" y="455.8467">DiTokens</text></g><!--class Globs__enum--><g id="elem_Globs__enum"><rect codeLine="51" fill="#F1F1F1" height="32" id="Globs__enum" rx="2.5" ry="2.5" style="stroke:#181818;stroke-width:0.5;" width="71.4844" x="775" y="502"/><ellipse cx="790" cy="518" fill="#EB937F" rx="11" ry="11" style="stroke:#181818;stroke-width:1;"/><path d="M794.1094,524 L786.3906,524 L786.3906,511.6094 L794.1094,511.6094 L794.1094,513.7656 L788.8438,513.7656 L788.8438,516.4375 L793.6094,516.4375 L793.6094,518.5938 L788.8438,518.5938 L788.8438,521.8438 L794.1094,521.8438 L794.1094,524 Z " fill="#000000"/><text fill="#000000" font-family="sans-serif" font-size="14" lengthAdjust="spacing" textLength="39.4844" x="804" y="522.8467">Globs</text></g><!--class AuthorizationChecker__class--><g id="elem_AuthorizationChecker__class"><rect codeLine="55" fill="#F1F1F1" height="32" id="AuthorizationChecker__class" rx="2.5" ry="2.5" style="stroke:#181818;stroke-width:0.5;" width="183.2041" x="449" y="676"/><ellipse cx="464" cy="692" fill="#ADD1B2" rx="11" ry="11" style="stroke:#181818;stroke-width:1;"/><path d="M466.9688,697.6406 Q466.3906,697.9375 465.75,698.0781 Q465.1094,698.2344 464.4063,698.2344 Q461.9063,698.2344 460.5781,696.5938 Q459.2656,694.9375 459.2656,691.8125 Q459.2656,688.6875 460.5781,687.0313 Q461.9063,685.375 464.4063,685.375 Q465.1094,685.375 465.75,685.5313 Q466.4063,685.6875 466.9688,685.9844 L466.9688,688.7031 Q466.3438,688.125 465.75,687.8594 Q465.1563,687.5781 464.5313,687.5781 Q463.1875,687.5781 462.5,688.6563 Q461.8125,689.7188 461.8125,691.8125 Q461.8125,693.9063 462.5,694.9844 Q463.1875,696.0469 464.5313,696.0469 Q465.1563,696.0469 465.75,695.7813 Q466.3438,695.5 466.9688,694.9219 L466.9688,697.6406 Z " fill="#000000"/><text fill="#000000" font-family="sans-serif" font-size="14" lengthAdjust="spacing" textLength="151.2041" x="478" y="696.8467">AuthorizationChecker</text></g><!--class MiddlewareQueueRequestHandler__class--><g id="elem_MiddlewareQueueRequestHandler__class"><rect codeLine="63" fill="#F1F1F1" height="32" id="MiddlewareQueueRequestHandler__class" rx="2.5" ry="2.5" style="stroke:#181818;stroke-width:0.5;" width="271.2578" x="405" y="743"/><ellipse cx="420" cy="759" fill="#ADD1B2" rx="11" ry="11" style="stroke:#181818;stroke-width:1;"/><path d="M422.9688,764.6406 Q422.3906,764.9375 421.75,765.0781 Q421.1094,765.2344 420.4063,765.2344 Q417.9063,765.2344 416.5781,763.5938 Q415.2656,761.9375 415.2656,758.8125 Q415.2656,755.6875 416.5781,754.0313 Q417.9063,752.375 420.4063,752.375 Q421.1094,752.375 421.75,752.5313 Q422.4063,752.6875 422.9688,752.9844 L422.9688,755.7031 Q422.3438,755.125 421.75,754.8594 Q421.1563,754.5781 420.5313,754.5781 Q419.1875,754.5781 418.5,755.6563 Q417.8125,756.7188 417.8125,758.8125 Q417.8125,760.9063 418.5,761.9844 Q419.1875,763.0469 420.5313,763.0469 Q421.1563,763.0469 421.75,762.7813 Q422.3438,762.5 422.9688,761.9219 L422.9688,764.6406 Z " fill="#000000"/><text fill="#000000" font-family="sans-serif" font-size="14" lengthAdjust="spacing" textLength="239.2578" x="434" y="763.8467">MiddlewareQueueRequestHandler</text></g><!--class ResolvedRoute__class--><g id="elem_ResolvedRoute__class"><rect codeLine="67" fill="#F1F1F1" height="32" id="ResolvedRoute__class" rx="2.5" ry="2.5" style="stroke:#181818;stroke-width:0.5;" width="137.1436" x="472" y="609"/><ellipse cx="487" cy="625" fill="#ADD1B2" rx="11" ry="11" style="stroke:#181818;stroke-width:1;"/><path d="M489.9688,630.6406 Q489.3906,630.9375 488.75,631.0781 Q488.1094,631.2344 487.4063,631.2344 Q484.9063,631.2344 483.5781,629.5938 Q482.2656,627.9375 482.2656,624.8125 Q482.2656,621.6875 483.5781,620.0313 Q484.9063,618.375 487.4063,618.375 Q488.1094,618.375 488.75,618.5313 Q489.4063,618.6875 489.9688,618.9844 L489.9688,621.7031 Q489.3438,621.125 488.75,620.8594 Q488.1563,620.5781 487.5313,620.5781 Q486.1875,620.5781 485.5,621.6563 Q484.8125,622.7188 484.8125,624.8125 Q484.8125,626.9063 485.5,627.9844 Q486.1875,629.0469 487.5313,629.0469 Q488.1563,629.0469 488.75,628.7813 Q489.3438,628.5 489.9688,627.9219 L489.9688,630.6406 Z " fill="#000000"/><text fill="#000000" font-family="sans-serif" font-size="14" lengthAdjust="spacing" textLength="105.1436" x="501" y="629.8467">ResolvedRoute</text></g><!--class RouteMap__class--><g id="elem_RouteMap__class"><rect codeLine="71" fill="#F1F1F1" height="32" id="RouteMap__class" rx="2.5" ry="2.5" style="stroke:#181818;stroke-width:0.5;" width="102.8135" x="759" y="676"/><ellipse cx="774" cy="692" fill="#ADD1B2" rx="11" ry="11" style="stroke:#181818;stroke-width:1;"/><path d="M776.9688,697.6406 Q776.3906,697.9375 775.75,698.0781 Q775.1094,698.2344 774.4063,698.2344 Q771.9063,698.2344 770.5781,696.5938 Q769.2656,694.9375 769.2656,691.8125 Q769.2656,688.6875 770.5781,687.0313 Q771.9063,685.375 774.4063,685.375 Q775.1094,685.375 775.75,685.5313 Q776.4063,685.6875 776.9688,685.9844 L776.9688,688.7031 Q776.3438,688.125 775.75,687.8594 Q775.1563,687.5781 774.5313,687.5781 Q773.1875,687.5781 772.5,688.6563 Q771.8125,689.7188 771.8125,691.8125 Q771.8125,693.9063 772.5,694.9844 Q773.1875,696.0469 774.5313,696.0469 Q775.1563,696.0469 775.75,695.7813 Q776.3438,695.5 776.9688,694.9219 L776.9688,697.6406 Z " fill="#000000"/><text fill="#000000" font-family="sans-serif" font-size="14" lengthAdjust="spacing" textLength="70.8135" x="788" y="696.8467">RouteMap</text></g><!--class RoutingHandler__class--><g id="elem_RoutingHandler__class"><rect codeLine="75" fill="#F1F1F1" height="32" id="RoutingHandler__class" rx="2.5" ry="2.5" style="stroke:#181818;stroke-width:0.5;" width="141.4297" x="470" y="810"/><ellipse cx="485" cy="826" fill="#ADD1B2" rx="11" ry="11" style="stroke:#181818;stroke-width:1;"/><path d="M487.9688,831.6406 Q487.3906,831.9375 486.75,832.0781 Q486.1094,832.2344 485.4063,832.2344 Q482.9063,832.2344 481.5781,830.5938 Q480.2656,828.9375 480.2656,825.8125 Q480.2656,822.6875 481.5781,821.0313 Q482.9063,819.375 485.4063,819.375 Q486.1094,819.375 486.75,819.5313 Q487.4063,819.6875 487.9688,819.9844 L487.9688,822.7031 Q487.3438,822.125 486.75,821.8594 Q486.1563,821.5781 485.5313,821.5781 Q484.1875,821.5781 483.5,822.6563 Q482.8125,823.7188 482.8125,825.8125 Q482.8125,827.9063 483.5,828.9844 Q484.1875,830.0469 485.5313,830.0469 Q486.1563,830.0469 486.75,829.7813 Q487.3438,829.5 487.9688,828.9219 L487.9688,831.6406 Z " fill="#000000"/><text fill="#000000" font-family="sans-serif" font-size="14" lengthAdjust="spacing" textLength="109.4297" x="499" y="830.8467">RoutingHandler</text></g><!--class RoutingMiddleware__class--><g id="elem_RoutingMiddleware__class"><rect codeLine="83" fill="#F1F1F1" height="32" id="RoutingMiddleware__class" rx="2.5" ry="2.5" style="stroke:#181818;stroke-width:0.5;" width="166.9482" x="457" y="877"/><ellipse cx="472" cy="893" fill="#ADD1B2" rx="11" ry="11" style="stroke:#181818;stroke-width:1;"/><path d="M474.9688,898.6406 Q474.3906,898.9375 473.75,899.0781 Q473.1094,899.2344 472.4063,899.2344 Q469.9063,899.2344 468.5781,897.5938 Q467.2656,895.9375 467.2656,892.8125 Q467.2656,889.6875 468.5781,888.0313 Q469.9063,886.375 472.4063,886.375 Q473.1094,886.375 473.75,886.5313 Q474.4063,886.6875 474.9688,886.9844 L474.9688,889.7031 Q474.3438,889.125 473.75,888.8594 Q473.1563,888.5781 472.5313,888.5781 Q471.1875,888.5781 470.5,889.6563 Q469.8125,890.7188 469.8125,892.8125 Q469.8125,894.9063 470.5,895.9844 Q471.1875,897.0469 472.5313,897.0469 Q473.1563,897.0469 473.75,896.7813 Q474.3438,896.5 474.9688,895.9219 L474.9688,898.6406 Z " fill="#000000"/><text fill="#000000" font-family="sans-serif" font-size="14" lengthAdjust="spacing" textLength="134.9482" x="486" y="897.8467">RoutingMiddleware</text></g><!--class RequestMethods__enum--><g id="elem_RequestMethods__enum"><rect codeLine="87" fill="#F1F1F1" height="32" id="RequestMethods__enum" rx="2.5" ry="2.5" style="stroke:#181818;stroke-width:0.5;" width="149.2979" x="736" y="609"/><ellipse cx="751" cy="625" fill="#EB937F" rx="11" ry="11" style="stroke:#181818;stroke-width:1;"/><path d="M755.1094,631 L747.3906,631 L747.3906,618.6094 L755.1094,618.6094 L755.1094,620.7656 L749.8438,620.7656 L749.8438,623.4375 L754.6094,623.4375 L754.6094,625.5938 L749.8438,625.5938 L749.8438,628.8438 L755.1094,628.8438 L755.1094,631 Z " fill="#000000"/><text fill="#000000" font-family="sans-serif" font-size="14" lengthAdjust="spacing" textLength="117.2979" x="765" y="629.8467">RequestMethods</text></g><!--class RoutableInterface__class--><g id="elem_RoutableInterface__class"><rect codeLine="19" fill="#F1F1F1" height="40.2656" id="RoutableInterface__class" rx="2.5" ry="2.5" style="stroke:#181818;stroke-width:0.5;" width="157.3027" x="95" y="153"/><ellipse cx="110" cy="173.1328" fill="#ADD1B2" rx="11" ry="11" style="stroke:#181818;stroke-width:1;"/><path d="M112.9688,178.7734 Q112.3906,179.0703 111.75,179.2109 Q111.1094,179.3672 110.4063,179.3672 Q107.9063,179.3672 106.5781,177.7266 Q105.2656,176.0703 105.2656,172.9453 Q105.2656,169.8203 106.5781,168.1641 Q107.9063,166.5078 110.4063,166.5078 Q111.1094,166.5078 111.75,166.6641 Q112.4063,166.8203 112.9688,167.1172 L112.9688,169.8359 Q112.3438,169.2578 111.75,168.9922 Q111.1563,168.7109 110.5313,168.7109 Q109.1875,168.7109 108.5,169.7891 Q107.8125,170.8516 107.8125,172.9453 Q107.8125,175.0391 108.5,176.1172 Q109.1875,177.1797 110.5313,177.1797 Q111.1563,177.1797 111.75,176.9141 Q112.3438,176.6328 112.9688,176.0547 L112.9688,178.7734 Z " fill="#000000"/><text fill="#000000" font-family="sans-serif" font-size="12" font-style="italic" lengthAdjust="spacing" textLength="64.4824" x="154.4102" y="169.1387">&#171;external&#187;</text><text fill="#000000" font-family="sans-serif" font-size="14" lengthAdjust="spacing" textLength="125.3027" x="124" y="184.9639">RoutableInterface</text></g><!--class RoutableResolverInterface__class--><g id="elem_RoutableResolverInterface__class"><rect codeLine="31" fill="#F1F1F1" height="40.2656" id="RoutableResolverInterface__class" rx="2.5" ry="2.5" style="stroke:#181818;stroke-width:0.5;" width="218.0469" x="64.5" y="228"/><ellipse cx="79.5" cy="248.1328" fill="#ADD1B2" rx="11" ry="11" style="stroke:#181818;stroke-width:1;"/><path d="M82.4688,253.7734 Q81.8906,254.0703 81.25,254.2109 Q80.6094,254.3672 79.9063,254.3672 Q77.4063,254.3672 76.0781,252.7266 Q74.7656,251.0703 74.7656,247.9453 Q74.7656,244.8203 76.0781,243.1641 Q77.4063,241.5078 79.9063,241.5078 Q80.6094,241.5078 81.25,241.6641 Q81.9063,241.8203 82.4688,242.1172 L82.4688,244.8359 Q81.8438,244.2578 81.25,243.9922 Q80.6563,243.7109 80.0313,243.7109 Q78.6875,243.7109 78,244.7891 Q77.3125,245.8516 77.3125,247.9453 Q77.3125,250.0391 78,251.1172 Q78.6875,252.1797 80.0313,252.1797 Q80.6563,252.1797 81.25,251.9141 Q81.8438,251.6328 82.4688,251.0547 L82.4688,253.7734 Z " fill="#000000"/><text fill="#000000" font-family="sans-serif" font-size="12" font-style="italic" lengthAdjust="spacing" textLength="64.4824" x="154.2822" y="244.1387">&#171;external&#187;</text><text fill="#000000" font-family="sans-serif" font-size="14" lengthAdjust="spacing" textLength="186.0469" x="93.5" y="259.9639">RoutableResolverInterface</text></g><!--class RequestHandlerInterface__class--><g id="elem_RequestHandlerInterface__class"><rect codeLine="59" fill="#F1F1F1" height="40.2656" id="RequestHandlerInterface__class" rx="2.5" ry="2.5" style="stroke:#181818;stroke-width:0.5;" width="207.3008" x="70" y="1161"/><ellipse cx="85" cy="1181.1328" fill="#ADD1B2" rx="11" ry="11" style="stroke:#181818;stroke-width:1;"/><path d="M87.9688,1186.7734 Q87.3906,1187.0703 86.75,1187.2109 Q86.1094,1187.3672 85.4063,1187.3672 Q82.9063,1187.3672 81.5781,1185.7266 Q80.2656,1184.0703 80.2656,1180.9453 Q80.2656,1177.8203 81.5781,1176.1641 Q82.9063,1174.5078 85.4063,1174.5078 Q86.1094,1174.5078 86.75,1174.6641 Q87.4063,1174.8203 87.9688,1175.1172 L87.9688,1177.8359 Q87.3438,1177.2578 86.75,1176.9922 Q86.1563,1176.7109 85.5313,1176.7109 Q84.1875,1176.7109 83.5,1177.7891 Q82.8125,1178.8516 82.8125,1180.9453 Q82.8125,1183.0391 83.5,1184.1172 Q84.1875,1185.1797 85.5313,1185.1797 Q86.1563,1185.1797 86.75,1184.9141 Q87.3438,1184.6328 87.9688,1184.0547 L87.9688,1186.7734 Z " fill="#000000"/><text fill="#000000" font-family="sans-serif" font-size="12" font-style="italic" lengthAdjust="spacing" textLength="64.4824" x="154.4092" y="1177.1387">&#171;external&#187;</text><text fill="#000000" font-family="sans-serif" font-size="14" lengthAdjust="spacing" textLength="175.3008" x="99" y="1192.9639">RequestHandlerInterface</text></g><!--class MiddlewareInterface__class--><g id="elem_MiddlewareInterface__class"><rect codeLine="79" fill="#F1F1F1" height="40.2656" id="MiddlewareInterface__class" rx="2.5" ry="2.5" style="stroke:#181818;stroke-width:0.5;" width="175.3223" x="86" y="1236"/><ellipse cx="101" cy="1256.1328" fill="#ADD1B2" rx="11" ry="11" style="stroke:#181818;stroke-width:1;"/><path d="M103.9688,1261.7734 Q103.3906,1262.0703 102.75,1262.2109 Q102.1094,1262.3672 101.4063,1262.3672 Q98.9063,1262.3672 97.5781,1260.7266 Q96.2656,1259.0703 96.2656,1255.9453 Q96.2656,1252.8203 97.5781,1251.1641 Q98.9063,1249.5078 101.4063,1249.5078 Q102.1094,1249.5078 102.75,1249.6641 Q103.4063,1249.8203 103.9688,1250.1172 L103.9688,1252.8359 Q103.3438,1252.2578 102.75,1251.9922 Q102.1563,1251.7109 101.5313,1251.7109 Q100.1875,1251.7109 99.5,1252.7891 Q98.8125,1253.8516 98.8125,1255.9453 Q98.8125,1258.0391 99.5,1259.1172 Q100.1875,1260.1797 101.5313,1260.1797 Q102.1563,1260.1797 102.75,1259.9141 Q103.3438,1259.6328 103.9688,1259.0547 L103.9688,1261.7734 Z " fill="#000000"/><text fill="#000000" font-family="sans-serif" font-size="12" font-style="italic" lengthAdjust="spacing" textLength="64.4824" x="154.4199" y="1252.1387">&#171;external&#187;</text><text fill="#000000" font-family="sans-serif" font-size="14" lengthAdjust="spacing" textLength="143.3223" x="115" y="1267.9639">MiddlewareInterface</text></g><!--reverse link RoutableInterface__class to AbstractProtectedRoutable__class--><g id="link_RoutableInterface__class_AbstractProtectedRoutable__class"><path d="M270.06,176 C355.18,176 461,176 461,176 C461,176 461,167.49 461,159.11 " fill="none" id="RoutableInterface__class-backto-AbstractProtectedRoutable__class" style="stroke:#516F42;stroke-width:1;stroke-dasharray:7.0,7.0;"/><polygon fill="none" points="252.06,176,270.06,182,270.06,170,252.06,176" style="stroke:#516F42;stroke-width:1;"/></g><!--reverse link RoutableResolverInterface__class to ProtectedRoutableResolver__class--><g id="link_RoutableResolverInterface__class_ProtectedRoutableResolver__class"><path d="M300.62,264.5 C346.79,264.5 382.51,264.5 428.94,264.5 " fill="none" id="RoutableResolverInterface__class-backto-ProtectedRoutableResolver__class" style="stroke:#516F42;stroke-width:1;stroke-dasharray:7.0,7.0;"/><polygon fill="none" points="282.62,264.5,300.62,270.5,300.62,258.5,282.62,264.5" style="stroke:#516F42;stroke-width:1;"/></g><!--reverse link RequestHandlerInterface__class to MiddlewareQueueRequestHandler__class--><g id="link_RequestHandlerInterface__class_MiddlewareQueueRequestHandler__class"><path d="M295.12,1181 C366.67,1181 431,1181 431,1181 C431,1181 431,852.11 431,775.03 " fill="none" id="RequestHandlerInterface__class-backto-MiddlewareQueueRequestHandler__class" style="stroke:#516F42;stroke-width:1;stroke-dasharray:7.0,7.0;"/><polygon fill="none" points="277.12,1181,295.12,1187,295.12,1175,277.12,1181" style="stroke:#516F42;stroke-width:1;"/></g><!--reverse link RequestHandlerInterface__class to RoutingHandler__class--><g id="link_RequestHandlerInterface__class_RoutingHandler__class"><path d="M174,1142.9 C174,1067.8 174,826 174,826 C174,826 363.33,826 469.84,826 " fill="none" id="RequestHandlerInterface__class-backto-RoutingHandler__class" style="stroke:#516F42;stroke-width:1;stroke-dasharray:7.0,7.0;"/><polygon fill="none" points="174,1160.9,180,1142.9,168,1142.9,174,1160.9" style="stroke:#516F42;stroke-width:1;"/></g><!--reverse link MiddlewareInterface__class to RoutingMiddleware__class--><g id="link_MiddlewareInterface__class_RoutingMiddleware__class"><path d="M279.23,1256 C371.05,1256 484,1256 484,1256 C484,1256 484,979.32 484,909.07 " fill="none" id="MiddlewareInterface__class-backto-RoutingMiddleware__class" style="stroke:#516F42;stroke-width:1;stroke-dasharray:7.0,7.0;"/><polygon fill="none" points="261.23,1256,279.23,1262,279.23,1250,261.23,1256" style="stroke:#516F42;stroke-width:1;"/></g><!--SRC=[jLLHZzem37xlhx3OBzYqxUbq4WDfTzAGRdVRMoLa6aCpqYHBqcDikl- -j4rfeIq3nlK5zxFhxxCT1m2mQour6inWR8pQJ9HG1jvyUFjn-VvT16q_9eu_SxVzf0mZSqeW9kkLKRba8NXPFlt1KuwPakpav7NyAHmsHQOsNAvWYS9I50sx6e_WajnM4oZZKXMbd15GfjqMCieMP6maQEd0AJ1ybJfWt93NfcHaoO74ZAp6X9weIEUyj3YEeXqC3wbM0aqS1mF-59e14e7MmcYizGZGWl-TpolCFrNCI_JIb-XHvGuNWa9KI5IZzzAHMVeFohGTj2QvkG7wvJ690cvlZ_BjZ77kqa2A2-kC7r5JHm0UZ7A-FSHgvggw8M-hPfvfGHb9Pw75MGSsLgUKiyNlD7j86VuxQApVhZE7Hx9AF9FfdqV7UwMvr2ewZQu9InM3tWl6CLZ9nTg_so2pC4uTniwOaYR9I2RRU_cZMjI3_1Cb7VgbDryKia1rWBq2wvH_KskIjgIhNwx8GpBFOFHPg4L5KLhpUGcVbllEEJsm8LWGJL9Arg5VVOv_5MC3Hnm_aV4dvc1lw6TErjsXPAApDVs-_zcPdc9ddFdq6pJqDQUSzabB7KSZ1dVdi6w_EyVhkRY2i8lbMjUTQo5ddxO-YYBH3FNkDYjUhfNO_pstsxqFlN9_Zv_EPlBx9xC7l_Af34reYDgjQT0pkdD4yzaggridz7j6_b9Wjhso0UhSGty1]--></g></svg>