<?xml version="1.0" encoding="UTF-8" standalone="no"?><svg xmlns="http://www.w3.org/2000/svg" xmlns:xlink="http://www.w3.org/1999/xlink" contentScriptType="application/ecmascript" contentStyleType="text/css" height="695px" preserveAspectRatio="none" style="width:756px;height:695px;" version="1.1" viewBox="0 0 756 695" width="756px" zoomAndPan="magnify"><defs/><g><!--MD5=[a9bd0e73706187e3eb5d8e1032abf9b5]
cluster Phpolar\\Phpolar--><polygon fill="#FFFFFF" points="66.5,313,197.5,313,204.5,335.2969,207.5,335.2969,207.5,396,66.5,396,66.5,313" style="stroke: #000000; stroke-width: 1.5;"/><line style="stroke: #000000; stroke-width: 1.5;" x1="66.5" x2="204.5" y1="335.2969" y2="335.2969"/><text fill="#000000" font-family="sans-serif" font-size="14" font-weight="bold" lengthAdjust="spacingAndGlyphs" textLength="125" x="70.5" y="327.9951">Phpolar\Phpolar</text><!--MD5=[e3966f89724251c4729d181ae8f0dbea]
cluster Phpolar\\Phpolar\\DependencyInjection--><polygon fill="#FFFFFF" points="22,24,324,24,331,46.2969,526,46.2969,526,241,22,241,22,24" style="stroke: #000000; stroke-width: 1.5;"/><line style="stroke: #000000; stroke-width: 1.5;" x1="22" x2="331" y1="46.2969" y2="46.2969"/><text fill="#000000" font-family="sans-serif" font-size="14" font-weight="bold" lengthAdjust="spacingAndGlyphs" textLength="296" x="26" y="38.9951">Phpolar\Phpolar\DependencyInjection</text><!--MD5=[a25cb7f95ae098cb41a4e3e06983f65e]
cluster Phpolar\\Phpolar\\Http--><polygon fill="#FFFFFF" points="279,265,448,265,455,287.2969,734,287.2969,734,683,279,683,279,265" style="stroke: #000000; stroke-width: 1.5;"/><line style="stroke: #000000; stroke-width: 1.5;" x1="279" x2="455" y1="287.2969" y2="287.2969"/><text fill="#000000" font-family="sans-serif" font-size="14" font-weight="bold" lengthAdjust="spacingAndGlyphs" textLength="163" x="283" y="279.9951">Phpolar\Phpolar\Http</text><!--MD5=[8e860edd58322d7276ac762460b19afb]
cluster Psr\\Http\\Server--><polygon fill="#FFFFFF" points="26,500,154,500,161,522.2969,247,522.2969,247,650,26,650,26,500" style="stroke: #000000; stroke-width: 1.5;"/><line style="stroke: #000000; stroke-width: 1.5;" x1="26" x2="161" y1="522.2969" y2="522.2969"/><text fill="#000000" font-family="sans-serif" font-size="14" font-weight="bold" lengthAdjust="spacingAndGlyphs" textLength="122" x="30" y="514.9951">Psr\Http\Server</text><!--MD5=[e2e4065f308ecc62cd2fa5f0c629123c]
class Phpolar\\Phpolar\\App--><rect fill="#FEFECE" height="32" id="Phpolar\\Phpolar\\App" style="stroke: #A80036; stroke-width: 1.5;" width="56" x="108.5" y="348"/><ellipse cx="123.5" cy="364" fill="#ADD1B2" rx="11" ry="11" style="stroke: #A80036; stroke-width: 1.0;"/><path d="M126.4688,369.6406 Q125.8906,369.9375 125.25,370.0781 Q124.6094,370.2344 123.9063,370.2344 Q121.4063,370.2344 120.0781,368.5938 Q118.7656,366.9375 118.7656,363.8125 Q118.7656,360.6875 120.0781,359.0313 Q121.4063,357.375 123.9063,357.375 Q124.6094,357.375 125.25,357.5313 Q125.9063,357.6875 126.4688,357.9844 L126.4688,360.7031 Q125.8438,360.125 125.25,359.8594 Q124.6563,359.5781 124.0313,359.5781 Q122.6875,359.5781 122,360.6563 Q121.3125,361.7188 121.3125,363.8125 Q121.3125,365.9063 122,366.9844 Q122.6875,368.0469 124.0313,368.0469 Q124.6563,368.0469 125.25,367.7813 Q125.8438,367.5 126.4688,366.9219 L126.4688,369.6406 Z "/><text fill="#000000" font-family="sans-serif" font-size="12" lengthAdjust="spacingAndGlyphs" textLength="24" x="137.5" y="368.1543">App</text><!--MD5=[410ec8a204f62aaeb70d557c8378205c]
class Phpolar\\Phpolar\\DependencyInjection\\ClosureContainerFactory--><rect fill="#FEFECE" height="32" id="Phpolar\\Phpolar\\DependencyInjection\\ClosureContainerFactory" style="stroke: #A80036; stroke-width: 1.5;" width="186" x="324" y="59"/><ellipse cx="339" cy="75" fill="#ADD1B2" rx="11" ry="11" style="stroke: #A80036; stroke-width: 1.0;"/><path d="M341.9688,80.6406 Q341.3906,80.9375 340.75,81.0781 Q340.1094,81.2344 339.4063,81.2344 Q336.9063,81.2344 335.5781,79.5938 Q334.2656,77.9375 334.2656,74.8125 Q334.2656,71.6875 335.5781,70.0313 Q336.9063,68.375 339.4063,68.375 Q340.1094,68.375 340.75,68.5313 Q341.4063,68.6875 341.9688,68.9844 L341.9688,71.7031 Q341.3438,71.125 340.75,70.8594 Q340.1563,70.5781 339.5313,70.5781 Q338.1875,70.5781 337.5,71.6563 Q336.8125,72.7188 336.8125,74.8125 Q336.8125,76.9063 337.5,77.9844 Q338.1875,79.0469 339.5313,79.0469 Q340.1563,79.0469 340.75,78.7813 Q341.3438,78.5 341.9688,77.9219 L341.9688,80.6406 Z "/><text fill="#000000" font-family="sans-serif" font-size="12" lengthAdjust="spacingAndGlyphs" textLength="154" x="353" y="79.1543">ClosureContainerFactory</text><!--MD5=[35c83592fb58cf737db948d6e18cecfe]
class Phpolar\\Phpolar\\DependencyInjection\\ContainerFactoryInterface--><rect fill="#FEFECE" height="32" id="Phpolar\\Phpolar\\DependencyInjection\\ContainerFactoryInterface" style="stroke: #A80036; stroke-width: 1.5;" width="197" x="38" y="59"/><ellipse cx="53" cy="75" fill="#B4A7E5" rx="11" ry="11" style="stroke: #A80036; stroke-width: 1.0;"/><path d="M48.9219,70.7656 L48.9219,68.6094 L56.3125,68.6094 L56.3125,70.7656 L53.8438,70.7656 L53.8438,78.8438 L56.3125,78.8438 L56.3125,81 L48.9219,81 L48.9219,78.8438 L51.3906,78.8438 L51.3906,70.7656 L48.9219,70.7656 Z "/><text fill="#000000" font-family="sans-serif" font-size="12" font-style="italic" lengthAdjust="spacingAndGlyphs" textLength="165" x="67" y="79.1543">ContainerFactoryInterface</text><!--MD5=[46b0372db760e86710eaadfa783a86c7]
class Phpolar\\Phpolar\\DependencyInjection\\ContainerManager--><rect fill="#FEFECE" height="32" id="Phpolar\\Phpolar\\DependencyInjection\\ContainerManager" style="stroke: #A80036; stroke-width: 1.5;" width="148" x="62.5" y="126"/><ellipse cx="77.5" cy="142" fill="#ADD1B2" rx="11" ry="11" style="stroke: #A80036; stroke-width: 1.0;"/><path d="M80.4688,147.6406 Q79.8906,147.9375 79.25,148.0781 Q78.6094,148.2344 77.9063,148.2344 Q75.4063,148.2344 74.0781,146.5938 Q72.7656,144.9375 72.7656,141.8125 Q72.7656,138.6875 74.0781,137.0313 Q75.4063,135.375 77.9063,135.375 Q78.6094,135.375 79.25,135.5313 Q79.9063,135.6875 80.4688,135.9844 L80.4688,138.7031 Q79.8438,138.125 79.25,137.8594 Q78.6563,137.5781 78.0313,137.5781 Q76.6875,137.5781 76,138.6563 Q75.3125,139.7188 75.3125,141.8125 Q75.3125,143.9063 76,144.9844 Q76.6875,146.0469 78.0313,146.0469 Q78.6563,146.0469 79.25,145.7813 Q79.8438,145.5 80.4688,144.9219 L80.4688,147.6406 Z "/><text fill="#000000" font-family="sans-serif" font-size="12" lengthAdjust="spacingAndGlyphs" textLength="116" x="91.5" y="146.1543">ContainerManager</text><!--MD5=[f9a134297eaffc78c1ce491dc213a3ec]
class Phpolar\\Phpolar\\DependencyInjection\\DiTokens--><rect fill="#FEFECE" height="32" id="Phpolar\\Phpolar\\DependencyInjection\\DiTokens" style="stroke: #A80036; stroke-width: 1.5;" width="89" x="92" y="193"/><ellipse cx="107" cy="209" fill="#ADD1B2" rx="11" ry="11" style="stroke: #A80036; stroke-width: 1.0;"/><path d="M109.9688,214.6406 Q109.3906,214.9375 108.75,215.0781 Q108.1094,215.2344 107.4063,215.2344 Q104.9063,215.2344 103.5781,213.5938 Q102.2656,211.9375 102.2656,208.8125 Q102.2656,205.6875 103.5781,204.0313 Q104.9063,202.375 107.4063,202.375 Q108.1094,202.375 108.75,202.5313 Q109.4063,202.6875 109.9688,202.9844 L109.9688,205.7031 Q109.3438,205.125 108.75,204.8594 Q108.1563,204.5781 107.5313,204.5781 Q106.1875,204.5781 105.5,205.6563 Q104.8125,206.7188 104.8125,208.8125 Q104.8125,210.9063 105.5,211.9844 Q106.1875,213.0469 107.5313,213.0469 Q108.1563,213.0469 108.75,212.7813 Q109.3438,212.5 109.9688,211.9219 L109.9688,214.6406 Z "/><text fill="#000000" font-family="sans-serif" font-size="12" lengthAdjust="spacingAndGlyphs" textLength="57" x="121" y="213.1543">DiTokens</text><!--MD5=[909f42c08ee82d4970fcfe57f5c25b29]
class Phpolar\\Phpolar\\Http\\AbstractContentDelegate--><rect fill="#FEFECE" height="32" id="Phpolar\\Phpolar\\Http\\AbstractContentDelegate" style="stroke: #A80036; stroke-width: 1.5;" width="191" x="321.5" y="367"/><ellipse cx="336.5" cy="383" fill="#A9DCDF" rx="11" ry="11" style="stroke: #A80036; stroke-width: 1.0;"/><path d="M336.6094,378.3438 L335.4531,383.4219 L337.7813,383.4219 L336.6094,378.3438 Z M335.125,376.1094 L338.1094,376.1094 L341.4688,388.5 L339.0156,388.5 L338.25,385.4375 L334.9688,385.4375 L334.2188,388.5 L331.7813,388.5 L335.125,376.1094 Z "/><text fill="#000000" font-family="sans-serif" font-size="12" font-style="italic" lengthAdjust="spacingAndGlyphs" textLength="159" x="350.5" y="387.1543">AbstractContentDelegate</text><!--MD5=[50df2949368d1d0f0ab5e143e7370bb1]
class Phpolar\\Phpolar\\Http\\ErrorHandler--><rect fill="#FEFECE" height="32" id="Phpolar\\Phpolar\\Http\\ErrorHandler" style="stroke: #A80036; stroke-width: 1.5;" width="112" x="361" y="434"/><ellipse cx="376" cy="450" fill="#ADD1B2" rx="11" ry="11" style="stroke: #A80036; stroke-width: 1.0;"/><path d="M378.9688,455.6406 Q378.3906,455.9375 377.75,456.0781 Q377.1094,456.2344 376.4063,456.2344 Q373.9063,456.2344 372.5781,454.5938 Q371.2656,452.9375 371.2656,449.8125 Q371.2656,446.6875 372.5781,445.0313 Q373.9063,443.375 376.4063,443.375 Q377.1094,443.375 377.75,443.5313 Q378.4063,443.6875 378.9688,443.9844 L378.9688,446.7031 Q378.3438,446.125 377.75,445.8594 Q377.1563,445.5781 376.5313,445.5781 Q375.1875,445.5781 374.5,446.6563 Q373.8125,447.7188 373.8125,449.8125 Q373.8125,451.9063 374.5,452.9844 Q375.1875,454.0469 376.5313,454.0469 Q377.1563,454.0469 377.75,453.7813 Q378.3438,453.5 378.9688,452.9219 L378.9688,455.6406 Z "/><text fill="#000000" font-family="sans-serif" font-size="12" lengthAdjust="spacingAndGlyphs" textLength="80" x="390" y="454.1543">ErrorHandler</text><!--MD5=[ed56cf08601891f55ac5937bbe51b545]
class Phpolar\\Phpolar\\Http\\MiddlewareQueueRequestHandler--><rect fill="#FEFECE" height="32" id="Phpolar\\Phpolar\\Http\\MiddlewareQueueRequestHandler" style="stroke: #A80036; stroke-width: 1.5;" width="244" x="295" y="501"/><ellipse cx="310" cy="517" fill="#ADD1B2" rx="11" ry="11" style="stroke: #A80036; stroke-width: 1.0;"/><path d="M312.9688,522.6406 Q312.3906,522.9375 311.75,523.0781 Q311.1094,523.2344 310.4063,523.2344 Q307.9063,523.2344 306.5781,521.5938 Q305.2656,519.9375 305.2656,516.8125 Q305.2656,513.6875 306.5781,512.0313 Q307.9063,510.375 310.4063,510.375 Q311.1094,510.375 311.75,510.5313 Q312.4063,510.6875 312.9688,510.9844 L312.9688,513.7031 Q312.3438,513.125 311.75,512.8594 Q311.1563,512.5781 310.5313,512.5781 Q309.1875,512.5781 308.5,513.6563 Q307.8125,514.7188 307.8125,516.8125 Q307.8125,518.9063 308.5,519.9844 Q309.1875,521.0469 310.5313,521.0469 Q311.1563,521.0469 311.75,520.7813 Q312.3438,520.5 312.9688,519.9219 L312.9688,522.6406 Z "/><text fill="#000000" font-family="sans-serif" font-size="12" lengthAdjust="spacingAndGlyphs" textLength="212" x="324" y="521.1543">MiddlewareQueueRequestHandler</text><!--MD5=[69a4a4ec5cb5cfeb66e712f0057f5ee0]
class Phpolar\\Phpolar\\Http\\ResolvedRoute--><rect fill="#FEFECE" height="32" id="Phpolar\\Phpolar\\Http\\ResolvedRoute" style="stroke: #A80036; stroke-width: 1.5;" width="125" x="354.5" y="300"/><ellipse cx="369.5" cy="316" fill="#ADD1B2" rx="11" ry="11" style="stroke: #A80036; stroke-width: 1.0;"/><path d="M372.4688,321.6406 Q371.8906,321.9375 371.25,322.0781 Q370.6094,322.2344 369.9063,322.2344 Q367.4063,322.2344 366.0781,320.5938 Q364.7656,318.9375 364.7656,315.8125 Q364.7656,312.6875 366.0781,311.0313 Q367.4063,309.375 369.9063,309.375 Q370.6094,309.375 371.25,309.5313 Q371.9063,309.6875 372.4688,309.9844 L372.4688,312.7031 Q371.8438,312.125 371.25,311.8594 Q370.6563,311.5781 370.0313,311.5781 Q368.6875,311.5781 368,312.6563 Q367.3125,313.7188 367.3125,315.8125 Q367.3125,317.9063 368,318.9844 Q368.6875,320.0469 370.0313,320.0469 Q370.6563,320.0469 371.25,319.7813 Q371.8438,319.5 372.4688,318.9219 L372.4688,321.6406 Z "/><text fill="#000000" font-family="sans-serif" font-size="12" lengthAdjust="spacingAndGlyphs" textLength="93" x="383.5" y="320.1543">ResolvedRoute</text><!--MD5=[75dfe254516a81a2990b34b2b18adae2]
class Phpolar\\Phpolar\\Http\\RouteRegistry--><rect fill="#FEFECE" height="32" id="Phpolar\\Phpolar\\Http\\RouteRegistry" style="stroke: #A80036; stroke-width: 1.5;" width="119" x="599" y="367"/><ellipse cx="614" cy="383" fill="#ADD1B2" rx="11" ry="11" style="stroke: #A80036; stroke-width: 1.0;"/><path d="M616.9688,388.6406 Q616.3906,388.9375 615.75,389.0781 Q615.1094,389.2344 614.4063,389.2344 Q611.9063,389.2344 610.5781,387.5938 Q609.2656,385.9375 609.2656,382.8125 Q609.2656,379.6875 610.5781,378.0313 Q611.9063,376.375 614.4063,376.375 Q615.1094,376.375 615.75,376.5313 Q616.4063,376.6875 616.9688,376.9844 L616.9688,379.7031 Q616.3438,379.125 615.75,378.8594 Q615.1563,378.5781 614.5313,378.5781 Q613.1875,378.5781 612.5,379.6563 Q611.8125,380.7188 611.8125,382.8125 Q611.8125,384.9063 612.5,385.9844 Q613.1875,387.0469 614.5313,387.0469 Q615.1563,387.0469 615.75,386.7813 Q616.3438,386.5 616.9688,385.9219 L616.9688,388.6406 Z "/><text fill="#000000" font-family="sans-serif" font-size="12" lengthAdjust="spacingAndGlyphs" textLength="87" x="628" y="387.1543">RouteRegistry</text><!--MD5=[7be6a97fd6dc01e7aa457d41ce41952e]
class Phpolar\\Phpolar\\Http\\RoutingHandler--><rect fill="#FEFECE" height="32" id="Phpolar\\Phpolar\\Http\\RoutingHandler" style="stroke: #A80036; stroke-width: 1.5;" width="129" x="352.5" y="568"/><ellipse cx="367.5" cy="584" fill="#ADD1B2" rx="11" ry="11" style="stroke: #A80036; stroke-width: 1.0;"/><path d="M370.4688,589.6406 Q369.8906,589.9375 369.25,590.0781 Q368.6094,590.2344 367.9063,590.2344 Q365.4063,590.2344 364.0781,588.5938 Q362.7656,586.9375 362.7656,583.8125 Q362.7656,580.6875 364.0781,579.0313 Q365.4063,577.375 367.9063,577.375 Q368.6094,577.375 369.25,577.5313 Q369.9063,577.6875 370.4688,577.9844 L370.4688,580.7031 Q369.8438,580.125 369.25,579.8594 Q368.6563,579.5781 368.0313,579.5781 Q366.6875,579.5781 366,580.6563 Q365.3125,581.7188 365.3125,583.8125 Q365.3125,585.9063 366,586.9844 Q366.6875,588.0469 368.0313,588.0469 Q368.6563,588.0469 369.25,587.7813 Q369.8438,587.5 370.4688,586.9219 L370.4688,589.6406 Z "/><text fill="#000000" font-family="sans-serif" font-size="12" lengthAdjust="spacingAndGlyphs" textLength="97" x="381.5" y="588.1543">RoutingHandler</text><!--MD5=[5453f7951178626c6d0aa6a00871514e]
class Phpolar\\Phpolar\\Http\\RoutingMiddleware--><rect fill="#FEFECE" height="32" id="Phpolar\\Phpolar\\Http\\RoutingMiddleware" style="stroke: #A80036; stroke-width: 1.5;" width="150" x="342" y="635"/><ellipse cx="357" cy="651" fill="#ADD1B2" rx="11" ry="11" style="stroke: #A80036; stroke-width: 1.0;"/><path d="M359.9688,656.6406 Q359.3906,656.9375 358.75,657.0781 Q358.1094,657.2344 357.4063,657.2344 Q354.9063,657.2344 353.5781,655.5938 Q352.2656,653.9375 352.2656,650.8125 Q352.2656,647.6875 353.5781,646.0313 Q354.9063,644.375 357.4063,644.375 Q358.1094,644.375 358.75,644.5313 Q359.4063,644.6875 359.9688,644.9844 L359.9688,647.7031 Q359.3438,647.125 358.75,646.8594 Q358.1563,646.5781 357.5313,646.5781 Q356.1875,646.5781 355.5,647.6563 Q354.8125,648.7188 354.8125,650.8125 Q354.8125,652.9063 355.5,653.9844 Q356.1875,655.0469 357.5313,655.0469 Q358.1563,655.0469 358.75,654.7813 Q359.3438,654.5 359.9688,653.9219 L359.9688,656.6406 Z "/><text fill="#000000" font-family="sans-serif" font-size="12" lengthAdjust="spacingAndGlyphs" textLength="118" x="371" y="655.1543">RoutingMiddleware</text><!--MD5=[eb647d64e0e505aae508247625db42c9]
class Psr\\Http\\Server\\RequestHandlerInterface--><rect fill="#FEFECE" height="32" id="Psr\\Http\\Server\\RequestHandlerInterface" style="stroke: #A80036; stroke-width: 1.5;" width="189" x="42" y="535"/><ellipse cx="57" cy="551" fill="#B4A7E5" rx="11" ry="11" style="stroke: #A80036; stroke-width: 1.0;"/><path d="M52.9219,546.7656 L52.9219,544.6094 L60.3125,544.6094 L60.3125,546.7656 L57.8438,546.7656 L57.8438,554.8438 L60.3125,554.8438 L60.3125,557 L52.9219,557 L52.9219,554.8438 L55.3906,554.8438 L55.3906,546.7656 L52.9219,546.7656 Z "/><text fill="#000000" font-family="sans-serif" font-size="12" font-style="italic" lengthAdjust="spacingAndGlyphs" textLength="157" x="71" y="555.1543">RequestHandlerInterface</text><!--MD5=[c9ec0e3c1f519dc0c5f59d9d724f4fc8]
class Psr\\Http\\Server\\MiddlewareInterface--><rect fill="#FEFECE" height="32" id="Psr\\Http\\Server\\MiddlewareInterface" style="stroke: #A80036; stroke-width: 1.5;" width="160" x="56.5" y="602"/><ellipse cx="71.5" cy="618" fill="#B4A7E5" rx="11" ry="11" style="stroke: #A80036; stroke-width: 1.0;"/><path d="M67.4219,613.7656 L67.4219,611.6094 L74.8125,611.6094 L74.8125,613.7656 L72.3438,613.7656 L72.3438,621.8438 L74.8125,621.8438 L74.8125,624 L67.4219,624 L67.4219,621.8438 L69.8906,621.8438 L69.8906,613.7656 L67.4219,613.7656 Z "/><text fill="#000000" font-family="sans-serif" font-size="12" font-style="italic" lengthAdjust="spacingAndGlyphs" textLength="128" x="85.5" y="622.1543">MiddlewareInterface</text><!--MD5=[07331d0fe8d5900735eb9a1be5555e18]
reverse link Phpolar\\Phpolar\\DependencyInjection\\ContainerFactoryInterface to Phpolar\\Phpolar\\DependencyInjection\\ClosureContainerFactory--><path d="M255.39,75 C255.39,75 323.7,75 323.7,75 " fill="none" id="Phpolar\\Phpolar\\DependencyInjection\\ContainerFactoryInterface&lt;-Phpolar\\Phpolar\\DependencyInjection\\ClosureContainerFactory" style="stroke: #516F42; stroke-width: 1.0; stroke-dasharray: 7.0,7.0;"/><polygon fill="none" points="255.39,82,235.39,75,255.39,68,255.39,82" style="stroke: #516F42; stroke-width: 1.0;"/><!--MD5=[adfb148a425a75ff67cc61ed9ac8599f]
reverse link Psr\\Http\\Server\\RequestHandlerInterface to Phpolar\\Phpolar\\Http\\ErrorHandler--><path d="M218,514.77 C218,514.77 218,450 218,450 C218,450 301.93,450 360.77,450 " fill="none" id="Psr\\Http\\Server\\RequestHandlerInterface&lt;-Phpolar\\Phpolar\\Http\\ErrorHandler" style="stroke: #516F42; stroke-width: 1.0; stroke-dasharray: 7.0,7.0;"/><polygon fill="none" points="225,514.77,218,534.77,211,514.77,225,514.77" style="stroke: #516F42; stroke-width: 1.0;"/><!--MD5=[5f784f0ba7063c24d486072889667bc7]
reverse link Psr\\Http\\Server\\RequestHandlerInterface to Phpolar\\Phpolar\\Http\\MiddlewareQueueRequestHandler--><path d="M225,518.78 C225,518.78 225,517 225,517 C225,517 256.99,517 294.86,517 " fill="none" id="Psr\\Http\\Server\\RequestHandlerInterface&lt;-Phpolar\\Phpolar\\Http\\MiddlewareQueueRequestHandler" style="stroke: #516F42; stroke-width: 1.0; stroke-dasharray: 7.0,7.0;"/><polygon fill="none" points="232,514.8,225,534.8,218,514.8,232,514.8" style="stroke: #516F42; stroke-width: 1.0;"/><!--MD5=[8007630022231e49834248fad5c319a1]
reverse link Psr\\Http\\Server\\RequestHandlerInterface to Phpolar\\Phpolar\\Http\\RoutingHandler--><path d="M224,582.31 C224,582.31 224,584 224,584 C224,584 296.36,584 352.47,584 " fill="none" id="Psr\\Http\\Server\\RequestHandlerInterface&lt;-Phpolar\\Phpolar\\Http\\RoutingHandler" style="stroke: #516F42; stroke-width: 1.0; stroke-dasharray: 7.0,7.0;"/><polygon fill="none" points="217,587.11,224,567.11,231,587.11,217,587.11" style="stroke: #516F42; stroke-width: 1.0;"/><!--MD5=[a99784d97307c6a3b2964acff219c718]
reverse link Psr\\Http\\Server\\MiddlewareInterface to Phpolar\\Phpolar\\Http\\RoutingMiddleware--><path d="M236.76,618 C236.76,618 348,618 348,618 C348,618 348,626.51 348,634.89 " fill="none" id="Psr\\Http\\Server\\MiddlewareInterface&lt;-Phpolar\\Phpolar\\Http\\RoutingMiddleware" style="stroke: #516F42; stroke-width: 1.0; stroke-dasharray: 7.0,7.0;"/><polygon fill="none" points="236.76,625,216.76,618,236.76,611,236.76,625" style="stroke: #516F42; stroke-width: 1.0;"/><!--MD5=[be63bf0145c7cc69584304f7acea5d2f]
link Phpolar\\Phpolar\\Http\\AbstractContentDelegate to Phpolar\\Phpolar\\Http\\ResolvedRoute--><!--MD5=[e6ddf6989700ec650d81a917261dfa77]
link Phpolar\\Phpolar\\Http\\AbstractContentDelegate to Phpolar\\Phpolar\\Http\\RouteRegistry--><!--MD5=[91bf804376db2c04ec47f2aec73213bd]
@startuml
   skinparam ArrowColor #516f42
   skinparam activityBorderColor #516f42
   skinparam activityBackgroundColor #ffffff
   skinparam activityDiamondBorderColor #516f42
   skinparam activityDiamondBackgroundColor #ffffff
   skinparam shadowing false

skinparam shadowing false
skinparam linetype ortho
hide empty members
left to right direction
set namespaceSeparator \\


class \\Phpolar\\Phpolar\\App {
}

class \\Phpolar\\Phpolar\\DependencyInjection\\ClosureContainerFactory implements \\Phpolar\\Phpolar\\DependencyInjection\\ContainerFactoryInterface {
}

class \\Phpolar\\Phpolar\\DependencyInjection\\ContainerManager {
}

class \\Phpolar\\Phpolar\\DependencyInjection\\DiTokens {
}

interface \\Phpolar\\Phpolar\\DependencyInjection\\ContainerFactoryInterface {
}

abstract class \\Phpolar\\Phpolar\\Http\\AbstractContentDelegate {
}

class \\Phpolar\\Phpolar\\Http\\ErrorHandler implements \\Psr\\Http\\Server\\RequestHandlerInterface {
}

class \\Phpolar\\Phpolar\\Http\\MiddlewareQueueRequestHandler implements \\Psr\\Http\\Server\\RequestHandlerInterface {
}

class \\Phpolar\\Phpolar\\Http\\ResolvedRoute {
}

class \\Phpolar\\Phpolar\\Http\\RouteRegistry {
}

class \\Phpolar\\Phpolar\\Http\\RoutingHandler implements \\Psr\\Http\\Server\\RequestHandlerInterface {
}

class \\Phpolar\\Phpolar\\Http\\RoutingMiddleware implements \\Psr\\Http\\Server\\MiddlewareInterface {
}

@enduml

PlantUML version 1.2020.02(Sun Mar 01 04:22:07 CST 2020)
(GPL source distribution)
Java Runtime: OpenJDK Runtime Environment
JVM: OpenJDK 64-Bit Server VM
Java Version: 11.0.19+7-post-Ubuntu-0ubuntu122.04.1
Operating System: Linux
Default Encoding: UTF-8
Language: en
Country: US
--></g></svg>