<?xml version="1.0" encoding="UTF-8" standalone="no"?><svg xmlns="http://www.w3.org/2000/svg" xmlns:xlink="http://www.w3.org/1999/xlink" contentScriptType="application/ecmascript" contentStyleType="text/css" height="835px" preserveAspectRatio="none" style="width:651px;height:835px;" version="1.1" viewBox="0 0 651 835" width="651px" zoomAndPan="magnify"><defs/><g><!--MD5=[a9bd0e73706187e3eb5d8e1032abf9b5]
cluster Phpolar\\Phpolar--><polygon fill="#FFFFFF" points="100,737,231,737,238,759.2969,241,759.2969,241,820,100,820,100,737" style="stroke: #000000; stroke-width: 1.5;"/><line style="stroke: #000000; stroke-width: 1.5;" x1="100" x2="238" y1="759.2969" y2="759.2969"/><text fill="#000000" font-family="sans-serif" font-size="14" font-weight="bold" lengthAdjust="spacingAndGlyphs" textLength="125" x="104" y="751.9951">Phpolar\Phpolar</text><!--MD5=[e0c85b5b635cf4e34bbeeae8c373d549]
cluster Phpolar\\Phpolar\\Auth--><polygon fill="#FFFFFF" points="374,539,547,539,554,561.2969,609,561.2969,609,823,374,823,374,539" style="stroke: #000000; stroke-width: 1.5;"/><line style="stroke: #000000; stroke-width: 1.5;" x1="374" x2="554" y1="561.2969" y2="561.2969"/><text fill="#000000" font-family="sans-serif" font-size="14" font-weight="bold" lengthAdjust="spacingAndGlyphs" textLength="167" x="378" y="553.9951">Phpolar\Phpolar\Auth</text><!--MD5=[880cdb4c5cde262a1ccfe4dc7157cb56]
cluster Phpolar\\Routable--><polygon fill="#FFFFFF" points="55.5,551,195.5,551,202.5,573.2969,284.5,573.2969,284.5,701,55.5,701,55.5,551" style="stroke: #000000; stroke-width: 1.5;"/><line style="stroke: #000000; stroke-width: 1.5;" x1="55.5" x2="202.5" y1="573.2969" y2="573.2969"/><text fill="#000000" font-family="sans-serif" font-size="14" font-weight="bold" lengthAdjust="spacingAndGlyphs" textLength="134" x="59.5" y="565.9951">Phpolar\Routable</text><!--MD5=[e3966f89724251c4729d181ae8f0dbea]
cluster Phpolar\\Phpolar\\DependencyInjection--><polygon fill="#FFFFFF" points="14,321,316,321,323,343.2969,326,343.2969,326,471,14,471,14,321" style="stroke: #000000; stroke-width: 1.5;"/><line style="stroke: #000000; stroke-width: 1.5;" x1="14" x2="323" y1="343.2969" y2="343.2969"/><text fill="#000000" font-family="sans-serif" font-size="14" font-weight="bold" lengthAdjust="spacingAndGlyphs" textLength="296" x="18" y="335.9951">Phpolar\Phpolar\DependencyInjection</text><!--MD5=[a25cb7f95ae098cb41a4e3e06983f65e]
cluster Phpolar\\Phpolar\\Http--><polygon fill="#FFFFFF" points="353.5,24,522.5,24,529.5,46.2969,629.5,46.2969,629.5,442,353.5,442,353.5,24" style="stroke: #000000; stroke-width: 1.5;"/><line style="stroke: #000000; stroke-width: 1.5;" x1="353.5" x2="529.5" y1="46.2969" y2="46.2969"/><text fill="#000000" font-family="sans-serif" font-size="14" font-weight="bold" lengthAdjust="spacingAndGlyphs" textLength="163" x="357.5" y="38.9951">Phpolar\Phpolar\Http</text><!--MD5=[8e860edd58322d7276ac762460b19afb]
cluster Psr\\Http\\Server--><polygon fill="#FFFFFF" points="59.5,119,187.5,119,194.5,141.2969,280.5,141.2969,280.5,269,59.5,269,59.5,119" style="stroke: #000000; stroke-width: 1.5;"/><line style="stroke: #000000; stroke-width: 1.5;" x1="59.5" x2="194.5" y1="141.2969" y2="141.2969"/><text fill="#000000" font-family="sans-serif" font-size="14" font-weight="bold" lengthAdjust="spacingAndGlyphs" textLength="122" x="63.5" y="133.9951">Psr\Http\Server</text><!--MD5=[e2e4065f308ecc62cd2fa5f0c629123c]
class Phpolar\\Phpolar\\App--><rect fill="#FEFECE" height="32" id="Phpolar\\Phpolar\\App" style="stroke: #A80036; stroke-width: 1.5;" width="56" x="142" y="772"/><ellipse cx="157" cy="788" fill="#ADD1B2" rx="11" ry="11" style="stroke: #A80036; stroke-width: 1.0;"/><path d="M159.9688,793.6406 Q159.3906,793.9375 158.75,794.0781 Q158.1094,794.2344 157.4063,794.2344 Q154.9063,794.2344 153.5781,792.5938 Q152.2656,790.9375 152.2656,787.8125 Q152.2656,784.6875 153.5781,783.0313 Q154.9063,781.375 157.4063,781.375 Q158.1094,781.375 158.75,781.5313 Q159.4063,781.6875 159.9688,781.9844 L159.9688,784.7031 Q159.3438,784.125 158.75,783.8594 Q158.1563,783.5781 157.5313,783.5781 Q156.1875,783.5781 155.5,784.6563 Q154.8125,785.7188 154.8125,787.8125 Q154.8125,789.9063 155.5,790.9844 Q156.1875,792.0469 157.5313,792.0469 Q158.1563,792.0469 158.75,791.7813 Q159.3438,791.5 159.9688,790.9219 L159.9688,793.6406 Z "/><text fill="#000000" font-family="sans-serif" font-size="12" lengthAdjust="spacingAndGlyphs" textLength="24" x="171" y="792.1543">App</text><!--MD5=[e79f49a5163f9634e4a79f59488e32d0]
class Phpolar\\Phpolar\\Auth\\AbstractProtectedRoutable--><rect fill="#FEFECE" height="32" id="Phpolar\\Phpolar\\Auth\\AbstractProtectedRoutable" style="stroke: #A80036; stroke-width: 1.5;" width="201" x="391" y="574"/><ellipse cx="406" cy="590" fill="#A9DCDF" rx="11" ry="11" style="stroke: #A80036; stroke-width: 1.0;"/><path d="M406.1094,585.3438 L404.9531,590.4219 L407.2813,590.4219 L406.1094,585.3438 Z M404.625,583.1094 L407.6094,583.1094 L410.9688,595.5 L408.5156,595.5 L407.75,592.4375 L404.4688,592.4375 L403.7188,595.5 L401.2813,595.5 L404.625,583.1094 Z "/><text fill="#000000" font-family="sans-serif" font-size="12" font-style="italic" lengthAdjust="spacingAndGlyphs" textLength="169" x="420" y="594.1543">AbstractProtectedRoutable</text><!--MD5=[78bbb8c49ffc9bea3454004796285d46]
class Phpolar\\Phpolar\\Auth\\Authenticate--><rect fill="#FEFECE" height="32" id="Phpolar\\Phpolar\\Auth\\Authenticate" style="stroke: #A80036; stroke-width: 1.5;" width="113" x="435" y="641"/><ellipse cx="450" cy="657" fill="#ADD1B2" rx="11" ry="11" style="stroke: #A80036; stroke-width: 1.0;"/><path d="M452.9688,662.6406 Q452.3906,662.9375 451.75,663.0781 Q451.1094,663.2344 450.4063,663.2344 Q447.9063,663.2344 446.5781,661.5938 Q445.2656,659.9375 445.2656,656.8125 Q445.2656,653.6875 446.5781,652.0313 Q447.9063,650.375 450.4063,650.375 Q451.1094,650.375 451.75,650.5313 Q452.4063,650.6875 452.9688,650.9844 L452.9688,653.7031 Q452.3438,653.125 451.75,652.8594 Q451.1563,652.5781 450.5313,652.5781 Q449.1875,652.5781 448.5,653.6563 Q447.8125,654.7188 447.8125,656.8125 Q447.8125,658.9063 448.5,659.9844 Q449.1875,661.0469 450.5313,661.0469 Q451.1563,661.0469 451.75,660.7813 Q452.3438,660.5 452.9688,659.9219 L452.9688,662.6406 Z "/><text fill="#000000" font-family="sans-serif" font-size="12" lengthAdjust="spacingAndGlyphs" textLength="81" x="464" y="661.1543">Authenticate</text><!--MD5=[c14ed554b74d6f6d20d448beebf9dbba]
class Phpolar\\Phpolar\\Auth\\ProtectedRoutableResolver--><rect fill="#FEFECE" height="32" id="Phpolar\\Phpolar\\Auth\\ProtectedRoutableResolver" style="stroke: #A80036; stroke-width: 1.5;" width="203" x="390" y="708"/><ellipse cx="405" cy="724" fill="#ADD1B2" rx="11" ry="11" style="stroke: #A80036; stroke-width: 1.0;"/><path d="M407.9688,729.6406 Q407.3906,729.9375 406.75,730.0781 Q406.1094,730.2344 405.4063,730.2344 Q402.9063,730.2344 401.5781,728.5938 Q400.2656,726.9375 400.2656,723.8125 Q400.2656,720.6875 401.5781,719.0313 Q402.9063,717.375 405.4063,717.375 Q406.1094,717.375 406.75,717.5313 Q407.4063,717.6875 407.9688,717.9844 L407.9688,720.7031 Q407.3438,720.125 406.75,719.8594 Q406.1563,719.5781 405.5313,719.5781 Q404.1875,719.5781 403.5,720.6563 Q402.8125,721.7188 402.8125,723.8125 Q402.8125,725.9063 403.5,726.9844 Q404.1875,728.0469 405.5313,728.0469 Q406.1563,728.0469 406.75,727.7813 Q407.3438,727.5 407.9688,726.9219 L407.9688,729.6406 Z "/><text fill="#000000" font-family="sans-serif" font-size="12" lengthAdjust="spacingAndGlyphs" textLength="171" x="419" y="728.1543">ProtectedRoutableResolver</text><!--MD5=[68480bbac262abbf7909ac78e6025c1b]
class Phpolar\\Phpolar\\Auth\\User--><rect fill="#FEFECE" height="32" id="Phpolar\\Phpolar\\Auth\\User" style="stroke: #A80036; stroke-width: 1.5;" width="61" x="461" y="775"/><ellipse cx="476" cy="791" fill="#ADD1B2" rx="11" ry="11" style="stroke: #A80036; stroke-width: 1.0;"/><path d="M478.9688,796.6406 Q478.3906,796.9375 477.75,797.0781 Q477.1094,797.2344 476.4063,797.2344 Q473.9063,797.2344 472.5781,795.5938 Q471.2656,793.9375 471.2656,790.8125 Q471.2656,787.6875 472.5781,786.0313 Q473.9063,784.375 476.4063,784.375 Q477.1094,784.375 477.75,784.5313 Q478.4063,784.6875 478.9688,784.9844 L478.9688,787.7031 Q478.3438,787.125 477.75,786.8594 Q477.1563,786.5781 476.5313,786.5781 Q475.1875,786.5781 474.5,787.6563 Q473.8125,788.7188 473.8125,790.8125 Q473.8125,792.9063 474.5,793.9844 Q475.1875,795.0469 476.5313,795.0469 Q477.1563,795.0469 477.75,794.7813 Q478.3438,794.5 478.9688,793.9219 L478.9688,796.6406 Z "/><text fill="#000000" font-family="sans-serif" font-size="12" lengthAdjust="spacingAndGlyphs" textLength="29" x="490" y="795.1543">User</text><!--MD5=[db3082fb7998dfe49d5b3647743306d9]
class Phpolar\\Routable\\RoutableInterface--><rect fill="#FEFECE" height="32" id="Phpolar\\Routable\\RoutableInterface" style="stroke: #A80036; stroke-width: 1.5;" width="145" x="97.5" y="586"/><ellipse cx="112.5" cy="602" fill="#B4A7E5" rx="11" ry="11" style="stroke: #A80036; stroke-width: 1.0;"/><path d="M108.4219,597.7656 L108.4219,595.6094 L115.8125,595.6094 L115.8125,597.7656 L113.3438,597.7656 L113.3438,605.8438 L115.8125,605.8438 L115.8125,608 L108.4219,608 L108.4219,605.8438 L110.8906,605.8438 L110.8906,597.7656 L108.4219,597.7656 Z "/><text fill="#000000" font-family="sans-serif" font-size="12" font-style="italic" lengthAdjust="spacingAndGlyphs" textLength="113" x="126.5" y="606.1543">RoutableInterface</text><!--MD5=[a052bd45147bb9daf94c6d5604ee0860]
class Phpolar\\Routable\\RoutableResolverInterface--><rect fill="#FEFECE" height="32" id="Phpolar\\Routable\\RoutableResolverInterface" style="stroke: #A80036; stroke-width: 1.5;" width="197" x="71.5" y="653"/><ellipse cx="86.5" cy="669" fill="#B4A7E5" rx="11" ry="11" style="stroke: #A80036; stroke-width: 1.0;"/><path d="M82.4219,664.7656 L82.4219,662.6094 L89.8125,662.6094 L89.8125,664.7656 L87.3438,664.7656 L87.3438,672.8438 L89.8125,672.8438 L89.8125,675 L82.4219,675 L82.4219,672.8438 L84.8906,672.8438 L84.8906,664.7656 L82.4219,664.7656 Z "/><text fill="#000000" font-family="sans-serif" font-size="12" font-style="italic" lengthAdjust="spacingAndGlyphs" textLength="165" x="100.5" y="673.1543">RoutableResolverInterface</text><!--MD5=[60a1bdbfbb7eeea7927805a6d6e108ea]
class Phpolar\\Phpolar\\DependencyInjection\\ContainerLoader--><rect fill="#FEFECE" height="32" id="Phpolar\\Phpolar\\DependencyInjection\\ContainerLoader" style="stroke: #A80036; stroke-width: 1.5;" width="136" x="102" y="356"/><ellipse cx="117" cy="372" fill="#ADD1B2" rx="11" ry="11" style="stroke: #A80036; stroke-width: 1.0;"/><path d="M119.9688,377.6406 Q119.3906,377.9375 118.75,378.0781 Q118.1094,378.2344 117.4063,378.2344 Q114.9063,378.2344 113.5781,376.5938 Q112.2656,374.9375 112.2656,371.8125 Q112.2656,368.6875 113.5781,367.0313 Q114.9063,365.375 117.4063,365.375 Q118.1094,365.375 118.75,365.5313 Q119.4063,365.6875 119.9688,365.9844 L119.9688,368.7031 Q119.3438,368.125 118.75,367.8594 Q118.1563,367.5781 117.5313,367.5781 Q116.1875,367.5781 115.5,368.6563 Q114.8125,369.7188 114.8125,371.8125 Q114.8125,373.9063 115.5,374.9844 Q116.1875,376.0469 117.5313,376.0469 Q118.1563,376.0469 118.75,375.7813 Q119.3438,375.5 119.9688,374.9219 L119.9688,377.6406 Z "/><text fill="#000000" font-family="sans-serif" font-size="12" lengthAdjust="spacingAndGlyphs" textLength="104" x="131" y="376.1543">ContainerLoader</text><!--MD5=[f9a134297eaffc78c1ce491dc213a3ec]
class Phpolar\\Phpolar\\DependencyInjection\\DiTokens--><rect fill="#FEFECE" height="32" id="Phpolar\\Phpolar\\DependencyInjection\\DiTokens" style="stroke: #A80036; stroke-width: 1.5;" width="89" x="125.5" y="423"/><ellipse cx="140.5" cy="439" fill="#ADD1B2" rx="11" ry="11" style="stroke: #A80036; stroke-width: 1.0;"/><path d="M143.4688,444.6406 Q142.8906,444.9375 142.25,445.0781 Q141.6094,445.2344 140.9063,445.2344 Q138.4063,445.2344 137.0781,443.5938 Q135.7656,441.9375 135.7656,438.8125 Q135.7656,435.6875 137.0781,434.0313 Q138.4063,432.375 140.9063,432.375 Q141.6094,432.375 142.25,432.5313 Q142.9063,432.6875 143.4688,432.9844 L143.4688,435.7031 Q142.8438,435.125 142.25,434.8594 Q141.6563,434.5781 141.0313,434.5781 Q139.6875,434.5781 139,435.6563 Q138.3125,436.7188 138.3125,438.8125 Q138.3125,440.9063 139,441.9844 Q139.6875,443.0469 141.0313,443.0469 Q141.6563,443.0469 142.25,442.7813 Q142.8438,442.5 143.4688,441.9219 L143.4688,444.6406 Z "/><text fill="#000000" font-family="sans-serif" font-size="12" lengthAdjust="spacingAndGlyphs" textLength="57" x="154.5" y="443.1543">DiTokens</text><!--MD5=[50df2949368d1d0f0ab5e143e7370bb1]
class Phpolar\\Phpolar\\Http\\ErrorHandler--><rect fill="#FEFECE" height="32" id="Phpolar\\Phpolar\\Http\\ErrorHandler" style="stroke: #A80036; stroke-width: 1.5;" width="112" x="435.5" y="59"/><ellipse cx="450.5" cy="75" fill="#ADD1B2" rx="11" ry="11" style="stroke: #A80036; stroke-width: 1.0;"/><path d="M453.4688,80.6406 Q452.8906,80.9375 452.25,81.0781 Q451.6094,81.2344 450.9063,81.2344 Q448.4063,81.2344 447.0781,79.5938 Q445.7656,77.9375 445.7656,74.8125 Q445.7656,71.6875 447.0781,70.0313 Q448.4063,68.375 450.9063,68.375 Q451.6094,68.375 452.25,68.5313 Q452.9063,68.6875 453.4688,68.9844 L453.4688,71.7031 Q452.8438,71.125 452.25,70.8594 Q451.6563,70.5781 451.0313,70.5781 Q449.6875,70.5781 449,71.6563 Q448.3125,72.7188 448.3125,74.8125 Q448.3125,76.9063 449,77.9844 Q449.6875,79.0469 451.0313,79.0469 Q451.6563,79.0469 452.25,78.7813 Q452.8438,78.5 453.4688,77.9219 L453.4688,80.6406 Z "/><text fill="#000000" font-family="sans-serif" font-size="12" lengthAdjust="spacingAndGlyphs" textLength="80" x="464.5" y="79.1543">ErrorHandler</text><!--MD5=[ed56cf08601891f55ac5937bbe51b545]
class Phpolar\\Phpolar\\Http\\MiddlewareQueueRequestHandler--><rect fill="#FEFECE" height="32" id="Phpolar\\Phpolar\\Http\\MiddlewareQueueRequestHandler" style="stroke: #A80036; stroke-width: 1.5;" width="244" x="369.5" y="126"/><ellipse cx="384.5" cy="142" fill="#ADD1B2" rx="11" ry="11" style="stroke: #A80036; stroke-width: 1.0;"/><path d="M387.4688,147.6406 Q386.8906,147.9375 386.25,148.0781 Q385.6094,148.2344 384.9063,148.2344 Q382.4063,148.2344 381.0781,146.5938 Q379.7656,144.9375 379.7656,141.8125 Q379.7656,138.6875 381.0781,137.0313 Q382.4063,135.375 384.9063,135.375 Q385.6094,135.375 386.25,135.5313 Q386.9063,135.6875 387.4688,135.9844 L387.4688,138.7031 Q386.8438,138.125 386.25,137.8594 Q385.6563,137.5781 385.0313,137.5781 Q383.6875,137.5781 383,138.6563 Q382.3125,139.7188 382.3125,141.8125 Q382.3125,143.9063 383,144.9844 Q383.6875,146.0469 385.0313,146.0469 Q385.6563,146.0469 386.25,145.7813 Q386.8438,145.5 387.4688,144.9219 L387.4688,147.6406 Z "/><text fill="#000000" font-family="sans-serif" font-size="12" lengthAdjust="spacingAndGlyphs" textLength="212" x="398.5" y="146.1543">MiddlewareQueueRequestHandler</text><!--MD5=[69a4a4ec5cb5cfeb66e712f0057f5ee0]
class Phpolar\\Phpolar\\Http\\ResolvedRoute--><rect fill="#FEFECE" height="32" id="Phpolar\\Phpolar\\Http\\ResolvedRoute" style="stroke: #A80036; stroke-width: 1.5;" width="125" x="429" y="193"/><ellipse cx="444" cy="209" fill="#ADD1B2" rx="11" ry="11" style="stroke: #A80036; stroke-width: 1.0;"/><path d="M446.9688,214.6406 Q446.3906,214.9375 445.75,215.0781 Q445.1094,215.2344 444.4063,215.2344 Q441.9063,215.2344 440.5781,213.5938 Q439.2656,211.9375 439.2656,208.8125 Q439.2656,205.6875 440.5781,204.0313 Q441.9063,202.375 444.4063,202.375 Q445.1094,202.375 445.75,202.5313 Q446.4063,202.6875 446.9688,202.9844 L446.9688,205.7031 Q446.3438,205.125 445.75,204.8594 Q445.1563,204.5781 444.5313,204.5781 Q443.1875,204.5781 442.5,205.6563 Q441.8125,206.7188 441.8125,208.8125 Q441.8125,210.9063 442.5,211.9844 Q443.1875,213.0469 444.5313,213.0469 Q445.1563,213.0469 445.75,212.7813 Q446.3438,212.5 446.9688,211.9219 L446.9688,214.6406 Z "/><text fill="#000000" font-family="sans-serif" font-size="12" lengthAdjust="spacingAndGlyphs" textLength="93" x="458" y="213.1543">ResolvedRoute</text><!--MD5=[75dfe254516a81a2990b34b2b18adae2]
class Phpolar\\Phpolar\\Http\\RouteRegistry--><rect fill="#FEFECE" height="32" id="Phpolar\\Phpolar\\Http\\RouteRegistry" style="stroke: #A80036; stroke-width: 1.5;" width="119" x="432" y="260"/><ellipse cx="447" cy="276" fill="#ADD1B2" rx="11" ry="11" style="stroke: #A80036; stroke-width: 1.0;"/><path d="M449.9688,281.6406 Q449.3906,281.9375 448.75,282.0781 Q448.1094,282.2344 447.4063,282.2344 Q444.9063,282.2344 443.5781,280.5938 Q442.2656,278.9375 442.2656,275.8125 Q442.2656,272.6875 443.5781,271.0313 Q444.9063,269.375 447.4063,269.375 Q448.1094,269.375 448.75,269.5313 Q449.4063,269.6875 449.9688,269.9844 L449.9688,272.7031 Q449.3438,272.125 448.75,271.8594 Q448.1563,271.5781 447.5313,271.5781 Q446.1875,271.5781 445.5,272.6563 Q444.8125,273.7188 444.8125,275.8125 Q444.8125,277.9063 445.5,278.9844 Q446.1875,280.0469 447.5313,280.0469 Q448.1563,280.0469 448.75,279.7813 Q449.3438,279.5 449.9688,278.9219 L449.9688,281.6406 Z "/><text fill="#000000" font-family="sans-serif" font-size="12" lengthAdjust="spacingAndGlyphs" textLength="87" x="461" y="280.1543">RouteRegistry</text><!--MD5=[7be6a97fd6dc01e7aa457d41ce41952e]
class Phpolar\\Phpolar\\Http\\RoutingHandler--><rect fill="#FEFECE" height="32" id="Phpolar\\Phpolar\\Http\\RoutingHandler" style="stroke: #A80036; stroke-width: 1.5;" width="129" x="427" y="327"/><ellipse cx="442" cy="343" fill="#ADD1B2" rx="11" ry="11" style="stroke: #A80036; stroke-width: 1.0;"/><path d="M444.9688,348.6406 Q444.3906,348.9375 443.75,349.0781 Q443.1094,349.2344 442.4063,349.2344 Q439.9063,349.2344 438.5781,347.5938 Q437.2656,345.9375 437.2656,342.8125 Q437.2656,339.6875 438.5781,338.0313 Q439.9063,336.375 442.4063,336.375 Q443.1094,336.375 443.75,336.5313 Q444.4063,336.6875 444.9688,336.9844 L444.9688,339.7031 Q444.3438,339.125 443.75,338.8594 Q443.1563,338.5781 442.5313,338.5781 Q441.1875,338.5781 440.5,339.6563 Q439.8125,340.7188 439.8125,342.8125 Q439.8125,344.9063 440.5,345.9844 Q441.1875,347.0469 442.5313,347.0469 Q443.1563,347.0469 443.75,346.7813 Q444.3438,346.5 444.9688,345.9219 L444.9688,348.6406 Z "/><text fill="#000000" font-family="sans-serif" font-size="12" lengthAdjust="spacingAndGlyphs" textLength="97" x="456" y="347.1543">RoutingHandler</text><!--MD5=[5453f7951178626c6d0aa6a00871514e]
class Phpolar\\Phpolar\\Http\\RoutingMiddleware--><rect fill="#FEFECE" height="32" id="Phpolar\\Phpolar\\Http\\RoutingMiddleware" style="stroke: #A80036; stroke-width: 1.5;" width="150" x="416.5" y="394"/><ellipse cx="431.5" cy="410" fill="#ADD1B2" rx="11" ry="11" style="stroke: #A80036; stroke-width: 1.0;"/><path d="M434.4688,415.6406 Q433.8906,415.9375 433.25,416.0781 Q432.6094,416.2344 431.9063,416.2344 Q429.4063,416.2344 428.0781,414.5938 Q426.7656,412.9375 426.7656,409.8125 Q426.7656,406.6875 428.0781,405.0313 Q429.4063,403.375 431.9063,403.375 Q432.6094,403.375 433.25,403.5313 Q433.9063,403.6875 434.4688,403.9844 L434.4688,406.7031 Q433.8438,406.125 433.25,405.8594 Q432.6563,405.5781 432.0313,405.5781 Q430.6875,405.5781 430,406.6563 Q429.3125,407.7188 429.3125,409.8125 Q429.3125,411.9063 430,412.9844 Q430.6875,414.0469 432.0313,414.0469 Q432.6563,414.0469 433.25,413.7813 Q433.8438,413.5 434.4688,412.9219 L434.4688,415.6406 Z "/><text fill="#000000" font-family="sans-serif" font-size="12" lengthAdjust="spacingAndGlyphs" textLength="118" x="445.5" y="414.1543">RoutingMiddleware</text><!--MD5=[eb647d64e0e505aae508247625db42c9]
class Psr\\Http\\Server\\RequestHandlerInterface--><rect fill="#FEFECE" height="32" id="Psr\\Http\\Server\\RequestHandlerInterface" style="stroke: #A80036; stroke-width: 1.5;" width="189" x="75.5" y="154"/><ellipse cx="90.5" cy="170" fill="#B4A7E5" rx="11" ry="11" style="stroke: #A80036; stroke-width: 1.0;"/><path d="M86.4219,165.7656 L86.4219,163.6094 L93.8125,163.6094 L93.8125,165.7656 L91.3438,165.7656 L91.3438,173.8438 L93.8125,173.8438 L93.8125,176 L86.4219,176 L86.4219,173.8438 L88.8906,173.8438 L88.8906,165.7656 L86.4219,165.7656 Z "/><text fill="#000000" font-family="sans-serif" font-size="12" font-style="italic" lengthAdjust="spacingAndGlyphs" textLength="157" x="104.5" y="174.1543">RequestHandlerInterface</text><!--MD5=[c9ec0e3c1f519dc0c5f59d9d724f4fc8]
class Psr\\Http\\Server\\MiddlewareInterface--><rect fill="#FEFECE" height="32" id="Psr\\Http\\Server\\MiddlewareInterface" style="stroke: #A80036; stroke-width: 1.5;" width="160" x="90" y="221"/><ellipse cx="105" cy="237" fill="#B4A7E5" rx="11" ry="11" style="stroke: #A80036; stroke-width: 1.0;"/><path d="M100.9219,232.7656 L100.9219,230.6094 L108.3125,230.6094 L108.3125,232.7656 L105.8438,232.7656 L105.8438,240.8438 L108.3125,240.8438 L108.3125,243 L100.9219,243 L100.9219,240.8438 L103.3906,240.8438 L103.3906,232.7656 L100.9219,232.7656 Z "/><text fill="#000000" font-family="sans-serif" font-size="12" font-style="italic" lengthAdjust="spacingAndGlyphs" textLength="128" x="119" y="241.1543">MiddlewareInterface</text><!--MD5=[680a0dab75708c2a71a4f5f665a700db]
reverse link Phpolar\\Routable\\RoutableInterface to Phpolar\\Phpolar\\Auth\\AbstractProtectedRoutable--><path d="M262.55,596 C262.55,596 390.88,596 390.88,596 " fill="none" id="Phpolar\\Routable\\RoutableInterface&lt;-Phpolar\\Phpolar\\Auth\\AbstractProtectedRoutable" style="stroke: #516F42; stroke-width: 1.0; stroke-dasharray: 7.0,7.0;"/><polygon fill="none" points="262.55,603,242.55,596,262.55,589,262.55,603" style="stroke: #516F42; stroke-width: 1.0;"/><!--MD5=[d5b5eae2e1d3d9a80a87b6d789b2c926]
reverse link Phpolar\\Routable\\RoutableResolverInterface to Phpolar\\Phpolar\\Auth\\ProtectedRoutableResolver--><path d="M288.69,679 C288.69,679 413.5,679 413.5,679 C413.5,679 413.5,694.86 413.5,707.75 " fill="none" id="Phpolar\\Routable\\RoutableResolverInterface&lt;-Phpolar\\Phpolar\\Auth\\ProtectedRoutableResolver" style="stroke: #516F42; stroke-width: 1.0; stroke-dasharray: 7.0,7.0;"/><polygon fill="none" points="288.69,686,268.69,679,288.69,672,288.69,686" style="stroke: #516F42; stroke-width: 1.0;"/><!--MD5=[adfb148a425a75ff67cc61ed9ac8599f]
reverse link Psr\\Http\\Server\\RequestHandlerInterface to Phpolar\\Phpolar\\Http\\ErrorHandler--><path d="M170.5,133.88 C170.5,133.88 170.5,75 170.5,75 C170.5,75 343.16,75 435.22,75 " fill="none" id="Psr\\Http\\Server\\RequestHandlerInterface&lt;-Phpolar\\Phpolar\\Http\\ErrorHandler" style="stroke: #516F42; stroke-width: 1.0; stroke-dasharray: 7.0,7.0;"/><polygon fill="none" points="177.5,133.88,170.5,153.88,163.5,133.88,177.5,133.88" style="stroke: #516F42; stroke-width: 1.0;"/><!--MD5=[5f784f0ba7063c24d486072889667bc7]
reverse link Psr\\Http\\Server\\RequestHandlerInterface to Phpolar\\Phpolar\\Http\\MiddlewareQueueRequestHandler--><path d="M284.78,172 C284.78,172 380.5,172 380.5,172 C380.5,172 380.5,165.19 380.5,158.05 " fill="none" id="Psr\\Http\\Server\\RequestHandlerInterface&lt;-Phpolar\\Phpolar\\Http\\MiddlewareQueueRequestHandler" style="stroke: #516F42; stroke-width: 1.0; stroke-dasharray: 7.0,7.0;"/><polygon fill="none" points="284.78,179,264.78,172,284.78,165,284.78,179" style="stroke: #516F42; stroke-width: 1.0;"/><!--MD5=[8007630022231e49834248fad5c319a1]
reverse link Psr\\Http\\Server\\RequestHandlerInterface to Phpolar\\Phpolar\\Http\\RoutingHandler--><path d="M257.5,206.13 C257.5,206.13 257.5,341.5 257.5,341.5 C257.5,341.5 357.68,341.5 426.94,341.5 " fill="none" id="Psr\\Http\\Server\\RequestHandlerInterface&lt;-Phpolar\\Phpolar\\Http\\RoutingHandler" style="stroke: #516F42; stroke-width: 1.0; stroke-dasharray: 7.0,7.0;"/><polygon fill="none" points="250.5,206.13,257.5,186.13,264.5,206.13,250.5,206.13" style="stroke: #516F42; stroke-width: 1.0;"/><!--MD5=[a99784d97307c6a3b2964acff219c718]
reverse link Psr\\Http\\Server\\MiddlewareInterface to Phpolar\\Phpolar\\Http\\RoutingMiddleware--><path d="M246.5,273.13 C246.5,273.13 246.5,408.5 246.5,408.5 C246.5,408.5 344.31,408.5 416.33,408.5 " fill="none" id="Psr\\Http\\Server\\MiddlewareInterface&lt;-Phpolar\\Phpolar\\Http\\RoutingMiddleware" style="stroke: #516F42; stroke-width: 1.0; stroke-dasharray: 7.0,7.0;"/><polygon fill="none" points="239.5,273.13,246.5,253.13,253.5,273.13,239.5,273.13" style="stroke: #516F42; stroke-width: 1.0;"/><!--MD5=[2a57cf4f81d7149ee545a50de02b8f7b]
@startuml
   skinparam ArrowColor #516f42
   skinparam activityBorderColor #516f42
   skinparam activityBackgroundColor #ffffff
   skinparam activityDiamondBorderColor #516f42
   skinparam activityDiamondBackgroundColor #ffffff
   skinparam shadowing false

skinparam shadowing false
skinparam linetype ortho
hide empty members
left to right direction
set namespaceSeparator \\


class \\Phpolar\\Phpolar\\App {
}

abstract class \\Phpolar\\Phpolar\\Auth\\AbstractProtectedRoutable implements \\Phpolar\\Routable\\RoutableInterface {
}

class \\Phpolar\\Phpolar\\Auth\\Authenticate {
}

class \\Phpolar\\Phpolar\\Auth\\ProtectedRoutableResolver implements \\Phpolar\\Routable\\RoutableResolverInterface {
}

class \\Phpolar\\Phpolar\\Auth\\User {
}

class \\Phpolar\\Phpolar\\DependencyInjection\\ContainerLoader {
}

class \\Phpolar\\Phpolar\\DependencyInjection\\DiTokens {
}

class \\Phpolar\\Phpolar\\Http\\ErrorHandler implements \\Psr\\Http\\Server\\RequestHandlerInterface {
}

class \\Phpolar\\Phpolar\\Http\\MiddlewareQueueRequestHandler implements \\Psr\\Http\\Server\\RequestHandlerInterface {
}

class \\Phpolar\\Phpolar\\Http\\ResolvedRoute {
}

class \\Phpolar\\Phpolar\\Http\\RouteRegistry {
}

class \\Phpolar\\Phpolar\\Http\\RoutingHandler implements \\Psr\\Http\\Server\\RequestHandlerInterface {
}

class \\Phpolar\\Phpolar\\Http\\RoutingMiddleware implements \\Psr\\Http\\Server\\MiddlewareInterface {
}

@enduml

PlantUML version 1.2020.02(Sun Mar 01 04:22:07 CST 2020)
(GPL source distribution)
Java Runtime: OpenJDK Runtime Environment
JVM: OpenJDK 64-Bit Server VM
Java Version: 11.0.19+7-post-Ubuntu-0ubuntu122.04.1
Operating System: Linux
Default Encoding: UTF-8
Language: en
Country: US
--></g></svg>