<svg xmlns="http://www.w3.org/2000/svg" xmlns:xlink="http://www.w3.org/1999/xlink" contentStyleType="text/css" data-diagram-type="CLASS" height="1461px" preserveAspectRatio="none" style="width:949px;height:1461px;background:#FFFFFF;" version="1.1" viewBox="0 0 949 1461" width="949px" zoomAndPan="magnify"><defs/><g><!--cluster Phpolar--><g class="cluster" data-entity="Phpolar" data-source-line="15" data-uid="ent0004" id="cluster_Phpolar"><path d="M16.5,4 L78.5176,4 A3.75,3.75 0 0 1 81.0176,6.5 L88.0176,26.2969 L939.5,26.2969 A2.5,2.5 0 0 1 942,28.7969 L942,1240.5 A2.5,2.5 0 0 1 939.5,1243 L16.5,1243 A2.5,2.5 0 0 1 14,1240.5 L14,6.5 A2.5,2.5 0 0 1 16.5,4" fill="none" style="stroke:#000000;stroke-width:1.5;"/><line style="stroke:#000000;stroke-width:1.5;" x1="14" x2="88.0176" y1="26.2969" y2="26.2969"/><text fill="#000000" font-family="sans-serif" font-size="14" font-weight="bold" lengthAdjust="spacing" textLength="61.0176" x="18" y="18.9951">Phpolar</text></g><!--cluster Phpolar--><g class="cluster" data-entity="Phpolar" data-source-line="14" data-uid="ent0002" id="cluster_Phpolar"><path d="M334.5,31 L396.5176,31 A3.75,3.75 0 0 1 399.0176,33.5 L406.0176,53.2969 L931.5,53.2969 A2.5,2.5 0 0 1 934,55.7969 L934,1232.5 A2.5,2.5 0 0 1 931.5,1235 L334.5,1235 A2.5,2.5 0 0 1 332,1232.5 L332,33.5 A2.5,2.5 0 0 1 334.5,31" fill="none" style="stroke:#000000;stroke-width:1.5;"/><line style="stroke:#000000;stroke-width:1.5;" x1="332" x2="406.0176" y1="53.2969" y2="53.2969"/><text fill="#000000" font-family="sans-serif" font-size="14" font-weight="bold" lengthAdjust="spacing" textLength="61.0176" x="336" y="45.9951">Phpolar</text></g><!--cluster Auth--><g class="cluster" data-entity="Auth" data-source-line="22" data-uid="ent0007" id="cluster_Auth"><path d="M342.5,58 L380.9609,58 A3.75,3.75 0 0 1 383.4609,60.5 L390.4609,80.2969 L691.5,80.2969 A2.5,2.5 0 0 1 694,82.7969 L694,372.5 A2.5,2.5 0 0 1 691.5,375 L342.5,375 A2.5,2.5 0 0 1 340,372.5 L340,60.5 A2.5,2.5 0 0 1 342.5,58" fill="none" style="stroke:#000000;stroke-width:1.5;"/><line style="stroke:#000000;stroke-width:1.5;" x1="340" x2="390.4609" y1="80.2969" y2="80.2969"/><text fill="#000000" font-family="sans-serif" font-size="14" font-weight="bold" lengthAdjust="spacing" textLength="37.4609" x="344" y="72.9951">Auth</text></g><!--cluster DependencyInjection--><g class="cluster" data-entity="DependencyInjection" data-source-line="50" data-uid="ent0019" id="cluster_DependencyInjection"><path d="M437,383 L604.3525,383 A3.75,3.75 0 0 1 606.8525,385.5 L613.8525,405.2969 L861,405.2969 A2.5,2.5 0 0 1 863.5,407.7969 L863.5,497.5 A2.5,2.5 0 0 1 861,500 L437,500 A2.5,2.5 0 0 1 434.5,497.5 L434.5,385.5 A2.5,2.5 0 0 1 437,383" fill="none" style="stroke:#000000;stroke-width:1.5;"/><line style="stroke:#000000;stroke-width:1.5;" x1="434.5" x2="613.8525" y1="405.2969" y2="405.2969"/><text fill="#000000" font-family="sans-serif" font-size="14" font-weight="bold" lengthAdjust="spacing" textLength="166.3525" x="438.5" y="397.9951">DependencyInjection</text></g><!--cluster Http--><g class="cluster" data-entity="Http" data-source-line="62" data-uid="ent0023" id="cluster_Http"><path d="M376,508 L412.123,508 A3.75,3.75 0 0 1 414.623,510.5 L421.623,530.2969 L923.5,530.2969 A2.5,2.5 0 0 1 926,532.7969 L926,1182.5 A2.5,2.5 0 0 1 923.5,1185 L376,1185 A2.5,2.5 0 0 1 373.5,1182.5 L373.5,510.5 A2.5,2.5 0 0 1 376,508" fill="none" style="stroke:#000000;stroke-width:1.5;"/><line style="stroke:#000000;stroke-width:1.5;" x1="373.5" x2="421.623" y1="530.2969" y2="530.2969"/><text fill="#000000" font-family="sans-serif" font-size="14" font-weight="bold" lengthAdjust="spacing" textLength="35.123" x="377.5" y="522.9951">Http</text></g><!--cluster Status--><g class="cluster" data-entity="Status" data-source-line="139" data-uid="ent0056" id="cluster_Status"><path d="M445,535 L497.2148,535 A3.75,3.75 0 0 1 499.7148,537.5 L506.7148,557.2969 L896.5,557.2969 A2.5,2.5 0 0 1 899,559.7969 L899,684.5 A2.5,2.5 0 0 1 896.5,687 L445,687 A2.5,2.5 0 0 1 442.5,684.5 L442.5,537.5 A2.5,2.5 0 0 1 445,535" fill="none" style="stroke:#000000;stroke-width:1.5;"/><line style="stroke:#000000;stroke-width:1.5;" x1="442.5" x2="506.7148" y1="557.2969" y2="557.2969"/><text fill="#000000" font-family="sans-serif" font-size="14" font-weight="bold" lengthAdjust="spacing" textLength="51.2148" x="446.5" y="549.9951">Status</text></g><!--cluster ClientError--><g class="cluster" data-entity="ClientError" data-source-line="138" data-uid="ent0054" id="cluster_ClientError"><path d="M453,562 L539.9209,562 A3.75,3.75 0 0 1 542.4209,564.5 L549.4209,584.2969 L888.5,584.2969 A2.5,2.5 0 0 1 891,586.7969 L891,676.5 A2.5,2.5 0 0 1 888.5,679 L453,679 A2.5,2.5 0 0 1 450.5,676.5 L450.5,564.5 A2.5,2.5 0 0 1 453,562" fill="none" style="stroke:#000000;stroke-width:1.5;"/><line style="stroke:#000000;stroke-width:1.5;" x1="450.5" x2="549.4209" y1="584.2969" y2="584.2969"/><text fill="#000000" font-family="sans-serif" font-size="14" font-weight="bold" lengthAdjust="spacing" textLength="85.9209" x="454.5" y="576.9951">ClientError</text></g><!--cluster HttpRequestProcessor--><g class="cluster" data-entity="HttpRequestProcessor" data-source-line="18" data-uid="ent0005" id="cluster_HttpRequestProcessor"><path d="M24.5,146 L203.1729,146 A3.75,3.75 0 0 1 205.6729,148.5 L212.6729,168.2969 L317.5,168.2969 A2.5,2.5 0 0 1 320,170.7969 L320,334.5 A2.5,2.5 0 0 1 317.5,337 L24.5,337 A2.5,2.5 0 0 1 22,334.5 L22,148.5 A2.5,2.5 0 0 1 24.5,146" fill="none" style="stroke:#000000;stroke-width:1.5;"/><line style="stroke:#000000;stroke-width:1.5;" x1="22" x2="212.6729" y1="168.2969" y2="168.2969"/><text fill="#000000" font-family="sans-serif" font-size="14" font-weight="bold" lengthAdjust="spacing" textLength="177.6729" x="26" y="160.9951">HttpRequestProcessor</text></g><!--cluster Psr--><g class="cluster" data-entity="Psr" data-source-line="71" data-uid="ent0029" id="cluster_Psr"><path d="M46,1251 L72.498,1251 A3.75,3.75 0 0 1 74.998,1253.5 L81.998,1273.2969 L296,1273.2969 A2.5,2.5 0 0 1 298.5,1275.7969 L298.5,1451.5 A2.5,2.5 0 0 1 296,1454 L46,1454 A2.5,2.5 0 0 1 43.5,1451.5 L43.5,1253.5 A2.5,2.5 0 0 1 46,1251" fill="none" style="stroke:#000000;stroke-width:1.5;"/><line style="stroke:#000000;stroke-width:1.5;" x1="43.5" x2="81.998" y1="1273.2969" y2="1273.2969"/><text fill="#000000" font-family="sans-serif" font-size="14" font-weight="bold" lengthAdjust="spacing" textLength="25.498" x="47.5" y="1265.9951">Psr</text></g><!--cluster Http--><g class="cluster" data-entity="Http" data-source-line="71" data-uid="ent0030" id="cluster_Http"><path d="M54,1278 L90.123,1278 A3.75,3.75 0 0 1 92.623,1280.5 L99.623,1300.2969 L288,1300.2969 A2.5,2.5 0 0 1 290.5,1302.7969 L290.5,1443.5 A2.5,2.5 0 0 1 288,1446 L54,1446 A2.5,2.5 0 0 1 51.5,1443.5 L51.5,1280.5 A2.5,2.5 0 0 1 54,1278" fill="none" style="stroke:#000000;stroke-width:1.5;"/><line style="stroke:#000000;stroke-width:1.5;" x1="51.5" x2="99.623" y1="1300.2969" y2="1300.2969"/><text fill="#000000" font-family="sans-serif" font-size="14" font-weight="bold" lengthAdjust="spacing" textLength="35.123" x="55.5" y="1292.9951">Http</text></g><!--cluster Server--><g class="cluster" data-entity="Server" data-source-line="70" data-uid="ent0027" id="cluster_Server"><path d="M62,1305 L115.0078,1305 A3.75,3.75 0 0 1 117.5078,1307.5 L124.5078,1327.2969 L280,1327.2969 A2.5,2.5 0 0 1 282.5,1329.7969 L282.5,1435.5 A2.5,2.5 0 0 1 280,1438 L62,1438 A2.5,2.5 0 0 1 59.5,1435.5 L59.5,1307.5 A2.5,2.5 0 0 1 62,1305" fill="none" style="stroke:#000000;stroke-width:1.5;"/><line style="stroke:#000000;stroke-width:1.5;" x1="59.5" x2="124.5078" y1="1327.2969" y2="1327.2969"/><text fill="#000000" font-family="sans-serif" font-size="14" font-weight="bold" lengthAdjust="spacing" textLength="52.0078" x="63.5" y="1319.9951">Server</text></g><!--class App__class--><g class="entity" data-entity="App__class" data-source-line="15" data-uid="ent0003" id="entity_App__class"><rect fill="#F1F1F1" height="32" rx="2.5" ry="2.5" style="stroke:#181818;stroke-width:0.5;" width="59.3506" x="487.5" y="1195"/><ellipse cx="502.5" cy="1211" fill="#ADD1B2" rx="11" ry="11" style="stroke:#181818;stroke-width:1;"/><path d="M505.4688,1216.6406 Q504.8906,1216.9375 504.25,1217.0781 Q503.6094,1217.2344 502.9063,1217.2344 Q500.4063,1217.2344 499.0781,1215.5938 Q497.7656,1213.9375 497.7656,1210.8125 Q497.7656,1207.6875 499.0781,1206.0313 Q500.4063,1204.375 502.9063,1204.375 Q503.6094,1204.375 504.25,1204.5313 Q504.9063,1204.6875 505.4688,1204.9844 L505.4688,1207.7031 Q504.8438,1207.125 504.25,1206.8594 Q503.6563,1206.5781 503.0313,1206.5781 Q501.6875,1206.5781 501,1207.6563 Q500.3125,1208.7188 500.3125,1210.8125 Q500.3125,1212.9063 501,1213.9844 Q501.6875,1215.0469 503.0313,1215.0469 Q503.6563,1215.0469 504.25,1214.7813 Q504.8438,1214.5 505.4688,1213.9219 L505.4688,1216.6406 Z " fill="#000000"/><text fill="#000000" font-family="sans-serif" font-size="14" lengthAdjust="spacing" textLength="27.3506" x="516.5" y="1215.8467">App</text></g><!--class AbstractProtectedRoutable__class--><g class="entity" data-entity="AbstractProtectedRoutable__class" data-source-line="23" data-uid="ent0008" id="entity_AbstractProtectedRoutable__class"><rect fill="#F1F1F1" height="32" rx="2.5" ry="2.5" style="stroke:#181818;stroke-width:0.5;" width="220.9453" x="406.5" y="85"/><ellipse cx="421.5" cy="101" fill="#A9DCDF" rx="11" ry="11" style="stroke:#181818;stroke-width:1;"/><path d="M421.6094,96.3438 L420.4531,101.4219 L422.7813,101.4219 L421.6094,96.3438 Z M420.125,94.1094 L423.1094,94.1094 L426.4688,106.5 L424.0156,106.5 L423.25,103.4375 L419.9688,103.4375 L419.2188,106.5 L416.7813,106.5 L420.125,94.1094 Z " fill="#000000"/><text fill="#000000" font-family="sans-serif" font-size="14" font-style="italic" lengthAdjust="spacing" textLength="188.9453" x="435.5" y="105.8467">AbstractProtectedRoutable</text></g><!--class AbstractRestrictedAccessRequestProcessor__class--><g class="entity" data-entity="AbstractRestrictedAccessRequestProcessor__class" data-source-line="27" data-uid="ent0010" id="entity_AbstractRestrictedAccessRequestProcessor__class"><rect fill="#F1F1F1" height="32" rx="2.5" ry="2.5" style="stroke:#181818;stroke-width:0.5;" width="335.8779" x="349" y="135"/><ellipse cx="364" cy="151" fill="#A9DCDF" rx="11" ry="11" style="stroke:#181818;stroke-width:1;"/><path d="M364.1094,146.3438 L362.9531,151.4219 L365.2813,151.4219 L364.1094,146.3438 Z M362.625,144.1094 L365.6094,144.1094 L368.9688,156.5 L366.5156,156.5 L365.75,153.4375 L362.4688,153.4375 L361.7188,156.5 L359.2813,156.5 L362.625,144.1094 Z " fill="#000000"/><text fill="#000000" font-family="sans-serif" font-size="14" font-style="italic" lengthAdjust="spacing" textLength="303.8779" x="378" y="155.8467">AbstractRestrictedAccessRequestProcessor</text></g><!--class Authorize__class--><g class="entity" data-entity="Authorize__class" data-source-line="31" data-uid="ent0012" id="entity_Authorize__class"><rect fill="#F1F1F1" height="32" rx="2.5" ry="2.5" style="stroke:#181818;stroke-width:0.5;" width="98.9854" x="467.5" y="185"/><ellipse cx="482.5" cy="201" fill="#ADD1B2" rx="11" ry="11" style="stroke:#181818;stroke-width:1;"/><path d="M485.4688,206.6406 Q484.8906,206.9375 484.25,207.0781 Q483.6094,207.2344 482.9063,207.2344 Q480.4063,207.2344 479.0781,205.5938 Q477.7656,203.9375 477.7656,200.8125 Q477.7656,197.6875 479.0781,196.0313 Q480.4063,194.375 482.9063,194.375 Q483.6094,194.375 484.25,194.5313 Q484.9063,194.6875 485.4688,194.9844 L485.4688,197.7031 Q484.8438,197.125 484.25,196.8594 Q483.6563,196.5781 483.0313,196.5781 Q481.6875,196.5781 481,197.6563 Q480.3125,198.7188 480.3125,200.8125 Q480.3125,202.9063 481,203.9844 Q481.6875,205.0469 483.0313,205.0469 Q483.6563,205.0469 484.25,204.7813 Q484.8438,204.5 485.4688,203.9219 L485.4688,206.6406 Z " fill="#000000"/><text fill="#000000" font-family="sans-serif" font-size="14" lengthAdjust="spacing" textLength="66.9854" x="496.5" y="205.8467">Authorize</text></g><!--class ProtectedRoutableResolver__class--><g class="entity" data-entity="ProtectedRoutableResolver__class" data-source-line="39" data-uid="ent0014" id="entity_ProtectedRoutableResolver__class"><rect fill="#F1F1F1" height="32" rx="2.5" ry="2.5" style="stroke:#181818;stroke-width:0.5;" width="222.9209" x="405.5" y="235"/><ellipse cx="420.5" cy="251" fill="#ADD1B2" rx="11" ry="11" style="stroke:#181818;stroke-width:1;"/><path d="M423.4688,256.6406 Q422.8906,256.9375 422.25,257.0781 Q421.6094,257.2344 420.9063,257.2344 Q418.4063,257.2344 417.0781,255.5938 Q415.7656,253.9375 415.7656,250.8125 Q415.7656,247.6875 417.0781,246.0313 Q418.4063,244.375 420.9063,244.375 Q421.6094,244.375 422.25,244.5313 Q422.9063,244.6875 423.4688,244.9844 L423.4688,247.7031 Q422.8438,247.125 422.25,246.8594 Q421.6563,246.5781 421.0313,246.5781 Q419.6875,246.5781 419,247.6563 Q418.3125,248.7188 418.3125,250.8125 Q418.3125,252.9063 419,253.9844 Q419.6875,255.0469 421.0313,255.0469 Q421.6563,255.0469 422.25,254.7813 Q422.8438,254.5 423.4688,253.9219 L423.4688,256.6406 Z " fill="#000000"/><text fill="#000000" font-family="sans-serif" font-size="14" lengthAdjust="spacing" textLength="190.9209" x="434.5" y="255.8467">ProtectedRoutableResolver</text></g><!--class RestrictedAccessRequestProcessorResolver__class--><g class="entity" data-entity="RestrictedAccessRequestProcessorResolver__class" data-source-line="43" data-uid="ent0016" id="entity_RestrictedAccessRequestProcessorResolver__class"><rect fill="#F1F1F1" height="32" rx="2.5" ry="2.5" style="stroke:#181818;stroke-width:0.5;" width="337.8535" x="348" y="285"/><ellipse cx="363" cy="301" fill="#ADD1B2" rx="11" ry="11" style="stroke:#181818;stroke-width:1;"/><path d="M365.9688,306.6406 Q365.3906,306.9375 364.75,307.0781 Q364.1094,307.2344 363.4063,307.2344 Q360.9063,307.2344 359.5781,305.5938 Q358.2656,303.9375 358.2656,300.8125 Q358.2656,297.6875 359.5781,296.0313 Q360.9063,294.375 363.4063,294.375 Q364.1094,294.375 364.75,294.5313 Q365.4063,294.6875 365.9688,294.9844 L365.9688,297.7031 Q365.3438,297.125 364.75,296.8594 Q364.1563,296.5781 363.5313,296.5781 Q362.1875,296.5781 361.5,297.6563 Q360.8125,298.7188 360.8125,300.8125 Q360.8125,302.9063 361.5,303.9844 Q362.1875,305.0469 363.5313,305.0469 Q364.1563,305.0469 364.75,304.7813 Q365.3438,304.5 365.9688,303.9219 L365.9688,306.6406 Z " fill="#000000"/><text fill="#000000" font-family="sans-serif" font-size="14" lengthAdjust="spacing" textLength="305.8535" x="377" y="305.8467">RestrictedAccessRequestProcessorResolver</text></g><!--class User__class--><g class="entity" data-entity="User__class" data-source-line="47" data-uid="ent0018" id="entity_User__class"><rect fill="#F1F1F1" height="32" rx="2.5" ry="2.5" style="stroke:#181818;stroke-width:0.5;" width="63.9102" x="485" y="335"/><ellipse cx="500" cy="351" fill="#ADD1B2" rx="11" ry="11" style="stroke:#181818;stroke-width:1;"/><path d="M502.9688,356.6406 Q502.3906,356.9375 501.75,357.0781 Q501.1094,357.2344 500.4063,357.2344 Q497.9063,357.2344 496.5781,355.5938 Q495.2656,353.9375 495.2656,350.8125 Q495.2656,347.6875 496.5781,346.0313 Q497.9063,344.375 500.4063,344.375 Q501.1094,344.375 501.75,344.5313 Q502.4063,344.6875 502.9688,344.9844 L502.9688,347.7031 Q502.3438,347.125 501.75,346.8594 Q501.1563,346.5781 500.5313,346.5781 Q499.1875,346.5781 498.5,347.6563 Q497.8125,348.7188 497.8125,350.8125 Q497.8125,352.9063 498.5,353.9844 Q499.1875,355.0469 500.5313,355.0469 Q501.1563,355.0469 501.75,354.7813 Q502.3438,354.5 502.9688,353.9219 L502.9688,356.6406 Z " fill="#000000"/><text fill="#000000" font-family="sans-serif" font-size="14" lengthAdjust="spacing" textLength="31.9102" x="514" y="355.8467">User</text></g><!--class ContainerLoader__class--><g class="entity" data-entity="ContainerLoader__class" data-source-line="51" data-uid="ent0020" id="entity_ContainerLoader__class"><rect fill="#F1F1F1" height="32" rx="2.5" ry="2.5" style="stroke:#181818;stroke-width:0.5;" width="148.6143" x="442.5" y="460"/><ellipse cx="457.5" cy="476" fill="#ADD1B2" rx="11" ry="11" style="stroke:#181818;stroke-width:1;"/><path d="M460.4688,481.6406 Q459.8906,481.9375 459.25,482.0781 Q458.6094,482.2344 457.9063,482.2344 Q455.4063,482.2344 454.0781,480.5938 Q452.7656,478.9375 452.7656,475.8125 Q452.7656,472.6875 454.0781,471.0313 Q455.4063,469.375 457.9063,469.375 Q458.6094,469.375 459.25,469.5313 Q459.9063,469.6875 460.4688,469.9844 L460.4688,472.7031 Q459.8438,472.125 459.25,471.8594 Q458.6563,471.5781 458.0313,471.5781 Q456.6875,471.5781 456,472.6563 Q455.3125,473.7188 455.3125,475.8125 Q455.3125,477.9063 456,478.9844 Q456.6875,480.0469 458.0313,480.0469 Q458.6563,480.0469 459.25,479.7813 Q459.8438,479.5 460.4688,478.9219 L460.4688,481.6406 Z " fill="#000000"/><text fill="#000000" font-family="sans-serif" font-size="14" lengthAdjust="spacing" textLength="116.6143" x="471.5" y="480.8467">ContainerLoader</text></g><!--class DiTokens__class--><g class="entity" data-entity="DiTokens__class" data-source-line="55" data-uid="ent0021" id="entity_DiTokens__class"><rect fill="#F1F1F1" height="32" rx="2.5" ry="2.5" style="stroke:#181818;stroke-width:0.5;" width="96.6748" x="468.5" y="410"/><ellipse cx="483.5" cy="426" fill="#ADD1B2" rx="11" ry="11" style="stroke:#181818;stroke-width:1;"/><path d="M486.4688,431.6406 Q485.8906,431.9375 485.25,432.0781 Q484.6094,432.2344 483.9063,432.2344 Q481.4063,432.2344 480.0781,430.5938 Q478.7656,428.9375 478.7656,425.8125 Q478.7656,422.6875 480.0781,421.0313 Q481.4063,419.375 483.9063,419.375 Q484.6094,419.375 485.25,419.5313 Q485.9063,419.6875 486.4688,419.9844 L486.4688,422.7031 Q485.8438,422.125 485.25,421.8594 Q484.6563,421.5781 484.0313,421.5781 Q482.6875,421.5781 482,422.6563 Q481.3125,423.7188 481.3125,425.8125 Q481.3125,427.9063 482,428.9844 Q482.6875,430.0469 484.0313,430.0469 Q484.6563,430.0469 485.25,429.7813 Q485.8438,429.5 486.4688,428.9219 L486.4688,431.6406 Z " fill="#000000"/><text fill="#000000" font-family="sans-serif" font-size="14" lengthAdjust="spacing" textLength="64.6748" x="497.5" y="430.8467">DiTokens</text></g><!--class Globs__enum--><g class="entity" data-entity="Globs__enum" data-source-line="59" data-uid="ent0022" id="entity_Globs__enum"><rect fill="#F1F1F1" height="32" rx="2.5" ry="2.5" style="stroke:#181818;stroke-width:0.5;" width="71.4844" x="784.5" y="460"/><ellipse cx="799.5" cy="476" fill="#EB937F" rx="11" ry="11" style="stroke:#181818;stroke-width:1;"/><path d="M803.6094,482 L795.8906,482 L795.8906,469.6094 L803.6094,469.6094 L803.6094,471.7656 L798.3438,471.7656 L798.3438,474.4375 L803.1094,474.4375 L803.1094,476.5938 L798.3438,476.5938 L798.3438,479.8438 L803.6094,479.8438 L803.6094,482 Z " fill="#000000"/><text fill="#000000" font-family="sans-serif" font-size="14" lengthAdjust="spacing" textLength="39.4844" x="813.5" y="480.8467">Globs</text></g><!--class AuthorizationCheckerInterface__interface--><g class="entity" data-entity="AuthorizationCheckerInterface__interface" data-source-line="63" data-uid="ent0024" id="entity_AuthorizationCheckerInterface__interface"><rect fill="#F1F1F1" height="32" rx="2.5" ry="2.5" style="stroke:#181818;stroke-width:0.5;" width="245.8828" x="394" y="695"/><ellipse cx="409" cy="711" fill="#B4A7E5" rx="11" ry="11" style="stroke:#181818;stroke-width:1;"/><path d="M404.9219,706.7656 L404.9219,704.6094 L412.3125,704.6094 L412.3125,706.7656 L409.8438,706.7656 L409.8438,714.8438 L412.3125,714.8438 L412.3125,717 L404.9219,717 L404.9219,714.8438 L407.3906,714.8438 L407.3906,706.7656 L404.9219,706.7656 Z " fill="#000000"/><text fill="#000000" font-family="sans-serif" font-size="14" font-style="italic" lengthAdjust="spacing" textLength="213.8828" x="423" y="715.8467">AuthorizationCheckerInterface</text></g><!--class AuthorizationChecker__class--><g class="entity" data-entity="AuthorizationChecker__class" data-source-line="67" data-uid="ent0025" id="entity_AuthorizationChecker__class"><rect fill="#F1F1F1" height="32" rx="2.5" ry="2.5" style="stroke:#181818;stroke-width:0.5;" width="183.2041" x="728.5" y="695"/><ellipse cx="743.5" cy="711" fill="#ADD1B2" rx="11" ry="11" style="stroke:#181818;stroke-width:1;"/><path d="M746.4688,716.6406 Q745.8906,716.9375 745.25,717.0781 Q744.6094,717.2344 743.9063,717.2344 Q741.4063,717.2344 740.0781,715.5938 Q738.7656,713.9375 738.7656,710.8125 Q738.7656,707.6875 740.0781,706.0313 Q741.4063,704.375 743.9063,704.375 Q744.6094,704.375 745.25,704.5313 Q745.9063,704.6875 746.4688,704.9844 L746.4688,707.7031 Q745.8438,707.125 745.25,706.8594 Q744.6563,706.5781 744.0313,706.5781 Q742.6875,706.5781 742,707.6563 Q741.3125,708.7188 741.3125,710.8125 Q741.3125,712.9063 742,713.9844 Q742.6875,715.0469 744.0313,715.0469 Q744.6563,715.0469 745.25,714.7813 Q745.8438,714.5 746.4688,713.9219 L746.4688,716.6406 Z " fill="#000000"/><text fill="#000000" font-family="sans-serif" font-size="14" lengthAdjust="spacing" textLength="151.2041" x="757.5" y="715.8467">AuthorizationChecker</text></g><!--class MiddlewareQueueRequestHandler__class--><g class="entity" data-entity="MiddlewareQueueRequestHandler__class" data-source-line="75" data-uid="ent0031" id="entity_MiddlewareQueueRequestHandler__class"><rect fill="#F1F1F1" height="32" rx="2.5" ry="2.5" style="stroke:#181818;stroke-width:0.5;" width="271.2578" x="381.5" y="995"/><ellipse cx="396.5" cy="1011" fill="#ADD1B2" rx="11" ry="11" style="stroke:#181818;stroke-width:1;"/><path d="M399.4688,1016.6406 Q398.8906,1016.9375 398.25,1017.0781 Q397.6094,1017.2344 396.9063,1017.2344 Q394.4063,1017.2344 393.0781,1015.5938 Q391.7656,1013.9375 391.7656,1010.8125 Q391.7656,1007.6875 393.0781,1006.0313 Q394.4063,1004.375 396.9063,1004.375 Q397.6094,1004.375 398.25,1004.5313 Q398.9063,1004.6875 399.4688,1004.9844 L399.4688,1007.7031 Q398.8438,1007.125 398.25,1006.8594 Q397.6563,1006.5781 397.0313,1006.5781 Q395.6875,1006.5781 395,1007.6563 Q394.3125,1008.7188 394.3125,1010.8125 Q394.3125,1012.9063 395,1013.9844 Q395.6875,1015.0469 397.0313,1015.0469 Q397.6563,1015.0469 398.25,1014.7813 Q398.8438,1014.5 399.4688,1013.9219 L399.4688,1016.6406 Z " fill="#000000"/><text fill="#000000" font-family="sans-serif" font-size="14" lengthAdjust="spacing" textLength="239.2578" x="410.5" y="1015.8467">MiddlewareQueueRequestHandler</text></g><!--class PathVariableBindings__class--><g class="entity" data-entity="PathVariableBindings__class" data-source-line="79" data-uid="ent0033" id="entity_PathVariableBindings__class"><rect fill="#F1F1F1" height="32" rx="2.5" ry="2.5" style="stroke:#181818;stroke-width:0.5;" width="181.3516" x="426.5" y="845"/><ellipse cx="441.5" cy="861" fill="#ADD1B2" rx="11" ry="11" style="stroke:#181818;stroke-width:1;"/><path d="M444.4688,866.6406 Q443.8906,866.9375 443.25,867.0781 Q442.6094,867.2344 441.9063,867.2344 Q439.4063,867.2344 438.0781,865.5938 Q436.7656,863.9375 436.7656,860.8125 Q436.7656,857.6875 438.0781,856.0313 Q439.4063,854.375 441.9063,854.375 Q442.6094,854.375 443.25,854.5313 Q443.9063,854.6875 444.4688,854.9844 L444.4688,857.7031 Q443.8438,857.125 443.25,856.8594 Q442.6563,856.5781 442.0313,856.5781 Q440.6875,856.5781 440,857.6563 Q439.3125,858.7188 439.3125,860.8125 Q439.3125,862.9063 440,863.9844 Q440.6875,865.0469 442.0313,865.0469 Q442.6563,865.0469 443.25,864.7813 Q443.8438,864.5 444.4688,863.9219 L444.4688,866.6406 Z " fill="#000000"/><text fill="#000000" font-family="sans-serif" font-size="14" lengthAdjust="spacing" textLength="149.3516" x="455.5" y="865.8467">PathVariableBindings</text></g><!--class Representations__class--><g class="entity" data-entity="Representations__class" data-source-line="83" data-uid="ent0034" id="entity_Representations__class"><rect fill="#F1F1F1" height="32" rx="2.5" ry="2.5" style="stroke:#181818;stroke-width:0.5;" width="146.5566" x="443.5" y="795"/><ellipse cx="458.5" cy="811" fill="#ADD1B2" rx="11" ry="11" style="stroke:#181818;stroke-width:1;"/><path d="M461.4688,816.6406 Q460.8906,816.9375 460.25,817.0781 Q459.6094,817.2344 458.9063,817.2344 Q456.4063,817.2344 455.0781,815.5938 Q453.7656,813.9375 453.7656,810.8125 Q453.7656,807.6875 455.0781,806.0313 Q456.4063,804.375 458.9063,804.375 Q459.6094,804.375 460.25,804.5313 Q460.9063,804.6875 461.4688,804.9844 L461.4688,807.7031 Q460.8438,807.125 460.25,806.8594 Q459.6563,806.5781 459.0313,806.5781 Q457.6875,806.5781 457,807.6563 Q456.3125,808.7188 456.3125,810.8125 Q456.3125,812.9063 457,813.9844 Q457.6875,815.0469 459.0313,815.0469 Q459.6563,815.0469 460.25,814.7813 Q460.8438,814.5 461.4688,813.9219 L461.4688,816.6406 Z " fill="#000000"/><text fill="#000000" font-family="sans-serif" font-size="14" lengthAdjust="spacing" textLength="114.5566" x="472.5" y="815.8467">Representations</text></g><!--class RequestAuthorizerInterface__interface--><g class="entity" data-entity="RequestAuthorizerInterface__interface" data-source-line="87" data-uid="ent0035" id="entity_RequestAuthorizerInterface__interface"><rect fill="#F1F1F1" height="32" rx="2.5" ry="2.5" style="stroke:#181818;stroke-width:0.5;" width="224.917" x="404.5" y="895"/><ellipse cx="419.5" cy="911" fill="#B4A7E5" rx="11" ry="11" style="stroke:#181818;stroke-width:1;"/><path d="M415.4219,906.7656 L415.4219,904.6094 L422.8125,904.6094 L422.8125,906.7656 L420.3438,906.7656 L420.3438,914.8438 L422.8125,914.8438 L422.8125,917 L415.4219,917 L415.4219,914.8438 L417.8906,914.8438 L417.8906,906.7656 L415.4219,906.7656 Z " fill="#000000"/><text fill="#000000" font-family="sans-serif" font-size="14" font-style="italic" lengthAdjust="spacing" textLength="192.917" x="433.5" y="915.8467">RequestAuthorizerInterface</text></g><!--class RequestAuthorizer__class--><g class="entity" data-entity="RequestAuthorizer__class" data-source-line="91" data-uid="ent0036" id="entity_RequestAuthorizer__class"><rect fill="#F1F1F1" height="32" rx="2.5" ry="2.5" style="stroke:#181818;stroke-width:0.5;" width="162.2383" x="739" y="895"/><ellipse cx="754" cy="911" fill="#ADD1B2" rx="11" ry="11" style="stroke:#181818;stroke-width:1;"/><path d="M756.9688,916.6406 Q756.3906,916.9375 755.75,917.0781 Q755.1094,917.2344 754.4063,917.2344 Q751.9063,917.2344 750.5781,915.5938 Q749.2656,913.9375 749.2656,910.8125 Q749.2656,907.6875 750.5781,906.0313 Q751.9063,904.375 754.4063,904.375 Q755.1094,904.375 755.75,904.5313 Q756.4063,904.6875 756.9688,904.9844 L756.9688,907.7031 Q756.3438,907.125 755.75,906.8594 Q755.1563,906.5781 754.5313,906.5781 Q753.1875,906.5781 752.5,907.6563 Q751.8125,908.7188 751.8125,910.8125 Q751.8125,912.9063 752.5,913.9844 Q753.1875,915.0469 754.5313,915.0469 Q755.1563,915.0469 755.75,914.7813 Q756.3438,914.5 756.9688,913.9219 L756.9688,916.6406 Z " fill="#000000"/><text fill="#000000" font-family="sans-serif" font-size="14" lengthAdjust="spacing" textLength="130.2383" x="768" y="915.8467">RequestAuthorizer</text></g><!--class RequestProcessingHandler__class--><g class="entity" data-entity="RequestProcessingHandler__class" data-source-line="95" data-uid="ent0038" id="entity_RequestProcessingHandler__class"><rect fill="#F1F1F1" height="32" rx="2.5" ry="2.5" style="stroke:#181818;stroke-width:0.5;" width="219.9336" x="407" y="1095"/><ellipse cx="422" cy="1111" fill="#ADD1B2" rx="11" ry="11" style="stroke:#181818;stroke-width:1;"/><path d="M424.9688,1116.6406 Q424.3906,1116.9375 423.75,1117.0781 Q423.1094,1117.2344 422.4063,1117.2344 Q419.9063,1117.2344 418.5781,1115.5938 Q417.2656,1113.9375 417.2656,1110.8125 Q417.2656,1107.6875 418.5781,1106.0313 Q419.9063,1104.375 422.4063,1104.375 Q423.1094,1104.375 423.75,1104.5313 Q424.4063,1104.6875 424.9688,1104.9844 L424.9688,1107.7031 Q424.3438,1107.125 423.75,1106.8594 Q423.1563,1106.5781 422.5313,1106.5781 Q421.1875,1106.5781 420.5,1107.6563 Q419.8125,1108.7188 419.8125,1110.8125 Q419.8125,1112.9063 420.5,1113.9844 Q421.1875,1115.0469 422.5313,1115.0469 Q423.1563,1115.0469 423.75,1114.7813 Q424.3438,1114.5 424.9688,1113.9219 L424.9688,1116.6406 Z " fill="#000000"/><text fill="#000000" font-family="sans-serif" font-size="14" lengthAdjust="spacing" textLength="187.9336" x="436" y="1115.8467">RequestProcessingHandler</text></g><!--class RequestProcessorExecutor__class--><g class="entity" data-entity="RequestProcessorExecutor__class" data-source-line="103" data-uid="ent0041" id="entity_RequestProcessorExecutor__class"><rect fill="#F1F1F1" height="32" rx="2.5" ry="2.5" style="stroke:#181818;stroke-width:0.5;" width="219.6055" x="407" y="745"/><ellipse cx="422" cy="761" fill="#ADD1B2" rx="11" ry="11" style="stroke:#181818;stroke-width:1;"/><path d="M424.9688,766.6406 Q424.3906,766.9375 423.75,767.0781 Q423.1094,767.2344 422.4063,767.2344 Q419.9063,767.2344 418.5781,765.5938 Q417.2656,763.9375 417.2656,760.8125 Q417.2656,757.6875 418.5781,756.0313 Q419.9063,754.375 422.4063,754.375 Q423.1094,754.375 423.75,754.5313 Q424.4063,754.6875 424.9688,754.9844 L424.9688,757.7031 Q424.3438,757.125 423.75,756.8594 Q423.1563,756.5781 422.5313,756.5781 Q421.1875,756.5781 420.5,757.6563 Q419.8125,758.7188 419.8125,760.8125 Q419.8125,762.9063 420.5,763.9844 Q421.1875,765.0469 422.5313,765.0469 Q423.1563,765.0469 423.75,764.7813 Q424.3438,764.5 424.9688,763.9219 L424.9688,766.6406 Z " fill="#000000"/><text fill="#000000" font-family="sans-serif" font-size="14" lengthAdjust="spacing" textLength="187.6055" x="436" y="765.8467">RequestProcessorExecutor</text></g><!--class ResponseBuilderInterface__interface--><g class="entity" data-entity="ResponseBuilderInterface__interface" data-source-line="107" data-uid="ent0043" id="entity_ResponseBuilderInterface__interface"><rect fill="#F1F1F1" height="32" rx="2.5" ry="2.5" style="stroke:#181818;stroke-width:0.5;" width="212.0586" x="411" y="1045"/><ellipse cx="426" cy="1061" fill="#B4A7E5" rx="11" ry="11" style="stroke:#181818;stroke-width:1;"/><path d="M421.9219,1056.7656 L421.9219,1054.6094 L429.3125,1054.6094 L429.3125,1056.7656 L426.8438,1056.7656 L426.8438,1064.8438 L429.3125,1064.8438 L429.3125,1067 L421.9219,1067 L421.9219,1064.8438 L424.3906,1064.8438 L424.3906,1056.7656 L421.9219,1056.7656 Z " fill="#000000"/><text fill="#000000" font-family="sans-serif" font-size="14" font-style="italic" lengthAdjust="spacing" textLength="180.0586" x="440" y="1065.8467">ResponseBuilderInterface</text></g><!--class ResponseBuilder__class--><g class="entity" data-entity="ResponseBuilder__class" data-source-line="111" data-uid="ent0044" id="entity_ResponseBuilder__class"><rect fill="#F1F1F1" height="32" rx="2.5" ry="2.5" style="stroke:#181818;stroke-width:0.5;" width="149.3799" x="745.5" y="1045"/><ellipse cx="760.5" cy="1061" fill="#ADD1B2" rx="11" ry="11" style="stroke:#181818;stroke-width:1;"/><path d="M763.4688,1066.6406 Q762.8906,1066.9375 762.25,1067.0781 Q761.6094,1067.2344 760.9063,1067.2344 Q758.4063,1067.2344 757.0781,1065.5938 Q755.7656,1063.9375 755.7656,1060.8125 Q755.7656,1057.6875 757.0781,1056.0313 Q758.4063,1054.375 760.9063,1054.375 Q761.6094,1054.375 762.25,1054.5313 Q762.9063,1054.6875 763.4688,1054.9844 L763.4688,1057.7031 Q762.8438,1057.125 762.25,1056.8594 Q761.6563,1056.5781 761.0313,1056.5781 Q759.6875,1056.5781 759,1057.6563 Q758.3125,1058.7188 758.3125,1060.8125 Q758.3125,1062.9063 759,1063.9844 Q759.6875,1065.0469 761.0313,1065.0469 Q761.6563,1065.0469 762.25,1064.7813 Q762.8438,1064.5 763.4688,1063.9219 L763.4688,1066.6406 Z " fill="#000000"/><text fill="#000000" font-family="sans-serif" font-size="14" lengthAdjust="spacing" textLength="117.3799" x="774.5" y="1065.8467">ResponseBuilder</text></g><!--class ResponseCodeResolver__class--><g class="entity" data-entity="ResponseCodeResolver__class" data-source-line="115" data-uid="ent0046" id="entity_ResponseCodeResolver__class"><rect fill="#F1F1F1" height="32" rx="2.5" ry="2.5" style="stroke:#181818;stroke-width:0.5;" width="196.4521" x="722" y="845"/><ellipse cx="737" cy="861" fill="#ADD1B2" rx="11" ry="11" style="stroke:#181818;stroke-width:1;"/><path d="M739.9688,866.6406 Q739.3906,866.9375 738.75,867.0781 Q738.1094,867.2344 737.4063,867.2344 Q734.9063,867.2344 733.5781,865.5938 Q732.2656,863.9375 732.2656,860.8125 Q732.2656,857.6875 733.5781,856.0313 Q734.9063,854.375 737.4063,854.375 Q738.1094,854.375 738.75,854.5313 Q739.4063,854.6875 739.9688,854.9844 L739.9688,857.7031 Q739.3438,857.125 738.75,856.8594 Q738.1563,856.5781 737.5313,856.5781 Q736.1875,856.5781 735.5,857.6563 Q734.8125,858.7188 734.8125,860.8125 Q734.8125,862.9063 735.5,863.9844 Q736.1875,865.0469 737.5313,865.0469 Q738.1563,865.0469 738.75,864.7813 Q739.3438,864.5 739.9688,863.9219 L739.9688,866.6406 Z " fill="#000000"/><text fill="#000000" font-family="sans-serif" font-size="14" lengthAdjust="spacing" textLength="164.4521" x="751" y="865.8467">ResponseCodeResolver</text></g><!--class RoutingMiddleware__class--><g class="entity" data-entity="RoutingMiddleware__class" data-source-line="123" data-uid="ent0048" id="entity_RoutingMiddleware__class"><rect fill="#F1F1F1" height="32" rx="2.5" ry="2.5" style="stroke:#181818;stroke-width:0.5;" width="166.9482" x="433.5" y="945"/><ellipse cx="448.5" cy="961" fill="#ADD1B2" rx="11" ry="11" style="stroke:#181818;stroke-width:1;"/><path d="M451.4688,966.6406 Q450.8906,966.9375 450.25,967.0781 Q449.6094,967.2344 448.9063,967.2344 Q446.4063,967.2344 445.0781,965.5938 Q443.7656,963.9375 443.7656,960.8125 Q443.7656,957.6875 445.0781,956.0313 Q446.4063,954.375 448.9063,954.375 Q449.6094,954.375 450.25,954.5313 Q450.9063,954.6875 451.4688,954.9844 L451.4688,957.7031 Q450.8438,957.125 450.25,956.8594 Q449.6563,956.5781 449.0313,956.5781 Q447.6875,956.5781 447,957.6563 Q446.3125,958.7188 446.3125,960.8125 Q446.3125,962.9063 447,963.9844 Q447.6875,965.0469 449.0313,965.0469 Q449.6563,965.0469 450.25,964.7813 Q450.8438,964.5 451.4688,963.9219 L451.4688,966.6406 Z " fill="#000000"/><text fill="#000000" font-family="sans-serif" font-size="14" lengthAdjust="spacing" textLength="134.9482" x="462.5" y="965.8467">RoutingMiddleware</text></g><!--class ServerInterface__interface--><g class="entity" data-entity="ServerInterface__interface" data-source-line="127" data-uid="ent0050" id="entity_ServerInterface__interface"><rect fill="#F1F1F1" height="32" rx="2.5" ry="2.5" style="stroke:#181818;stroke-width:0.5;" width="140.5889" x="446.5" y="1145"/><ellipse cx="461.5" cy="1161" fill="#B4A7E5" rx="11" ry="11" style="stroke:#181818;stroke-width:1;"/><path d="M457.4219,1156.7656 L457.4219,1154.6094 L464.8125,1154.6094 L464.8125,1156.7656 L462.3438,1156.7656 L462.3438,1164.8438 L464.8125,1164.8438 L464.8125,1167 L457.4219,1167 L457.4219,1164.8438 L459.8906,1164.8438 L459.8906,1156.7656 L457.4219,1156.7656 Z " fill="#000000"/><text fill="#000000" font-family="sans-serif" font-size="14" font-style="italic" lengthAdjust="spacing" textLength="108.5889" x="475.5" y="1165.8467">ServerInterface</text></g><!--class Server__class--><g class="entity" data-entity="Server__class" data-source-line="131" data-uid="ent0051" id="entity_Server__class"><rect fill="#F1F1F1" height="32" rx="2.5" ry="2.5" style="stroke:#181818;stroke-width:0.5;" width="77.9102" x="781" y="1145"/><ellipse cx="796" cy="1161" fill="#ADD1B2" rx="11" ry="11" style="stroke:#181818;stroke-width:1;"/><path d="M798.9688,1166.6406 Q798.3906,1166.9375 797.75,1167.0781 Q797.1094,1167.2344 796.4063,1167.2344 Q793.9063,1167.2344 792.5781,1165.5938 Q791.2656,1163.9375 791.2656,1160.8125 Q791.2656,1157.6875 792.5781,1156.0313 Q793.9063,1154.375 796.4063,1154.375 Q797.1094,1154.375 797.75,1154.5313 Q798.4063,1154.6875 798.9688,1154.9844 L798.9688,1157.7031 Q798.3438,1157.125 797.75,1156.8594 Q797.1563,1156.5781 796.5313,1156.5781 Q795.1875,1156.5781 794.5,1157.6563 Q793.8125,1158.7188 793.8125,1160.8125 Q793.8125,1162.9063 794.5,1163.9844 Q795.1875,1165.0469 796.5313,1165.0469 Q797.1563,1165.0469 797.75,1164.7813 Q798.3438,1164.5 798.9688,1163.9219 L798.9688,1166.6406 Z " fill="#000000"/><text fill="#000000" font-family="sans-serif" font-size="14" lengthAdjust="spacing" textLength="45.9102" x="810" y="1165.8467">Server</text></g><!--class Target__class--><g class="entity" data-entity="Target__class" data-source-line="135" data-uid="ent0053" id="entity_Target__class"><rect fill="#F1F1F1" height="32" rx="2.5" ry="2.5" style="stroke:#181818;stroke-width:0.5;" width="77.876" x="781" y="795"/><ellipse cx="796" cy="811" fill="#ADD1B2" rx="11" ry="11" style="stroke:#181818;stroke-width:1;"/><path d="M798.9688,816.6406 Q798.3906,816.9375 797.75,817.0781 Q797.1094,817.2344 796.4063,817.2344 Q793.9063,817.2344 792.5781,815.5938 Q791.2656,813.9375 791.2656,810.8125 Q791.2656,807.6875 792.5781,806.0313 Q793.9063,804.375 796.4063,804.375 Q797.1094,804.375 797.75,804.5313 Q798.4063,804.6875 798.9688,804.9844 L798.9688,807.7031 Q798.3438,807.125 797.75,806.8594 Q797.1563,806.5781 796.5313,806.5781 Q795.1875,806.5781 794.5,807.6563 Q793.8125,808.7188 793.8125,810.8125 Q793.8125,812.9063 794.5,813.9844 Q795.1875,815.0469 796.5313,815.0469 Q797.1563,815.0469 797.75,814.7813 Q798.3438,814.5 798.9688,813.9219 L798.9688,816.6406 Z " fill="#000000"/><text fill="#000000" font-family="sans-serif" font-size="14" lengthAdjust="spacing" textLength="45.876" x="810" y="815.8467">Target</text></g><!--class BadRequest__class--><g class="entity" data-entity="BadRequest__class" data-source-line="139" data-uid="ent0055" id="entity_BadRequest__class"><rect fill="#F1F1F1" height="32" rx="2.5" ry="2.5" style="stroke:#181818;stroke-width:0.5;" width="116.5674" x="458.5" y="639"/><ellipse cx="473.5" cy="655" fill="#ADD1B2" rx="11" ry="11" style="stroke:#181818;stroke-width:1;"/><path d="M476.4688,660.6406 Q475.8906,660.9375 475.25,661.0781 Q474.6094,661.2344 473.9063,661.2344 Q471.4063,661.2344 470.0781,659.5938 Q468.7656,657.9375 468.7656,654.8125 Q468.7656,651.6875 470.0781,650.0313 Q471.4063,648.375 473.9063,648.375 Q474.6094,648.375 475.25,648.5313 Q475.9063,648.6875 476.4688,648.9844 L476.4688,651.7031 Q475.8438,651.125 475.25,650.8594 Q474.6563,650.5781 474.0313,650.5781 Q472.6875,650.5781 472,651.6563 Q471.3125,652.7188 471.3125,654.8125 Q471.3125,656.9063 472,657.9844 Q472.6875,659.0469 474.0313,659.0469 Q474.6563,659.0469 475.25,658.7813 Q475.8438,658.5 476.4688,657.9219 L476.4688,660.6406 Z " fill="#000000"/><text fill="#000000" font-family="sans-serif" font-size="14" lengthAdjust="spacing" textLength="84.5674" x="487.5" y="659.8467">BadRequest</text></g><!--class Forbidden__class--><g class="entity" data-entity="Forbidden__class" data-source-line="143" data-uid="ent0057" id="entity_Forbidden__class"><rect fill="#F1F1F1" height="32" rx="2.5" ry="2.5" style="stroke:#181818;stroke-width:0.5;" width="102.4102" x="466" y="589"/><ellipse cx="481" cy="605" fill="#ADD1B2" rx="11" ry="11" style="stroke:#181818;stroke-width:1;"/><path d="M483.9688,610.6406 Q483.3906,610.9375 482.75,611.0781 Q482.1094,611.2344 481.4063,611.2344 Q478.9063,611.2344 477.5781,609.5938 Q476.2656,607.9375 476.2656,604.8125 Q476.2656,601.6875 477.5781,600.0313 Q478.9063,598.375 481.4063,598.375 Q482.1094,598.375 482.75,598.5313 Q483.4063,598.6875 483.9688,598.9844 L483.9688,601.7031 Q483.3438,601.125 482.75,600.8594 Q482.1563,600.5781 481.5313,600.5781 Q480.1875,600.5781 479.5,601.6563 Q478.8125,602.7188 478.8125,604.8125 Q478.8125,606.9063 479.5,607.9844 Q480.1875,609.0469 481.5313,609.0469 Q482.1563,609.0469 482.75,608.7813 Q483.3438,608.5 483.9688,607.9219 L483.9688,610.6406 Z " fill="#000000"/><text fill="#000000" font-family="sans-serif" font-size="14" lengthAdjust="spacing" textLength="70.4102" x="495" y="609.8467">Forbidden</text></g><!--class NotFound__class--><g class="entity" data-entity="NotFound__class" data-source-line="147" data-uid="ent0058" id="entity_NotFound__class"><rect fill="#F1F1F1" height="32" rx="2.5" ry="2.5" style="stroke:#181818;stroke-width:0.5;" width="99.7783" x="770" y="639"/><ellipse cx="785" cy="655" fill="#ADD1B2" rx="11" ry="11" style="stroke:#181818;stroke-width:1;"/><path d="M787.9688,660.6406 Q787.3906,660.9375 786.75,661.0781 Q786.1094,661.2344 785.4063,661.2344 Q782.9063,661.2344 781.5781,659.5938 Q780.2656,657.9375 780.2656,654.8125 Q780.2656,651.6875 781.5781,650.0313 Q782.9063,648.375 785.4063,648.375 Q786.1094,648.375 786.75,648.5313 Q787.4063,648.6875 787.9688,648.9844 L787.9688,651.7031 Q787.3438,651.125 786.75,650.8594 Q786.1563,650.5781 785.5313,650.5781 Q784.1875,650.5781 783.5,651.6563 Q782.8125,652.7188 782.8125,654.8125 Q782.8125,656.9063 783.5,657.9844 Q784.1875,659.0469 785.5313,659.0469 Q786.1563,659.0469 786.75,658.7813 Q787.3438,658.5 787.9688,657.9219 L787.9688,660.6406 Z " fill="#000000"/><text fill="#000000" font-family="sans-serif" font-size="14" lengthAdjust="spacing" textLength="67.7783" x="799" y="659.8467">NotFound</text></g><!--class Unauthorized__class--><g class="entity" data-entity="Unauthorized__class" data-source-line="151" data-uid="ent0059" id="entity_Unauthorized__class"><rect fill="#F1F1F1" height="32" rx="2.5" ry="2.5" style="stroke:#181818;stroke-width:0.5;" width="125.9941" x="757" y="589"/><ellipse cx="772" cy="605" fill="#ADD1B2" rx="11" ry="11" style="stroke:#181818;stroke-width:1;"/><path d="M774.9688,610.6406 Q774.3906,610.9375 773.75,611.0781 Q773.1094,611.2344 772.4063,611.2344 Q769.9063,611.2344 768.5781,609.5938 Q767.2656,607.9375 767.2656,604.8125 Q767.2656,601.6875 768.5781,600.0313 Q769.9063,598.375 772.4063,598.375 Q773.1094,598.375 773.75,598.5313 Q774.4063,598.6875 774.9688,598.9844 L774.9688,601.7031 Q774.3438,601.125 773.75,600.8594 Q773.1563,600.5781 772.5313,600.5781 Q771.1875,600.5781 770.5,601.6563 Q769.8125,602.7188 769.8125,604.8125 Q769.8125,606.9063 770.5,607.9844 Q771.1875,609.0469 772.5313,609.0469 Q773.1563,609.0469 773.75,608.7813 Q774.3438,608.5 774.9688,607.9219 L774.9688,610.6406 Z " fill="#000000"/><text fill="#000000" font-family="sans-serif" font-size="14" lengthAdjust="spacing" textLength="93.9941" x="786" y="609.8467">Unauthorized</text></g><!--class RequestProcessorInterface__class--><g class="entity" data-entity="RequestProcessorInterface__class" data-source-line="19" data-uid="ent0006" id="entity_RequestProcessorInterface__class"><rect fill="#F1F1F1" height="40.2656" rx="2.5" ry="2.5" style="stroke:#181818;stroke-width:0.5;" width="220.1592" x="61" y="173"/><ellipse cx="76" cy="193.1328" fill="#ADD1B2" rx="11" ry="11" style="stroke:#181818;stroke-width:1;"/><path d="M78.9688,198.7734 Q78.3906,199.0703 77.75,199.2109 Q77.1094,199.3672 76.4063,199.3672 Q73.9063,199.3672 72.5781,197.7266 Q71.2656,196.0703 71.2656,192.9453 Q71.2656,189.8203 72.5781,188.1641 Q73.9063,186.5078 76.4063,186.5078 Q77.1094,186.5078 77.75,186.6641 Q78.4063,186.8203 78.9688,187.1172 L78.9688,189.8359 Q78.3438,189.2578 77.75,188.9922 Q77.1563,188.7109 76.5313,188.7109 Q75.1875,188.7109 74.5,189.7891 Q73.8125,190.8516 73.8125,192.9453 Q73.8125,195.0391 74.5,196.1172 Q75.1875,197.1797 76.5313,197.1797 Q77.1563,197.1797 77.75,196.9141 Q78.3438,196.6328 78.9688,196.0547 L78.9688,198.7734 Z " fill="#000000"/><text fill="#000000" font-family="sans-serif" font-size="12" font-style="italic" lengthAdjust="spacing" textLength="64.4824" x="151.8384" y="189.1387">&#171;external&#187;</text><text fill="#000000" font-family="sans-serif" font-size="14" lengthAdjust="spacing" textLength="188.1592" x="90" y="204.9639">RequestProcessorInterface</text></g><!--class RequestProcessorResolverInterface__class--><g class="entity" data-entity="RequestProcessorResolverInterface__class" data-source-line="35" data-uid="ent0013" id="entity_RequestProcessorResolverInterface__class"><rect fill="#F1F1F1" height="40.2656" rx="2.5" ry="2.5" style="stroke:#181818;stroke-width:0.5;" width="280.9033" x="30.5" y="231"/><ellipse cx="45.5" cy="251.1328" fill="#ADD1B2" rx="11" ry="11" style="stroke:#181818;stroke-width:1;"/><path d="M48.4688,256.7734 Q47.8906,257.0703 47.25,257.2109 Q46.6094,257.3672 45.9063,257.3672 Q43.4063,257.3672 42.0781,255.7266 Q40.7656,254.0703 40.7656,250.9453 Q40.7656,247.8203 42.0781,246.1641 Q43.4063,244.5078 45.9063,244.5078 Q46.6094,244.5078 47.25,244.6641 Q47.9063,244.8203 48.4688,245.1172 L48.4688,247.8359 Q47.8438,247.2578 47.25,246.9922 Q46.6563,246.7109 46.0313,246.7109 Q44.6875,246.7109 44,247.7891 Q43.3125,248.8516 43.3125,250.9453 Q43.3125,253.0391 44,254.1172 Q44.6875,255.1797 46.0313,255.1797 Q46.6563,255.1797 47.25,254.9141 Q47.8438,254.6328 48.4688,254.0547 L48.4688,256.7734 Z " fill="#000000"/><text fill="#000000" font-family="sans-serif" font-size="12" font-style="italic" lengthAdjust="spacing" textLength="64.4824" x="151.7104" y="247.1387">&#171;external&#187;</text><text fill="#000000" font-family="sans-serif" font-size="14" lengthAdjust="spacing" textLength="248.9033" x="59.5" y="262.9639">RequestProcessorResolverInterface</text></g><!--class RequestProcessorExecutorInterface__class--><g class="entity" data-entity="RequestProcessorExecutorInterface__class" data-source-line="99" data-uid="ent0040" id="entity_RequestProcessorExecutorInterface__class"><rect fill="#F1F1F1" height="40.2656" rx="2.5" ry="2.5" style="stroke:#181818;stroke-width:0.5;" width="282.2842" x="30" y="289"/><ellipse cx="45" cy="309.1328" fill="#ADD1B2" rx="11" ry="11" style="stroke:#181818;stroke-width:1;"/><path d="M47.9688,314.7734 Q47.3906,315.0703 46.75,315.2109 Q46.1094,315.3672 45.4063,315.3672 Q42.9063,315.3672 41.5781,313.7266 Q40.2656,312.0703 40.2656,308.9453 Q40.2656,305.8203 41.5781,304.1641 Q42.9063,302.5078 45.4063,302.5078 Q46.1094,302.5078 46.75,302.6641 Q47.4063,302.8203 47.9688,303.1172 L47.9688,305.8359 Q47.3438,305.2578 46.75,304.9922 Q46.1563,304.7109 45.5313,304.7109 Q44.1875,304.7109 43.5,305.7891 Q42.8125,306.8516 42.8125,308.9453 Q42.8125,311.0391 43.5,312.1172 Q44.1875,313.1797 45.5313,313.1797 Q46.1563,313.1797 46.75,312.9141 Q47.3438,312.6328 47.9688,312.0547 L47.9688,314.7734 Z " fill="#000000"/><text fill="#000000" font-family="sans-serif" font-size="12" font-style="italic" lengthAdjust="spacing" textLength="64.4824" x="151.9009" y="305.1387">&#171;external&#187;</text><text fill="#000000" font-family="sans-serif" font-size="14" lengthAdjust="spacing" textLength="250.2842" x="59" y="320.9639">RequestProcessorExecutorInterface</text></g><!--class RequestHandlerInterface__class--><g class="entity" data-entity="RequestHandlerInterface__class" data-source-line="71" data-uid="ent0028" id="entity_RequestHandlerInterface__class"><rect fill="#F1F1F1" height="40.2656" rx="2.5" ry="2.5" style="stroke:#181818;stroke-width:0.5;" width="207.3008" x="67.5" y="1390"/><ellipse cx="82.5" cy="1410.1328" fill="#ADD1B2" rx="11" ry="11" style="stroke:#181818;stroke-width:1;"/><path d="M85.4688,1415.7734 Q84.8906,1416.0703 84.25,1416.2109 Q83.6094,1416.3672 82.9063,1416.3672 Q80.4063,1416.3672 79.0781,1414.7266 Q77.7656,1413.0703 77.7656,1409.9453 Q77.7656,1406.8203 79.0781,1405.1641 Q80.4063,1403.5078 82.9063,1403.5078 Q83.6094,1403.5078 84.25,1403.6641 Q84.9063,1403.8203 85.4688,1404.1172 L85.4688,1406.8359 Q84.8438,1406.2578 84.25,1405.9922 Q83.6563,1405.7109 83.0313,1405.7109 Q81.6875,1405.7109 81,1406.7891 Q80.3125,1407.8516 80.3125,1409.9453 Q80.3125,1412.0391 81,1413.1172 Q81.6875,1414.1797 83.0313,1414.1797 Q83.6563,1414.1797 84.25,1413.9141 Q84.8438,1413.6328 85.4688,1413.0547 L85.4688,1415.7734 Z " fill="#000000"/><text fill="#000000" font-family="sans-serif" font-size="12" font-style="italic" lengthAdjust="spacing" textLength="64.4824" x="151.9092" y="1406.1387">&#171;external&#187;</text><text fill="#000000" font-family="sans-serif" font-size="14" lengthAdjust="spacing" textLength="175.3008" x="96.5" y="1421.9639">RequestHandlerInterface</text></g><!--class MiddlewareInterface__class--><g class="entity" data-entity="MiddlewareInterface__class" data-source-line="119" data-uid="ent0047" id="entity_MiddlewareInterface__class"><rect fill="#F1F1F1" height="40.2656" rx="2.5" ry="2.5" style="stroke:#181818;stroke-width:0.5;" width="175.3223" x="83.5" y="1332"/><ellipse cx="98.5" cy="1352.1328" fill="#ADD1B2" rx="11" ry="11" style="stroke:#181818;stroke-width:1;"/><path d="M101.4688,1357.7734 Q100.8906,1358.0703 100.25,1358.2109 Q99.6094,1358.3672 98.9063,1358.3672 Q96.4063,1358.3672 95.0781,1356.7266 Q93.7656,1355.0703 93.7656,1351.9453 Q93.7656,1348.8203 95.0781,1347.1641 Q96.4063,1345.5078 98.9063,1345.5078 Q99.6094,1345.5078 100.25,1345.6641 Q100.9063,1345.8203 101.4688,1346.1172 L101.4688,1348.8359 Q100.8438,1348.2578 100.25,1347.9922 Q99.6563,1347.7109 99.0313,1347.7109 Q97.6875,1347.7109 97,1348.7891 Q96.3125,1349.8516 96.3125,1351.9453 Q96.3125,1354.0391 97,1355.1172 Q97.6875,1356.1797 99.0313,1356.1797 Q99.6563,1356.1797 100.25,1355.9141 Q100.8438,1355.6328 101.4688,1355.0547 L101.4688,1357.7734 Z " fill="#000000"/><text fill="#000000" font-family="sans-serif" font-size="12" font-style="italic" lengthAdjust="spacing" textLength="64.4824" x="151.9199" y="1348.1387">&#171;external&#187;</text><text fill="#000000" font-family="sans-serif" font-size="14" lengthAdjust="spacing" textLength="143.3223" x="112.5" y="1363.9639">MiddlewareInterface</text></g><g class="link" data-entity-1="RequestProcessorInterface__class" data-entity-2="AbstractProtectedRoutable__class" data-uid="lnk9" id="link_RequestProcessorInterface__class_AbstractProtectedRoutable__class"><polygon fill="none" points="211.738,172.9171,230.5647,170.5597,225.3849,159.7352,211.738,172.9171" style="stroke:#516F42;stroke-width:1;"/><path d="M227.9748,165.1474 C259.7379,149.948 289.5763,137.5497 332,126 C355.6404,119.564 381.4611,114.746 406.0841,111.1526" fill="none" style="stroke:#516F42;stroke-width:1;stroke-dasharray:7,7;"/></g><g class="link" data-entity-1="RequestProcessorInterface__class" data-entity-2="AbstractRestrictedAccessRequestProcessor__class" data-uid="lnk11" id="link_RequestProcessorInterface__class_AbstractRestrictedAccessRequestProcessor__class"><polygon fill="none" points="281.3164,179.6532,299.9109,183.4275,298.4566,171.516,281.3164,179.6532" style="stroke:#516F42;stroke-width:1;"/><path d="M299.1837,177.4718 C332.0384,173.4604 350.5608,171.199 384.6841,167.0328" fill="none" style="stroke:#516F42;stroke-width:1;stroke-dasharray:7,7;"/></g><g class="link" data-entity-1="RequestProcessorResolverInterface__class" data-entity-2="ProtectedRoutableResolver__class" data-uid="lnk15" id="link_RequestProcessorResolverInterface__class_ProtectedRoutableResolver__class"><polygon fill="none" points="311.918,251,329.918,257,329.918,245,311.918,251" style="stroke:#516F42;stroke-width:1;"/><path d="M329.918,251 C361.075,251 375.6882,251 405.4702,251" fill="none" style="stroke:#516F42;stroke-width:1;stroke-dasharray:7,7;"/></g><g class="link" data-entity-1="RequestProcessorResolverInterface__class" data-entity-2="RestrictedAccessRequestProcessorResolver__class" data-uid="lnk17" id="link_RequestProcessorResolverInterface__class_RestrictedAccessRequestProcessorResolver__class"><polygon fill="none" points="298.6041,271.0206,315.5003,279.653,317.3005,267.7888,298.6041,271.0206" style="stroke:#516F42;stroke-width:1;"/><path d="M316.4004,273.7209 C327.6893,275.4338 321.1503,274.4155 332,276 C352.4157,278.9816 374.1236,282.0349 395.2015,284.9377" fill="none" style="stroke:#516F42;stroke-width:1;stroke-dasharray:7,7;"/></g><g class="link" data-entity-1="AuthorizationCheckerInterface__interface" data-entity-2="AuthorizationChecker__class" data-uid="lnk26" id="link_AuthorizationCheckerInterface__interface_AuthorizationChecker__class"><polygon fill="none" points="640.4282,711,658.4282,717,658.4282,705,640.4282,711" style="stroke:#516F42;stroke-width:1;"/><path d="M658.4282,711 C687.7252,711 700.4935,711 728.0776,711" fill="none" style="stroke:#516F42;stroke-width:1;stroke-dasharray:7,7;"/></g><g class="link" data-entity-1="RequestHandlerInterface__class" data-entity-2="MiddlewareQueueRequestHandler__class" data-uid="lnk32" id="link_RequestHandlerInterface__class_MiddlewareQueueRequestHandler__class"><polygon fill="none" points="274.7768,1408.1908,293.7344,1408.9707,290.4109,1397.4402,274.7768,1408.1908" style="stroke:#516F42;stroke-width:1;"/><path d="M292.0727,1403.2055 C309.4192,1398.2055 308.2782,1394.7474 320,1381 C344.8865,1351.813 306.2712,1064.4473 332,1036 C345.191,1021.4152 362.5428,1012.3616 381.3236,1007.0312" fill="none" style="stroke:#516F42;stroke-width:1;stroke-dasharray:7,7;"/></g><g class="link" data-entity-1="RequestAuthorizerInterface__interface" data-entity-2="RequestAuthorizer__class" data-uid="lnk37" id="link_RequestAuthorizerInterface__interface_RequestAuthorizer__class"><polygon fill="none" points="629.6535,911,647.6535,917,647.6535,905,629.6535,911" style="stroke:#516F42;stroke-width:1;"/><path d="M647.6535,911 C683.792,911 705.1382,911 738.5538,911" fill="none" style="stroke:#516F42;stroke-width:1;stroke-dasharray:7,7;"/></g><g class="link" data-entity-1="RequestHandlerInterface__class" data-entity-2="RequestProcessingHandler__class" data-uid="lnk39" id="link_RequestHandlerInterface__class_RequestProcessingHandler__class"><polygon fill="none" points="274.6214,1408.0573,293.5783,1408.8529,290.2643,1397.3196,274.6214,1408.0573" style="stroke:#516F42;stroke-width:1;"/><path d="M291.9213,1403.0863 C309.2815,1398.098 308.1811,1394.664 320,1381 C337.8301,1360.3865 313.5752,1156.0837 332,1136 C351.0693,1115.2138 378.5988,1105.7163 406.5773,1102.219" fill="none" style="stroke:#516F42;stroke-width:1;stroke-dasharray:7,7;"/></g><g class="link" data-entity-1="RequestProcessorExecutorInterface__class" data-entity-2="RequestProcessorExecutor__class" data-uid="lnk42" id="link_RequestProcessorExecutorInterface__class_RequestProcessorExecutor__class"><polygon fill="none" points="172.7099,329.2034,167.6549,347.4913,179.6386,346.8667,172.7099,329.2034" style="stroke:#516F42;stroke-width:1;"/><path d="M173.6467,347.179 C177.2677,416.6517 198.3586,629.323 332,736 C353.0381,752.7933 379.9275,761.2913 406.613,765.1188" fill="none" style="stroke:#516F42;stroke-width:1;stroke-dasharray:7,7;"/></g><g class="link" data-entity-1="ResponseBuilderInterface__interface" data-entity-2="ResponseBuilder__class" data-uid="lnk45" id="link_ResponseBuilderInterface__interface_ResponseBuilder__class"><polygon fill="none" points="623.2752,1061,641.2752,1067,641.2752,1055,623.2752,1061" style="stroke:#516F42;stroke-width:1;"/><path d="M641.2752,1061 C681.6235,1061 708.7526,1061 745.4995,1061" fill="none" style="stroke:#516F42;stroke-width:1;stroke-dasharray:7,7;"/></g><g class="link" data-entity-1="MiddlewareInterface__class" data-entity-2="RoutingMiddleware__class" data-uid="lnk49" id="link_MiddlewareInterface__class_RoutingMiddleware__class"><polygon fill="none" points="174.1032,1331.5814,182.2326,1314.4375,170.3203,1312.9887,174.1032,1331.5814" style="stroke:#516F42;stroke-width:1;"/><path d="M176.2765,1313.7131 C183.9648,1250.4994 214.4058,1074.8139 332,986 C360.5551,964.4336 398.9402,956.8692 433.2624,955.219" fill="none" style="stroke:#516F42;stroke-width:1;stroke-dasharray:7,7;"/></g><g class="link" data-entity-1="ServerInterface__interface" data-entity-2="Server__class" data-uid="lnk52" id="link_ServerInterface__interface_Server__class"><polygon fill="none" points="587.812,1161,605.812,1167,605.812,1155,587.812,1161" style="stroke:#516F42;stroke-width:1;"/><path d="M605.812,1161 C665.9014,1161 732.3552,1161 780.8018,1161" fill="none" style="stroke:#516F42;stroke-width:1;stroke-dasharray:7,7;"/></g><!--SRC=[pLZRRjim37ttLsZT5spOzbGKID9sBR0DNThkoK30s4oiHPOyIMwR3VttoTVOZXmxYJEiBvL9WkTGEgI4l8aaB4CW3DOYraI5g863GmXHAyeZa12IaPJYUIAOaEJjntUV5X_Ur_tWQVf4zNeif8-oJo1ugwKKCVVpu4NwPm- -f10AxlTENiJtmL01-EAPyYLP05FeEEskZOTHZdeT8H5I1y89g8y4mqYlIOZX7ALo62uqqO98kWmqyQb4mqrmHw4c749K4NXuZqawRQYvhkEKPd8NH8A1TDryGVuad0dn62X5paPHT4P04VD_DijivY-BUNLURObkj8wc-2j6fU-ay50fKMJDapQzjroZN9WaALIhjo1mVaxmnTWuC79niPDBkHZ5EiX9m5nfQOvlKsDkC8ZQR1twKwDDcBECJgktiXyqZ1Y6oBKY5KpRHhXkPtd35JGrE98cd4TU0jQ4hjNN5VpVb5jMQKn2qj_vCHLVfvEfsI71dh13hbjH0ycsOBMbmm8mPTFg7UZuMgixk9uktTNAwnlytrRxgF9AaaLVgPQBIuoG-yYzzIt_cKtvHlw9u1hCZI6_2F1pg8Rj1AYNz46iaAiKhlWO40Tv79AppqpCCuXqDPkbvdwva_FEGsbnc9iH0WdM941lrUpkdH6psIRN_ZoQSwmAqOhTAUmQKYR1Nlojz5MPvnwbwGFhVBm1xhEMgTZq7JCBBLltbVec_JD8_1vZZ7NGbCVEYDRDRDPTJeQsUWwku0vqy0CaJKRrc7BVl00pYTiSUtUK1N2AaKHb2aqLeVB3gjcEWQaqLxvbvSLiLuZ5FKnRRUMte-xRKFre7yiwlu7CeLV5tERyHphU_yLqzO9UhBiU-5jH0q-9DhoTP0PwGRJMTbndgSZqAOvZolpjlh8xX-ggMdORuluTrKtuQBuJuMFp9Rdbw1fykw_3pLLJFn2BVMY1cxU-cGOReAp2fdMFCR63yp72pTBNjwTX6qQcMT9A_dr5kOFLmQGUG2vHfwIovK4NhU5cxkbOkUw4KLF5bPIY-QlD6Fny4ALecy-J8LuBEJUQGPu2bbydm_icz7NoQriALtoS3EsHGt7VPuXLWnNrBm00]--></g></svg>