<svg xmlns="http://www.w3.org/2000/svg" xmlns:xlink="http://www.w3.org/1999/xlink" contentStyleType="text/css" data-diagram-type="CLASS" height="1151px" preserveAspectRatio="none" style="width:862px;height:1151px;background:#FFFFFF;" version="1.1" viewBox="0 0 862 1151" width="862px" zoomAndPan="magnify"><defs/><g><!--cluster Phpolar--><g id="cluster_Phpolar"><path d="M19,4 L81.0176,4 A3.75,3.75 0 0 1 83.5176,6.5 L90.5176,26.2969 L852.5,26.2969 A2.5,2.5 0 0 1 855,28.7969 L855,930.5 A2.5,2.5 0 0 1 852.5,933 L19,933 A2.5,2.5 0 0 1 16.5,930.5 L16.5,6.5 A2.5,2.5 0 0 1 19,4 " fill="transparent" style="stroke:#000000;stroke-width:1.5;"/><line style="stroke:#000000;stroke-width:1.5;" x1="16.5" x2="90.5176" y1="26.2969" y2="26.2969"/><text fill="#000000" font-family="sans-serif" font-size="14" font-weight="bold" lengthAdjust="spacing" textLength="61.0176" x="20.5" y="18.9951">Phpolar</text></g><!--cluster Phpolar--><g id="cluster_Phpolar"><path d="M279.5,31 L341.5176,31 A3.75,3.75 0 0 1 344.0176,33.5 L351.0176,53.2969 L844.5,53.2969 A2.5,2.5 0 0 1 847,55.7969 L847,922.5 A2.5,2.5 0 0 1 844.5,925 L279.5,925 A2.5,2.5 0 0 1 277,922.5 L277,33.5 A2.5,2.5 0 0 1 279.5,31 " fill="transparent" style="stroke:#000000;stroke-width:1.5;"/><line style="stroke:#000000;stroke-width:1.5;" x1="277" x2="351.0176" y1="53.2969" y2="53.2969"/><text fill="#000000" font-family="sans-serif" font-size="14" font-weight="bold" lengthAdjust="spacing" textLength="61.0176" x="281" y="45.9951">Phpolar</text></g><!--cluster Auth--><g id="cluster_Auth"><path d="M317,58 L355.4609,58 A3.75,3.75 0 0 1 357.9609,60.5 L364.9609,80.2969 L551,80.2969 A2.5,2.5 0 0 1 553.5,82.7969 L553.5,272.5 A2.5,2.5 0 0 1 551,275 L317,275 A2.5,2.5 0 0 1 314.5,272.5 L314.5,60.5 A2.5,2.5 0 0 1 317,58 " fill="transparent" style="stroke:#000000;stroke-width:1.5;"/><line style="stroke:#000000;stroke-width:1.5;" x1="314.5" x2="364.9609" y1="80.2969" y2="80.2969"/><text fill="#000000" font-family="sans-serif" font-size="14" font-weight="bold" lengthAdjust="spacing" textLength="37.4609" x="318.5" y="72.9951">Auth</text></g><!--cluster DependencyInjection--><g id="cluster_DependencyInjection"><path d="M354,283 L521.3525,283 A3.75,3.75 0 0 1 523.8525,285.5 L530.8525,305.2969 L762,305.2969 A2.5,2.5 0 0 1 764.5,307.7969 L764.5,397.5 A2.5,2.5 0 0 1 762,400 L354,400 A2.5,2.5 0 0 1 351.5,397.5 L351.5,285.5 A2.5,2.5 0 0 1 354,283 " fill="transparent" style="stroke:#000000;stroke-width:1.5;"/><line style="stroke:#000000;stroke-width:1.5;" x1="351.5" x2="530.8525" y1="305.2969" y2="305.2969"/><text fill="#000000" font-family="sans-serif" font-size="14" font-weight="bold" lengthAdjust="spacing" textLength="166.3525" x="355.5" y="297.9951">DependencyInjection</text></g><!--cluster Http--><g id="cluster_Http"><path d="M287.5,408 L323.623,408 A3.75,3.75 0 0 1 326.123,410.5 L333.123,430.2969 L836.5,430.2969 A2.5,2.5 0 0 1 839,432.7969 L839,872.5 A2.5,2.5 0 0 1 836.5,875 L287.5,875 A2.5,2.5 0 0 1 285,872.5 L285,410.5 A2.5,2.5 0 0 1 287.5,408 " fill="transparent" style="stroke:#000000;stroke-width:1.5;"/><line style="stroke:#000000;stroke-width:1.5;" x1="285" x2="333.123" y1="430.2969" y2="430.2969"/><text fill="#000000" font-family="sans-serif" font-size="14" font-weight="bold" lengthAdjust="spacing" textLength="35.123" x="289" y="422.9951">Http</text></g><!--cluster Routable--><g id="cluster_Routable"><path d="M27,75 L98.8203,75 A3.75,3.75 0 0 1 101.3203,77.5 L108.3203,97.2969 L256,97.2969 A2.5,2.5 0 0 1 258.5,99.7969 L258.5,205.5 A2.5,2.5 0 0 1 256,208 L27,208 A2.5,2.5 0 0 1 24.5,205.5 L24.5,77.5 A2.5,2.5 0 0 1 27,75 " fill="transparent" style="stroke:#000000;stroke-width:1.5;"/><line style="stroke:#000000;stroke-width:1.5;" x1="24.5" x2="108.3203" y1="97.2969" y2="97.2969"/><text fill="#000000" font-family="sans-serif" font-size="14" font-weight="bold" lengthAdjust="spacing" textLength="70.8203" x="28.5" y="89.9951">Routable</text></g><!--cluster Psr--><g id="cluster_Psr"><path d="M16.5,941 L42.998,941 A3.75,3.75 0 0 1 45.498,943.5 L52.498,963.2969 L266.5,963.2969 A2.5,2.5 0 0 1 269,965.7969 L269,1141.5 A2.5,2.5 0 0 1 266.5,1144 L16.5,1144 A2.5,2.5 0 0 1 14,1141.5 L14,943.5 A2.5,2.5 0 0 1 16.5,941 " fill="transparent" style="stroke:#000000;stroke-width:1.5;"/><line style="stroke:#000000;stroke-width:1.5;" x1="14" x2="52.498" y1="963.2969" y2="963.2969"/><text fill="#000000" font-family="sans-serif" font-size="14" font-weight="bold" lengthAdjust="spacing" textLength="25.498" x="18" y="955.9951">Psr</text></g><!--cluster Http--><g id="cluster_Http"><path d="M24.5,968 L60.623,968 A3.75,3.75 0 0 1 63.123,970.5 L70.123,990.2969 L258.5,990.2969 A2.5,2.5 0 0 1 261,992.7969 L261,1133.5 A2.5,2.5 0 0 1 258.5,1136 L24.5,1136 A2.5,2.5 0 0 1 22,1133.5 L22,970.5 A2.5,2.5 0 0 1 24.5,968 " fill="transparent" style="stroke:#000000;stroke-width:1.5;"/><line style="stroke:#000000;stroke-width:1.5;" x1="22" x2="70.123" y1="990.2969" y2="990.2969"/><text fill="#000000" font-family="sans-serif" font-size="14" font-weight="bold" lengthAdjust="spacing" textLength="35.123" x="26" y="982.9951">Http</text></g><!--cluster Server--><g id="cluster_Server"><path d="M32.5,995 L85.5078,995 A3.75,3.75 0 0 1 88.0078,997.5 L95.0078,1017.2969 L250.5,1017.2969 A2.5,2.5 0 0 1 253,1019.7969 L253,1125.5 A2.5,2.5 0 0 1 250.5,1128 L32.5,1128 A2.5,2.5 0 0 1 30,1125.5 L30,997.5 A2.5,2.5 0 0 1 32.5,995 " fill="transparent" style="stroke:#000000;stroke-width:1.5;"/><line style="stroke:#000000;stroke-width:1.5;" x1="30" x2="95.0078" y1="1017.2969" y2="1017.2969"/><text fill="#000000" font-family="sans-serif" font-size="14" font-weight="bold" lengthAdjust="spacing" textLength="52.0078" x="34" y="1009.9951">Server</text></g><!--class App__class--><g id="elem_App__class"><rect codeLine="15" fill="#F1F1F1" height="32" id="App__class" rx="2.5" ry="2.5" style="stroke:#181818;stroke-width:0.5;" width="59.3506" x="404.5" y="885"/><ellipse cx="419.5" cy="901" fill="#ADD1B2" rx="11" ry="11" style="stroke:#181818;stroke-width:1;"/><path d="M422.4688,906.6406 Q421.8906,906.9375 421.25,907.0781 Q420.6094,907.2344 419.9063,907.2344 Q417.4063,907.2344 416.0781,905.5938 Q414.7656,903.9375 414.7656,900.8125 Q414.7656,897.6875 416.0781,896.0313 Q417.4063,894.375 419.9063,894.375 Q420.6094,894.375 421.25,894.5313 Q421.9063,894.6875 422.4688,894.9844 L422.4688,897.7031 Q421.8438,897.125 421.25,896.8594 Q420.6563,896.5781 420.0313,896.5781 Q418.6875,896.5781 418,897.6563 Q417.3125,898.7188 417.3125,900.8125 Q417.3125,902.9063 418,903.9844 Q418.6875,905.0469 420.0313,905.0469 Q420.6563,905.0469 421.25,904.7813 Q421.8438,904.5 422.4688,903.9219 L422.4688,906.6406 Z " fill="#000000"/><text fill="#000000" font-family="sans-serif" font-size="14" lengthAdjust="spacing" textLength="27.3506" x="433.5" y="905.8467">App</text></g><!--class AbstractProtectedRoutable__class--><g id="elem_AbstractProtectedRoutable__class"><rect codeLine="23" fill="#F1F1F1" height="32" id="AbstractProtectedRoutable__class" rx="2.5" ry="2.5" style="stroke:#181818;stroke-width:0.5;" width="220.9453" x="323.5" y="85"/><ellipse cx="338.5" cy="101" fill="#A9DCDF" rx="11" ry="11" style="stroke:#181818;stroke-width:1;"/><path d="M338.6094,96.3438 L337.4531,101.4219 L339.7813,101.4219 L338.6094,96.3438 Z M337.125,94.1094 L340.1094,94.1094 L343.4688,106.5 L341.0156,106.5 L340.25,103.4375 L336.9688,103.4375 L336.2188,106.5 L333.7813,106.5 L337.125,94.1094 Z " fill="#000000"/><text fill="#000000" font-family="sans-serif" font-size="14" font-style="italic" lengthAdjust="spacing" textLength="188.9453" x="352.5" y="105.8467">AbstractProtectedRoutable</text></g><!--class Authorize__class--><g id="elem_Authorize__class"><rect codeLine="27" fill="#F1F1F1" height="32" id="Authorize__class" rx="2.5" ry="2.5" style="stroke:#181818;stroke-width:0.5;" width="98.9854" x="384.5" y="135"/><ellipse cx="399.5" cy="151" fill="#ADD1B2" rx="11" ry="11" style="stroke:#181818;stroke-width:1;"/><path d="M402.4688,156.6406 Q401.8906,156.9375 401.25,157.0781 Q400.6094,157.2344 399.9063,157.2344 Q397.4063,157.2344 396.0781,155.5938 Q394.7656,153.9375 394.7656,150.8125 Q394.7656,147.6875 396.0781,146.0313 Q397.4063,144.375 399.9063,144.375 Q400.6094,144.375 401.25,144.5313 Q401.9063,144.6875 402.4688,144.9844 L402.4688,147.7031 Q401.8438,147.125 401.25,146.8594 Q400.6563,146.5781 400.0313,146.5781 Q398.6875,146.5781 398,147.6563 Q397.3125,148.7188 397.3125,150.8125 Q397.3125,152.9063 398,153.9844 Q398.6875,155.0469 400.0313,155.0469 Q400.6563,155.0469 401.25,154.7813 Q401.8438,154.5 402.4688,153.9219 L402.4688,156.6406 Z " fill="#000000"/><text fill="#000000" font-family="sans-serif" font-size="14" lengthAdjust="spacing" textLength="66.9854" x="413.5" y="155.8467">Authorize</text></g><!--class ProtectedRoutableResolver__class--><g id="elem_ProtectedRoutableResolver__class"><rect codeLine="35" fill="#F1F1F1" height="32" id="ProtectedRoutableResolver__class" rx="2.5" ry="2.5" style="stroke:#181818;stroke-width:0.5;" width="222.9209" x="322.5" y="185"/><ellipse cx="337.5" cy="201" fill="#ADD1B2" rx="11" ry="11" style="stroke:#181818;stroke-width:1;"/><path d="M340.4688,206.6406 Q339.8906,206.9375 339.25,207.0781 Q338.6094,207.2344 337.9063,207.2344 Q335.4063,207.2344 334.0781,205.5938 Q332.7656,203.9375 332.7656,200.8125 Q332.7656,197.6875 334.0781,196.0313 Q335.4063,194.375 337.9063,194.375 Q338.6094,194.375 339.25,194.5313 Q339.9063,194.6875 340.4688,194.9844 L340.4688,197.7031 Q339.8438,197.125 339.25,196.8594 Q338.6563,196.5781 338.0313,196.5781 Q336.6875,196.5781 336,197.6563 Q335.3125,198.7188 335.3125,200.8125 Q335.3125,202.9063 336,203.9844 Q336.6875,205.0469 338.0313,205.0469 Q338.6563,205.0469 339.25,204.7813 Q339.8438,204.5 340.4688,203.9219 L340.4688,206.6406 Z " fill="#000000"/><text fill="#000000" font-family="sans-serif" font-size="14" lengthAdjust="spacing" textLength="190.9209" x="351.5" y="205.8467">ProtectedRoutableResolver</text></g><!--class User__class--><g id="elem_User__class"><rect codeLine="39" fill="#F1F1F1" height="32" id="User__class" rx="2.5" ry="2.5" style="stroke:#181818;stroke-width:0.5;" width="63.9102" x="402" y="235"/><ellipse cx="417" cy="251" fill="#ADD1B2" rx="11" ry="11" style="stroke:#181818;stroke-width:1;"/><path d="M419.9688,256.6406 Q419.3906,256.9375 418.75,257.0781 Q418.1094,257.2344 417.4063,257.2344 Q414.9063,257.2344 413.5781,255.5938 Q412.2656,253.9375 412.2656,250.8125 Q412.2656,247.6875 413.5781,246.0313 Q414.9063,244.375 417.4063,244.375 Q418.1094,244.375 418.75,244.5313 Q419.4063,244.6875 419.9688,244.9844 L419.9688,247.7031 Q419.3438,247.125 418.75,246.8594 Q418.1563,246.5781 417.5313,246.5781 Q416.1875,246.5781 415.5,247.6563 Q414.8125,248.7188 414.8125,250.8125 Q414.8125,252.9063 415.5,253.9844 Q416.1875,255.0469 417.5313,255.0469 Q418.1563,255.0469 418.75,254.7813 Q419.3438,254.5 419.9688,253.9219 L419.9688,256.6406 Z " fill="#000000"/><text fill="#000000" font-family="sans-serif" font-size="14" lengthAdjust="spacing" textLength="31.9102" x="431" y="255.8467">User</text></g><!--class ContainerLoader__class--><g id="elem_ContainerLoader__class"><rect codeLine="43" fill="#F1F1F1" height="32" id="ContainerLoader__class" rx="2.5" ry="2.5" style="stroke:#181818;stroke-width:0.5;" width="148.6143" x="359.5" y="360"/><ellipse cx="374.5" cy="376" fill="#ADD1B2" rx="11" ry="11" style="stroke:#181818;stroke-width:1;"/><path d="M377.4688,381.6406 Q376.8906,381.9375 376.25,382.0781 Q375.6094,382.2344 374.9063,382.2344 Q372.4063,382.2344 371.0781,380.5938 Q369.7656,378.9375 369.7656,375.8125 Q369.7656,372.6875 371.0781,371.0313 Q372.4063,369.375 374.9063,369.375 Q375.6094,369.375 376.25,369.5313 Q376.9063,369.6875 377.4688,369.9844 L377.4688,372.7031 Q376.8438,372.125 376.25,371.8594 Q375.6563,371.5781 375.0313,371.5781 Q373.6875,371.5781 373,372.6563 Q372.3125,373.7188 372.3125,375.8125 Q372.3125,377.9063 373,378.9844 Q373.6875,380.0469 375.0313,380.0469 Q375.6563,380.0469 376.25,379.7813 Q376.8438,379.5 377.4688,378.9219 L377.4688,381.6406 Z " fill="#000000"/><text fill="#000000" font-family="sans-serif" font-size="14" lengthAdjust="spacing" textLength="116.6143" x="388.5" y="380.8467">ContainerLoader</text></g><!--class DiTokens__class--><g id="elem_DiTokens__class"><rect codeLine="47" fill="#F1F1F1" height="32" id="DiTokens__class" rx="2.5" ry="2.5" style="stroke:#181818;stroke-width:0.5;" width="96.6748" x="385.5" y="310"/><ellipse cx="400.5" cy="326" fill="#ADD1B2" rx="11" ry="11" style="stroke:#181818;stroke-width:1;"/><path d="M403.4688,331.6406 Q402.8906,331.9375 402.25,332.0781 Q401.6094,332.2344 400.9063,332.2344 Q398.4063,332.2344 397.0781,330.5938 Q395.7656,328.9375 395.7656,325.8125 Q395.7656,322.6875 397.0781,321.0313 Q398.4063,319.375 400.9063,319.375 Q401.6094,319.375 402.25,319.5313 Q402.9063,319.6875 403.4688,319.9844 L403.4688,322.7031 Q402.8438,322.125 402.25,321.8594 Q401.6563,321.5781 401.0313,321.5781 Q399.6875,321.5781 399,322.6563 Q398.3125,323.7188 398.3125,325.8125 Q398.3125,327.9063 399,328.9844 Q399.6875,330.0469 401.0313,330.0469 Q401.6563,330.0469 402.25,329.7813 Q402.8438,329.5 403.4688,328.9219 L403.4688,331.6406 Z " fill="#000000"/><text fill="#000000" font-family="sans-serif" font-size="14" lengthAdjust="spacing" textLength="64.6748" x="414.5" y="330.8467">DiTokens</text></g><!--class Globs__enum--><g id="elem_Globs__enum"><rect codeLine="51" fill="#F1F1F1" height="32" id="Globs__enum" rx="2.5" ry="2.5" style="stroke:#181818;stroke-width:0.5;" width="71.4844" x="685.5" y="360"/><ellipse cx="700.5" cy="376" fill="#EB937F" rx="11" ry="11" style="stroke:#181818;stroke-width:1;"/><path d="M704.6094,382 L696.8906,382 L696.8906,369.6094 L704.6094,369.6094 L704.6094,371.7656 L699.3438,371.7656 L699.3438,374.4375 L704.1094,374.4375 L704.1094,376.5938 L699.3438,376.5938 L699.3438,379.8438 L704.6094,379.8438 L704.6094,382 Z " fill="#000000"/><text fill="#000000" font-family="sans-serif" font-size="14" lengthAdjust="spacing" textLength="39.4844" x="714.5" y="380.8467">Globs</text></g><!--class AuthorizationCheckerInterface__interface--><g id="elem_AuthorizationCheckerInterface__interface"><rect codeLine="55" fill="#F1F1F1" height="32" id="AuthorizationCheckerInterface__interface" rx="2.5" ry="2.5" style="stroke:#181818;stroke-width:0.5;" width="245.8828" x="311" y="435"/><ellipse cx="326" cy="451" fill="#B4A7E5" rx="11" ry="11" style="stroke:#181818;stroke-width:1;"/><path d="M321.9219,446.7656 L321.9219,444.6094 L329.3125,444.6094 L329.3125,446.7656 L326.8438,446.7656 L326.8438,454.8438 L329.3125,454.8438 L329.3125,457 L321.9219,457 L321.9219,454.8438 L324.3906,454.8438 L324.3906,446.7656 L321.9219,446.7656 Z " fill="#000000"/><text fill="#000000" font-family="sans-serif" font-size="14" font-style="italic" lengthAdjust="spacing" textLength="213.8828" x="340" y="455.8467">AuthorizationCheckerInterface</text></g><!--class AuthorizationChecker__class--><g id="elem_AuthorizationChecker__class"><rect codeLine="59" fill="#F1F1F1" height="32" id="AuthorizationChecker__class" rx="2.5" ry="2.5" style="stroke:#181818;stroke-width:0.5;" width="183.2041" x="629.5" y="435"/><ellipse cx="644.5" cy="451" fill="#ADD1B2" rx="11" ry="11" style="stroke:#181818;stroke-width:1;"/><path d="M647.4688,456.6406 Q646.8906,456.9375 646.25,457.0781 Q645.6094,457.2344 644.9063,457.2344 Q642.4063,457.2344 641.0781,455.5938 Q639.7656,453.9375 639.7656,450.8125 Q639.7656,447.6875 641.0781,446.0313 Q642.4063,444.375 644.9063,444.375 Q645.6094,444.375 646.25,444.5313 Q646.9063,444.6875 647.4688,444.9844 L647.4688,447.7031 Q646.8438,447.125 646.25,446.8594 Q645.6563,446.5781 645.0313,446.5781 Q643.6875,446.5781 643,447.6563 Q642.3125,448.7188 642.3125,450.8125 Q642.3125,452.9063 643,453.9844 Q643.6875,455.0469 645.0313,455.0469 Q645.6563,455.0469 646.25,454.7813 Q646.8438,454.5 647.4688,453.9219 L647.4688,456.6406 Z " fill="#000000"/><text fill="#000000" font-family="sans-serif" font-size="14" lengthAdjust="spacing" textLength="151.2041" x="658.5" y="455.8467">AuthorizationChecker</text></g><!--class MiddlewareQueueRequestHandler__class--><g id="elem_MiddlewareQueueRequestHandler__class"><rect codeLine="67" fill="#F1F1F1" height="32" id="MiddlewareQueueRequestHandler__class" rx="2.5" ry="2.5" style="stroke:#181818;stroke-width:0.5;" width="271.2578" x="298.5" y="485"/><ellipse cx="313.5" cy="501" fill="#ADD1B2" rx="11" ry="11" style="stroke:#181818;stroke-width:1;"/><path d="M316.4688,506.6406 Q315.8906,506.9375 315.25,507.0781 Q314.6094,507.2344 313.9063,507.2344 Q311.4063,507.2344 310.0781,505.5938 Q308.7656,503.9375 308.7656,500.8125 Q308.7656,497.6875 310.0781,496.0313 Q311.4063,494.375 313.9063,494.375 Q314.6094,494.375 315.25,494.5313 Q315.9063,494.6875 316.4688,494.9844 L316.4688,497.7031 Q315.8438,497.125 315.25,496.8594 Q314.6563,496.5781 314.0313,496.5781 Q312.6875,496.5781 312,497.6563 Q311.3125,498.7188 311.3125,500.8125 Q311.3125,502.9063 312,503.9844 Q312.6875,505.0469 314.0313,505.0469 Q314.6563,505.0469 315.25,504.7813 Q315.8438,504.5 316.4688,503.9219 L316.4688,506.6406 Z " fill="#000000"/><text fill="#000000" font-family="sans-serif" font-size="14" lengthAdjust="spacing" textLength="239.2578" x="327.5" y="505.8467">MiddlewareQueueRequestHandler</text></g><!--class PathVariableBindings__class--><g id="elem_PathVariableBindings__class"><rect codeLine="71" fill="#F1F1F1" height="32" id="PathVariableBindings__class" rx="2.5" ry="2.5" style="stroke:#181818;stroke-width:0.5;" width="181.3516" x="343.5" y="585"/><ellipse cx="358.5" cy="601" fill="#ADD1B2" rx="11" ry="11" style="stroke:#181818;stroke-width:1;"/><path d="M361.4688,606.6406 Q360.8906,606.9375 360.25,607.0781 Q359.6094,607.2344 358.9063,607.2344 Q356.4063,607.2344 355.0781,605.5938 Q353.7656,603.9375 353.7656,600.8125 Q353.7656,597.6875 355.0781,596.0313 Q356.4063,594.375 358.9063,594.375 Q359.6094,594.375 360.25,594.5313 Q360.9063,594.6875 361.4688,594.9844 L361.4688,597.7031 Q360.8438,597.125 360.25,596.8594 Q359.6563,596.5781 359.0313,596.5781 Q357.6875,596.5781 357,597.6563 Q356.3125,598.7188 356.3125,600.8125 Q356.3125,602.9063 357,603.9844 Q357.6875,605.0469 359.0313,605.0469 Q359.6563,605.0469 360.25,604.7813 Q360.8438,604.5 361.4688,603.9219 L361.4688,606.6406 Z " fill="#000000"/><text fill="#000000" font-family="sans-serif" font-size="14" lengthAdjust="spacing" textLength="149.3516" x="372.5" y="605.8467">PathVariableBindings</text></g><!--class Representations__class--><g id="elem_Representations__class"><rect codeLine="75" fill="#F1F1F1" height="32" id="Representations__class" rx="2.5" ry="2.5" style="stroke:#181818;stroke-width:0.5;" width="146.5566" x="360.5" y="535"/><ellipse cx="375.5" cy="551" fill="#ADD1B2" rx="11" ry="11" style="stroke:#181818;stroke-width:1;"/><path d="M378.4688,556.6406 Q377.8906,556.9375 377.25,557.0781 Q376.6094,557.2344 375.9063,557.2344 Q373.4063,557.2344 372.0781,555.5938 Q370.7656,553.9375 370.7656,550.8125 Q370.7656,547.6875 372.0781,546.0313 Q373.4063,544.375 375.9063,544.375 Q376.6094,544.375 377.25,544.5313 Q377.9063,544.6875 378.4688,544.9844 L378.4688,547.7031 Q377.8438,547.125 377.25,546.8594 Q376.6563,546.5781 376.0313,546.5781 Q374.6875,546.5781 374,547.6563 Q373.3125,548.7188 373.3125,550.8125 Q373.3125,552.9063 374,553.9844 Q374.6875,555.0469 376.0313,555.0469 Q376.6563,555.0469 377.25,554.7813 Q377.8438,554.5 378.4688,553.9219 L378.4688,556.6406 Z " fill="#000000"/><text fill="#000000" font-family="sans-serif" font-size="14" lengthAdjust="spacing" textLength="114.5566" x="389.5" y="555.8467">Representations</text></g><!--class RequestProcessingHandler__class--><g id="elem_RequestProcessingHandler__class"><rect codeLine="79" fill="#F1F1F1" height="32" id="RequestProcessingHandler__class" rx="2.5" ry="2.5" style="stroke:#181818;stroke-width:0.5;" width="219.9336" x="324" y="635"/><ellipse cx="339" cy="651" fill="#ADD1B2" rx="11" ry="11" style="stroke:#181818;stroke-width:1;"/><path d="M341.9688,656.6406 Q341.3906,656.9375 340.75,657.0781 Q340.1094,657.2344 339.4063,657.2344 Q336.9063,657.2344 335.5781,655.5938 Q334.2656,653.9375 334.2656,650.8125 Q334.2656,647.6875 335.5781,646.0313 Q336.9063,644.375 339.4063,644.375 Q340.1094,644.375 340.75,644.5313 Q341.4063,644.6875 341.9688,644.9844 L341.9688,647.7031 Q341.3438,647.125 340.75,646.8594 Q340.1563,646.5781 339.5313,646.5781 Q338.1875,646.5781 337.5,647.6563 Q336.8125,648.7188 336.8125,650.8125 Q336.8125,652.9063 337.5,653.9844 Q338.1875,655.0469 339.5313,655.0469 Q340.1563,655.0469 340.75,654.7813 Q341.3438,654.5 341.9688,653.9219 L341.9688,656.6406 Z " fill="#000000"/><text fill="#000000" font-family="sans-serif" font-size="14" lengthAdjust="spacing" textLength="187.9336" x="353" y="655.8467">RequestProcessingHandler</text></g><!--class RequestProcessorExecutorInterface__interface--><g id="elem_RequestProcessorExecutorInterface__interface"><rect codeLine="83" fill="#F1F1F1" height="32" id="RequestProcessorExecutorInterface__interface" rx="2.5" ry="2.5" style="stroke:#181818;stroke-width:0.5;" width="282.2842" x="293" y="685"/><ellipse cx="308" cy="701" fill="#B4A7E5" rx="11" ry="11" style="stroke:#181818;stroke-width:1;"/><path d="M303.9219,696.7656 L303.9219,694.6094 L311.3125,694.6094 L311.3125,696.7656 L308.8438,696.7656 L308.8438,704.8438 L311.3125,704.8438 L311.3125,707 L303.9219,707 L303.9219,704.8438 L306.3906,704.8438 L306.3906,696.7656 L303.9219,696.7656 Z " fill="#000000"/><text fill="#000000" font-family="sans-serif" font-size="14" font-style="italic" lengthAdjust="spacing" textLength="250.2842" x="322" y="705.8467">RequestProcessorExecutorInterface</text></g><!--class RequestProcessorExecutor__class--><g id="elem_RequestProcessorExecutor__class"><rect codeLine="87" fill="#F1F1F1" height="32" id="RequestProcessorExecutor__class" rx="2.5" ry="2.5" style="stroke:#181818;stroke-width:0.5;" width="219.6055" x="611" y="685"/><ellipse cx="626" cy="701" fill="#ADD1B2" rx="11" ry="11" style="stroke:#181818;stroke-width:1;"/><path d="M628.9688,706.6406 Q628.3906,706.9375 627.75,707.0781 Q627.1094,707.2344 626.4063,707.2344 Q623.9063,707.2344 622.5781,705.5938 Q621.2656,703.9375 621.2656,700.8125 Q621.2656,697.6875 622.5781,696.0313 Q623.9063,694.375 626.4063,694.375 Q627.1094,694.375 627.75,694.5313 Q628.4063,694.6875 628.9688,694.9844 L628.9688,697.7031 Q628.3438,697.125 627.75,696.8594 Q627.1563,696.5781 626.5313,696.5781 Q625.1875,696.5781 624.5,697.6563 Q623.8125,698.7188 623.8125,700.8125 Q623.8125,702.9063 624.5,703.9844 Q625.1875,705.0469 626.5313,705.0469 Q627.1563,705.0469 627.75,704.7813 Q628.3438,704.5 628.9688,703.9219 L628.9688,706.6406 Z " fill="#000000"/><text fill="#000000" font-family="sans-serif" font-size="14" lengthAdjust="spacing" textLength="187.6055" x="640" y="705.8467">RequestProcessorExecutor</text></g><!--class ResponseBuilderInterface__interface--><g id="elem_ResponseBuilderInterface__interface"><rect codeLine="91" fill="#F1F1F1" height="32" id="ResponseBuilderInterface__interface" rx="2.5" ry="2.5" style="stroke:#181818;stroke-width:0.5;" width="212.0586" x="328" y="735"/><ellipse cx="343" cy="751" fill="#B4A7E5" rx="11" ry="11" style="stroke:#181818;stroke-width:1;"/><path d="M338.9219,746.7656 L338.9219,744.6094 L346.3125,744.6094 L346.3125,746.7656 L343.8438,746.7656 L343.8438,754.8438 L346.3125,754.8438 L346.3125,757 L338.9219,757 L338.9219,754.8438 L341.3906,754.8438 L341.3906,746.7656 L338.9219,746.7656 Z " fill="#000000"/><text fill="#000000" font-family="sans-serif" font-size="14" font-style="italic" lengthAdjust="spacing" textLength="180.0586" x="357" y="755.8467">ResponseBuilderInterface</text></g><!--class ResponseBuilder__class--><g id="elem_ResponseBuilder__class"><rect codeLine="95" fill="#F1F1F1" height="32" id="ResponseBuilder__class" rx="2.5" ry="2.5" style="stroke:#181818;stroke-width:0.5;" width="149.3799" x="646.5" y="735"/><ellipse cx="661.5" cy="751" fill="#ADD1B2" rx="11" ry="11" style="stroke:#181818;stroke-width:1;"/><path d="M664.4688,756.6406 Q663.8906,756.9375 663.25,757.0781 Q662.6094,757.2344 661.9063,757.2344 Q659.4063,757.2344 658.0781,755.5938 Q656.7656,753.9375 656.7656,750.8125 Q656.7656,747.6875 658.0781,746.0313 Q659.4063,744.375 661.9063,744.375 Q662.6094,744.375 663.25,744.5313 Q663.9063,744.6875 664.4688,744.9844 L664.4688,747.7031 Q663.8438,747.125 663.25,746.8594 Q662.6563,746.5781 662.0313,746.5781 Q660.6875,746.5781 660,747.6563 Q659.3125,748.7188 659.3125,750.8125 Q659.3125,752.9063 660,753.9844 Q660.6875,755.0469 662.0313,755.0469 Q662.6563,755.0469 663.25,754.7813 Q663.8438,754.5 664.4688,753.9219 L664.4688,756.6406 Z " fill="#000000"/><text fill="#000000" font-family="sans-serif" font-size="14" lengthAdjust="spacing" textLength="117.3799" x="675.5" y="755.8467">ResponseBuilder</text></g><!--class RoutingMiddleware__class--><g id="elem_RoutingMiddleware__class"><rect codeLine="103" fill="#F1F1F1" height="32" id="RoutingMiddleware__class" rx="2.5" ry="2.5" style="stroke:#181818;stroke-width:0.5;" width="166.9482" x="350.5" y="785"/><ellipse cx="365.5" cy="801" fill="#ADD1B2" rx="11" ry="11" style="stroke:#181818;stroke-width:1;"/><path d="M368.4688,806.6406 Q367.8906,806.9375 367.25,807.0781 Q366.6094,807.2344 365.9063,807.2344 Q363.4063,807.2344 362.0781,805.5938 Q360.7656,803.9375 360.7656,800.8125 Q360.7656,797.6875 362.0781,796.0313 Q363.4063,794.375 365.9063,794.375 Q366.6094,794.375 367.25,794.5313 Q367.9063,794.6875 368.4688,794.9844 L368.4688,797.7031 Q367.8438,797.125 367.25,796.8594 Q366.6563,796.5781 366.0313,796.5781 Q364.6875,796.5781 364,797.6563 Q363.3125,798.7188 363.3125,800.8125 Q363.3125,802.9063 364,803.9844 Q364.6875,805.0469 366.0313,805.0469 Q366.6563,805.0469 367.25,804.7813 Q367.8438,804.5 368.4688,803.9219 L368.4688,806.6406 Z " fill="#000000"/><text fill="#000000" font-family="sans-serif" font-size="14" lengthAdjust="spacing" textLength="134.9482" x="379.5" y="805.8467">RoutingMiddleware</text></g><!--class ServerInterface__interface--><g id="elem_ServerInterface__interface"><rect codeLine="107" fill="#F1F1F1" height="32" id="ServerInterface__interface" rx="2.5" ry="2.5" style="stroke:#181818;stroke-width:0.5;" width="140.5889" x="363.5" y="835"/><ellipse cx="378.5" cy="851" fill="#B4A7E5" rx="11" ry="11" style="stroke:#181818;stroke-width:1;"/><path d="M374.4219,846.7656 L374.4219,844.6094 L381.8125,844.6094 L381.8125,846.7656 L379.3438,846.7656 L379.3438,854.8438 L381.8125,854.8438 L381.8125,857 L374.4219,857 L374.4219,854.8438 L376.8906,854.8438 L376.8906,846.7656 L374.4219,846.7656 Z " fill="#000000"/><text fill="#000000" font-family="sans-serif" font-size="14" font-style="italic" lengthAdjust="spacing" textLength="108.5889" x="392.5" y="855.8467">ServerInterface</text></g><!--class Server__class--><g id="elem_Server__class"><rect codeLine="111" fill="#F1F1F1" height="32" id="Server__class" rx="2.5" ry="2.5" style="stroke:#181818;stroke-width:0.5;" width="77.9102" x="682" y="835"/><ellipse cx="697" cy="851" fill="#ADD1B2" rx="11" ry="11" style="stroke:#181818;stroke-width:1;"/><path d="M699.9688,856.6406 Q699.3906,856.9375 698.75,857.0781 Q698.1094,857.2344 697.4063,857.2344 Q694.9063,857.2344 693.5781,855.5938 Q692.2656,853.9375 692.2656,850.8125 Q692.2656,847.6875 693.5781,846.0313 Q694.9063,844.375 697.4063,844.375 Q698.1094,844.375 698.75,844.5313 Q699.4063,844.6875 699.9688,844.9844 L699.9688,847.7031 Q699.3438,847.125 698.75,846.8594 Q698.1563,846.5781 697.5313,846.5781 Q696.1875,846.5781 695.5,847.6563 Q694.8125,848.7188 694.8125,850.8125 Q694.8125,852.9063 695.5,853.9844 Q696.1875,855.0469 697.5313,855.0469 Q698.1563,855.0469 698.75,854.7813 Q699.3438,854.5 699.9688,853.9219 L699.9688,856.6406 Z " fill="#000000"/><text fill="#000000" font-family="sans-serif" font-size="14" lengthAdjust="spacing" textLength="45.9102" x="711" y="855.8467">Server</text></g><!--class Target__class--><g id="elem_Target__class"><rect codeLine="115" fill="#F1F1F1" height="32" id="Target__class" rx="2.5" ry="2.5" style="stroke:#181818;stroke-width:0.5;" width="77.876" x="682" y="585"/><ellipse cx="697" cy="601" fill="#ADD1B2" rx="11" ry="11" style="stroke:#181818;stroke-width:1;"/><path d="M699.9688,606.6406 Q699.3906,606.9375 698.75,607.0781 Q698.1094,607.2344 697.4063,607.2344 Q694.9063,607.2344 693.5781,605.5938 Q692.2656,603.9375 692.2656,600.8125 Q692.2656,597.6875 693.5781,596.0313 Q694.9063,594.375 697.4063,594.375 Q698.1094,594.375 698.75,594.5313 Q699.4063,594.6875 699.9688,594.9844 L699.9688,597.7031 Q699.3438,597.125 698.75,596.8594 Q698.1563,596.5781 697.5313,596.5781 Q696.1875,596.5781 695.5,597.6563 Q694.8125,598.7188 694.8125,600.8125 Q694.8125,602.9063 695.5,603.9844 Q696.1875,605.0469 697.5313,605.0469 Q698.1563,605.0469 698.75,604.7813 Q699.3438,604.5 699.9688,603.9219 L699.9688,606.6406 Z " fill="#000000"/><text fill="#000000" font-family="sans-serif" font-size="14" lengthAdjust="spacing" textLength="45.876" x="711" y="605.8467">Target</text></g><!--class RoutableInterface__class--><g id="elem_RoutableInterface__class"><rect codeLine="19" fill="#F1F1F1" height="40.2656" id="RoutableInterface__class" rx="2.5" ry="2.5" style="stroke:#181818;stroke-width:0.5;" width="157.3027" x="63" y="102"/><ellipse cx="78" cy="122.1328" fill="#ADD1B2" rx="11" ry="11" style="stroke:#181818;stroke-width:1;"/><path d="M80.9688,127.7734 Q80.3906,128.0703 79.75,128.2109 Q79.1094,128.3672 78.4063,128.3672 Q75.9063,128.3672 74.5781,126.7266 Q73.2656,125.0703 73.2656,121.9453 Q73.2656,118.8203 74.5781,117.1641 Q75.9063,115.5078 78.4063,115.5078 Q79.1094,115.5078 79.75,115.6641 Q80.4063,115.8203 80.9688,116.1172 L80.9688,118.8359 Q80.3438,118.2578 79.75,117.9922 Q79.1563,117.7109 78.5313,117.7109 Q77.1875,117.7109 76.5,118.7891 Q75.8125,119.8516 75.8125,121.9453 Q75.8125,124.0391 76.5,125.1172 Q77.1875,126.1797 78.5313,126.1797 Q79.1563,126.1797 79.75,125.9141 Q80.3438,125.6328 80.9688,125.0547 L80.9688,127.7734 Z " fill="#000000"/><text fill="#000000" font-family="sans-serif" font-size="12" font-style="italic" lengthAdjust="spacing" textLength="64.4824" x="122.4102" y="118.1387">&#171;external&#187;</text><text fill="#000000" font-family="sans-serif" font-size="14" lengthAdjust="spacing" textLength="125.3027" x="92" y="133.9639">RoutableInterface</text></g><!--class RoutableResolverInterface__class--><g id="elem_RoutableResolverInterface__class"><rect codeLine="31" fill="#F1F1F1" height="40.2656" id="RoutableResolverInterface__class" rx="2.5" ry="2.5" style="stroke:#181818;stroke-width:0.5;" width="218.0469" x="32.5" y="160"/><ellipse cx="47.5" cy="180.1328" fill="#ADD1B2" rx="11" ry="11" style="stroke:#181818;stroke-width:1;"/><path d="M50.4688,185.7734 Q49.8906,186.0703 49.25,186.2109 Q48.6094,186.3672 47.9063,186.3672 Q45.4063,186.3672 44.0781,184.7266 Q42.7656,183.0703 42.7656,179.9453 Q42.7656,176.8203 44.0781,175.1641 Q45.4063,173.5078 47.9063,173.5078 Q48.6094,173.5078 49.25,173.6641 Q49.9063,173.8203 50.4688,174.1172 L50.4688,176.8359 Q49.8438,176.2578 49.25,175.9922 Q48.6563,175.7109 48.0313,175.7109 Q46.6875,175.7109 46,176.7891 Q45.3125,177.8516 45.3125,179.9453 Q45.3125,182.0391 46,183.1172 Q46.6875,184.1797 48.0313,184.1797 Q48.6563,184.1797 49.25,183.9141 Q49.8438,183.6328 50.4688,183.0547 L50.4688,185.7734 Z " fill="#000000"/><text fill="#000000" font-family="sans-serif" font-size="12" font-style="italic" lengthAdjust="spacing" textLength="64.4824" x="122.2822" y="176.1387">&#171;external&#187;</text><text fill="#000000" font-family="sans-serif" font-size="14" lengthAdjust="spacing" textLength="186.0469" x="61.5" y="191.9639">RoutableResolverInterface</text></g><!--class RequestHandlerInterface__class--><g id="elem_RequestHandlerInterface__class"><rect codeLine="63" fill="#F1F1F1" height="40.2656" id="RequestHandlerInterface__class" rx="2.5" ry="2.5" style="stroke:#181818;stroke-width:0.5;" width="207.3008" x="38" y="1022"/><ellipse cx="53" cy="1042.1328" fill="#ADD1B2" rx="11" ry="11" style="stroke:#181818;stroke-width:1;"/><path d="M55.9688,1047.7734 Q55.3906,1048.0703 54.75,1048.2109 Q54.1094,1048.3672 53.4063,1048.3672 Q50.9063,1048.3672 49.5781,1046.7266 Q48.2656,1045.0703 48.2656,1041.9453 Q48.2656,1038.8203 49.5781,1037.1641 Q50.9063,1035.5078 53.4063,1035.5078 Q54.1094,1035.5078 54.75,1035.6641 Q55.4063,1035.8203 55.9688,1036.1172 L55.9688,1038.8359 Q55.3438,1038.2578 54.75,1037.9922 Q54.1563,1037.7109 53.5313,1037.7109 Q52.1875,1037.7109 51.5,1038.7891 Q50.8125,1039.8516 50.8125,1041.9453 Q50.8125,1044.0391 51.5,1045.1172 Q52.1875,1046.1797 53.5313,1046.1797 Q54.1563,1046.1797 54.75,1045.9141 Q55.3438,1045.6328 55.9688,1045.0547 L55.9688,1047.7734 Z " fill="#000000"/><text fill="#000000" font-family="sans-serif" font-size="12" font-style="italic" lengthAdjust="spacing" textLength="64.4824" x="122.4092" y="1038.1387">&#171;external&#187;</text><text fill="#000000" font-family="sans-serif" font-size="14" lengthAdjust="spacing" textLength="175.3008" x="67" y="1053.9639">RequestHandlerInterface</text></g><!--class MiddlewareInterface__class--><g id="elem_MiddlewareInterface__class"><rect codeLine="99" fill="#F1F1F1" height="40.2656" id="MiddlewareInterface__class" rx="2.5" ry="2.5" style="stroke:#181818;stroke-width:0.5;" width="175.3223" x="54" y="1080"/><ellipse cx="69" cy="1100.1328" fill="#ADD1B2" rx="11" ry="11" style="stroke:#181818;stroke-width:1;"/><path d="M71.9688,1105.7734 Q71.3906,1106.0703 70.75,1106.2109 Q70.1094,1106.3672 69.4063,1106.3672 Q66.9063,1106.3672 65.5781,1104.7266 Q64.2656,1103.0703 64.2656,1099.9453 Q64.2656,1096.8203 65.5781,1095.1641 Q66.9063,1093.5078 69.4063,1093.5078 Q70.1094,1093.5078 70.75,1093.6641 Q71.4063,1093.8203 71.9688,1094.1172 L71.9688,1096.8359 Q71.3438,1096.2578 70.75,1095.9922 Q70.1563,1095.7109 69.5313,1095.7109 Q68.1875,1095.7109 67.5,1096.7891 Q66.8125,1097.8516 66.8125,1099.9453 Q66.8125,1102.0391 67.5,1103.1172 Q68.1875,1104.1797 69.5313,1104.1797 Q70.1563,1104.1797 70.75,1103.9141 Q71.3438,1103.6328 71.9688,1103.0547 L71.9688,1105.7734 Z " fill="#000000"/><text fill="#000000" font-family="sans-serif" font-size="12" font-style="italic" lengthAdjust="spacing" textLength="64.4824" x="122.4199" y="1096.1387">&#171;external&#187;</text><text fill="#000000" font-family="sans-serif" font-size="14" lengthAdjust="spacing" textLength="143.3223" x="83" y="1111.9639">MiddlewareInterface</text></g><polygon fill="transparent" points="220.3487,116.3724,238.7344,121.059,237.8692,109.0902,220.3487,116.3724" style="stroke:#516F42;stroke-width:1;"/><path d="M238.3018,115.0746 C269.8982,112.7905 289.0089,111.409 323.265,108.9327 " fill="transparent" style="stroke:#516F42;stroke-width:1;stroke-dasharray:7.0,7.0;"/><polygon fill="transparent" points="250.6715,187.8196,268.192,195.1018,269.0572,183.1331,250.6715,187.8196" style="stroke:#516F42;stroke-width:1;"/><path d="M268.6246,189.1174 C292.0153,190.8083 298.8277,191.3008 322.3133,192.9986 " fill="transparent" style="stroke:#516F42;stroke-width:1;stroke-dasharray:7.0,7.0;"/><polygon fill="transparent" points="557.1059,451,575.1059,457,575.1059,445,557.1059,451" style="stroke:#516F42;stroke-width:1;"/><path d="M575.1059,451 C599.279,451 606.2515,451 629.1632,451 " fill="transparent" style="stroke:#516F42;stroke-width:1;stroke-dasharray:7.0,7.0;"/><polygon fill="transparent" points="144.8196,1021.9474,152.9293,1004.7942,141.0155,1003.359,144.8196,1021.9474" style="stroke:#516F42;stroke-width:1;"/><path d="M146.9724,1004.0766 C157.394,917.5645 200.5895,595.4003 277,526 C283.3958,520.191 290.5796,515.433 298.2606,511.5553 " fill="transparent" style="stroke:#516F42;stroke-width:1;stroke-dasharray:7.0,7.0;"/><polygon fill="transparent" points="143.2106,1021.8082,150.1708,1004.1573,138.1882,1003.5113,143.2106,1021.8082" style="stroke:#516F42;stroke-width:1;"/><path d="M144.1795,1003.8343 C147.5513,941.2836 165.9398,767.4321 277,676 C290.4467,664.9298 306.8209,657.8132 323.8428,653.3701 " fill="transparent" style="stroke:#516F42;stroke-width:1;stroke-dasharray:7.0,7.0;"/><polygon fill="transparent" points="575.4127,701,593.4127,707,593.4127,695,575.4127,701" style="stroke:#516F42;stroke-width:1;"/><path d="M593.4127,701 C605.3557,701 599.3182,701 610.9646,701 " fill="transparent" style="stroke:#516F42;stroke-width:1;stroke-dasharray:7.0,7.0;"/><polygon fill="transparent" points="540.3138,751,558.3138,757,558.3138,745,540.3138,751" style="stroke:#516F42;stroke-width:1;"/><path d="M558.3138,751 C593.5154,751 613.9723,751 646.2435,751 " fill="transparent" style="stroke:#516F42;stroke-width:1;stroke-dasharray:7.0,7.0;"/><polygon fill="transparent" points="229.2713,1095.7997,248.2402,1096.223,244.7004,1084.757,229.2713,1095.7997" style="stroke:#516F42;stroke-width:1;"/><path d="M246.4703,1090.49 C261.7683,1085.7672 258.8289,1083.3477 269,1071 C286.317,1049.9772 258.9942,846.436 277,826 C295.2236,805.3169 323.1811,797.0204 350.4214,794.5726 " fill="transparent" style="stroke:#516F42;stroke-width:1;stroke-dasharray:7.0,7.0;"/><polygon fill="transparent" points="504.7188,851,522.7188,857,522.7188,845,504.7188,851" style="stroke:#516F42;stroke-width:1;"/><path d="M522.7188,851 C578.4188,851 636.3983,851 681.6076,851 " fill="transparent" style="stroke:#516F42;stroke-width:1;stroke-dasharray:7.0,7.0;"/><!--SRC=[nLRRRjim37ttLt3T5spOzbGKw0rhWGtescvF0GB6Oc8jigH9SjjiwBzFyIME7TcDKm_pInYIuJcync-qmKMA872bCWSs9OSI8m2mIour6apXr1ZrUAw4Cl3suxjFym_lctQC7N_WRdMc32EpZoF6ouLHcMIbypn_miuN75CbsTx1A_zzC6o2J3rokO0v2ajHr6sgBO9BSYjDe8nBL9HmHa2fTYj8APsHiP6WkGEdmF15ue1nGvwRaf4b1n9JiXfZkgDrEEUfJIPHj573JQALG3EPb0ByMNC6Y0LQ2qUdMXy1Ml2VqscXyq_XynmzXmBT-ixYJ53fLGQgjDVIaPdx7-HXTxGLoF4nq9FNIHHmSjABjn5ECvUKe3YpplWMrNcKYXkZd2yFiGgvoAxBkfKpJxMWbAIpi8LPETRIJYg3oMyuUvKo_7V9iVesJXzkoIhnG2RSZnthI7sfMEmKkWBCMNHQ3sX7PoO7S_zkIvfhOTzcR8GBqYGPoNXrBNyMYzgAVwwaGx_qvej2LaArTFy0zOBVgoL9cyDLNqR48PcbSFHPg5a1aKlJQQxUB_QLSxfqvLKpwoN1DTPvGl6oFTEz7jDf7MiuZ_QcRaDqOhyun0saOWJtuX-aRpTnxiZuFMXT0_gLaNLNA9dOkGLXssikGQ1qNpdpuH_HqBUCCcg2vZnwFJgBsSxRNuJ-V0xEu0PTyWCDNr-RCowP_nClHZna6BnH0S1RqeQiJpIV25isgw4R1oQlbp_6CLdhoMytfSlu7_knTHIQx9IvVA8uy-y-mG7lzXhdE7J1z78OUYG6vVAwqbhj1upECYxOxia86ySgP2Dw275usLucVC1PhKzMipu1_SZdTFtQuxUn1jgyrZMq0zQqX_DhvgW8tonFIpVEr1H1j-8FdP4ULWUJkaUp89UJAiJWmVuB]--></g></svg>