<?xml version="1.0" encoding="UTF-8" standalone="no"?><svg xmlns="http://www.w3.org/2000/svg" xmlns:xlink="http://www.w3.org/1999/xlink" contentScriptType="application/ecmascript" contentStyleType="text/css" height="835px" preserveAspectRatio="none" style="width:806px;height:835px;" version="1.1" viewBox="0 0 806 835" width="806px" zoomAndPan="magnify"><defs/><g><!--MD5=[a9bd0e73706187e3eb5d8e1032abf9b5]
cluster Phpolar\\Phpolar--><polygon fill="#FFFFFF" points="100,452,231,452,238,474.2969,241,474.2969,241,535,100,535,100,452" style="stroke: #000000; stroke-width: 1.5;"/><line style="stroke: #000000; stroke-width: 1.5;" x1="100" x2="238" y1="474.2969" y2="474.2969"/><text fill="#000000" font-family="sans-serif" font-size="14" font-weight="bold" lengthAdjust="spacingAndGlyphs" textLength="125" x="104" y="466.9951">Phpolar\Phpolar</text><!--MD5=[e0c85b5b635cf4e34bbeeae8c373d549]
cluster Phpolar\\Phpolar\\Auth--><polygon fill="#FFFFFF" points="374,164,547,164,554,186.2969,609,186.2969,609,448,374,448,374,164" style="stroke: #000000; stroke-width: 1.5;"/><line style="stroke: #000000; stroke-width: 1.5;" x1="374" x2="554" y1="186.2969" y2="186.2969"/><text fill="#000000" font-family="sans-serif" font-size="14" font-weight="bold" lengthAdjust="spacingAndGlyphs" textLength="167" x="378" y="178.9951">Phpolar\Phpolar\Auth</text><!--MD5=[880cdb4c5cde262a1ccfe4dc7157cb56]
cluster Phpolar\\Routable--><polygon fill="#FFFFFF" points="55.5,198,195.5,198,202.5,220.2969,284.5,220.2969,284.5,348,55.5,348,55.5,198" style="stroke: #000000; stroke-width: 1.5;"/><line style="stroke: #000000; stroke-width: 1.5;" x1="55.5" x2="202.5" y1="220.2969" y2="220.2969"/><text fill="#000000" font-family="sans-serif" font-size="14" font-weight="bold" lengthAdjust="spacingAndGlyphs" textLength="134" x="59.5" y="212.9951">Phpolar\Routable</text><!--MD5=[e3966f89724251c4729d181ae8f0dbea]
cluster Phpolar\\Phpolar\\DependencyInjection--><polygon fill="#FFFFFF" points="14,24,316,24,323,46.2969,326,46.2969,326,174,14,174,14,24" style="stroke: #000000; stroke-width: 1.5;"/><line style="stroke: #000000; stroke-width: 1.5;" x1="14" x2="323" y1="46.2969" y2="46.2969"/><text fill="#000000" font-family="sans-serif" font-size="14" font-weight="bold" lengthAdjust="spacingAndGlyphs" textLength="296" x="18" y="38.9951">Phpolar\Phpolar\DependencyInjection</text><!--MD5=[a25cb7f95ae098cb41a4e3e06983f65e]
cluster Phpolar\\Phpolar\\Http--><polygon fill="#FFFFFF" points="353.5,472,522.5,472,529.5,494.2969,784.5,494.2969,784.5,823,353.5,823,353.5,472" style="stroke: #000000; stroke-width: 1.5;"/><line style="stroke: #000000; stroke-width: 1.5;" x1="353.5" x2="529.5" y1="494.2969" y2="494.2969"/><text fill="#000000" font-family="sans-serif" font-size="14" font-weight="bold" lengthAdjust="spacingAndGlyphs" textLength="163" x="357.5" y="486.9951">Phpolar\Phpolar\Http</text><!--MD5=[8e860edd58322d7276ac762460b19afb]
cluster Psr\\Http\\Server--><polygon fill="#FFFFFF" points="59.5,673,187.5,673,194.5,695.2969,280.5,695.2969,280.5,823,59.5,823,59.5,673" style="stroke: #000000; stroke-width: 1.5;"/><line style="stroke: #000000; stroke-width: 1.5;" x1="59.5" x2="194.5" y1="695.2969" y2="695.2969"/><text fill="#000000" font-family="sans-serif" font-size="14" font-weight="bold" lengthAdjust="spacingAndGlyphs" textLength="122" x="63.5" y="687.9951">Psr\Http\Server</text><!--MD5=[e2e4065f308ecc62cd2fa5f0c629123c]
class Phpolar\\Phpolar\\App--><rect fill="#FEFECE" height="32" id="Phpolar\\Phpolar\\App" style="stroke: #A80036; stroke-width: 1.5;" width="56" x="142" y="487"/><ellipse cx="157" cy="503" fill="#ADD1B2" rx="11" ry="11" style="stroke: #A80036; stroke-width: 1.0;"/><path d="M159.9688,508.6406 Q159.3906,508.9375 158.75,509.0781 Q158.1094,509.2344 157.4063,509.2344 Q154.9063,509.2344 153.5781,507.5938 Q152.2656,505.9375 152.2656,502.8125 Q152.2656,499.6875 153.5781,498.0313 Q154.9063,496.375 157.4063,496.375 Q158.1094,496.375 158.75,496.5313 Q159.4063,496.6875 159.9688,496.9844 L159.9688,499.7031 Q159.3438,499.125 158.75,498.8594 Q158.1563,498.5781 157.5313,498.5781 Q156.1875,498.5781 155.5,499.6563 Q154.8125,500.7188 154.8125,502.8125 Q154.8125,504.9063 155.5,505.9844 Q156.1875,507.0469 157.5313,507.0469 Q158.1563,507.0469 158.75,506.7813 Q159.3438,506.5 159.9688,505.9219 L159.9688,508.6406 Z "/><text fill="#000000" font-family="sans-serif" font-size="12" lengthAdjust="spacingAndGlyphs" textLength="24" x="171" y="507.1543">App</text><!--MD5=[e79f49a5163f9634e4a79f59488e32d0]
class Phpolar\\Phpolar\\Auth\\AbstractProtectedRoutable--><rect fill="#FEFECE" height="32" id="Phpolar\\Phpolar\\Auth\\AbstractProtectedRoutable" style="stroke: #A80036; stroke-width: 1.5;" width="201" x="391" y="199"/><ellipse cx="406" cy="215" fill="#A9DCDF" rx="11" ry="11" style="stroke: #A80036; stroke-width: 1.0;"/><path d="M406.1094,210.3438 L404.9531,215.4219 L407.2813,215.4219 L406.1094,210.3438 Z M404.625,208.1094 L407.6094,208.1094 L410.9688,220.5 L408.5156,220.5 L407.75,217.4375 L404.4688,217.4375 L403.7188,220.5 L401.2813,220.5 L404.625,208.1094 Z "/><text fill="#000000" font-family="sans-serif" font-size="12" font-style="italic" lengthAdjust="spacingAndGlyphs" textLength="169" x="420" y="219.1543">AbstractProtectedRoutable</text><!--MD5=[cf2344fa4ef255d2783f9006038c65b6]
class Phpolar\\Phpolar\\Auth\\Authorize--><rect fill="#FEFECE" height="32" id="Phpolar\\Phpolar\\Auth\\Authorize" style="stroke: #A80036; stroke-width: 1.5;" width="90" x="446.5" y="266"/><ellipse cx="461.5" cy="282" fill="#ADD1B2" rx="11" ry="11" style="stroke: #A80036; stroke-width: 1.0;"/><path d="M464.4688,287.6406 Q463.8906,287.9375 463.25,288.0781 Q462.6094,288.2344 461.9063,288.2344 Q459.4063,288.2344 458.0781,286.5938 Q456.7656,284.9375 456.7656,281.8125 Q456.7656,278.6875 458.0781,277.0313 Q459.4063,275.375 461.9063,275.375 Q462.6094,275.375 463.25,275.5313 Q463.9063,275.6875 464.4688,275.9844 L464.4688,278.7031 Q463.8438,278.125 463.25,277.8594 Q462.6563,277.5781 462.0313,277.5781 Q460.6875,277.5781 460,278.6563 Q459.3125,279.7188 459.3125,281.8125 Q459.3125,283.9063 460,284.9844 Q460.6875,286.0469 462.0313,286.0469 Q462.6563,286.0469 463.25,285.7813 Q463.8438,285.5 464.4688,284.9219 L464.4688,287.6406 Z "/><text fill="#000000" font-family="sans-serif" font-size="12" lengthAdjust="spacingAndGlyphs" textLength="58" x="475.5" y="286.1543">Authorize</text><!--MD5=[c14ed554b74d6f6d20d448beebf9dbba]
class Phpolar\\Phpolar\\Auth\\ProtectedRoutableResolver--><rect fill="#FEFECE" height="32" id="Phpolar\\Phpolar\\Auth\\ProtectedRoutableResolver" style="stroke: #A80036; stroke-width: 1.5;" width="203" x="390" y="333"/><ellipse cx="405" cy="349" fill="#ADD1B2" rx="11" ry="11" style="stroke: #A80036; stroke-width: 1.0;"/><path d="M407.9688,354.6406 Q407.3906,354.9375 406.75,355.0781 Q406.1094,355.2344 405.4063,355.2344 Q402.9063,355.2344 401.5781,353.5938 Q400.2656,351.9375 400.2656,348.8125 Q400.2656,345.6875 401.5781,344.0313 Q402.9063,342.375 405.4063,342.375 Q406.1094,342.375 406.75,342.5313 Q407.4063,342.6875 407.9688,342.9844 L407.9688,345.7031 Q407.3438,345.125 406.75,344.8594 Q406.1563,344.5781 405.5313,344.5781 Q404.1875,344.5781 403.5,345.6563 Q402.8125,346.7188 402.8125,348.8125 Q402.8125,350.9063 403.5,351.9844 Q404.1875,353.0469 405.5313,353.0469 Q406.1563,353.0469 406.75,352.7813 Q407.3438,352.5 407.9688,351.9219 L407.9688,354.6406 Z "/><text fill="#000000" font-family="sans-serif" font-size="12" lengthAdjust="spacingAndGlyphs" textLength="171" x="419" y="353.1543">ProtectedRoutableResolver</text><!--MD5=[68480bbac262abbf7909ac78e6025c1b]
class Phpolar\\Phpolar\\Auth\\User--><rect fill="#FEFECE" height="32" id="Phpolar\\Phpolar\\Auth\\User" style="stroke: #A80036; stroke-width: 1.5;" width="61" x="461" y="400"/><ellipse cx="476" cy="416" fill="#ADD1B2" rx="11" ry="11" style="stroke: #A80036; stroke-width: 1.0;"/><path d="M478.9688,421.6406 Q478.3906,421.9375 477.75,422.0781 Q477.1094,422.2344 476.4063,422.2344 Q473.9063,422.2344 472.5781,420.5938 Q471.2656,418.9375 471.2656,415.8125 Q471.2656,412.6875 472.5781,411.0313 Q473.9063,409.375 476.4063,409.375 Q477.1094,409.375 477.75,409.5313 Q478.4063,409.6875 478.9688,409.9844 L478.9688,412.7031 Q478.3438,412.125 477.75,411.8594 Q477.1563,411.5781 476.5313,411.5781 Q475.1875,411.5781 474.5,412.6563 Q473.8125,413.7188 473.8125,415.8125 Q473.8125,417.9063 474.5,418.9844 Q475.1875,420.0469 476.5313,420.0469 Q477.1563,420.0469 477.75,419.7813 Q478.3438,419.5 478.9688,418.9219 L478.9688,421.6406 Z "/><text fill="#000000" font-family="sans-serif" font-size="12" lengthAdjust="spacingAndGlyphs" textLength="29" x="490" y="420.1543">User</text><!--MD5=[db3082fb7998dfe49d5b3647743306d9]
class Phpolar\\Routable\\RoutableInterface--><rect fill="#FEFECE" height="32" id="Phpolar\\Routable\\RoutableInterface" style="stroke: #A80036; stroke-width: 1.5;" width="145" x="97.5" y="233"/><ellipse cx="112.5" cy="249" fill="#B4A7E5" rx="11" ry="11" style="stroke: #A80036; stroke-width: 1.0;"/><path d="M108.4219,244.7656 L108.4219,242.6094 L115.8125,242.6094 L115.8125,244.7656 L113.3438,244.7656 L113.3438,252.8438 L115.8125,252.8438 L115.8125,255 L108.4219,255 L108.4219,252.8438 L110.8906,252.8438 L110.8906,244.7656 L108.4219,244.7656 Z "/><text fill="#000000" font-family="sans-serif" font-size="12" font-style="italic" lengthAdjust="spacingAndGlyphs" textLength="113" x="126.5" y="253.1543">RoutableInterface</text><!--MD5=[a052bd45147bb9daf94c6d5604ee0860]
class Phpolar\\Routable\\RoutableResolverInterface--><rect fill="#FEFECE" height="32" id="Phpolar\\Routable\\RoutableResolverInterface" style="stroke: #A80036; stroke-width: 1.5;" width="197" x="71.5" y="300"/><ellipse cx="86.5" cy="316" fill="#B4A7E5" rx="11" ry="11" style="stroke: #A80036; stroke-width: 1.0;"/><path d="M82.4219,311.7656 L82.4219,309.6094 L89.8125,309.6094 L89.8125,311.7656 L87.3438,311.7656 L87.3438,319.8438 L89.8125,319.8438 L89.8125,322 L82.4219,322 L82.4219,319.8438 L84.8906,319.8438 L84.8906,311.7656 L82.4219,311.7656 Z "/><text fill="#000000" font-family="sans-serif" font-size="12" font-style="italic" lengthAdjust="spacingAndGlyphs" textLength="165" x="100.5" y="320.1543">RoutableResolverInterface</text><!--MD5=[60a1bdbfbb7eeea7927805a6d6e108ea]
class Phpolar\\Phpolar\\DependencyInjection\\ContainerLoader--><rect fill="#FEFECE" height="32" id="Phpolar\\Phpolar\\DependencyInjection\\ContainerLoader" style="stroke: #A80036; stroke-width: 1.5;" width="136" x="102" y="59"/><ellipse cx="117" cy="75" fill="#ADD1B2" rx="11" ry="11" style="stroke: #A80036; stroke-width: 1.0;"/><path d="M119.9688,80.6406 Q119.3906,80.9375 118.75,81.0781 Q118.1094,81.2344 117.4063,81.2344 Q114.9063,81.2344 113.5781,79.5938 Q112.2656,77.9375 112.2656,74.8125 Q112.2656,71.6875 113.5781,70.0313 Q114.9063,68.375 117.4063,68.375 Q118.1094,68.375 118.75,68.5313 Q119.4063,68.6875 119.9688,68.9844 L119.9688,71.7031 Q119.3438,71.125 118.75,70.8594 Q118.1563,70.5781 117.5313,70.5781 Q116.1875,70.5781 115.5,71.6563 Q114.8125,72.7188 114.8125,74.8125 Q114.8125,76.9063 115.5,77.9844 Q116.1875,79.0469 117.5313,79.0469 Q118.1563,79.0469 118.75,78.7813 Q119.3438,78.5 119.9688,77.9219 L119.9688,80.6406 Z "/><text fill="#000000" font-family="sans-serif" font-size="12" lengthAdjust="spacingAndGlyphs" textLength="104" x="131" y="79.1543">ContainerLoader</text><!--MD5=[f9a134297eaffc78c1ce491dc213a3ec]
class Phpolar\\Phpolar\\DependencyInjection\\DiTokens--><rect fill="#FEFECE" height="32" id="Phpolar\\Phpolar\\DependencyInjection\\DiTokens" style="stroke: #A80036; stroke-width: 1.5;" width="89" x="125.5" y="126"/><ellipse cx="140.5" cy="142" fill="#ADD1B2" rx="11" ry="11" style="stroke: #A80036; stroke-width: 1.0;"/><path d="M143.4688,147.6406 Q142.8906,147.9375 142.25,148.0781 Q141.6094,148.2344 140.9063,148.2344 Q138.4063,148.2344 137.0781,146.5938 Q135.7656,144.9375 135.7656,141.8125 Q135.7656,138.6875 137.0781,137.0313 Q138.4063,135.375 140.9063,135.375 Q141.6094,135.375 142.25,135.5313 Q142.9063,135.6875 143.4688,135.9844 L143.4688,138.7031 Q142.8438,138.125 142.25,137.8594 Q141.6563,137.5781 141.0313,137.5781 Q139.6875,137.5781 139,138.6563 Q138.3125,139.7188 138.3125,141.8125 Q138.3125,143.9063 139,144.9844 Q139.6875,146.0469 141.0313,146.0469 Q141.6563,146.0469 142.25,145.7813 Q142.8438,145.5 143.4688,144.9219 L143.4688,147.6406 Z "/><text fill="#000000" font-family="sans-serif" font-size="12" lengthAdjust="spacingAndGlyphs" textLength="57" x="154.5" y="146.1543">DiTokens</text><!--MD5=[447cdd35395ee5766ff611ffbe714677]
class Phpolar\\Phpolar\\Http\\AuthorizationChecker--><rect fill="#FEFECE" height="32" id="Phpolar\\Phpolar\\Http\\AuthorizationChecker" style="stroke: #A80036; stroke-width: 1.5;" width="165" x="409" y="574"/><ellipse cx="424" cy="590" fill="#ADD1B2" rx="11" ry="11" style="stroke: #A80036; stroke-width: 1.0;"/><path d="M426.9688,595.6406 Q426.3906,595.9375 425.75,596.0781 Q425.1094,596.2344 424.4063,596.2344 Q421.9063,596.2344 420.5781,594.5938 Q419.2656,592.9375 419.2656,589.8125 Q419.2656,586.6875 420.5781,585.0313 Q421.9063,583.375 424.4063,583.375 Q425.1094,583.375 425.75,583.5313 Q426.4063,583.6875 426.9688,583.9844 L426.9688,586.7031 Q426.3438,586.125 425.75,585.8594 Q425.1563,585.5781 424.5313,585.5781 Q423.1875,585.5781 422.5,586.6563 Q421.8125,587.7188 421.8125,589.8125 Q421.8125,591.9063 422.5,592.9844 Q423.1875,594.0469 424.5313,594.0469 Q425.1563,594.0469 425.75,593.7813 Q426.3438,593.5 426.9688,592.9219 L426.9688,595.6406 Z "/><text fill="#000000" font-family="sans-serif" font-size="12" lengthAdjust="spacingAndGlyphs" textLength="133" x="438" y="594.1543">AuthorizationChecker</text><!--MD5=[ed56cf08601891f55ac5937bbe51b545]
class Phpolar\\Phpolar\\Http\\MiddlewareQueueRequestHandler--><rect fill="#FEFECE" height="32" id="Phpolar\\Phpolar\\Http\\MiddlewareQueueRequestHandler" style="stroke: #A80036; stroke-width: 1.5;" width="244" x="369.5" y="641"/><ellipse cx="384.5" cy="657" fill="#ADD1B2" rx="11" ry="11" style="stroke: #A80036; stroke-width: 1.0;"/><path d="M387.4688,662.6406 Q386.8906,662.9375 386.25,663.0781 Q385.6094,663.2344 384.9063,663.2344 Q382.4063,663.2344 381.0781,661.5938 Q379.7656,659.9375 379.7656,656.8125 Q379.7656,653.6875 381.0781,652.0313 Q382.4063,650.375 384.9063,650.375 Q385.6094,650.375 386.25,650.5313 Q386.9063,650.6875 387.4688,650.9844 L387.4688,653.7031 Q386.8438,653.125 386.25,652.8594 Q385.6563,652.5781 385.0313,652.5781 Q383.6875,652.5781 383,653.6563 Q382.3125,654.7188 382.3125,656.8125 Q382.3125,658.9063 383,659.9844 Q383.6875,661.0469 385.0313,661.0469 Q385.6563,661.0469 386.25,660.7813 Q386.8438,660.5 387.4688,659.9219 L387.4688,662.6406 Z "/><text fill="#000000" font-family="sans-serif" font-size="12" lengthAdjust="spacingAndGlyphs" textLength="212" x="398.5" y="661.1543">MiddlewareQueueRequestHandler</text><!--MD5=[69a4a4ec5cb5cfeb66e712f0057f5ee0]
class Phpolar\\Phpolar\\Http\\ResolvedRoute--><rect fill="#FEFECE" height="32" id="Phpolar\\Phpolar\\Http\\ResolvedRoute" style="stroke: #A80036; stroke-width: 1.5;" width="125" x="429" y="507"/><ellipse cx="444" cy="523" fill="#ADD1B2" rx="11" ry="11" style="stroke: #A80036; stroke-width: 1.0;"/><path d="M446.9688,528.6406 Q446.3906,528.9375 445.75,529.0781 Q445.1094,529.2344 444.4063,529.2344 Q441.9063,529.2344 440.5781,527.5938 Q439.2656,525.9375 439.2656,522.8125 Q439.2656,519.6875 440.5781,518.0313 Q441.9063,516.375 444.4063,516.375 Q445.1094,516.375 445.75,516.5313 Q446.4063,516.6875 446.9688,516.9844 L446.9688,519.7031 Q446.3438,519.125 445.75,518.8594 Q445.1563,518.5781 444.5313,518.5781 Q443.1875,518.5781 442.5,519.6563 Q441.8125,520.7188 441.8125,522.8125 Q441.8125,524.9063 442.5,525.9844 Q443.1875,527.0469 444.5313,527.0469 Q445.1563,527.0469 445.75,526.7813 Q446.3438,526.5 446.9688,525.9219 L446.9688,528.6406 Z "/><text fill="#000000" font-family="sans-serif" font-size="12" lengthAdjust="spacingAndGlyphs" textLength="93" x="458" y="527.1543">ResolvedRoute</text><!--MD5=[13ca6a4c90ef6a041c4ea97d33bb340d]
class Phpolar\\Phpolar\\Http\\RouteMap--><rect fill="#FEFECE" height="32" id="Phpolar\\Phpolar\\Http\\RouteMap" style="stroke: #A80036; stroke-width: 1.5;" width="95" x="673.5" y="574"/><ellipse cx="688.5" cy="590" fill="#ADD1B2" rx="11" ry="11" style="stroke: #A80036; stroke-width: 1.0;"/><path d="M691.4688,595.6406 Q690.8906,595.9375 690.25,596.0781 Q689.6094,596.2344 688.9063,596.2344 Q686.4063,596.2344 685.0781,594.5938 Q683.7656,592.9375 683.7656,589.8125 Q683.7656,586.6875 685.0781,585.0313 Q686.4063,583.375 688.9063,583.375 Q689.6094,583.375 690.25,583.5313 Q690.9063,583.6875 691.4688,583.9844 L691.4688,586.7031 Q690.8438,586.125 690.25,585.8594 Q689.6563,585.5781 689.0313,585.5781 Q687.6875,585.5781 687,586.6563 Q686.3125,587.7188 686.3125,589.8125 Q686.3125,591.9063 687,592.9844 Q687.6875,594.0469 689.0313,594.0469 Q689.6563,594.0469 690.25,593.7813 Q690.8438,593.5 691.4688,592.9219 L691.4688,595.6406 Z "/><text fill="#000000" font-family="sans-serif" font-size="12" lengthAdjust="spacingAndGlyphs" textLength="63" x="702.5" y="594.1543">RouteMap</text><!--MD5=[7be6a97fd6dc01e7aa457d41ce41952e]
class Phpolar\\Phpolar\\Http\\RoutingHandler--><rect fill="#FEFECE" height="32" id="Phpolar\\Phpolar\\Http\\RoutingHandler" style="stroke: #A80036; stroke-width: 1.5;" width="129" x="427" y="708"/><ellipse cx="442" cy="724" fill="#ADD1B2" rx="11" ry="11" style="stroke: #A80036; stroke-width: 1.0;"/><path d="M444.9688,729.6406 Q444.3906,729.9375 443.75,730.0781 Q443.1094,730.2344 442.4063,730.2344 Q439.9063,730.2344 438.5781,728.5938 Q437.2656,726.9375 437.2656,723.8125 Q437.2656,720.6875 438.5781,719.0313 Q439.9063,717.375 442.4063,717.375 Q443.1094,717.375 443.75,717.5313 Q444.4063,717.6875 444.9688,717.9844 L444.9688,720.7031 Q444.3438,720.125 443.75,719.8594 Q443.1563,719.5781 442.5313,719.5781 Q441.1875,719.5781 440.5,720.6563 Q439.8125,721.7188 439.8125,723.8125 Q439.8125,725.9063 440.5,726.9844 Q441.1875,728.0469 442.5313,728.0469 Q443.1563,728.0469 443.75,727.7813 Q444.3438,727.5 444.9688,726.9219 L444.9688,729.6406 Z "/><text fill="#000000" font-family="sans-serif" font-size="12" lengthAdjust="spacingAndGlyphs" textLength="97" x="456" y="728.1543">RoutingHandler</text><!--MD5=[5453f7951178626c6d0aa6a00871514e]
class Phpolar\\Phpolar\\Http\\RoutingMiddleware--><rect fill="#FEFECE" height="32" id="Phpolar\\Phpolar\\Http\\RoutingMiddleware" style="stroke: #A80036; stroke-width: 1.5;" width="150" x="416.5" y="775"/><ellipse cx="431.5" cy="791" fill="#ADD1B2" rx="11" ry="11" style="stroke: #A80036; stroke-width: 1.0;"/><path d="M434.4688,796.6406 Q433.8906,796.9375 433.25,797.0781 Q432.6094,797.2344 431.9063,797.2344 Q429.4063,797.2344 428.0781,795.5938 Q426.7656,793.9375 426.7656,790.8125 Q426.7656,787.6875 428.0781,786.0313 Q429.4063,784.375 431.9063,784.375 Q432.6094,784.375 433.25,784.5313 Q433.9063,784.6875 434.4688,784.9844 L434.4688,787.7031 Q433.8438,787.125 433.25,786.8594 Q432.6563,786.5781 432.0313,786.5781 Q430.6875,786.5781 430,787.6563 Q429.3125,788.7188 429.3125,790.8125 Q429.3125,792.9063 430,793.9844 Q430.6875,795.0469 432.0313,795.0469 Q432.6563,795.0469 433.25,794.7813 Q433.8438,794.5 434.4688,793.9219 L434.4688,796.6406 Z "/><text fill="#000000" font-family="sans-serif" font-size="12" lengthAdjust="spacingAndGlyphs" textLength="118" x="445.5" y="795.1543">RoutingMiddleware</text><!--MD5=[eb647d64e0e505aae508247625db42c9]
class Psr\\Http\\Server\\RequestHandlerInterface--><rect fill="#FEFECE" height="32" id="Psr\\Http\\Server\\RequestHandlerInterface" style="stroke: #A80036; stroke-width: 1.5;" width="189" x="75.5" y="708"/><ellipse cx="90.5" cy="724" fill="#B4A7E5" rx="11" ry="11" style="stroke: #A80036; stroke-width: 1.0;"/><path d="M86.4219,719.7656 L86.4219,717.6094 L93.8125,717.6094 L93.8125,719.7656 L91.3438,719.7656 L91.3438,727.8438 L93.8125,727.8438 L93.8125,730 L86.4219,730 L86.4219,727.8438 L88.8906,727.8438 L88.8906,719.7656 L86.4219,719.7656 Z "/><text fill="#000000" font-family="sans-serif" font-size="12" font-style="italic" lengthAdjust="spacingAndGlyphs" textLength="157" x="104.5" y="728.1543">RequestHandlerInterface</text><!--MD5=[c9ec0e3c1f519dc0c5f59d9d724f4fc8]
class Psr\\Http\\Server\\MiddlewareInterface--><rect fill="#FEFECE" height="32" id="Psr\\Http\\Server\\MiddlewareInterface" style="stroke: #A80036; stroke-width: 1.5;" width="160" x="90" y="775"/><ellipse cx="105" cy="791" fill="#B4A7E5" rx="11" ry="11" style="stroke: #A80036; stroke-width: 1.0;"/><path d="M100.9219,786.7656 L100.9219,784.6094 L108.3125,784.6094 L108.3125,786.7656 L105.8438,786.7656 L105.8438,794.8438 L108.3125,794.8438 L108.3125,797 L100.9219,797 L100.9219,794.8438 L103.3906,794.8438 L103.3906,786.7656 L100.9219,786.7656 Z "/><text fill="#000000" font-family="sans-serif" font-size="12" font-style="italic" lengthAdjust="spacingAndGlyphs" textLength="128" x="119" y="795.1543">MiddlewareInterface</text><!--MD5=[680a0dab75708c2a71a4f5f665a700db]
reverse link Phpolar\\Routable\\RoutableInterface to Phpolar\\Phpolar\\Auth\\AbstractProtectedRoutable--><path d="M226.5,216.78 C226.5,216.78 226.5,215 226.5,215 C226.5,215 315.97,215 390.94,215 " fill="none" id="Phpolar\\Routable\\RoutableInterface&lt;-Phpolar\\Phpolar\\Auth\\AbstractProtectedRoutable" style="stroke: #516F42; stroke-width: 1.0; stroke-dasharray: 7.0,7.0;"/><polygon fill="none" points="233.5,212.8,226.5,232.8,219.5,212.8,233.5,212.8" style="stroke: #516F42; stroke-width: 1.0;"/><!--MD5=[d5b5eae2e1d3d9a80a87b6d789b2c926]
reverse link Phpolar\\Routable\\RoutableResolverInterface to Phpolar\\Phpolar\\Auth\\ProtectedRoutableResolver--><path d="M288.61,316 C288.61,316 419.5,316 419.5,316 C419.5,316 419.5,324.51 419.5,332.89 " fill="none" id="Phpolar\\Routable\\RoutableResolverInterface&lt;-Phpolar\\Phpolar\\Auth\\ProtectedRoutableResolver" style="stroke: #516F42; stroke-width: 1.0; stroke-dasharray: 7.0,7.0;"/><polygon fill="none" points="288.61,323,268.61,316,288.61,309,288.61,323" style="stroke: #516F42; stroke-width: 1.0;"/><!--MD5=[5f784f0ba7063c24d486072889667bc7]
reverse link Psr\\Http\\Server\\RequestHandlerInterface to Phpolar\\Phpolar\\Http\\MiddlewareQueueRequestHandler--><path d="M284.78,718.67 C284.78,718.67 393.5,718.67 393.5,718.67 C393.5,718.67 393.5,691.47 393.5,673.2 " fill="none" id="Psr\\Http\\Server\\RequestHandlerInterface&lt;-Phpolar\\Phpolar\\Http\\MiddlewareQueueRequestHandler" style="stroke: #516F42; stroke-width: 1.0; stroke-dasharray: 7.0,7.0;"/><polygon fill="none" points="284.78,725.67,264.78,718.67,284.78,711.67,284.78,725.67" style="stroke: #516F42; stroke-width: 1.0;"/><!--MD5=[8007630022231e49834248fad5c319a1]
reverse link Psr\\Http\\Server\\RequestHandlerInterface to Phpolar\\Phpolar\\Http\\RoutingHandler--><path d="M284.72,729.33 C284.72,729.33 426.95,729.33 426.95,729.33 " fill="none" id="Psr\\Http\\Server\\RequestHandlerInterface&lt;-Phpolar\\Phpolar\\Http\\RoutingHandler" style="stroke: #516F42; stroke-width: 1.0; stroke-dasharray: 7.0,7.0;"/><polygon fill="none" points="284.72,736.33,264.72,729.33,284.72,722.33,284.72,736.33" style="stroke: #516F42; stroke-width: 1.0;"/><!--MD5=[a99784d97307c6a3b2964acff219c718]
reverse link Psr\\Http\\Server\\MiddlewareInterface to Phpolar\\Phpolar\\Http\\RoutingMiddleware--><path d="M270.3,791 C270.3,791 416.36,791 416.36,791 " fill="none" id="Psr\\Http\\Server\\MiddlewareInterface&lt;-Phpolar\\Phpolar\\Http\\RoutingMiddleware" style="stroke: #516F42; stroke-width: 1.0; stroke-dasharray: 7.0,7.0;"/><polygon fill="none" points="270.3,798,250.3,791,270.3,784,270.3,798" style="stroke: #516F42; stroke-width: 1.0;"/><!--MD5=[9bc72e7149e8379893f580527249b729]
link Phpolar\\Phpolar\\Http\\AuthorizationChecker to Phpolar\\Phpolar\\Http\\ResolvedRoute--><!--MD5=[3062c2a477cc1b6d22c0b43a126b4f46]
link Phpolar\\Phpolar\\Http\\AuthorizationChecker to Phpolar\\Phpolar\\Http\\RouteMap--><!--MD5=[1ca00b8ed7f241bef8d74fc87f023266]
@startuml
   skinparam ArrowColor #516f42
   skinparam activityBorderColor #516f42
   skinparam activityBackgroundColor #ffffff
   skinparam activityDiamondBorderColor #516f42
   skinparam activityDiamondBackgroundColor #ffffff
   skinparam shadowing false

skinparam shadowing false
skinparam linetype ortho
hide empty members
left to right direction
set namespaceSeparator \\


class \\Phpolar\\Phpolar\\App {
}

abstract class \\Phpolar\\Phpolar\\Auth\\AbstractProtectedRoutable implements \\Phpolar\\Routable\\RoutableInterface {
}

class \\Phpolar\\Phpolar\\Auth\\Authorize {
}

class \\Phpolar\\Phpolar\\Auth\\ProtectedRoutableResolver implements \\Phpolar\\Routable\\RoutableResolverInterface {
}

class \\Phpolar\\Phpolar\\Auth\\User {
}

class \\Phpolar\\Phpolar\\DependencyInjection\\ContainerLoader {
}

class \\Phpolar\\Phpolar\\DependencyInjection\\DiTokens {
}

class \\Phpolar\\Phpolar\\Http\\AuthorizationChecker {
}

class \\Phpolar\\Phpolar\\Http\\MiddlewareQueueRequestHandler implements \\Psr\\Http\\Server\\RequestHandlerInterface {
}

class \\Phpolar\\Phpolar\\Http\\ResolvedRoute {
}

class \\Phpolar\\Phpolar\\Http\\RouteMap {
}

class \\Phpolar\\Phpolar\\Http\\RoutingHandler implements \\Psr\\Http\\Server\\RequestHandlerInterface {
}

class \\Phpolar\\Phpolar\\Http\\RoutingMiddleware implements \\Psr\\Http\\Server\\MiddlewareInterface {
}

@enduml

PlantUML version 1.2020.02(Sun Mar 01 04:22:07 CST 2020)
(GPL source distribution)
Java Runtime: OpenJDK Runtime Environment
JVM: OpenJDK 64-Bit Server VM
Java Version: 11.0.19+7-post-Ubuntu-0ubuntu122.04.1
Operating System: Linux
Default Encoding: UTF-8
Language: en
Country: US
--></g></svg>