<svg xmlns="http://www.w3.org/2000/svg" xmlns:xlink="http://www.w3.org/1999/xlink" contentStyleType="text/css" data-diagram-type="CLASS" height="1422px" preserveAspectRatio="none" style="width:862px;height:1422px;background:#FFFFFF;" version="1.1" viewBox="0 0 862 1422" width="862px" zoomAndPan="magnify"><defs/><g><!--cluster Phpolar--><g id="cluster_Phpolar"><path d="M19,52 L81.0176,52 A3.75,3.75 0 0 1 83.5176,54.5 L90.5176,74.2969 L852.5,74.2969 A2.5,2.5 0 0 1 855,76.7969 L855,1153.5 A2.5,2.5 0 0 1 852.5,1156 L19,1156 A2.5,2.5 0 0 1 16.5,1153.5 L16.5,54.5 A2.5,2.5 0 0 1 19,52 " fill="transparent" style="stroke:#000000;stroke-width:1.5;"/><line style="stroke:#000000;stroke-width:1.5;" x1="16.5" x2="90.5176" y1="74.2969" y2="74.2969"/><text fill="#000000" font-family="sans-serif" font-size="14" font-weight="bold" lengthAdjust="spacing" textLength="61.0176" x="20.5" y="66.9951">Phpolar</text></g><!--cluster Phpolar--><g id="cluster_Phpolar"><path d="M279.5,79 L341.5176,79 A3.75,3.75 0 0 1 344.0176,81.5 L351.0176,101.2969 L844.5,101.2969 A2.5,2.5 0 0 1 847,103.7969 L847,1145.5 A2.5,2.5 0 0 1 844.5,1148 L279.5,1148 A2.5,2.5 0 0 1 277,1145.5 L277,81.5 A2.5,2.5 0 0 1 279.5,79 " fill="transparent" style="stroke:#000000;stroke-width:1.5;"/><line style="stroke:#000000;stroke-width:1.5;" x1="277" x2="351.0176" y1="101.2969" y2="101.2969"/><text fill="#000000" font-family="sans-serif" font-size="14" font-weight="bold" lengthAdjust="spacing" textLength="61.0176" x="281" y="93.9951">Phpolar</text></g><!--cluster Auth--><g id="cluster_Auth"><path d="M317,106 L355.4609,106 A3.75,3.75 0 0 1 357.9609,108.5 L364.9609,128.2969 L551,128.2969 A2.5,2.5 0 0 1 553.5,130.7969 L553.5,320.5 A2.5,2.5 0 0 1 551,323 L317,323 A2.5,2.5 0 0 1 314.5,320.5 L314.5,108.5 A2.5,2.5 0 0 1 317,106 " fill="transparent" style="stroke:#000000;stroke-width:1.5;"/><line style="stroke:#000000;stroke-width:1.5;" x1="314.5" x2="364.9609" y1="128.2969" y2="128.2969"/><text fill="#000000" font-family="sans-serif" font-size="14" font-weight="bold" lengthAdjust="spacing" textLength="37.4609" x="318.5" y="120.9951">Auth</text></g><!--cluster DependencyInjection--><g id="cluster_DependencyInjection"><path d="M354,331 L521.3525,331 A3.75,3.75 0 0 1 523.8525,333.5 L530.8525,353.2969 L762,353.2969 A2.5,2.5 0 0 1 764.5,355.7969 L764.5,445.5 A2.5,2.5 0 0 1 762,448 L354,448 A2.5,2.5 0 0 1 351.5,445.5 L351.5,333.5 A2.5,2.5 0 0 1 354,331 " fill="transparent" style="stroke:#000000;stroke-width:1.5;"/><line style="stroke:#000000;stroke-width:1.5;" x1="351.5" x2="530.8525" y1="353.2969" y2="353.2969"/><text fill="#000000" font-family="sans-serif" font-size="14" font-weight="bold" lengthAdjust="spacing" textLength="166.3525" x="355.5" y="345.9951">DependencyInjection</text></g><!--cluster Http--><g id="cluster_Http"><path d="M287.5,456 L323.623,456 A3.75,3.75 0 0 1 326.123,458.5 L333.123,478.2969 L836.5,478.2969 A2.5,2.5 0 0 1 839,480.7969 L839,1020.5 A2.5,2.5 0 0 1 836.5,1023 L287.5,1023 A2.5,2.5 0 0 1 285,1020.5 L285,458.5 A2.5,2.5 0 0 1 287.5,456 " fill="transparent" style="stroke:#000000;stroke-width:1.5;"/><line style="stroke:#000000;stroke-width:1.5;" x1="285" x2="333.123" y1="478.2969" y2="478.2969"/><text fill="#000000" font-family="sans-serif" font-size="14" font-weight="bold" lengthAdjust="spacing" textLength="35.123" x="289" y="470.9951">Http</text></g><!--cluster Serializers--><g id="cluster_Serializers"><path d="M348.5,1031 L432.707,1031 A3.75,3.75 0 0 1 435.207,1033.5 L442.207,1053.2969 L789.5,1053.2969 A2.5,2.5 0 0 1 792,1055.7969 L792,1095.5 A2.5,2.5 0 0 1 789.5,1098 L348.5,1098 A2.5,2.5 0 0 1 346,1095.5 L346,1033.5 A2.5,2.5 0 0 1 348.5,1031 " fill="transparent" style="stroke:#000000;stroke-width:1.5;"/><line style="stroke:#000000;stroke-width:1.5;" x1="346" x2="442.207" y1="1053.2969" y2="1053.2969"/><text fill="#000000" font-family="sans-serif" font-size="14" font-weight="bold" lengthAdjust="spacing" textLength="83.207" x="350" y="1045.9951">Serializers</text></g><!--cluster Routable--><g id="cluster_Routable"><path d="M27,123 L98.8203,123 A3.75,3.75 0 0 1 101.3203,125.5 L108.3203,145.2969 L256,145.2969 A2.5,2.5 0 0 1 258.5,147.7969 L258.5,253.5 A2.5,2.5 0 0 1 256,256 L27,256 A2.5,2.5 0 0 1 24.5,253.5 L24.5,125.5 A2.5,2.5 0 0 1 27,123 " fill="transparent" style="stroke:#000000;stroke-width:1.5;"/><line style="stroke:#000000;stroke-width:1.5;" x1="24.5" x2="108.3203" y1="145.2969" y2="145.2969"/><text fill="#000000" font-family="sans-serif" font-size="14" font-weight="bold" lengthAdjust="spacing" textLength="70.8203" x="28.5" y="137.9951">Routable</text></g><!--cluster Psr--><g id="cluster_Psr"><path d="M16.5,1212 L42.998,1212 A3.75,3.75 0 0 1 45.498,1214.5 L52.498,1234.2969 L266.5,1234.2969 A2.5,2.5 0 0 1 269,1236.7969 L269,1412.5 A2.5,2.5 0 0 1 266.5,1415 L16.5,1415 A2.5,2.5 0 0 1 14,1412.5 L14,1214.5 A2.5,2.5 0 0 1 16.5,1212 " fill="transparent" style="stroke:#000000;stroke-width:1.5;"/><line style="stroke:#000000;stroke-width:1.5;" x1="14" x2="52.498" y1="1234.2969" y2="1234.2969"/><text fill="#000000" font-family="sans-serif" font-size="14" font-weight="bold" lengthAdjust="spacing" textLength="25.498" x="18" y="1226.9951">Psr</text></g><!--cluster Http--><g id="cluster_Http"><path d="M24.5,1239 L60.623,1239 A3.75,3.75 0 0 1 63.123,1241.5 L70.123,1261.2969 L258.5,1261.2969 A2.5,2.5 0 0 1 261,1263.7969 L261,1404.5 A2.5,2.5 0 0 1 258.5,1407 L24.5,1407 A2.5,2.5 0 0 1 22,1404.5 L22,1241.5 A2.5,2.5 0 0 1 24.5,1239 " fill="transparent" style="stroke:#000000;stroke-width:1.5;"/><line style="stroke:#000000;stroke-width:1.5;" x1="22" x2="70.123" y1="1261.2969" y2="1261.2969"/><text fill="#000000" font-family="sans-serif" font-size="14" font-weight="bold" lengthAdjust="spacing" textLength="35.123" x="26" y="1253.9951">Http</text></g><!--cluster Server--><g id="cluster_Server"><path d="M32.5,1266 L85.5078,1266 A3.75,3.75 0 0 1 88.0078,1268.5 L95.0078,1288.2969 L250.5,1288.2969 A2.5,2.5 0 0 1 253,1290.7969 L253,1396.5 A2.5,2.5 0 0 1 250.5,1399 L32.5,1399 A2.5,2.5 0 0 1 30,1396.5 L30,1268.5 A2.5,2.5 0 0 1 32.5,1266 " fill="transparent" style="stroke:#000000;stroke-width:1.5;"/><line style="stroke:#000000;stroke-width:1.5;" x1="30" x2="95.0078" y1="1288.2969" y2="1288.2969"/><text fill="#000000" font-family="sans-serif" font-size="14" font-weight="bold" lengthAdjust="spacing" textLength="52.0078" x="34" y="1280.9951">Server</text></g><!--class Stringable__class--><g id="elem_Stringable__class"><rect codeLine="62" fill="#F1F1F1" height="40.2656" id="Stringable__class" rx="2.5" ry="2.5" style="stroke:#181818;stroke-width:0.5;" width="103.75" x="89.5" y="4"/><ellipse cx="104.5" cy="24.1328" fill="#B4A7E5" rx="11" ry="11" style="stroke:#181818;stroke-width:1;"/><path d="M100.4219,19.8984 L100.4219,17.7422 L107.8125,17.7422 L107.8125,19.8984 L105.3438,19.8984 L105.3438,27.9766 L107.8125,27.9766 L107.8125,30.1328 L100.4219,30.1328 L100.4219,27.9766 L102.8906,27.9766 L102.8906,19.8984 L100.4219,19.8984 Z " fill="#000000"/><text fill="#000000" font-family="sans-serif" font-size="12" font-style="italic" lengthAdjust="spacing" textLength="64.4824" x="122.1338" y="20.1387">&#171;external&#187;</text><text fill="#000000" font-family="sans-serif" font-size="14" font-style="italic" lengthAdjust="spacing" textLength="71.75" x="118.5" y="35.9639">Stringable</text></g><!--class RuntimeException__class--><g id="elem_RuntimeException__class"><rect codeLine="72" fill="#F1F1F1" height="40.2656" id="RuntimeException__class" rx="2.5" ry="2.5" style="stroke:#181818;stroke-width:0.5;" width="160.249" x="61.5" y="1164"/><ellipse cx="76.5" cy="1184.1328" fill="#ADD1B2" rx="11" ry="11" style="stroke:#181818;stroke-width:1;"/><path d="M79.4688,1189.7734 Q78.8906,1190.0703 78.25,1190.2109 Q77.6094,1190.3672 76.9063,1190.3672 Q74.4063,1190.3672 73.0781,1188.7266 Q71.7656,1187.0703 71.7656,1183.9453 Q71.7656,1180.8203 73.0781,1179.1641 Q74.4063,1177.5078 76.9063,1177.5078 Q77.6094,1177.5078 78.25,1177.6641 Q78.9063,1177.8203 79.4688,1178.1172 L79.4688,1180.8359 Q78.8438,1180.2578 78.25,1179.9922 Q77.6563,1179.7109 77.0313,1179.7109 Q75.6875,1179.7109 75,1180.7891 Q74.3125,1181.8516 74.3125,1183.9453 Q74.3125,1186.0391 75,1187.1172 Q75.6875,1188.1797 77.0313,1188.1797 Q77.6563,1188.1797 78.25,1187.9141 Q78.8438,1187.6328 79.4688,1187.0547 L79.4688,1189.7734 Z " fill="#000000"/><text fill="#000000" font-family="sans-serif" font-size="12" font-style="italic" lengthAdjust="spacing" textLength="64.4824" x="122.3833" y="1180.1387">&#171;external&#187;</text><text fill="#000000" font-family="sans-serif" font-size="14" lengthAdjust="spacing" textLength="128.249" x="90.5" y="1195.9639">RuntimeException</text></g><!--class App__class--><g id="elem_App__class"><rect codeLine="15" fill="#F1F1F1" height="32" id="App__class" rx="2.5" ry="2.5" style="stroke:#181818;stroke-width:0.5;" width="59.3506" x="404.5" y="1108"/><ellipse cx="419.5" cy="1124" fill="#ADD1B2" rx="11" ry="11" style="stroke:#181818;stroke-width:1;"/><path d="M422.4688,1129.6406 Q421.8906,1129.9375 421.25,1130.0781 Q420.6094,1130.2344 419.9063,1130.2344 Q417.4063,1130.2344 416.0781,1128.5938 Q414.7656,1126.9375 414.7656,1123.8125 Q414.7656,1120.6875 416.0781,1119.0313 Q417.4063,1117.375 419.9063,1117.375 Q420.6094,1117.375 421.25,1117.5313 Q421.9063,1117.6875 422.4688,1117.9844 L422.4688,1120.7031 Q421.8438,1120.125 421.25,1119.8594 Q420.6563,1119.5781 420.0313,1119.5781 Q418.6875,1119.5781 418,1120.6563 Q417.3125,1121.7188 417.3125,1123.8125 Q417.3125,1125.9063 418,1126.9844 Q418.6875,1128.0469 420.0313,1128.0469 Q420.6563,1128.0469 421.25,1127.7813 Q421.8438,1127.5 422.4688,1126.9219 L422.4688,1129.6406 Z " fill="#000000"/><text fill="#000000" font-family="sans-serif" font-size="14" lengthAdjust="spacing" textLength="27.3506" x="433.5" y="1128.8467">App</text></g><!--class AbstractProtectedRoutable__class--><g id="elem_AbstractProtectedRoutable__class"><rect codeLine="23" fill="#F1F1F1" height="32" id="AbstractProtectedRoutable__class" rx="2.5" ry="2.5" style="stroke:#181818;stroke-width:0.5;" width="220.9453" x="323.5" y="133"/><ellipse cx="338.5" cy="149" fill="#A9DCDF" rx="11" ry="11" style="stroke:#181818;stroke-width:1;"/><path d="M338.6094,144.3438 L337.4531,149.4219 L339.7813,149.4219 L338.6094,144.3438 Z M337.125,142.1094 L340.1094,142.1094 L343.4688,154.5 L341.0156,154.5 L340.25,151.4375 L336.9688,151.4375 L336.2188,154.5 L333.7813,154.5 L337.125,142.1094 Z " fill="#000000"/><text fill="#000000" font-family="sans-serif" font-size="14" font-style="italic" lengthAdjust="spacing" textLength="188.9453" x="352.5" y="153.8467">AbstractProtectedRoutable</text></g><!--class Authorize__class--><g id="elem_Authorize__class"><rect codeLine="27" fill="#F1F1F1" height="32" id="Authorize__class" rx="2.5" ry="2.5" style="stroke:#181818;stroke-width:0.5;" width="98.9854" x="384.5" y="183"/><ellipse cx="399.5" cy="199" fill="#ADD1B2" rx="11" ry="11" style="stroke:#181818;stroke-width:1;"/><path d="M402.4688,204.6406 Q401.8906,204.9375 401.25,205.0781 Q400.6094,205.2344 399.9063,205.2344 Q397.4063,205.2344 396.0781,203.5938 Q394.7656,201.9375 394.7656,198.8125 Q394.7656,195.6875 396.0781,194.0313 Q397.4063,192.375 399.9063,192.375 Q400.6094,192.375 401.25,192.5313 Q401.9063,192.6875 402.4688,192.9844 L402.4688,195.7031 Q401.8438,195.125 401.25,194.8594 Q400.6563,194.5781 400.0313,194.5781 Q398.6875,194.5781 398,195.6563 Q397.3125,196.7188 397.3125,198.8125 Q397.3125,200.9063 398,201.9844 Q398.6875,203.0469 400.0313,203.0469 Q400.6563,203.0469 401.25,202.7813 Q401.8438,202.5 402.4688,201.9219 L402.4688,204.6406 Z " fill="#000000"/><text fill="#000000" font-family="sans-serif" font-size="14" lengthAdjust="spacing" textLength="66.9854" x="413.5" y="203.8467">Authorize</text></g><!--class ProtectedRoutableResolver__class--><g id="elem_ProtectedRoutableResolver__class"><rect codeLine="35" fill="#F1F1F1" height="32" id="ProtectedRoutableResolver__class" rx="2.5" ry="2.5" style="stroke:#181818;stroke-width:0.5;" width="222.9209" x="322.5" y="233"/><ellipse cx="337.5" cy="249" fill="#ADD1B2" rx="11" ry="11" style="stroke:#181818;stroke-width:1;"/><path d="M340.4688,254.6406 Q339.8906,254.9375 339.25,255.0781 Q338.6094,255.2344 337.9063,255.2344 Q335.4063,255.2344 334.0781,253.5938 Q332.7656,251.9375 332.7656,248.8125 Q332.7656,245.6875 334.0781,244.0313 Q335.4063,242.375 337.9063,242.375 Q338.6094,242.375 339.25,242.5313 Q339.9063,242.6875 340.4688,242.9844 L340.4688,245.7031 Q339.8438,245.125 339.25,244.8594 Q338.6563,244.5781 338.0313,244.5781 Q336.6875,244.5781 336,245.6563 Q335.3125,246.7188 335.3125,248.8125 Q335.3125,250.9063 336,251.9844 Q336.6875,253.0469 338.0313,253.0469 Q338.6563,253.0469 339.25,252.7813 Q339.8438,252.5 340.4688,251.9219 L340.4688,254.6406 Z " fill="#000000"/><text fill="#000000" font-family="sans-serif" font-size="14" lengthAdjust="spacing" textLength="190.9209" x="351.5" y="253.8467">ProtectedRoutableResolver</text></g><!--class User__class--><g id="elem_User__class"><rect codeLine="39" fill="#F1F1F1" height="32" id="User__class" rx="2.5" ry="2.5" style="stroke:#181818;stroke-width:0.5;" width="63.9102" x="402" y="283"/><ellipse cx="417" cy="299" fill="#ADD1B2" rx="11" ry="11" style="stroke:#181818;stroke-width:1;"/><path d="M419.9688,304.6406 Q419.3906,304.9375 418.75,305.0781 Q418.1094,305.2344 417.4063,305.2344 Q414.9063,305.2344 413.5781,303.5938 Q412.2656,301.9375 412.2656,298.8125 Q412.2656,295.6875 413.5781,294.0313 Q414.9063,292.375 417.4063,292.375 Q418.1094,292.375 418.75,292.5313 Q419.4063,292.6875 419.9688,292.9844 L419.9688,295.7031 Q419.3438,295.125 418.75,294.8594 Q418.1563,294.5781 417.5313,294.5781 Q416.1875,294.5781 415.5,295.6563 Q414.8125,296.7188 414.8125,298.8125 Q414.8125,300.9063 415.5,301.9844 Q416.1875,303.0469 417.5313,303.0469 Q418.1563,303.0469 418.75,302.7813 Q419.3438,302.5 419.9688,301.9219 L419.9688,304.6406 Z " fill="#000000"/><text fill="#000000" font-family="sans-serif" font-size="14" lengthAdjust="spacing" textLength="31.9102" x="431" y="303.8467">User</text></g><!--class ContainerLoader__class--><g id="elem_ContainerLoader__class"><rect codeLine="43" fill="#F1F1F1" height="32" id="ContainerLoader__class" rx="2.5" ry="2.5" style="stroke:#181818;stroke-width:0.5;" width="148.6143" x="359.5" y="408"/><ellipse cx="374.5" cy="424" fill="#ADD1B2" rx="11" ry="11" style="stroke:#181818;stroke-width:1;"/><path d="M377.4688,429.6406 Q376.8906,429.9375 376.25,430.0781 Q375.6094,430.2344 374.9063,430.2344 Q372.4063,430.2344 371.0781,428.5938 Q369.7656,426.9375 369.7656,423.8125 Q369.7656,420.6875 371.0781,419.0313 Q372.4063,417.375 374.9063,417.375 Q375.6094,417.375 376.25,417.5313 Q376.9063,417.6875 377.4688,417.9844 L377.4688,420.7031 Q376.8438,420.125 376.25,419.8594 Q375.6563,419.5781 375.0313,419.5781 Q373.6875,419.5781 373,420.6563 Q372.3125,421.7188 372.3125,423.8125 Q372.3125,425.9063 373,426.9844 Q373.6875,428.0469 375.0313,428.0469 Q375.6563,428.0469 376.25,427.7813 Q376.8438,427.5 377.4688,426.9219 L377.4688,429.6406 Z " fill="#000000"/><text fill="#000000" font-family="sans-serif" font-size="14" lengthAdjust="spacing" textLength="116.6143" x="388.5" y="428.8467">ContainerLoader</text></g><!--class DiTokens__class--><g id="elem_DiTokens__class"><rect codeLine="47" fill="#F1F1F1" height="32" id="DiTokens__class" rx="2.5" ry="2.5" style="stroke:#181818;stroke-width:0.5;" width="96.6748" x="385.5" y="358"/><ellipse cx="400.5" cy="374" fill="#ADD1B2" rx="11" ry="11" style="stroke:#181818;stroke-width:1;"/><path d="M403.4688,379.6406 Q402.8906,379.9375 402.25,380.0781 Q401.6094,380.2344 400.9063,380.2344 Q398.4063,380.2344 397.0781,378.5938 Q395.7656,376.9375 395.7656,373.8125 Q395.7656,370.6875 397.0781,369.0313 Q398.4063,367.375 400.9063,367.375 Q401.6094,367.375 402.25,367.5313 Q402.9063,367.6875 403.4688,367.9844 L403.4688,370.7031 Q402.8438,370.125 402.25,369.8594 Q401.6563,369.5781 401.0313,369.5781 Q399.6875,369.5781 399,370.6563 Q398.3125,371.7188 398.3125,373.8125 Q398.3125,375.9063 399,376.9844 Q399.6875,378.0469 401.0313,378.0469 Q401.6563,378.0469 402.25,377.7813 Q402.8438,377.5 403.4688,376.9219 L403.4688,379.6406 Z " fill="#000000"/><text fill="#000000" font-family="sans-serif" font-size="14" lengthAdjust="spacing" textLength="64.6748" x="414.5" y="378.8467">DiTokens</text></g><!--class Globs__enum--><g id="elem_Globs__enum"><rect codeLine="51" fill="#F1F1F1" height="32" id="Globs__enum" rx="2.5" ry="2.5" style="stroke:#181818;stroke-width:0.5;" width="71.4844" x="685.5" y="408"/><ellipse cx="700.5" cy="424" fill="#EB937F" rx="11" ry="11" style="stroke:#181818;stroke-width:1;"/><path d="M704.6094,430 L696.8906,430 L696.8906,417.6094 L704.6094,417.6094 L704.6094,419.7656 L699.3438,419.7656 L699.3438,422.4375 L704.1094,422.4375 L704.1094,424.5938 L699.3438,424.5938 L699.3438,427.8438 L704.6094,427.8438 L704.6094,430 Z " fill="#000000"/><text fill="#000000" font-family="sans-serif" font-size="14" lengthAdjust="spacing" textLength="39.4844" x="714.5" y="428.8467">Globs</text></g><!--class AuthorizationCheckerInterface__interface--><g id="elem_AuthorizationCheckerInterface__interface"><rect codeLine="55" fill="#F1F1F1" height="32" id="AuthorizationCheckerInterface__interface" rx="2.5" ry="2.5" style="stroke:#181818;stroke-width:0.5;" width="245.8828" x="311" y="483"/><ellipse cx="326" cy="499" fill="#B4A7E5" rx="11" ry="11" style="stroke:#181818;stroke-width:1;"/><path d="M321.9219,494.7656 L321.9219,492.6094 L329.3125,492.6094 L329.3125,494.7656 L326.8438,494.7656 L326.8438,502.8438 L329.3125,502.8438 L329.3125,505 L321.9219,505 L321.9219,502.8438 L324.3906,502.8438 L324.3906,494.7656 L321.9219,494.7656 Z " fill="#000000"/><text fill="#000000" font-family="sans-serif" font-size="14" font-style="italic" lengthAdjust="spacing" textLength="213.8828" x="340" y="503.8467">AuthorizationCheckerInterface</text></g><!--class AuthorizationChecker__class--><g id="elem_AuthorizationChecker__class"><rect codeLine="59" fill="#F1F1F1" height="32" id="AuthorizationChecker__class" rx="2.5" ry="2.5" style="stroke:#181818;stroke-width:0.5;" width="183.2041" x="629.5" y="483"/><ellipse cx="644.5" cy="499" fill="#ADD1B2" rx="11" ry="11" style="stroke:#181818;stroke-width:1;"/><path d="M647.4688,504.6406 Q646.8906,504.9375 646.25,505.0781 Q645.6094,505.2344 644.9063,505.2344 Q642.4063,505.2344 641.0781,503.5938 Q639.7656,501.9375 639.7656,498.8125 Q639.7656,495.6875 641.0781,494.0313 Q642.4063,492.375 644.9063,492.375 Q645.6094,492.375 646.25,492.5313 Q646.9063,492.6875 647.4688,492.9844 L647.4688,495.7031 Q646.8438,495.125 646.25,494.8594 Q645.6563,494.5781 645.0313,494.5781 Q643.6875,494.5781 643,495.6563 Q642.3125,496.7188 642.3125,498.8125 Q642.3125,500.9063 643,501.9844 Q643.6875,503.0469 645.0313,503.0469 Q645.6563,503.0469 646.25,502.7813 Q646.8438,502.5 647.4688,501.9219 L647.4688,504.6406 Z " fill="#000000"/><text fill="#000000" font-family="sans-serif" font-size="14" lengthAdjust="spacing" textLength="151.2041" x="658.5" y="503.8467">AuthorizationChecker</text></g><!--class RepresentationInterface__interface--><g id="elem_RepresentationInterface__interface"><rect codeLine="65" fill="#F1F1F1" height="32" id="RepresentationInterface__interface" rx="2.5" ry="2.5" style="stroke:#181818;stroke-width:0.5;" width="201.9414" x="333" y="533"/><ellipse cx="348" cy="549" fill="#B4A7E5" rx="11" ry="11" style="stroke:#181818;stroke-width:1;"/><path d="M343.9219,544.7656 L343.9219,542.6094 L351.3125,542.6094 L351.3125,544.7656 L348.8438,544.7656 L348.8438,552.8438 L351.3125,552.8438 L351.3125,555 L343.9219,555 L343.9219,552.8438 L346.3906,552.8438 L346.3906,544.7656 L343.9219,544.7656 Z " fill="#000000"/><text fill="#000000" font-family="sans-serif" font-size="14" font-style="italic" lengthAdjust="spacing" textLength="169.9414" x="362" y="553.8467">RepresentationInterface</text></g><!--class HtmlRepresentation__class--><g id="elem_HtmlRepresentation__class"><rect codeLine="69" fill="#F1F1F1" height="32" id="HtmlRepresentation__class" rx="2.5" ry="2.5" style="stroke:#181818;stroke-width:0.5;" width="172.8066" x="634.5" y="583"/><ellipse cx="649.5" cy="599" fill="#ADD1B2" rx="11" ry="11" style="stroke:#181818;stroke-width:1;"/><path d="M652.4688,604.6406 Q651.8906,604.9375 651.25,605.0781 Q650.6094,605.2344 649.9063,605.2344 Q647.4063,605.2344 646.0781,603.5938 Q644.7656,601.9375 644.7656,598.8125 Q644.7656,595.6875 646.0781,594.0313 Q647.4063,592.375 649.9063,592.375 Q650.6094,592.375 651.25,592.5313 Q651.9063,592.6875 652.4688,592.9844 L652.4688,595.7031 Q651.8438,595.125 651.25,594.8594 Q650.6563,594.5781 650.0313,594.5781 Q648.6875,594.5781 648,595.6563 Q647.3125,596.7188 647.3125,598.8125 Q647.3125,600.9063 648,601.9844 Q648.6875,603.0469 650.0313,603.0469 Q650.6563,603.0469 651.25,602.7813 Q651.8438,602.5 652.4688,601.9219 L652.4688,604.6406 Z " fill="#000000"/><text fill="#000000" font-family="sans-serif" font-size="14" lengthAdjust="spacing" textLength="140.8066" x="663.5" y="603.8467">HtmlRepresentation</text></g><!--class InvalidHtmlResponseException__class--><g id="elem_InvalidHtmlResponseException__class"><rect codeLine="75" fill="#F1F1F1" height="32" id="InvalidHtmlResponseException__class" rx="2.5" ry="2.5" style="stroke:#181818;stroke-width:0.5;" width="249.0889" x="309.5" y="583"/><ellipse cx="324.5" cy="599" fill="#ADD1B2" rx="11" ry="11" style="stroke:#181818;stroke-width:1;"/><path d="M327.4688,604.6406 Q326.8906,604.9375 326.25,605.0781 Q325.6094,605.2344 324.9063,605.2344 Q322.4063,605.2344 321.0781,603.5938 Q319.7656,601.9375 319.7656,598.8125 Q319.7656,595.6875 321.0781,594.0313 Q322.4063,592.375 324.9063,592.375 Q325.6094,592.375 326.25,592.5313 Q326.9063,592.6875 327.4688,592.9844 L327.4688,595.7031 Q326.8438,595.125 326.25,594.8594 Q325.6563,594.5781 325.0313,594.5781 Q323.6875,594.5781 323,595.6563 Q322.3125,596.7188 322.3125,598.8125 Q322.3125,600.9063 323,601.9844 Q323.6875,603.0469 325.0313,603.0469 Q325.6563,603.0469 326.25,602.7813 Q326.8438,602.5 327.4688,601.9219 L327.4688,604.6406 Z " fill="#000000"/><text fill="#000000" font-family="sans-serif" font-size="14" lengthAdjust="spacing" textLength="217.0889" x="338.5" y="603.8467">InvalidHtmlResponseException</text></g><!--class JsonRepresentation__class--><g id="elem_JsonRepresentation__class"><rect codeLine="79" fill="#F1F1F1" height="32" id="JsonRepresentation__class" rx="2.5" ry="2.5" style="stroke:#181818;stroke-width:0.5;" width="168.124" x="637" y="533"/><ellipse cx="652" cy="549" fill="#ADD1B2" rx="11" ry="11" style="stroke:#181818;stroke-width:1;"/><path d="M654.9688,554.6406 Q654.3906,554.9375 653.75,555.0781 Q653.1094,555.2344 652.4063,555.2344 Q649.9063,555.2344 648.5781,553.5938 Q647.2656,551.9375 647.2656,548.8125 Q647.2656,545.6875 648.5781,544.0313 Q649.9063,542.375 652.4063,542.375 Q653.1094,542.375 653.75,542.5313 Q654.4063,542.6875 654.9688,542.9844 L654.9688,545.7031 Q654.3438,545.125 653.75,544.8594 Q653.1563,544.5781 652.5313,544.5781 Q651.1875,544.5781 650.5,545.6563 Q649.8125,546.7188 649.8125,548.8125 Q649.8125,550.9063 650.5,551.9844 Q651.1875,553.0469 652.5313,553.0469 Q653.1563,553.0469 653.75,552.7813 Q654.3438,552.5 654.9688,551.9219 L654.9688,554.6406 Z " fill="#000000"/><text fill="#000000" font-family="sans-serif" font-size="14" lengthAdjust="spacing" textLength="136.124" x="666" y="553.8467">JsonRepresentation</text></g><!--class MiddlewareQueueRequestHandler__class--><g id="elem_MiddlewareQueueRequestHandler__class"><rect codeLine="87" fill="#F1F1F1" height="32" id="MiddlewareQueueRequestHandler__class" rx="2.5" ry="2.5" style="stroke:#181818;stroke-width:0.5;" width="271.2578" x="298.5" y="783"/><ellipse cx="313.5" cy="799" fill="#ADD1B2" rx="11" ry="11" style="stroke:#181818;stroke-width:1;"/><path d="M316.4688,804.6406 Q315.8906,804.9375 315.25,805.0781 Q314.6094,805.2344 313.9063,805.2344 Q311.4063,805.2344 310.0781,803.5938 Q308.7656,801.9375 308.7656,798.8125 Q308.7656,795.6875 310.0781,794.0313 Q311.4063,792.375 313.9063,792.375 Q314.6094,792.375 315.25,792.5313 Q315.9063,792.6875 316.4688,792.9844 L316.4688,795.7031 Q315.8438,795.125 315.25,794.8594 Q314.6563,794.5781 314.0313,794.5781 Q312.6875,794.5781 312,795.6563 Q311.3125,796.7188 311.3125,798.8125 Q311.3125,800.9063 312,801.9844 Q312.6875,803.0469 314.0313,803.0469 Q314.6563,803.0469 315.25,802.7813 Q315.8438,802.5 316.4688,801.9219 L316.4688,804.6406 Z " fill="#000000"/><text fill="#000000" font-family="sans-serif" font-size="14" lengthAdjust="spacing" textLength="239.2578" x="327.5" y="803.8467">MiddlewareQueueRequestHandler</text></g><!--class PathVariableBindings__class--><g id="elem_PathVariableBindings__class"><rect codeLine="91" fill="#F1F1F1" height="32" id="PathVariableBindings__class" rx="2.5" ry="2.5" style="stroke:#181818;stroke-width:0.5;" width="181.3516" x="343.5" y="733"/><ellipse cx="358.5" cy="749" fill="#ADD1B2" rx="11" ry="11" style="stroke:#181818;stroke-width:1;"/><path d="M361.4688,754.6406 Q360.8906,754.9375 360.25,755.0781 Q359.6094,755.2344 358.9063,755.2344 Q356.4063,755.2344 355.0781,753.5938 Q353.7656,751.9375 353.7656,748.8125 Q353.7656,745.6875 355.0781,744.0313 Q356.4063,742.375 358.9063,742.375 Q359.6094,742.375 360.25,742.5313 Q360.9063,742.6875 361.4688,742.9844 L361.4688,745.7031 Q360.8438,745.125 360.25,744.8594 Q359.6563,744.5781 359.0313,744.5781 Q357.6875,744.5781 357,745.6563 Q356.3125,746.7188 356.3125,748.8125 Q356.3125,750.9063 357,751.9844 Q357.6875,753.0469 359.0313,753.0469 Q359.6563,753.0469 360.25,752.7813 Q360.8438,752.5 361.4688,751.9219 L361.4688,754.6406 Z " fill="#000000"/><text fill="#000000" font-family="sans-serif" font-size="14" lengthAdjust="spacing" textLength="149.3516" x="372.5" y="753.8467">PathVariableBindings</text></g><!--class Representations__class--><g id="elem_Representations__class"><rect codeLine="95" fill="#F1F1F1" height="32" id="Representations__class" rx="2.5" ry="2.5" style="stroke:#181818;stroke-width:0.5;" width="146.5566" x="360.5" y="683"/><ellipse cx="375.5" cy="699" fill="#ADD1B2" rx="11" ry="11" style="stroke:#181818;stroke-width:1;"/><path d="M378.4688,704.6406 Q377.8906,704.9375 377.25,705.0781 Q376.6094,705.2344 375.9063,705.2344 Q373.4063,705.2344 372.0781,703.5938 Q370.7656,701.9375 370.7656,698.8125 Q370.7656,695.6875 372.0781,694.0313 Q373.4063,692.375 375.9063,692.375 Q376.6094,692.375 377.25,692.5313 Q377.9063,692.6875 378.4688,692.9844 L378.4688,695.7031 Q377.8438,695.125 377.25,694.8594 Q376.6563,694.5781 376.0313,694.5781 Q374.6875,694.5781 374,695.6563 Q373.3125,696.7188 373.3125,698.8125 Q373.3125,700.9063 374,701.9844 Q374.6875,703.0469 376.0313,703.0469 Q376.6563,703.0469 377.25,702.7813 Q377.8438,702.5 378.4688,701.9219 L378.4688,704.6406 Z " fill="#000000"/><text fill="#000000" font-family="sans-serif" font-size="14" lengthAdjust="spacing" textLength="114.5566" x="389.5" y="703.8467">Representations</text></g><!--class RequestProcessingHandler__class--><g id="elem_RequestProcessingHandler__class"><rect codeLine="99" fill="#F1F1F1" height="32" id="RequestProcessingHandler__class" rx="2.5" ry="2.5" style="stroke:#181818;stroke-width:0.5;" width="219.9336" x="324" y="933"/><ellipse cx="339" cy="949" fill="#ADD1B2" rx="11" ry="11" style="stroke:#181818;stroke-width:1;"/><path d="M341.9688,954.6406 Q341.3906,954.9375 340.75,955.0781 Q340.1094,955.2344 339.4063,955.2344 Q336.9063,955.2344 335.5781,953.5938 Q334.2656,951.9375 334.2656,948.8125 Q334.2656,945.6875 335.5781,944.0313 Q336.9063,942.375 339.4063,942.375 Q340.1094,942.375 340.75,942.5313 Q341.4063,942.6875 341.9688,942.9844 L341.9688,945.7031 Q341.3438,945.125 340.75,944.8594 Q340.1563,944.5781 339.5313,944.5781 Q338.1875,944.5781 337.5,945.6563 Q336.8125,946.7188 336.8125,948.8125 Q336.8125,950.9063 337.5,951.9844 Q338.1875,953.0469 339.5313,953.0469 Q340.1563,953.0469 340.75,952.7813 Q341.3438,952.5 341.9688,951.9219 L341.9688,954.6406 Z " fill="#000000"/><text fill="#000000" font-family="sans-serif" font-size="14" lengthAdjust="spacing" textLength="187.9336" x="353" y="953.8467">RequestProcessingHandler</text></g><!--class RequestProcessorExecutorInterface__interface--><g id="elem_RequestProcessorExecutorInterface__interface"><rect codeLine="103" fill="#F1F1F1" height="32" id="RequestProcessorExecutorInterface__interface" rx="2.5" ry="2.5" style="stroke:#181818;stroke-width:0.5;" width="282.2842" x="293" y="833"/><ellipse cx="308" cy="849" fill="#B4A7E5" rx="11" ry="11" style="stroke:#181818;stroke-width:1;"/><path d="M303.9219,844.7656 L303.9219,842.6094 L311.3125,842.6094 L311.3125,844.7656 L308.8438,844.7656 L308.8438,852.8438 L311.3125,852.8438 L311.3125,855 L303.9219,855 L303.9219,852.8438 L306.3906,852.8438 L306.3906,844.7656 L303.9219,844.7656 Z " fill="#000000"/><text fill="#000000" font-family="sans-serif" font-size="14" font-style="italic" lengthAdjust="spacing" textLength="250.2842" x="322" y="853.8467">RequestProcessorExecutorInterface</text></g><!--class RequestProcessorExecutor__class--><g id="elem_RequestProcessorExecutor__class"><rect codeLine="107" fill="#F1F1F1" height="32" id="RequestProcessorExecutor__class" rx="2.5" ry="2.5" style="stroke:#181818;stroke-width:0.5;" width="219.6055" x="611" y="833"/><ellipse cx="626" cy="849" fill="#ADD1B2" rx="11" ry="11" style="stroke:#181818;stroke-width:1;"/><path d="M628.9688,854.6406 Q628.3906,854.9375 627.75,855.0781 Q627.1094,855.2344 626.4063,855.2344 Q623.9063,855.2344 622.5781,853.5938 Q621.2656,851.9375 621.2656,848.8125 Q621.2656,845.6875 622.5781,844.0313 Q623.9063,842.375 626.4063,842.375 Q627.1094,842.375 627.75,842.5313 Q628.4063,842.6875 628.9688,842.9844 L628.9688,845.7031 Q628.3438,845.125 627.75,844.8594 Q627.1563,844.5781 626.5313,844.5781 Q625.1875,844.5781 624.5,845.6563 Q623.8125,846.7188 623.8125,848.8125 Q623.8125,850.9063 624.5,851.9844 Q625.1875,853.0469 626.5313,853.0469 Q627.1563,853.0469 627.75,852.7813 Q628.3438,852.5 628.9688,851.9219 L628.9688,854.6406 Z " fill="#000000"/><text fill="#000000" font-family="sans-serif" font-size="14" lengthAdjust="spacing" textLength="187.6055" x="640" y="853.8467">RequestProcessorExecutor</text></g><!--class ResponseBuilderInterface__interface--><g id="elem_ResponseBuilderInterface__interface"><rect codeLine="111" fill="#F1F1F1" height="32" id="ResponseBuilderInterface__interface" rx="2.5" ry="2.5" style="stroke:#181818;stroke-width:0.5;" width="212.0586" x="328" y="883"/><ellipse cx="343" cy="899" fill="#B4A7E5" rx="11" ry="11" style="stroke:#181818;stroke-width:1;"/><path d="M338.9219,894.7656 L338.9219,892.6094 L346.3125,892.6094 L346.3125,894.7656 L343.8438,894.7656 L343.8438,902.8438 L346.3125,902.8438 L346.3125,905 L338.9219,905 L338.9219,902.8438 L341.3906,902.8438 L341.3906,894.7656 L338.9219,894.7656 Z " fill="#000000"/><text fill="#000000" font-family="sans-serif" font-size="14" font-style="italic" lengthAdjust="spacing" textLength="180.0586" x="357" y="903.8467">ResponseBuilderInterface</text></g><!--class ResponseBuilder__class--><g id="elem_ResponseBuilder__class"><rect codeLine="115" fill="#F1F1F1" height="32" id="ResponseBuilder__class" rx="2.5" ry="2.5" style="stroke:#181818;stroke-width:0.5;" width="149.3799" x="646.5" y="883"/><ellipse cx="661.5" cy="899" fill="#ADD1B2" rx="11" ry="11" style="stroke:#181818;stroke-width:1;"/><path d="M664.4688,904.6406 Q663.8906,904.9375 663.25,905.0781 Q662.6094,905.2344 661.9063,905.2344 Q659.4063,905.2344 658.0781,903.5938 Q656.7656,901.9375 656.7656,898.8125 Q656.7656,895.6875 658.0781,894.0313 Q659.4063,892.375 661.9063,892.375 Q662.6094,892.375 663.25,892.5313 Q663.9063,892.6875 664.4688,892.9844 L664.4688,895.7031 Q663.8438,895.125 663.25,894.8594 Q662.6563,894.5781 662.0313,894.5781 Q660.6875,894.5781 660,895.6563 Q659.3125,896.7188 659.3125,898.8125 Q659.3125,900.9063 660,901.9844 Q660.6875,903.0469 662.0313,903.0469 Q662.6563,903.0469 663.25,902.7813 Q663.8438,902.5 664.4688,901.9219 L664.4688,904.6406 Z " fill="#000000"/><text fill="#000000" font-family="sans-serif" font-size="14" lengthAdjust="spacing" textLength="117.3799" x="675.5" y="903.8467">ResponseBuilder</text></g><!--class RoutingMiddleware__class--><g id="elem_RoutingMiddleware__class"><rect codeLine="123" fill="#F1F1F1" height="32" id="RoutingMiddleware__class" rx="2.5" ry="2.5" style="stroke:#181818;stroke-width:0.5;" width="166.9482" x="350.5" y="633"/><ellipse cx="365.5" cy="649" fill="#ADD1B2" rx="11" ry="11" style="stroke:#181818;stroke-width:1;"/><path d="M368.4688,654.6406 Q367.8906,654.9375 367.25,655.0781 Q366.6094,655.2344 365.9063,655.2344 Q363.4063,655.2344 362.0781,653.5938 Q360.7656,651.9375 360.7656,648.8125 Q360.7656,645.6875 362.0781,644.0313 Q363.4063,642.375 365.9063,642.375 Q366.6094,642.375 367.25,642.5313 Q367.9063,642.6875 368.4688,642.9844 L368.4688,645.7031 Q367.8438,645.125 367.25,644.8594 Q366.6563,644.5781 366.0313,644.5781 Q364.6875,644.5781 364,645.6563 Q363.3125,646.7188 363.3125,648.8125 Q363.3125,650.9063 364,651.9844 Q364.6875,653.0469 366.0313,653.0469 Q366.6563,653.0469 367.25,652.7813 Q367.8438,652.5 368.4688,651.9219 L368.4688,654.6406 Z " fill="#000000"/><text fill="#000000" font-family="sans-serif" font-size="14" lengthAdjust="spacing" textLength="134.9482" x="379.5" y="653.8467">RoutingMiddleware</text></g><!--class ServerInterface__interface--><g id="elem_ServerInterface__interface"><rect codeLine="127" fill="#F1F1F1" height="32" id="ServerInterface__interface" rx="2.5" ry="2.5" style="stroke:#181818;stroke-width:0.5;" width="140.5889" x="363.5" y="983"/><ellipse cx="378.5" cy="999" fill="#B4A7E5" rx="11" ry="11" style="stroke:#181818;stroke-width:1;"/><path d="M374.4219,994.7656 L374.4219,992.6094 L381.8125,992.6094 L381.8125,994.7656 L379.3438,994.7656 L379.3438,1002.8438 L381.8125,1002.8438 L381.8125,1005 L374.4219,1005 L374.4219,1002.8438 L376.8906,1002.8438 L376.8906,994.7656 L374.4219,994.7656 Z " fill="#000000"/><text fill="#000000" font-family="sans-serif" font-size="14" font-style="italic" lengthAdjust="spacing" textLength="108.5889" x="392.5" y="1003.8467">ServerInterface</text></g><!--class Server__class--><g id="elem_Server__class"><rect codeLine="131" fill="#F1F1F1" height="32" id="Server__class" rx="2.5" ry="2.5" style="stroke:#181818;stroke-width:0.5;" width="77.9102" x="682" y="983"/><ellipse cx="697" cy="999" fill="#ADD1B2" rx="11" ry="11" style="stroke:#181818;stroke-width:1;"/><path d="M699.9688,1004.6406 Q699.3906,1004.9375 698.75,1005.0781 Q698.1094,1005.2344 697.4063,1005.2344 Q694.9063,1005.2344 693.5781,1003.5938 Q692.2656,1001.9375 692.2656,998.8125 Q692.2656,995.6875 693.5781,994.0313 Q694.9063,992.375 697.4063,992.375 Q698.1094,992.375 698.75,992.5313 Q699.4063,992.6875 699.9688,992.9844 L699.9688,995.7031 Q699.3438,995.125 698.75,994.8594 Q698.1563,994.5781 697.5313,994.5781 Q696.1875,994.5781 695.5,995.6563 Q694.8125,996.7188 694.8125,998.8125 Q694.8125,1000.9063 695.5,1001.9844 Q696.1875,1003.0469 697.5313,1003.0469 Q698.1563,1003.0469 698.75,1002.7813 Q699.3438,1002.5 699.9688,1001.9219 L699.9688,1004.6406 Z " fill="#000000"/><text fill="#000000" font-family="sans-serif" font-size="14" lengthAdjust="spacing" textLength="45.9102" x="711" y="1003.8467">Server</text></g><!--class Target__class--><g id="elem_Target__class"><rect codeLine="135" fill="#F1F1F1" height="32" id="Target__class" rx="2.5" ry="2.5" style="stroke:#181818;stroke-width:0.5;" width="77.876" x="682" y="733"/><ellipse cx="697" cy="749" fill="#ADD1B2" rx="11" ry="11" style="stroke:#181818;stroke-width:1;"/><path d="M699.9688,754.6406 Q699.3906,754.9375 698.75,755.0781 Q698.1094,755.2344 697.4063,755.2344 Q694.9063,755.2344 693.5781,753.5938 Q692.2656,751.9375 692.2656,748.8125 Q692.2656,745.6875 693.5781,744.0313 Q694.9063,742.375 697.4063,742.375 Q698.1094,742.375 698.75,742.5313 Q699.4063,742.6875 699.9688,742.9844 L699.9688,745.7031 Q699.3438,745.125 698.75,744.8594 Q698.1563,744.5781 697.5313,744.5781 Q696.1875,744.5781 695.5,745.6563 Q694.8125,746.7188 694.8125,748.8125 Q694.8125,750.9063 695.5,751.9844 Q696.1875,753.0469 697.5313,753.0469 Q698.1563,753.0469 698.75,752.7813 Q699.3438,752.5 699.9688,751.9219 L699.9688,754.6406 Z " fill="#000000"/><text fill="#000000" font-family="sans-serif" font-size="14" lengthAdjust="spacing" textLength="45.876" x="711" y="753.8467">Target</text></g><!--class SerializerInterface__interface--><g id="elem_SerializerInterface__interface"><rect codeLine="139" fill="#F1F1F1" height="32" id="SerializerInterface__interface" rx="2.5" ry="2.5" style="stroke:#181818;stroke-width:0.5;" width="159.9004" x="354" y="1058"/><ellipse cx="369" cy="1074" fill="#B4A7E5" rx="11" ry="11" style="stroke:#181818;stroke-width:1;"/><path d="M364.9219,1069.7656 L364.9219,1067.6094 L372.3125,1067.6094 L372.3125,1069.7656 L369.8438,1069.7656 L369.8438,1077.8438 L372.3125,1077.8438 L372.3125,1080 L364.9219,1080 L364.9219,1077.8438 L367.3906,1077.8438 L367.3906,1069.7656 L364.9219,1069.7656 Z " fill="#000000"/><text fill="#000000" font-family="sans-serif" font-size="14" font-style="italic" lengthAdjust="spacing" textLength="127.9004" x="383" y="1078.8467">SerializerInterface</text></g><!--class JsonSerializer__class--><g id="elem_JsonSerializer__class"><rect codeLine="143" fill="#F1F1F1" height="32" id="JsonSerializer__class" rx="2.5" ry="2.5" style="stroke:#181818;stroke-width:0.5;" width="126.083" x="658" y="1058"/><ellipse cx="673" cy="1074" fill="#ADD1B2" rx="11" ry="11" style="stroke:#181818;stroke-width:1;"/><path d="M675.9688,1079.6406 Q675.3906,1079.9375 674.75,1080.0781 Q674.1094,1080.2344 673.4063,1080.2344 Q670.9063,1080.2344 669.5781,1078.5938 Q668.2656,1076.9375 668.2656,1073.8125 Q668.2656,1070.6875 669.5781,1069.0313 Q670.9063,1067.375 673.4063,1067.375 Q674.1094,1067.375 674.75,1067.5313 Q675.4063,1067.6875 675.9688,1067.9844 L675.9688,1070.7031 Q675.3438,1070.125 674.75,1069.8594 Q674.1563,1069.5781 673.5313,1069.5781 Q672.1875,1069.5781 671.5,1070.6563 Q670.8125,1071.7188 670.8125,1073.8125 Q670.8125,1075.9063 671.5,1076.9844 Q672.1875,1078.0469 673.5313,1078.0469 Q674.1563,1078.0469 674.75,1077.7813 Q675.3438,1077.5 675.9688,1076.9219 L675.9688,1079.6406 Z " fill="#000000"/><text fill="#000000" font-family="sans-serif" font-size="14" lengthAdjust="spacing" textLength="94.083" x="687" y="1078.8467">JsonSerializer</text></g><!--class RoutableInterface__class--><g id="elem_RoutableInterface__class"><rect codeLine="19" fill="#F1F1F1" height="40.2656" id="RoutableInterface__class" rx="2.5" ry="2.5" style="stroke:#181818;stroke-width:0.5;" width="157.3027" x="63" y="150"/><ellipse cx="78" cy="170.1328" fill="#ADD1B2" rx="11" ry="11" style="stroke:#181818;stroke-width:1;"/><path d="M80.9688,175.7734 Q80.3906,176.0703 79.75,176.2109 Q79.1094,176.3672 78.4063,176.3672 Q75.9063,176.3672 74.5781,174.7266 Q73.2656,173.0703 73.2656,169.9453 Q73.2656,166.8203 74.5781,165.1641 Q75.9063,163.5078 78.4063,163.5078 Q79.1094,163.5078 79.75,163.6641 Q80.4063,163.8203 80.9688,164.1172 L80.9688,166.8359 Q80.3438,166.2578 79.75,165.9922 Q79.1563,165.7109 78.5313,165.7109 Q77.1875,165.7109 76.5,166.7891 Q75.8125,167.8516 75.8125,169.9453 Q75.8125,172.0391 76.5,173.1172 Q77.1875,174.1797 78.5313,174.1797 Q79.1563,174.1797 79.75,173.9141 Q80.3438,173.6328 80.9688,173.0547 L80.9688,175.7734 Z " fill="#000000"/><text fill="#000000" font-family="sans-serif" font-size="12" font-style="italic" lengthAdjust="spacing" textLength="64.4824" x="122.4102" y="166.1387">&#171;external&#187;</text><text fill="#000000" font-family="sans-serif" font-size="14" lengthAdjust="spacing" textLength="125.3027" x="92" y="181.9639">RoutableInterface</text></g><!--class RoutableResolverInterface__class--><g id="elem_RoutableResolverInterface__class"><rect codeLine="31" fill="#F1F1F1" height="40.2656" id="RoutableResolverInterface__class" rx="2.5" ry="2.5" style="stroke:#181818;stroke-width:0.5;" width="218.0469" x="32.5" y="208"/><ellipse cx="47.5" cy="228.1328" fill="#ADD1B2" rx="11" ry="11" style="stroke:#181818;stroke-width:1;"/><path d="M50.4688,233.7734 Q49.8906,234.0703 49.25,234.2109 Q48.6094,234.3672 47.9063,234.3672 Q45.4063,234.3672 44.0781,232.7266 Q42.7656,231.0703 42.7656,227.9453 Q42.7656,224.8203 44.0781,223.1641 Q45.4063,221.5078 47.9063,221.5078 Q48.6094,221.5078 49.25,221.6641 Q49.9063,221.8203 50.4688,222.1172 L50.4688,224.8359 Q49.8438,224.2578 49.25,223.9922 Q48.6563,223.7109 48.0313,223.7109 Q46.6875,223.7109 46,224.7891 Q45.3125,225.8516 45.3125,227.9453 Q45.3125,230.0391 46,231.1172 Q46.6875,232.1797 48.0313,232.1797 Q48.6563,232.1797 49.25,231.9141 Q49.8438,231.6328 50.4688,231.0547 L50.4688,233.7734 Z " fill="#000000"/><text fill="#000000" font-family="sans-serif" font-size="12" font-style="italic" lengthAdjust="spacing" textLength="64.4824" x="122.2822" y="224.1387">&#171;external&#187;</text><text fill="#000000" font-family="sans-serif" font-size="14" lengthAdjust="spacing" textLength="186.0469" x="61.5" y="239.9639">RoutableResolverInterface</text></g><!--class RequestHandlerInterface__class--><g id="elem_RequestHandlerInterface__class"><rect codeLine="83" fill="#F1F1F1" height="40.2656" id="RequestHandlerInterface__class" rx="2.5" ry="2.5" style="stroke:#181818;stroke-width:0.5;" width="207.3008" x="38" y="1351"/><ellipse cx="53" cy="1371.1328" fill="#ADD1B2" rx="11" ry="11" style="stroke:#181818;stroke-width:1;"/><path d="M55.9688,1376.7734 Q55.3906,1377.0703 54.75,1377.2109 Q54.1094,1377.3672 53.4063,1377.3672 Q50.9063,1377.3672 49.5781,1375.7266 Q48.2656,1374.0703 48.2656,1370.9453 Q48.2656,1367.8203 49.5781,1366.1641 Q50.9063,1364.5078 53.4063,1364.5078 Q54.1094,1364.5078 54.75,1364.6641 Q55.4063,1364.8203 55.9688,1365.1172 L55.9688,1367.8359 Q55.3438,1367.2578 54.75,1366.9922 Q54.1563,1366.7109 53.5313,1366.7109 Q52.1875,1366.7109 51.5,1367.7891 Q50.8125,1368.8516 50.8125,1370.9453 Q50.8125,1373.0391 51.5,1374.1172 Q52.1875,1375.1797 53.5313,1375.1797 Q54.1563,1375.1797 54.75,1374.9141 Q55.3438,1374.6328 55.9688,1374.0547 L55.9688,1376.7734 Z " fill="#000000"/><text fill="#000000" font-family="sans-serif" font-size="12" font-style="italic" lengthAdjust="spacing" textLength="64.4824" x="122.4092" y="1367.1387">&#171;external&#187;</text><text fill="#000000" font-family="sans-serif" font-size="14" lengthAdjust="spacing" textLength="175.3008" x="67" y="1382.9639">RequestHandlerInterface</text></g><!--class MiddlewareInterface__class--><g id="elem_MiddlewareInterface__class"><rect codeLine="119" fill="#F1F1F1" height="40.2656" id="MiddlewareInterface__class" rx="2.5" ry="2.5" style="stroke:#181818;stroke-width:0.5;" width="175.3223" x="54" y="1293"/><ellipse cx="69" cy="1313.1328" fill="#ADD1B2" rx="11" ry="11" style="stroke:#181818;stroke-width:1;"/><path d="M71.9688,1318.7734 Q71.3906,1319.0703 70.75,1319.2109 Q70.1094,1319.3672 69.4063,1319.3672 Q66.9063,1319.3672 65.5781,1317.7266 Q64.2656,1316.0703 64.2656,1312.9453 Q64.2656,1309.8203 65.5781,1308.1641 Q66.9063,1306.5078 69.4063,1306.5078 Q70.1094,1306.5078 70.75,1306.6641 Q71.4063,1306.8203 71.9688,1307.1172 L71.9688,1309.8359 Q71.3438,1309.2578 70.75,1308.9922 Q70.1563,1308.7109 69.5313,1308.7109 Q68.1875,1308.7109 67.5,1309.7891 Q66.8125,1310.8516 66.8125,1312.9453 Q66.8125,1315.0391 67.5,1316.1172 Q68.1875,1317.1797 69.5313,1317.1797 Q70.1563,1317.1797 70.75,1316.9141 Q71.3438,1316.6328 71.9688,1316.0547 L71.9688,1318.7734 Z " fill="#000000"/><text fill="#000000" font-family="sans-serif" font-size="12" font-style="italic" lengthAdjust="spacing" textLength="64.4824" x="122.4199" y="1309.1387">&#171;external&#187;</text><text fill="#000000" font-family="sans-serif" font-size="14" lengthAdjust="spacing" textLength="143.3223" x="83" y="1324.9639">MiddlewareInterface</text></g><polygon fill="transparent" points="220.3487,164.3724,238.7344,169.059,237.8692,157.0902,220.3487,164.3724" style="stroke:#516F42;stroke-width:1;"/><path d="M238.3018,163.0746 C269.8982,160.7905 289.0089,159.409 323.265,156.9327 " fill="transparent" style="stroke:#516F42;stroke-width:1;stroke-dasharray:7.0,7.0;"/><polygon fill="transparent" points="250.6715,235.8196,268.192,243.1018,269.0572,231.1331,250.6715,235.8196" style="stroke:#516F42;stroke-width:1;"/><path d="M268.6246,237.1174 C292.0153,238.8083 298.8277,239.3008 322.3133,240.9986 " fill="transparent" style="stroke:#516F42;stroke-width:1;stroke-dasharray:7.0,7.0;"/><polygon fill="transparent" points="557.1059,499,575.1059,505,575.1059,493,557.1059,499" style="stroke:#516F42;stroke-width:1;"/><path d="M575.1059,499 C599.279,499 606.2515,499 629.1632,499 " fill="transparent" style="stroke:#516F42;stroke-width:1;stroke-dasharray:7.0,7.0;"/><polygon fill="transparent" points="186.7141,44.0981,199.6553,57.9734,205.3923,47.4337,186.7141,44.0981" style="stroke:#516F42;stroke-width:1;"/><path d="M202.5238,52.7036 C231.612,68.5368 251.6012,85.0184 269,119 C279.2562,139.0314 262.2318,507.0192 277,524 C291.2199,540.3503 311.5193,548.9902 332.792,553.1213 " fill="transparent" style="stroke:#516F42;stroke-width:1;"/><polygon fill="transparent" points="526.3518,565.0266,543.0442,574.0468,545.1178,562.2273,526.3518,565.0266" style="stroke:#516F42;stroke-width:1;"/><path d="M544.081,568.137 C578.7606,574.2212 600.371,578.0125 634.4914,583.9985 " fill="transparent" style="stroke:#516F42;stroke-width:1;stroke-dasharray:7.0,7.0;"/><polygon fill="transparent" points="144.3975,1163.8102,152.1345,1146.4857,140.1924,1145.3084,144.3975,1163.8102" style="stroke:#516F42;stroke-width:1;"/><path d="M146.1635,1145.897 C155.1552,1054.6886 194.7406,700.1719 277,624 C286.3584,615.3342 297.464,608.9916 309.3733,604.4143 " fill="transparent" style="stroke:#516F42;stroke-width:1;"/><polygon fill="transparent" points="535.0796,549,553.0796,555,553.0796,543,535.0796,549" style="stroke:#516F42;stroke-width:1;"/><path d="M553.0796,549 C586.2804,549 604.8616,549 636.6629,549 " fill="transparent" style="stroke:#516F42;stroke-width:1;stroke-dasharray:7.0,7.0;"/><polygon fill="transparent" points="245.0511,1360.736,263.8343,1358.0542,258.4686,1347.3206,245.0511,1360.736" style="stroke:#516F42;stroke-width:1;"/><path d="M261.1514,1352.6874 C270.3179,1348.1051 262.4793,1350.0563 269,1342 C287.1073,1319.6285 258.1595,845.7576 277,824 C283.1048,816.95 290.3397,811.3317 298.2969,806.8891 " fill="transparent" style="stroke:#516F42;stroke-width:1;stroke-dasharray:7.0,7.0;"/><polygon fill="transparent" points="245,1360.6945,263.7861,1358.0333,258.4322,1347.2939,245,1360.6945" style="stroke:#516F42;stroke-width:1;"/><path d="M261.1091,1352.6636 C270.2852,1348.089 262.454,1350.0357 269,1342 C281.9153,1326.1454 263.5651,989.4168 277,974 C289.2539,959.9385 306.0047,951.5832 323.9989,946.8949 " fill="transparent" style="stroke:#516F42;stroke-width:1;stroke-dasharray:7.0,7.0;"/><polygon fill="transparent" points="575.4127,849,593.4127,855,593.4127,843,575.4127,849" style="stroke:#516F42;stroke-width:1;"/><path d="M593.4127,849 C605.3557,849 599.3182,849 610.9646,849 " fill="transparent" style="stroke:#516F42;stroke-width:1;stroke-dasharray:7.0,7.0;"/><polygon fill="transparent" points="540.3138,899,558.3138,905,558.3138,893,540.3138,899" style="stroke:#516F42;stroke-width:1;"/><path d="M558.3138,899 C593.5154,899 613.9723,899 646.2435,899 " fill="transparent" style="stroke:#516F42;stroke-width:1;stroke-dasharray:7.0,7.0;"/><polygon fill="transparent" points="184.019,1292.9098,202.6332,1289.234,196.7049,1278.8007,184.019,1292.9098" style="stroke:#516F42;stroke-width:1;"/><path d="M199.6691,1284.0174 C229.2792,1267.1927 251.2245,1249.0265 269,1213 C282.2511,1186.1434 257.4027,696.6454 277,674 C295.0388,653.1556 322.9566,644.8243 350.2168,642.394 " fill="transparent" style="stroke:#516F42;stroke-width:1;stroke-dasharray:7.0,7.0;"/><polygon fill="transparent" points="504.7188,999,522.7188,1005,522.7188,993,504.7188,999" style="stroke:#516F42;stroke-width:1;"/><path d="M522.7188,999 C578.4188,999 636.3983,999 681.6076,999 " fill="transparent" style="stroke:#516F42;stroke-width:1;stroke-dasharray:7.0,7.0;"/><polygon fill="transparent" points="514.0099,1074,532.0099,1080,532.0099,1068,514.0099,1074" style="stroke:#516F42;stroke-width:1;"/><path d="M532.0099,1074 C577.312,1074 615.3751,1074 657.5705,1074 " fill="transparent" style="stroke:#516F42;stroke-width:1;stroke-dasharray:7.0,7.0;"/><!--SRC=[nLVRRjGm47tFLvZo1I3WgQhKcsWHIAKjFAsqcerdDsOTEzXEsotYtt7kDoTDibknBtLcfdFEpB77oPj8mIO4mc4dOqDqY0O4U8GGlMKY0WKXELLAFfvBBXLv-_7Tf_M7zqq_-8OzCBCxaugY6XC8_dQZP2ne7hnEV-xW2mQX57HqyY9-38OEWCf79ZPa3LoZv_MxAWzd0iqkGYAL2QGNC8e4myZiI8ZX2fNsEAuDCP8ejWaCeKoXvIQ5fz4G0I7g27oymoITiTGM2yyhpUGcY2G7jLZa2_8duKo8pq5hSdGQHKS4DB5_bylCPdzPp5_lholHhLKMLXppg3nHORqM1jNQ_aEQjcCjG8wF2JvPcm1EJau6ySh5QMo271HMsYWhKLL7RhXHqjZs82sGi-hwlBMQMHXn354OJMgOHM2rwfGocNp9sPgaOiyvn-BfC3hSefRy0PLRZuxtGBeKB3gDBW1J5htU6NBqLZAR-m-TqqmMOyKe5nSOeQ0e_Dsr-9KTr5R-SoaCs4EllagWELJBzWge5-nURb7e5AvuE20EYZWaHv-vN6KGwMgvJCtZSbyP4-MXh12pEYIGO9q7w6_RUtemOhciSatdqJwfTOXUx1StSGCfsuAZ-5VqQ_svCyhUAkMagnxxJlGS4MunKgXj7Id7raXn-ngDJmW8cZIXos-sA5Scv4tmb4_NF5MG4HLLf8kn6ml3GhnyyZ4ggRIDUqjIb7uj7e0pcfMg8obq2taee6f79KiVq_dgVD5IEDJfcbzLdHffNMQuGsKlZDQrYRzZrEOA1EMTIzFjs-VAT3Ji6wCs_ICe_1vZZ4tGbCTWH6yRstKd7HoiPtO5Ds22dw1OShhFcA3se6TtWSin-Ufn03QtWdQCemF1fFsoRoq-Qct9rqNfS_v7FHg3kyvEgiidz6FxaU3SuFrHXxb5-s06EKmV3nDgsQ-rsLmzYncdtP7XTXwgaOtiBiJfRNkPy8onMesiPdySzWEFq-Jxm9x62gZy_cbO9npJ0SxxxACiVRCzBTjXTasMj9P_wXuPO3MRr3se3PgKLBQSFB0jAsRVTPvHQMTpSsUdmMtxZ2PteUjlFvMtVFEfJEDxNmEfFxmWmpy0]--></g></svg>